<?xml version="1.0" encoding="UTF-8"?>
<svg xmlns="http://www.w3.org/2000/svg" xmlns:xlink="http://www.w3.org/1999/xlink" width="50px" height="55px" viewBox="0 0 50 54" version="1.1">
<g id="surface1">
<path style=" stroke:none;fill-rule:evenodd;fill:rgb(94.117647%,33.72549%,33.72549%);fill-opacity:1;" d="M 39.492188 35.773438 C 39.152344 36.070312 38.738281 36.222656 38.28125 36.183594 C 38.472656 36.746094 38.320312 37.382812 37.902344 37.796875 C 37.488281 38.207031 36.84375 38.359375 36.273438 38.132812 C 36.238281 38.582031 35.933594 38.996094 35.519531 39.183594 C 35.0625 39.371094 34.535156 39.296875 34.15625 38.996094 C 33.964844 39.40625 33.511719 39.671875 33.058594 39.632812 C 33.058594 39.894531 32.980469 40.121094 32.828125 40.34375 C 32.335938 41.433594 31.085938 41.957031 29.953125 41.507812 C 29.988281 42.519531 29.195312 43.382812 28.132812 43.417969 C 27.640625 43.417969 27.148438 43.269531 26.769531 42.894531 C 26.507812 43.496094 25.976562 43.871094 25.332031 43.90625 C 24.6875 43.945312 24.082031 43.605469 23.78125 43.042969 C 23.402344 43.53125 22.796875 43.757812 22.1875 43.605469 C 21.582031 43.457031 21.128906 42.96875 21.015625 42.40625 C 20.5625 42.59375 20.070312 42.558594 19.691406 42.257812 C 19.3125 41.957031 19.121094 41.507812 19.199219 41.019531 L 18.707031 40.984375 C 18.175781 40.832031 17.871094 40.269531 17.984375 39.746094 C 17.644531 40.082031 17.230469 40.234375 16.738281 40.269531 C 15.488281 40.382812 14.425781 39.519531 14.3125 38.359375 C 13.667969 38.734375 12.875 38.660156 12.269531 38.207031 C 11.664062 37.757812 11.398438 37.007812 11.585938 36.296875 C 10.679688 36.410156 9.84375 35.734375 9.769531 34.835938 C 9.730469 34.460938 9.84375 34.046875 10.035156 33.746094 C 9.203125 33.636719 8.59375 32.847656 8.710938 32.023438 C 8.746094 31.648438 8.972656 31.273438 9.277344 31.046875 C 8.898438 30.75 8.710938 30.296875 8.785156 29.8125 C 8.859375 29.324219 9.203125 28.949219 9.65625 28.800781 C 9.316406 28.386719 9.351562 27.75 9.730469 27.375 L 9.769531 27.375 C 9.503906 27.226562 9.277344 27.039062 9.085938 26.773438 C 8.367188 25.800781 8.558594 24.449219 9.503906 23.703125 C 8.859375 23.328125 8.480469 22.613281 8.59375 21.902344 C 8.671875 21.152344 9.203125 20.550781 9.921875 20.328125 C 9.542969 19.800781 9.503906 19.128906 9.808594 18.566406 C 10.109375 18.003906 10.753906 17.664062 11.398438 17.742188 C 11.171875 17.179688 11.320312 16.542969 11.738281 16.128906 C 12.15625 15.714844 12.796875 15.566406 13.367188 15.792969 C 13.40625 15.339844 13.707031 14.929688 14.160156 14.742188 C 14.617188 14.554688 15.109375 14.628906 15.488281 14.929688 C 15.675781 14.480469 16.128906 14.21875 16.585938 14.253906 L 16.621094 14.367188 C 16.621094 13.65625 17 12.980469 17.609375 12.566406 C 18.214844 12.15625 18.972656 12.082031 19.652344 12.34375 L 19.765625 11.707031 C 19.957031 11.105469 20.484375 10.65625 21.089844 10.503906 C 21.695312 10.355469 22.339844 10.542969 22.832031 10.957031 C 23.058594 10.355469 23.628906 9.945312 24.308594 9.90625 C 24.953125 9.867188 25.558594 10.207031 25.863281 10.804688 C 26.242188 10.316406 26.847656 10.09375 27.453125 10.242188 C 28.058594 10.394531 28.511719 10.878906 28.625 11.441406 C 29.082031 11.253906 29.574219 11.332031 29.953125 11.628906 C 30.332031 11.929688 30.519531 12.417969 30.40625 12.867188 C 30.972656 12.753906 31.542969 13.128906 31.65625 13.691406 C 31.695312 13.84375 31.695312 13.953125 31.65625 14.105469 C 31.996094 13.765625 32.414062 13.617188 32.90625 13.542969 C 34.15625 13.46875 35.175781 14.328125 35.289062 15.492188 C 35.933594 15.117188 36.765625 15.152344 37.375 15.605469 C 37.980469 16.054688 38.246094 16.839844 38.054688 17.554688 C 38.964844 17.441406 39.796875 18.117188 39.871094 19.015625 C 39.910156 19.390625 39.796875 19.800781 39.609375 20.101562 C 40.214844 20.214844 40.707031 20.628906 40.855469 21.226562 C 41.007812 21.828125 40.820312 22.425781 40.328125 22.800781 C 40.59375 22.988281 40.78125 23.289062 40.855469 23.589844 C 40.933594 24.226562 40.59375 24.824219 39.984375 25.089844 C 40.328125 25.5 40.289062 26.136719 39.910156 26.511719 C 40.554688 26.886719 40.96875 27.5625 41.007812 28.273438 C 41.046875 29.023438 40.707031 29.699219 40.136719 30.148438 C 40.328125 30.261719 40.476562 30.375 40.628906 30.5625 C 41.046875 31.046875 41.160156 31.6875 41.007812 32.285156 C 40.820312 32.886719 40.363281 33.335938 39.757812 33.523438 C 40.25 34.273438 40.136719 35.246094 39.492188 35.773438 Z M 45.136719 10.207031 L 29.382812 1.207031 C 26.582031 -0.402344 23.097656 -0.402344 20.296875 1.207031 L 4.542969 10.207031 C 1.742188 11.816406 0 14.777344 0 18.003906 L 0 35.996094 C 0 39.222656 1.742188 42.183594 4.542969 43.792969 L 20.296875 52.789062 C 23.097656 54.402344 26.582031 54.402344 29.382812 52.789062 L 45.136719 43.792969 C 47.9375 42.183594 49.679688 39.222656 49.679688 35.996094 L 49.679688 17.964844 C 49.679688 14.777344 47.9375 11.816406 45.136719 10.207031 Z M 12.722656 24.226562 C 13.175781 24.824219 13.289062 25.613281 13.027344 26.324219 C 13.933594 26.402344 14.652344 27.113281 14.730469 28.011719 C 15.5625 27.824219 16.394531 28.273438 16.699219 29.023438 C 17.378906 28.539062 18.363281 28.648438 18.855469 29.363281 L 18.933594 29.4375 L 19.121094 29.25 C 19.539062 28.875 20.183594 28.835938 20.675781 29.175781 C 20.75 28.949219 20.863281 28.761719 21.015625 28.613281 C 21.433594 28.273438 21.960938 28.238281 22.378906 28.539062 C 22.453125 28.273438 22.679688 28.085938 22.945312 28.050781 C 22.757812 27.75 22.679688 27.414062 22.644531 27.074219 L 22.644531 27.113281 C 22.265625 27.226562 21.886719 27.039062 21.773438 26.699219 C 21.773438 26.664062 21.773438 26.664062 21.734375 26.625 C 21.394531 26.8125 20.976562 26.851562 20.636719 26.664062 C 20.296875 26.476562 20.070312 26.136719 20.03125 25.761719 C 19.804688 25.839844 19.460938 25.875 19.199219 25.761719 C 18.554688 25.539062 18.214844 24.863281 18.402344 24.226562 C 17.835938 24.265625 17.304688 23.964844 17 23.476562 C 16.699219 22.988281 16.738281 22.390625 17.039062 21.902344 C 16.433594 21.753906 15.941406 21.226562 15.828125 20.628906 C 15.675781 19.988281 15.902344 19.351562 16.394531 18.976562 C 15.675781 18.339844 15.601562 17.253906 16.167969 16.503906 C 16.125 16.503906 16.09375 16.492188 16.066406 16.480469 C 16.046875 16.472656 16.03125 16.464844 16.015625 16.464844 C 15.941406 16.804688 15.675781 17.105469 15.375 17.253906 C 15.070312 17.441406 14.691406 17.441406 14.351562 17.367188 C 14.3125 18.152344 13.632812 18.789062 12.835938 18.828125 C 13.0625 19.242188 13.101562 19.765625 12.914062 20.214844 C 12.722656 20.664062 12.34375 21.003906 11.890625 21.152344 C 12.496094 21.902344 12.457031 22.953125 11.777344 23.625 C 12.117188 23.625 12.457031 23.851562 12.722656 24.226562 Z M 23.894531 33.261719 C 23.023438 33.335938 22.417969 34.121094 22.53125 34.949219 C 21.695312 34.796875 20.863281 35.324219 20.597656 36.070312 C 19.765625 35.699219 18.820312 35.960938 18.289062 36.710938 L 18.25 36.671875 C 17.492188 35.734375 16.09375 35.621094 15.144531 36.371094 C 14.917969 35.472656 13.972656 34.871094 13.027344 35.023438 C 13.101562 34.574219 12.988281 34.085938 12.683594 33.710938 C 12.382812 33.335938 11.964844 33.109375 11.472656 33.074219 C 11.890625 32.398438 11.664062 31.5 10.980469 31.050781 C 11.285156 30.75 11.472656 30.300781 11.359375 29.847656 C 11.320312 29.585938 11.171875 29.324219 10.980469 29.136719 C 11.058594 29.136719 11.132812 29.097656 11.207031 29.0625 C 11.625 29.847656 12.570312 30.222656 13.441406 29.960938 C 13.519531 30.597656 13.972656 31.085938 14.539062 31.3125 C 15.109375 31.535156 15.753906 31.421875 16.246094 31.011719 C 16.472656 31.421875 16.851562 31.761719 17.34375 31.835938 C 17.835938 31.910156 18.328125 31.761719 18.667969 31.460938 C 18.78125 31.386719 18.96875 31.199219 19.007812 31.050781 C 19.3125 31.421875 19.804688 31.535156 20.257812 31.421875 C 20.710938 31.3125 21.054688 30.9375 21.167969 30.488281 C 21.546875 30.675781 21.960938 30.710938 22.339844 30.488281 C 22.71875 30.261719 22.910156 29.886719 22.910156 29.472656 C 23.097656 29.550781 23.363281 29.472656 23.515625 29.324219 C 23.664062 29.210938 23.742188 29.023438 23.78125 28.875 C 24.121094 29.0625 24.5 29.175781 24.878906 29.175781 C 24.800781 29.285156 24.800781 29.4375 24.800781 29.550781 C 24.839844 29.699219 24.878906 29.847656 24.992188 29.925781 C 24.535156 30.148438 24.308594 30.636719 24.386719 31.125 C 24.386719 31.3125 24.535156 31.535156 24.6875 31.6875 C 24.15625 31.875 23.855469 32.472656 23.96875 33.035156 L 24.007812 33.261719 Z M 27.148438 19.054688 C 27.1875 19.464844 27.074219 19.914062 26.769531 20.214844 C 26.46875 20.550781 26.089844 20.738281 25.636719 20.738281 L 25.671875 20.964844 C 25.785156 21.527344 25.519531 22.125 24.992188 22.3125 L 24.953125 22.3125 C 25.40625 22.765625 25.40625 23.476562 24.953125 23.890625 C 24.878906 23.964844 24.800781 24.039062 24.6875 24.078125 C 24.800781 24.226562 24.878906 24.375 24.839844 24.5625 C 25.21875 24.5625 25.636719 24.675781 25.976562 24.902344 C 26.128906 24.601562 26.429688 24.453125 26.769531 24.527344 C 26.769531 24.113281 26.960938 23.738281 27.339844 23.515625 C 27.71875 23.289062 28.132812 23.328125 28.511719 23.515625 C 28.511719 23.25 28.664062 23.027344 28.890625 22.839844 C 29.460938 22.390625 30.214844 22.425781 30.632812 22.953125 C 31.050781 22.203125 31.957031 21.941406 32.714844 22.3125 C 32.980469 22.464844 33.207031 22.6875 33.359375 22.953125 C 33.851562 22.539062 34.496094 22.425781 35.0625 22.652344 C 35.632812 22.875 36.085938 23.363281 36.160156 24 C 37.03125 23.703125 37.980469 24.078125 38.394531 24.902344 L 38.585938 24.789062 C 38.054688 24.300781 38.015625 23.476562 38.507812 22.953125 C 38.523438 22.9375 38.53125 22.921875 38.539062 22.910156 C 38.550781 22.890625 38.5625 22.875 38.585938 22.875 C 37.902344 22.425781 37.675781 21.527344 38.09375 20.851562 C 37.601562 20.851562 37.144531 20.628906 36.84375 20.214844 C 36.539062 19.839844 36.425781 19.351562 36.503906 18.867188 C 35.554688 19.015625 34.609375 18.414062 34.382812 17.515625 C 33.433594 18.265625 32.035156 18.117188 31.277344 17.179688 C 30.746094 17.929688 29.761719 18.191406 28.929688 17.777344 C 28.777344 18.640625 27.984375 19.164062 27.148438 19.054688 Z M 18.894531 21.226562 C 19.425781 20.550781 19.347656 19.578125 18.742188 18.976562 C 19.5 18.414062 19.726562 17.441406 19.347656 16.652344 C 20.5625 16.429688 21.355469 15.304688 21.167969 14.105469 C 22.113281 14.367188 23.058594 13.804688 23.363281 12.90625 C 23.742188 13.207031 24.234375 13.316406 24.6875 13.242188 C 25.144531 13.167969 25.558594 12.90625 25.824219 12.492188 C 26.277344 13.167969 27.148438 13.390625 27.867188 12.980469 C 27.984375 13.429688 28.246094 13.84375 28.738281 13.992188 C 29.003906 14.066406 29.308594 14.03125 29.574219 13.917969 L 29.609375 14.328125 C 28.855469 14.441406 28.210938 15.003906 28.058594 15.753906 C 27.453125 15.53125 26.808594 15.605469 26.316406 16.015625 C 25.824219 16.429688 25.597656 17.066406 25.710938 17.667969 C 25.144531 17.667969 24.613281 17.929688 24.308594 18.414062 C 24.042969 18.902344 24.007812 19.503906 24.308594 19.988281 C 23.855469 20.101562 23.476562 20.441406 23.363281 20.890625 C 23.25 21.339844 23.402344 21.828125 23.742188 22.125 C 23.402344 22.3125 23.171875 22.6875 23.171875 23.0625 C 23.171875 23.476562 23.363281 23.8125 23.703125 24.039062 C 23.589844 24.226562 23.476562 24.453125 23.515625 24.675781 L 23.628906 24.976562 C 23.324219 25.199219 23.058594 25.5 22.871094 25.839844 C 22.679688 25.726562 22.453125 25.652344 22.226562 25.726562 C 22.265625 25.351562 22.113281 24.976562 21.8125 24.75 C 21.507812 24.527344 21.089844 24.453125 20.75 24.5625 C 20.828125 24.039062 20.449219 23.515625 19.878906 23.363281 L 19.652344 23.289062 C 19.839844 22.914062 19.878906 22.5 19.726562 22.089844 C 19.578125 21.714844 19.273438 21.378906 18.894531 21.226562 Z M 36.765625 33.898438 C 36.957031 33.449219 37.335938 33.109375 37.789062 32.960938 C 37.183594 32.210938 37.222656 31.160156 37.902344 30.488281 C 37.488281 30.375 37.144531 30.113281 36.917969 29.773438 L 36.882812 29.773438 C 36.425781 29.175781 36.3125 28.386719 36.578125 27.675781 C 35.667969 27.601562 34.949219 26.886719 34.875 25.988281 C 34.078125 26.175781 33.246094 25.726562 32.941406 24.976562 C 32.601562 25.238281 32.148438 25.351562 31.730469 25.277344 C 31.316406 25.199219 30.9375 24.9375 30.710938 24.5625 L 30.519531 24.75 C 30.101562 25.125 29.460938 25.164062 29.003906 24.863281 C 28.929688 25.089844 28.777344 25.277344 28.625 25.425781 C 28.246094 25.761719 27.679688 25.800781 27.261719 25.5 C 27.226562 25.6875 27.074219 25.839844 26.882812 25.949219 C 27.035156 26.25 27.148438 26.625 27.148438 27 L 27.453125 27 C 27.71875 27.074219 27.867188 27.261719 27.90625 27.488281 C 28.246094 27.261719 28.664062 27.261719 29.042969 27.449219 C 29.382812 27.636719 29.648438 27.976562 29.648438 28.386719 C 29.914062 28.273438 30.21875 28.273438 30.480469 28.386719 C 31.125 28.613281 31.464844 29.285156 31.277344 29.925781 C 31.882812 29.847656 32.488281 30.148438 32.792969 30.675781 C 33.09375 31.199219 33.058594 31.835938 32.714844 32.324219 C 33.285156 32.511719 33.699219 33 33.8125 33.597656 C 33.925781 34.199219 33.738281 34.796875 33.285156 35.210938 C 34.003906 35.847656 34.078125 36.933594 33.511719 37.683594 L 33.699219 37.757812 C 33.777344 37.421875 34.003906 37.121094 34.34375 36.972656 C 34.648438 36.785156 35.027344 36.746094 35.367188 36.859375 C 35.40625 36.035156 36.085938 35.398438 36.882812 35.398438 C 36.617188 34.871094 36.617188 34.347656 36.765625 33.898438 Z M 30.785156 32.773438 C 30.253906 33.449219 30.332031 34.421875 30.9375 35.023438 C 30.21875 35.546875 29.953125 36.523438 30.292969 37.308594 C 29.082031 37.535156 28.285156 38.660156 28.476562 39.859375 C 27.566406 39.632812 26.542969 40.121094 26.277344 41.058594 C 25.898438 40.757812 25.445312 40.609375 24.953125 40.683594 C 24.5 40.757812 24.082031 41.019531 23.816406 41.433594 C 23.363281 40.757812 22.492188 40.53125 21.773438 40.945312 C 21.695312 40.570312 21.46875 40.269531 21.167969 40.082031 C 20.863281 39.894531 20.449219 39.859375 20.105469 39.972656 L 20.105469 40.007812 L 20.070312 39.597656 C 20.824219 39.484375 21.46875 38.921875 21.621094 38.171875 C 21.925781 38.285156 22.226562 38.285156 22.53125 38.246094 C 23.476562 38.097656 24.082031 37.234375 23.929688 36.296875 C 24.386719 36.296875 24.878906 36.109375 25.179688 35.773438 C 25.523438 35.398438 25.636719 34.910156 25.558594 34.460938 C 25.558594 34.28125 25.511719 34.175781 25.453125 34.042969 C 25.4375 34.011719 25.421875 33.972656 25.40625 33.933594 C 25.863281 33.824219 26.203125 33.484375 26.316406 33.035156 C 26.429688 32.585938 26.277344 32.097656 25.9375 31.796875 C 26.089844 31.722656 26.203125 31.574219 26.316406 31.421875 C 26.65625 30.898438 26.46875 30.222656 25.9375 29.886719 L 26.011719 29.8125 C 26.242188 29.511719 26.242188 29.097656 25.9375 28.835938 C 26.277344 28.648438 26.582031 28.386719 26.769531 28.050781 C 26.921875 28.199219 27.148438 28.273438 27.375 28.238281 C 27.375 28.613281 27.527344 28.949219 27.832031 29.175781 C 28.132812 29.398438 28.550781 29.472656 28.890625 29.363281 L 28.890625 29.398438 C 28.855469 29.925781 29.195312 30.449219 29.761719 30.597656 L 29.988281 30.675781 C 29.800781 31.085938 29.761719 31.535156 29.914062 31.910156 C 30.066406 32.285156 30.367188 32.625 30.785156 32.773438 Z M 30.785156 32.773438 "/>
</g>
</svg>
