<svg width="52" height="50" viewBox="0 0 52 50" fill="none" xmlns="http://www.w3.org/2000/svg">
<path id="Vector" fill-rule="evenodd" clip-rule="evenodd" d="M25.7576 0C11.5265 0 0 11.4705 0 25.6323C0 36.9747 7.3731 46.5547 17.6117 49.951C18.8996 50.1753 19.3826 49.4063 19.3826 48.7335C19.3826 48.1247 19.3504 46.1062 19.3504 43.9595C12.8788 45.145 11.2045 42.3895 10.6894 40.9477C10.3996 40.2107 9.14394 37.9359 8.04924 37.3271C7.14773 36.8465 5.85985 35.661 8.01705 35.629C10.0455 35.5969 11.4943 37.4873 11.9773 38.2563C14.2955 42.1332 17.9981 41.0438 19.4792 40.3709C19.7045 38.7048 20.3807 37.5834 21.1212 36.9426C15.3902 36.3018 9.40152 34.091 9.40152 24.2866C9.40152 21.4991 10.3996 19.1922 12.0417 17.398C11.7841 16.7571 10.8826 14.1298 12.2992 10.6054C12.2992 10.6054 14.4564 9.93253 19.3826 13.2327C21.4432 12.656 23.6326 12.3676 25.822 12.3676C28.0114 12.3676 30.2008 12.656 32.2614 13.2327C37.1875 9.90049 39.3447 10.6054 39.3447 10.6054C40.7614 14.1298 39.8598 16.7571 39.6023 17.398C41.2443 19.1922 42.2424 21.4671 42.2424 24.2866C42.2424 34.1231 36.2216 36.3018 30.4905 36.9426C31.4242 37.7436 32.2292 39.2816 32.2292 41.6846C32.2292 45.1129 32.197 47.8684 32.197 48.7335C32.197 49.4063 32.6799 50.2074 33.9678 49.951C44.142 46.5547 51.5151 36.9426 51.5151 25.6323C51.5151 11.4705 39.9886 0 25.7576 0Z" fill="#1B1F23"/>
</svg>
