<svg width="51" height="51" viewBox="0 0 51 51" fill="none" xmlns="http://www.w3.org/2000/svg">
<path d="M0 3.58379C0 1.60565 1.65607 0 3.69753 0H46.3325C48.3747 0 50.03 1.60565 50.03 3.58379V46.4468C50.03 48.4255 48.3747 50.03 46.3325 50.03H3.69753C1.65627 50.03 0 48.4257 0 46.4474V3.5832V3.58379Z" fill="#006699"/>
<path d="M15.2032 41.8686V19.345H7.71667V41.8686H15.204H15.2032ZM11.4615 16.2703C14.0717 16.2703 15.6967 14.5407 15.6967 12.3793C15.6478 10.1686 14.0717 8.4873 11.5111 8.4873C8.94885 8.4873 7.27539 10.1686 7.27539 12.3791C7.27539 14.5405 8.8998 16.2701 11.4124 16.2701H11.4609L11.4615 16.2703ZM19.3471 41.8686H26.833V29.2918C26.833 28.6195 26.8819 27.9455 27.0796 27.4653C27.6206 26.1198 28.8524 24.7269 30.921 24.7269C33.6293 24.7269 34.7133 26.7922 34.7133 29.8204V41.8686H42.1991V28.9543C42.1991 22.0363 38.5062 18.8169 33.5808 18.8169C29.5426 18.8169 27.7691 21.074 26.7838 22.6112H26.8336V19.3458H19.3475C19.4452 21.4588 19.3469 41.8694 19.3469 41.8694L19.3471 41.8686Z" fill="white"/>
</svg>
