<svg width="54" height="16" viewBox="0 0 54 16" fill="none" xmlns="http://www.w3.org/2000/svg">
<path d="M3.68 10.678L0.0260001 6.7L3.68 2.722H7.55L3.878 6.7L7.55 10.678H3.68ZM25.885 0.364V2.83H20.737V5.494H24.589V7.888H20.737V13H17.659V0.364H25.885ZM35.3687 10.768H30.6527L29.8967 13H26.6747L31.2467 0.364H34.8107L39.3827 13H36.1247L35.3687 10.768ZM34.5767 8.392L33.0107 3.766L31.4627 8.392H34.5767ZM49.7742 15.16L48.1542 12.982C47.6742 13.078 47.2062 13.126 46.7502 13.126C45.5622 13.126 44.4702 12.85 43.4742 12.298C42.4902 11.746 41.7042 10.978 41.1162 9.994C40.5402 8.998 40.2522 7.882 40.2522 6.646C40.2522 5.41 40.5402 4.3 41.1162 3.316C41.7042 2.332 42.4902 1.564 43.4742 1.012C44.4702 0.46 45.5622 0.184 46.7502 0.184C47.9382 0.184 49.0242 0.46 50.0082 1.012C51.0042 1.564 51.7842 2.332 52.3482 3.316C52.9242 4.3 53.2122 5.41 53.2122 6.646C53.2122 7.726 52.9902 8.716 52.5462 9.616C52.1142 10.504 51.5082 11.242 50.7282 11.83L53.5002 15.16H49.7742ZM43.4022 6.646C43.4022 7.762 43.7022 8.656 44.3022 9.328C44.9142 9.988 45.7302 10.318 46.7502 10.318C47.7582 10.318 48.5622 9.982 49.1622 9.31C49.7742 8.638 50.0802 7.75 50.0802 6.646C50.0802 5.53 49.7742 4.642 49.1622 3.982C48.5622 3.31 47.7582 2.974 46.7502 2.974C45.7302 2.974 44.9142 3.304 44.3022 3.964C43.7022 4.624 43.4022 5.518 43.4022 6.646Z" fill="#23213D"/>
</svg>
