<svg width="58" height="57" viewBox="0 0 58 57" fill="none" xmlns="http://www.w3.org/2000/svg">
<path d="M48.036 23.0237C49.0225 24.4691 50.0987 25.4063 51.274 25.7187C52.4304 26.0264 53.785 25.7466 55.3804 24.7815C56.0223 24.3898 56.8625 24.5903 57.2542 25.2244C57.3864 25.4389 57.4525 25.672 57.4572 25.9098C57.5186 26.5626 57.5563 27.2247 57.5705 27.8961C57.5846 28.5768 57.5799 29.2529 57.5469 29.9243C57.5469 29.9849 57.5422 30.0455 57.5327 30.1015C57.1032 37.8973 53.5349 44.7932 48.0927 49.6516C42.641 54.5193 35.3203 57.3401 27.4095 56.9671V56.9718C27.3481 56.9718 27.2868 56.9671 27.2301 56.9578C19.3383 56.5335 12.3573 53.0086 7.43908 47.6327C2.50665 42.2474 -0.344246 35.0158 0.033356 27.2014C0.033356 27.1407 0.0380761 27.0801 0.0475161 27.0242C0.472318 19.2191 4.15866 12.2859 9.70941 7.3995C15.2649 2.50382 22.6989 -0.340338 30.6097 0.0326659C31.3649 0.0326659 31.9738 0.634135 31.9738 1.38014C31.9738 1.56665 31.936 1.74382 31.8652 1.90235C31.313 3.67878 31.2752 5.32466 31.7378 6.63018C32.1579 7.81447 33.0122 8.73299 34.2913 9.20391C34.971 9.45568 35.3297 10.183 35.1126 10.8591H35.1173C34.2535 13.6054 34.2347 16.0252 34.8719 17.9742C35.2589 19.1538 35.882 20.1609 36.7032 20.9582C37.5245 21.7602 38.5441 22.357 39.7193 22.7206C41.6262 23.3081 43.939 23.2708 46.4737 22.4642C47.0731 22.2777 47.7103 22.5202 48.036 23.0237ZM27.9806 26.9776C29.2881 26.9776 30.3454 28.022 30.3454 29.3135C30.3454 30.605 29.2881 31.6494 27.9806 31.6494C26.6732 31.6494 25.6159 30.605 25.6159 29.3135C25.6159 28.022 26.6779 26.9776 27.9806 26.9776ZM17.7287 36.5964C19.3194 36.5964 20.6127 37.8693 20.6127 39.4452C20.6127 41.0212 19.3241 42.294 17.7287 42.294C16.1334 42.294 14.8448 41.0212 14.8448 39.4452C14.8448 37.8693 16.1334 36.5964 17.7287 36.5964ZM23.9403 14.8036C25.1911 14.8036 26.2012 15.8014 26.2012 17.037C26.2012 18.2726 25.1911 19.2704 23.9403 19.2704C22.6895 19.2704 21.6794 18.2726 21.6794 17.037C21.6794 15.8014 22.6942 14.8036 23.9403 14.8036ZM56.3102 15.1067C57.2448 15.1067 58 15.8527 58 16.7759C58 17.6991 57.2448 18.4451 56.3102 18.4451C55.3757 18.4451 54.6205 17.6991 54.6205 16.7759C54.6157 15.8574 55.3757 15.1067 56.3102 15.1067ZM44.1892 10.6819C45.5958 10.6819 46.7333 11.8056 46.7333 13.1951C46.7333 14.5845 45.5958 15.7082 44.1892 15.7082C42.7826 15.7082 41.6451 14.5845 41.6451 13.1951C41.6451 11.8103 42.7826 10.6819 44.1892 10.6819ZM46.1575 0.275119C47.6631 0.275119 48.8856 1.48272 48.8856 2.97007C48.8856 4.45743 47.6631 5.66503 46.1575 5.66503C44.6518 5.66503 43.4293 4.45743 43.4293 2.97007C43.434 1.47806 44.6518 0.275119 46.1575 0.275119ZM36.2171 37.5942C38.3081 37.5942 40.0073 39.268 40.0073 41.3382C40.0073 43.4037 38.3128 45.0823 36.2171 45.0823C34.1214 45.0823 32.4269 43.4084 32.4269 41.3382C32.4269 39.268 34.1214 37.5942 36.2171 37.5942ZM15.0619 21.8114C17.3275 21.8114 19.1636 23.6252 19.1636 25.8632C19.1636 28.1012 17.3275 29.915 15.0619 29.915C12.7963 29.915 10.9602 28.1012 10.9602 25.8632C10.9602 23.6298 12.7963 21.8114 15.0619 21.8114ZM50.566 28.3204C48.9659 27.8961 47.5687 26.8563 46.3415 25.299C43.6134 26.0077 41.074 25.9565 38.9028 25.2897C37.3121 24.8001 35.9197 23.9795 34.7916 22.8745C33.6635 21.7695 32.8045 20.394 32.2806 18.7948C31.5679 16.622 31.4829 14.039 32.1956 11.1855C30.7324 10.3462 29.7176 9.07336 29.1654 7.5114C28.665 6.08932 28.5612 4.43878 28.8774 2.68566C22.3119 2.77425 16.19 5.29669 11.5219 9.40906C6.48563 13.8431 3.14385 20.1189 2.75681 27.178V27.2014L2.75209 27.262C2.39337 34.3724 4.97994 40.9466 9.44981 45.8329C13.9055 50.7006 20.2303 53.8945 27.3859 54.2721H27.4095L27.4709 54.2768C34.6642 54.6358 41.3242 52.0807 46.2707 47.6606C51.1984 43.2592 54.4317 37.0114 54.814 29.9429V29.9196L54.8187 29.859C54.8517 29.2342 54.8612 28.6281 54.847 28.036C53.3272 28.6001 51.9017 28.6794 50.566 28.3204Z" fill="#FE3756"/>
</svg>
