<?xml version="1.0" encoding="UTF-8"?>
<svg xmlns="http://www.w3.org/2000/svg" width="220" height="58" viewBox="0 0 220 58" fill="none">
  <path d="M92.4096 10.0368C92.7563 9.496 93.2347 9.0592 93.8448 8.7264C94.4549 8.3936 95.1691 8.2272 95.9872 8.2272C96.944 8.2272 97.8107 8.46987 98.5872 8.9552C99.3637 9.44053 99.9739 10.1339 100.418 11.0352C100.875 11.9365 101.104 12.9835 101.104 14.176C101.104 15.3685 100.875 16.4224 100.418 17.3376C99.9739 18.2389 99.3637 18.9392 98.5872 19.4384C97.8107 19.9237 96.944 20.1664 95.9872 20.1664C95.1829 20.1664 94.4688 20 93.8448 19.6672C93.2347 19.3344 92.7563 18.9045 92.4096 18.3776V25.5328H88.8528V8.3936H92.4096V10.0368ZM97.4848 14.176C97.4848 13.2885 97.2352 12.5952 96.736 12.096C96.2507 11.5829 95.6475 11.3264 94.9264 11.3264C94.2192 11.3264 93.616 11.5829 93.1168 12.096C92.6315 12.6091 92.3888 13.3093 92.3888 14.1968C92.3888 15.0843 92.6315 15.7845 93.1168 16.2976C93.616 16.8107 94.2192 17.0672 94.9264 17.0672C95.6336 17.0672 96.2368 16.8107 96.736 16.2976C97.2352 15.7707 97.4848 15.0635 97.4848 14.176ZM108.253 20.1664C107.116 20.1664 106.09 19.9237 105.175 19.4384C104.273 18.9531 103.559 18.2597 103.032 17.3584C102.519 16.4571 102.263 15.4032 102.263 14.1968C102.263 13.0043 102.526 11.9573 103.053 11.056C103.58 10.1408 104.301 9.44053 105.216 8.9552C106.132 8.46987 107.158 8.2272 108.295 8.2272C109.432 8.2272 110.458 8.46987 111.373 8.9552C112.288 9.44053 113.009 10.1408 113.536 11.056C114.063 11.9573 114.327 13.0043 114.327 14.1968C114.327 15.3893 114.056 16.4432 113.516 17.3584C112.989 18.2597 112.261 18.9531 111.332 19.4384C110.416 19.9237 109.39 20.1664 108.253 20.1664ZM108.253 17.088C108.933 17.088 109.508 16.8384 109.98 16.3392C110.465 15.84 110.708 15.1259 110.708 14.1968C110.708 13.2677 110.472 12.5536 110 12.0544C109.543 11.5552 108.974 11.3056 108.295 11.3056C107.601 11.3056 107.026 11.5552 106.568 12.0544C106.111 12.5397 105.882 13.2539 105.882 14.1968C105.882 15.1259 106.104 15.84 106.548 16.3392C107.005 16.8384 107.574 17.088 108.253 17.088ZM131.023 8.2688C132.465 8.2688 133.609 8.7056 134.455 9.5792C135.315 10.4528 135.745 11.6661 135.745 13.2192V20H132.209V13.6976C132.209 12.9488 132.008 12.3733 131.606 11.9712C131.217 11.5552 130.677 11.3472 129.983 11.3472C129.29 11.3472 128.742 11.5552 128.34 11.9712C127.952 12.3733 127.758 12.9488 127.758 13.6976V20H124.222V13.6976C124.222 12.9488 124.021 12.3733 123.619 11.9712C123.23 11.5552 122.689 11.3472 121.996 11.3472C121.303 11.3472 120.755 11.5552 120.353 11.9712C119.965 12.3733 119.771 12.9488 119.771 13.6976V20H116.214V8.3936H119.771V9.8496C120.131 9.36427 120.603 8.98293 121.185 8.7056C121.767 8.4144 122.426 8.2688 123.161 8.2688C124.035 8.2688 124.811 8.456 125.491 8.8304C126.184 9.2048 126.725 9.73867 127.113 10.432C127.515 9.79413 128.063 9.27413 128.756 8.872C129.449 8.46987 130.205 8.2688 131.023 8.2688ZM149.173 14.0096C149.173 14.3424 149.152 14.6891 149.111 15.0496H141.061C141.117 15.7707 141.346 16.3253 141.748 16.7136C142.164 17.088 142.67 17.2752 143.266 17.2752C144.154 17.2752 144.771 16.9008 145.117 16.152H148.903C148.709 16.9147 148.355 17.6011 147.842 18.2112C147.343 18.8213 146.712 19.2997 145.949 19.6464C145.187 19.9931 144.334 20.1664 143.391 20.1664C142.254 20.1664 141.242 19.9237 140.354 19.4384C139.467 18.9531 138.773 18.2597 138.274 17.3584C137.775 16.4571 137.525 15.4032 137.525 14.1968C137.525 12.9904 137.768 11.9365 138.253 11.0352C138.752 10.1339 139.446 9.44053 140.333 8.9552C141.221 8.46987 142.24 8.2272 143.391 8.2272C144.514 8.2272 145.512 8.46293 146.386 8.9344C147.26 9.40587 147.939 10.0784 148.424 10.952C148.924 11.8256 149.173 12.8448 149.173 14.0096ZM145.533 13.0736C145.533 12.4635 145.325 11.9781 144.909 11.6176C144.493 11.2571 143.973 11.0768 143.349 11.0768C142.753 11.0768 142.247 11.2501 141.831 11.5968C141.429 11.9435 141.179 12.4357 141.082 13.0736H145.533ZM154.606 10.328C155.022 9.69013 155.542 9.19093 156.166 8.8304C156.79 8.456 157.484 8.2688 158.246 8.2688V12.0336H157.269C156.381 12.0336 155.716 12.2277 155.272 12.616C154.828 12.9904 154.606 13.656 154.606 14.6128V20H151.05V8.3936H154.606V10.328ZM159.239 14.176C159.239 12.9835 159.461 11.9365 159.905 11.0352C160.363 10.1339 160.98 9.44053 161.756 8.9552C162.533 8.46987 163.399 8.2272 164.356 8.2272C165.174 8.2272 165.888 8.3936 166.499 8.7264C167.123 9.0592 167.601 9.496 167.934 10.0368V8.3936H171.491V20H167.934V18.3568C167.587 18.8976 167.102 19.3344 166.478 19.6672C165.868 20 165.153 20.1664 164.335 20.1664C163.392 20.1664 162.533 19.9237 161.756 19.4384C160.98 18.9392 160.363 18.2389 159.905 17.3376C159.461 16.4224 159.239 15.3685 159.239 14.176ZM167.934 14.1968C167.934 13.3093 167.684 12.6091 167.185 12.096C166.7 11.5829 166.103 11.3264 165.396 11.3264C164.689 11.3264 164.086 11.5829 163.587 12.096C163.101 12.5952 162.859 13.2885 162.859 14.176C162.859 15.0635 163.101 15.7707 163.587 16.2976C164.086 16.8107 164.689 17.0672 165.396 17.0672C166.103 17.0672 166.7 16.8107 167.185 16.2976C167.684 15.7845 167.934 15.0843 167.934 14.1968ZM181.136 8.2688C182.495 8.2688 183.576 8.71253 184.381 9.6C185.199 10.4736 185.608 11.68 185.608 13.2192V20H182.072V13.6976C182.072 12.9211 181.871 12.3179 181.469 11.888C181.066 11.4581 180.526 11.2432 179.846 11.2432C179.167 11.2432 178.626 11.4581 178.224 11.888C177.822 12.3179 177.621 12.9211 177.621 13.6976V20H174.064V8.3936H177.621V9.9328C177.981 9.41973 178.466 9.0176 179.077 8.7264C179.687 8.42133 180.373 8.2688 181.136 8.2688ZM189.868 7.1872C189.244 7.1872 188.731 7.00693 188.329 6.6464C187.941 6.272 187.747 5.8144 187.747 5.2736C187.747 4.71893 187.941 4.26133 188.329 3.9008C188.731 3.5264 189.244 3.3392 189.868 3.3392C190.478 3.3392 190.977 3.5264 191.366 3.9008C191.768 4.26133 191.969 4.71893 191.969 5.2736C191.969 5.8144 191.768 6.272 191.366 6.6464C190.977 7.00693 190.478 7.1872 189.868 7.1872ZM191.636 8.3936V20H188.079V8.3936H191.636ZM193.507 14.176C193.507 12.9835 193.728 11.9365 194.172 11.0352C194.63 10.1339 195.247 9.44053 196.023 8.9552C196.8 8.46987 197.667 8.2272 198.623 8.2272C199.441 8.2272 200.156 8.3936 200.766 8.7264C201.39 9.0592 201.868 9.496 202.201 10.0368V8.3936H205.758V20H202.201V18.3568C201.854 18.8976 201.369 19.3344 200.745 19.6672C200.135 20 199.421 20.1664 198.603 20.1664C197.66 20.1664 196.8 19.9237 196.023 19.4384C195.247 18.9392 194.63 18.2389 194.172 17.3376C193.728 16.4224 193.507 15.3685 193.507 14.176ZM202.201 14.1968C202.201 13.3093 201.951 12.6091 201.452 12.096C200.967 11.5829 200.371 11.3264 199.663 11.3264C198.956 11.3264 198.353 11.5829 197.854 12.096C197.368 12.5952 197.126 13.2885 197.126 14.176C197.126 15.0635 197.368 15.7707 197.854 16.2976C198.353 16.8107 198.956 17.0672 199.663 17.0672C200.371 17.0672 200.967 16.8107 201.452 16.2976C201.951 15.7845 202.201 15.0843 202.201 14.1968ZM215.403 8.2688C216.762 8.2688 217.843 8.71253 218.648 9.6C219.466 10.4736 219.875 11.68 219.875 13.2192V20H216.339V13.6976C216.339 12.9211 216.138 12.3179 215.736 11.888C215.334 11.4581 214.793 11.2432 214.113 11.2432C213.434 11.2432 212.893 11.4581 212.491 11.888C212.089 12.3179 211.888 12.9211 211.888 13.6976V20H208.331V8.3936H211.888V9.9328C212.248 9.41973 212.734 9.0176 213.344 8.7264C213.954 8.42133 214.64 8.2688 215.403 8.2688ZM94.136 46.1456C93.0683 46.1456 92.1115 45.9723 91.2656 45.6256C90.4197 45.2789 89.7403 44.7659 89.2272 44.0864C88.728 43.4069 88.4645 42.5888 88.4368 41.632H92.2224C92.2779 42.1728 92.4651 42.5888 92.784 42.88C93.1029 43.1573 93.5189 43.296 94.032 43.296C94.5589 43.296 94.9749 43.1781 95.28 42.9424C95.5851 42.6928 95.7376 42.3531 95.7376 41.9232C95.7376 41.5627 95.6128 41.2645 95.3632 41.0288C95.1275 40.7931 94.8293 40.5989 94.4688 40.4464C94.1221 40.2939 93.6229 40.1205 92.9712 39.9264C92.0283 39.6352 91.2587 39.344 90.6624 39.0528C90.0661 38.7616 89.5531 38.3317 89.1232 37.7632C88.6933 37.1947 88.4784 36.4528 88.4784 35.5376C88.4784 34.1787 88.9707 33.1179 89.9552 32.3552C90.9397 31.5787 92.2224 31.1904 93.8032 31.1904C95.4117 31.1904 96.7083 31.5787 97.6928 32.3552C98.6773 33.1179 99.2043 34.1856 99.2736 35.5584H95.4256C95.3979 35.0869 95.2245 34.7195 94.9056 34.456C94.5867 34.1787 94.1776 34.04 93.6784 34.04C93.2485 34.04 92.9019 34.1579 92.6384 34.3936C92.3749 34.6155 92.2432 34.9413 92.2432 35.3712C92.2432 35.8427 92.4651 36.2101 92.9088 36.4736C93.3525 36.7371 94.0459 37.0213 94.9888 37.3264C95.9317 37.6453 96.6944 37.9504 97.2768 38.2416C97.8731 38.5328 98.3861 38.9557 98.816 39.5104C99.2459 40.0651 99.4608 40.7792 99.4608 41.6528C99.4608 42.4848 99.2459 43.2405 98.816 43.92C98.4 44.5995 97.7899 45.1403 96.9856 45.5424C96.1813 45.9445 95.2315 46.1456 94.136 46.1456ZM112.154 31.3984V34.248H108.285V46H104.728V34.248H100.859V31.3984H112.154ZM123.028 43.4208H117.579L116.705 46H112.982L118.265 31.3984H122.384L127.667 46H123.902L123.028 43.4208ZM122.113 40.6752L120.304 35.3296L118.515 40.6752H122.113ZM136.721 46L133.684 40.488H132.831V46H129.275V31.3984H135.244C136.395 31.3984 137.373 31.5995 138.177 32.0016C138.995 32.4037 139.605 32.9584 140.007 33.6656C140.41 34.3589 140.611 35.1355 140.611 35.9952C140.611 36.9659 140.333 37.8325 139.779 38.5952C139.238 39.3579 138.434 39.8987 137.366 40.2176L140.735 46H136.721ZM132.831 37.9712H135.036C135.688 37.9712 136.173 37.8117 136.492 37.4928C136.825 37.1739 136.991 36.7232 136.991 36.1408C136.991 35.5861 136.825 35.1493 136.492 34.8304C136.173 34.5115 135.688 34.352 135.036 34.352H132.831V37.9712ZM153.347 31.3984V34.248H149.479V46H145.922V34.248H142.053V31.3984H153.347ZM156.796 46.1664C156.172 46.1664 155.659 45.9861 155.257 45.6256C154.869 45.2512 154.675 44.7936 154.675 44.2528C154.675 43.6981 154.869 43.2336 155.257 42.8592C155.659 42.4848 156.172 42.2976 156.796 42.2976C157.407 42.2976 157.906 42.4848 158.294 42.8592C158.696 43.2336 158.897 43.6981 158.897 44.2528C158.897 44.7936 158.696 45.2512 158.294 45.6256C157.906 45.9861 157.407 46.1664 156.796 46.1664ZM164.955 31.336V46H160.878V31.336H164.955ZM178.321 31.336V34.5808H174.411V46H170.334V34.5808H166.465V31.336H178.321Z" fill="#00145C"></path>
  <rect y="29.6708" width="32.5248" height="32.5248" rx="6" transform="rotate(-45.7885 0 29.6708)" fill="#00145C"></rect>
  <rect x="13" y="29.6708" width="40" height="40" rx="6" transform="rotate(-45.7885 13 29.6708)" fill="#00145C"></rect>
  <path d="M37 11.642L18.5093 28.5918C18.2355 28.8428 18.2355 29.2745 18.5093 29.5255L37 46.4753" stroke="white" strokeWidth="9.5"></path>
  <path d="M37 11.642L18.5093 28.5918C18.2355 28.8428 18.2355 29.2745 18.5093 29.5255L37 46.4753" stroke="#FE3756" strokeWidth="9.5"></path>
</svg>
