<svg width="11" height="8" viewBox="0 0 11 8" fill="none" xmlns="http://www.w3.org/2000/svg">
<path d="M5.17599 5.13207L8.83299 1.47507C8.89954 1.40198 8.98009 1.34299 9.06985 1.30159C9.15961 1.26018 9.25677 1.23721 9.35557 1.23403C9.45437 1.23084 9.55281 1.24751 9.64505 1.28305C9.73729 1.31859 9.82147 1.37227 9.89259 1.44092C9.96372 1.50957 10.0203 1.59179 10.0591 1.68272C10.0979 1.77364 10.1181 1.87143 10.1184 1.97028C10.1187 2.06913 10.0992 2.16704 10.061 2.25821C10.0228 2.34938 9.96667 2.43197 9.89599 2.50107L9.87799 2.51907L5.69899 6.69907C5.5604 6.83763 5.37246 6.91547 5.17649 6.91547C4.98052 6.91547 4.79257 6.83763 4.65399 6.69907L0.474987 2.52007C0.405189 2.45264 0.349357 2.37212 0.310678 2.2831C0.272 2.19409 0.251232 2.09834 0.24956 2.0013C0.247889 1.90426 0.265347 1.80784 0.300937 1.71755C0.336527 1.62726 0.389553 1.54487 0.456987 1.47507C0.524421 1.40527 0.604942 1.34944 0.693953 1.31076C0.782964 1.27208 0.878722 1.25132 0.975759 1.24964C1.0728 1.24797 1.16921 1.26543 1.2595 1.30102C1.34979 1.33661 1.43219 1.38964 1.50199 1.45707L1.51999 1.47507L5.17599 5.13207Z" fill="#FE3756" stroke="#FE3756" stroke-width="0.5"/>
</svg>
