<svg width="56" height="65" viewBox="0 0 56 65" fill="none" xmlns="http://www.w3.org/2000/svg">
<path d="M47.9011 45.4687C42.0359 49.3438 35.393 51.2812 27.9708 51.2812C20.5486 51.2812 13.9178 49.3439 8.07975 45.4687L7.37263 45.8211L7.13712 46.4504C7.97482 51.5821 8.72111 55.4045 9.37541 57.9175C9.89914 58.8337 10.5799 59.6386 11.4176 60.3321C12.2553 61.0257 13.2106 61.5965 14.2846 62.0409C15.3577 62.4855 16.3595 62.8388 17.2885 63.1013C18.2175 63.3639 19.285 63.5987 20.4894 63.8083C23.1858 64.2529 25.8237 64.4955 28.4025 64.5354C30.9812 64.574 33.6256 64.2856 36.3355 63.6699C39.0455 63.0548 41.5258 62.1186 43.7777 60.8629C44.7203 60.3384 45.4795 59.5985 46.0553 58.6445C46.631 57.687 47.0036 56.7729 47.1741 55.8953C47.3439 55.0177 47.528 53.9196 47.7243 52.5951C47.9206 51.2744 48.1231 50.2727 48.333 49.5912C48.333 49.355 48.4372 48.872 48.6468 48.1384C48.8559 47.4049 48.9215 46.8162 48.8432 46.371C48.7652 45.9268 48.4506 45.6249 47.9011 45.4687Z" fill="black"/>
<path d="M2.12955 21.6483C2.40423 23.2587 2.77102 25.3728 3.22911 27.9916C3.68649 30.6102 4.03405 32.5739 4.26944 33.8824C4.32156 34.1172 4.39361 34.5774 4.4856 35.2567C4.57701 35.9381 4.65547 36.4546 4.72111 36.808C4.78605 37.1612 4.90369 37.6071 5.07496 38.1423C5.24483 38.6809 5.4674 39.1376 5.74209 39.5165C6.01678 39.8968 6.35081 40.2436 6.74395 40.5582C10.5664 43.4915 15.7237 45.3089 22.2169 46.0161C31.5891 47.0114 39.5749 45.8597 46.1723 42.5596C47.0363 42.1165 47.7491 41.7098 48.3128 41.343C48.8758 40.9762 49.4452 40.4532 50.0209 39.7724C50.5968 39.0932 50.95 38.3582 51.0813 37.5727C53.3061 24.7969 54.7595 16.2231 55.4403 11.8499C55.5973 11.2484 55.6694 10.5413 55.6564 9.72994C55.6429 8.91871 55.4266 8.25146 55.0085 7.72634C53.4373 5.73626 50.6231 4.14154 46.5653 2.93565C38.79 0.657598 29.9401 0.00399327 20.0179 0.972274C15.0952 1.44318 10.9981 2.28228 7.72587 3.48538C6.94029 3.7737 6.31233 4.01621 5.84073 4.21243C5.36982 4.40865 4.76693 4.70328 4.03404 5.09583C3.30046 5.48828 2.7118 5.88142 2.26654 6.27386C1.82128 6.6663 1.4089 7.15727 1.02928 7.74663C0.649666 8.33599 0.420684 8.97106 0.342102 9.65171C0.577614 11.5355 0.865825 13.6047 1.20615 15.8551C1.54659 18.1076 1.85486 20.0392 2.12955 21.6483ZM34.7452 36.8279C33.1482 38.8179 31.1582 39.9176 28.7758 40.1259C26.3662 40.3357 24.2005 39.6029 22.2762 37.9275C20.3518 36.2522 19.3372 34.223 19.2323 31.8405C19.1538 30.0331 19.6055 28.3384 20.5873 26.7537C21.5691 25.1703 22.8849 24.0124 24.5339 23.2788C27.0998 22.1264 29.6784 22.297 32.2707 23.7897C34.8629 25.281 36.3414 27.4287 36.7082 30.2293C36.9963 32.6387 36.342 34.8386 34.7452 36.8279ZM11.8493 7.25637C12.687 6.81111 13.4063 6.52278 14.0091 6.39302C14.6113 6.26244 15.4747 6.1062 16.6007 5.92211C23.8003 4.63985 31.2103 4.6135 38.8286 5.84213C40.1108 6.05257 41.0406 6.21673 41.6171 6.33297C42.1928 6.45143 42.9521 6.73964 43.8947 7.19854C44.8372 7.65732 45.57 8.23887 46.0937 8.94599C45.3345 9.70523 44.3527 10.3145 43.1483 10.7712C41.9438 11.23 40.9948 11.5119 40.3013 11.6167C39.607 11.721 38.4361 11.8793 36.7864 12.0876C31.0262 12.8212 25.1616 12.8069 19.1922 12.0476C17.6209 11.8649 16.4757 11.7144 15.7558 11.5967C15.0351 11.4782 14.0733 11.1913 12.8696 10.7333C11.6651 10.2745 10.6705 9.67946 9.88559 8.94588C10.3573 8.26534 11.0109 7.70093 11.8493 7.25637Z" fill="black"/>
<path d="M31.2693 28.4045C30.5493 27.6311 29.7117 27.1666 28.7562 27.0103C27.8001 26.8526 26.8519 27.0103 25.9092 27.4812C24.9138 27.9258 24.2331 28.6871 23.867 29.7596C23.5002 30.8334 23.5066 31.9074 23.887 32.9799C24.2659 34.0537 24.9673 34.8129 25.9883 35.2582C27.3753 36.0959 28.8352 36.0174 30.3672 35.0221C31.8985 34.0281 32.5599 32.7059 32.3501 31.0561C32.3488 30.0614 31.9893 29.1773 31.2693 28.4045Z" fill="black"/>
</svg>
