<svg width="56" height="65" viewBox="0 0 56 65" fill="none" xmlns="http://www.w3.org/2000/svg">
<path d="M47.9011 45.4687C42.0359 49.3438 35.3929 51.2812 27.9708 51.2812C20.5486 51.2812 13.9177 49.3439 8.07972 45.4687L7.3726 45.8211L7.13708 46.4504C7.97479 51.5821 8.72108 55.4045 9.37538 57.9175C9.89911 58.8337 10.5799 59.6386 11.4176 60.3321C12.2553 61.0257 13.2106 61.5965 14.2845 62.0409C15.3576 62.4855 16.3595 62.8388 17.2885 63.1013C18.2175 63.3639 19.285 63.5987 20.4893 63.8083C23.1857 64.2529 25.8237 64.4955 28.4024 64.5354C30.9812 64.574 33.6256 64.2856 36.3355 63.6699C39.0455 63.0548 41.5258 62.1186 43.7776 60.8629C44.7203 60.3384 45.4795 59.5985 46.0552 58.6445C46.631 57.687 47.0036 56.7729 47.174 55.8953C47.3439 55.0177 47.528 53.9196 47.7242 52.5951C47.9206 51.2744 48.1231 50.2727 48.3329 49.5912C48.3329 49.355 48.4372 48.872 48.6468 48.1384C48.8558 47.4049 48.9215 46.8162 48.8431 46.371C48.7651 45.9268 48.4506 45.6249 47.9011 45.4687Z" fill="black"/>
<path d="M2.12948 21.6483C2.40417 23.2587 2.77096 25.3729 3.22905 27.9916C3.68643 30.6102 4.03398 32.5739 4.26938 33.8824C4.3215 34.1172 4.39355 34.5774 4.48554 35.2567C4.57694 35.9382 4.65541 36.4547 4.72105 36.808C4.78599 37.1612 4.90363 37.6071 5.0749 38.1423C5.24477 38.6809 5.46734 39.1376 5.74203 39.5165C6.01672 39.8969 6.35075 40.2436 6.74389 40.5583C10.5663 43.4916 15.7237 45.309 22.2168 46.0161C31.589 47.0114 39.5749 45.8597 46.1722 42.5597C47.0363 42.1165 47.749 41.7098 48.3127 41.343C48.8757 40.9762 49.4451 40.4532 50.0209 39.7725C50.5967 39.0932 50.95 38.3582 51.0813 37.5728C53.306 24.7969 54.7594 16.2231 55.4402 11.8499C55.5973 11.2484 55.6693 10.5413 55.6564 9.72997C55.6428 8.91874 55.4266 8.25149 55.0085 7.72637C53.4372 5.73629 50.6231 4.14158 46.5653 2.93568C38.79 0.657628 29.9401 0.00402379 20.0178 0.972305C15.0951 1.44321 10.998 2.28231 7.72581 3.48541C6.94023 3.77373 6.31227 4.01624 5.84066 4.21246C5.36976 4.40868 4.76687 4.70331 4.03398 5.09587C3.3004 5.48831 2.71174 5.88145 2.26648 6.27389C1.82122 6.66633 1.40884 7.1573 1.02922 7.74666C0.649605 8.33602 0.420623 8.97109 0.342041 9.65174C0.577553 11.5355 0.865764 13.6047 1.20609 15.8552C1.54653 18.1077 1.8548 20.0392 2.12948 21.6483ZM34.7451 36.828C33.1482 38.8179 31.1581 39.9176 28.7757 40.126C26.3661 40.3357 24.2005 39.6029 22.2761 37.9275C20.3517 36.2523 19.3371 34.223 19.2322 31.8405C19.1537 30.0331 19.6054 28.3385 20.5872 26.7538C21.569 25.1704 22.8849 24.0124 24.5338 23.2788C27.0997 22.1264 29.6783 22.297 32.2706 23.7897C34.8629 25.281 36.3413 27.4287 36.7081 30.2293C36.9962 32.6388 36.3419 34.8386 34.7451 36.828ZM11.8493 7.2564C12.687 6.81114 13.4062 6.52281 14.0091 6.39305C14.6113 6.26247 15.4746 6.10624 16.6007 5.92214C23.8002 4.63988 31.2102 4.61353 38.8286 5.84216C40.1107 6.0526 41.0405 6.21676 41.617 6.333C42.1928 6.45146 42.952 6.73967 43.8946 7.19857C44.8372 7.65735 45.5699 8.2389 46.0936 8.94602C45.3344 9.70526 44.3526 10.3146 43.1482 10.7712C41.9437 11.23 40.9947 11.5119 40.3012 11.6168C39.6069 11.721 38.436 11.8793 36.7864 12.0877C31.0261 12.8212 25.1615 12.8069 19.1921 12.0477C17.6208 11.865 16.4757 11.7145 15.7557 11.5967C15.0351 11.4782 14.0732 11.1913 12.8695 10.7333C11.665 10.2746 10.6704 9.67949 9.88553 8.94591C10.3572 8.26537 11.0109 7.70096 11.8493 7.2564Z" fill="black"/>
<path d="M31.2693 28.4045C30.5492 27.6311 29.7116 27.1666 28.7562 27.0104C27.8 26.8526 26.8518 27.0104 25.9092 27.4813C24.9137 27.9258 24.2331 28.6872 23.867 29.7597C23.5002 30.8335 23.5066 31.9074 23.8869 32.9799C24.2658 34.0537 24.9672 34.8129 25.9882 35.2582C27.3753 36.0959 28.8351 36.0174 30.3671 35.0221C31.8984 34.0282 32.5598 32.7059 32.3501 31.0562C32.3488 30.0614 31.9892 29.1773 31.2693 28.4045Z" fill="black"/>
</svg>
