<svg width="43" height="43" viewBox="0 0 43 43" fill="none" xmlns="http://www.w3.org/2000/svg">
<g id="vuesax/linear/book-saved">
<g id="book-saved">
<path id="Vector" d="M39.4167 8.36714V29.9926C39.4167 31.7126 38.0192 33.325 36.2992 33.54L35.7079 33.6118C31.8021 34.1314 25.7821 36.12 22.3421 38.0192C21.8762 38.2879 21.1059 38.2879 20.6221 38.0192L20.5504 37.9834C17.1104 36.1022 11.1084 34.1314 7.22051 33.6118L6.70086 33.54C4.98086 33.325 3.58337 31.7126 3.58337 29.9926V8.3492C3.58337 6.21712 5.32124 4.60464 7.45333 4.7838C11.2158 5.08839 16.9133 6.9876 20.1025 8.97635L20.5504 9.24504C21.07 9.56754 21.9301 9.56754 22.4497 9.24504L22.7542 9.04798C23.883 8.34923 25.3163 7.65047 26.875 7.02339V14.3334L30.4584 11.9505L34.0417 14.3334V4.98097C34.5255 4.89139 34.9913 4.83757 35.4213 4.80174H35.5288C37.6609 4.62257 39.4167 6.21714 39.4167 8.36714Z" stroke="#23213D" stroke-width="2.75" stroke-linecap="round" stroke-linejoin="round"/>
<path id="Vector_2" d="M21.5 9.83627V36.7113" stroke="#23213D" stroke-width="2.75" stroke-linecap="round" stroke-linejoin="round"/>
<path id="Vector_3" d="M34.0417 4.9808V14.3333L30.4583 11.9503L26.875 14.3333V7.02322C29.2221 6.09155 31.8379 5.33914 34.0417 4.9808Z" stroke="#23213D" stroke-width="2.75" stroke-linecap="round" stroke-linejoin="round"/>
</g>
</g>
</svg>
