<svg width="44" height="43" viewBox="0 0 44 43" fill="none" xmlns="http://www.w3.org/2000/svg">
<g id="vuesax/linear/code">
<g id="code">
<path id="Vector" d="M16.6251 23.2907C15.4426 23.882 14.4572 24.7599 13.7226 25.8528C13.3106 26.4799 13.3106 27.2682 13.7226 27.8953C14.4572 28.9882 15.4426 29.8661 16.6251 30.4574" stroke="#292D32" stroke-width="3.01538" stroke-linecap="round" stroke-linejoin="round"/>
<path id="Vector_2" d="M27.7513 23.2907C28.9338 23.882 29.9193 24.7599 30.6538 25.8528C31.0659 26.4799 31.0659 27.2682 30.6538 27.8953C29.9193 28.9882 28.9338 29.8661 27.7513 30.4574" stroke="#292D32" stroke-width="3.01538" stroke-linecap="round" stroke-linejoin="round"/>
<path id="Vector_3" d="M16.6249 39.4161H27.3749C36.3333 39.4161 39.9166 35.8327 39.9166 26.8744V16.1244C39.9166 7.16607 36.3333 3.58273 27.3749 3.58273H16.6249C7.66659 3.58273 4.08325 7.16607 4.08325 16.1244V26.8744C4.08325 35.8327 7.66659 39.4161 16.6249 39.4161Z" stroke="#292D32" stroke-width="3.01538" stroke-linecap="round" stroke-linejoin="round"/>
<path id="Vector_4" d="M4.49548 14.3508L38.9313 14.3329" stroke="#292D32" stroke-width="3.01538" stroke-linecap="round" stroke-linejoin="round"/>
</g>
</g>
</svg>
