<svg width="83" height="64" viewBox="0 0 83 64" fill="none" xmlns="http://www.w3.org/2000/svg">
<path d="M69.8017 6.11353C64.5236 3.64401 58.8799 1.84927 52.9796 0.827332C52.255 2.13742 51.4084 3.89953 50.8248 5.30127C44.5526 4.35802 38.3381 4.35802 32.1813 5.30127C31.5978 3.89953 30.732 2.13742 30.0009 0.827332C24.0942 1.84927 18.4441 3.65061 13.1659 6.12661C2.51985 22.2142 -0.366125 37.9023 1.07687 53.3675C8.1379 58.6405 14.9809 61.8437 21.7084 63.9398C23.3695 61.6537 24.8509 59.2235 26.1271 56.6624C23.6965 55.7388 21.3685 54.599 19.1688 53.2759C19.7524 52.8435 20.3232 52.3915 20.8747 51.9264C34.2913 58.2017 48.8687 58.2017 62.125 51.9264C62.683 52.3915 63.2537 52.8435 63.8309 53.2759C61.6247 54.6055 59.2903 55.7453 56.8597 56.669C58.1359 59.2235 59.611 61.6603 61.2784 63.9463C68.0124 61.8502 74.8618 58.6471 81.9228 53.3675C83.616 35.4393 79.0305 19.8954 69.8017 6.11353ZM27.955 43.8565C23.9274 43.8565 20.6245 40.0966 20.6245 35.5179C20.6245 30.9392 23.8569 27.1728 27.955 27.1728C32.0531 27.1728 35.3559 30.9326 35.2854 35.5179C35.2918 40.0966 32.0531 43.8565 27.955 43.8565ZM55.0448 43.8565C51.0172 43.8565 47.7143 40.0966 47.7143 35.5179C47.7143 30.9392 50.9466 27.1728 55.0448 27.1728C59.1428 27.1728 62.4457 30.9326 62.3752 35.5179C62.3752 40.0966 59.1428 43.8565 55.0448 43.8565Z" fill="black"/>
</svg>
