<svg width="64" height="63" viewBox="0 0 64 63" fill="none" xmlns="http://www.w3.org/2000/svg">
<g clip-path="url(#clip0_1166_12418)">
<path d="M14.4852 0.125489C15.2514 -0.151902 16.1088 0.0389581 16.685 0.615136L25.4154 9.34555C25.3655 9.42165 25.3199 9.50191 25.2792 9.58612L9.63596 41.9514L14.4852 0.125489Z" fill="black"/>
<path d="M9.99966 50.1488L30.9196 62.7009C31.4824 63.0386 32.1706 63.0936 32.78 62.8496L53.78 54.4496C54.6565 54.0993 55.1916 53.2064 55.087 52.2681L50.887 14.4681C50.8005 13.6879 50.286 13.0211 49.5531 12.7397C48.8202 12.4582 47.9915 12.6089 47.4048 13.1304L40.4537 19.3093L9.99966 50.1488Z" fill="black"/>
<path d="M38.0409 15.7752L33.7474 9.33509C33.3412 8.72576 32.6469 8.37208 31.9152 8.40169C31.1835 8.4313 30.52 8.83996 30.1644 9.48012L28.8633 11.8221L16.3226 37.7684L38.0409 15.7752Z" fill="black"/>
</g>
<defs>
<clipPath id="clip0_1166_12418">
<rect width="63" height="63" fill="white" transform="translate(0.5)"/>
</clipPath>
</defs>
</svg>
