<svg width="64" height="64" viewBox="0 0 64 64" fill="none" xmlns="http://www.w3.org/2000/svg">
<g id="firebase-svgrepo-com 1" clip-path="url(#clip0_5298_14622)">
<path id="Vector" d="M14.4852 0.664063C15.2514 0.386672 16.1088 0.577532 16.685 1.15371L25.4154 9.88412C25.3655 9.96022 25.3199 10.0405 25.2792 10.1247L9.63596 42.49L14.4852 0.664063Z" fill="black"/>
<path id="Vector_2" d="M9.99966 50.6874L30.9196 63.2395C31.4824 63.5772 32.1706 63.6322 32.78 63.3882L53.78 54.9882C54.6565 54.6379 55.1916 53.745 55.087 52.8067L50.887 15.0067C50.8005 14.2265 50.286 13.5597 49.5531 13.2782C48.8202 12.9968 47.9915 13.1475 47.4048 13.669L40.4537 19.8479L9.99966 50.6874Z" fill="black"/>
<path id="Vector_3" d="M38.0409 16.3138L33.7474 9.87367C33.3412 9.26433 32.6469 8.91065 31.9152 8.94026C31.1835 8.96987 30.52 9.37853 30.1644 10.0187L28.8633 12.3607L16.3226 38.307L38.0409 16.3138Z" fill="black"/>
</g>
<defs>
<clipPath id="clip0_5298_14622">
<rect width="63" height="63" fill="white" transform="translate(0.5 0.538574)"/>
</clipPath>
</defs>
</svg>
