<svg width="64" height="64" viewBox="0 0 64 64" fill="none" xmlns="http://www.w3.org/2000/svg">
<path id="Vector" fill-rule="evenodd" clip-rule="evenodd" d="M36.1836 7.64962C33.8732 5.33902 30.1268 5.33902 27.8163 7.64962L25.8295 9.63635L30.4676 14.2742C30.9563 14.1435 31.4698 14.0739 32 14.0739C35.2677 14.0739 37.9166 16.7228 37.9166 19.9905C37.9166 20.5205 37.8468 21.0343 37.7164 21.5231L43.7801 27.5866C44.2688 27.4562 44.7823 27.3863 45.3125 27.3863C48.5802 27.3863 51.2291 30.0352 51.2291 33.303C51.2291 36.5708 48.5802 39.2197 45.3125 39.2197C42.0447 39.2197 39.3958 36.5708 39.3958 33.303C39.3958 32.7729 39.4656 32.2593 39.5961 31.7706L34.9583 27.1325V41.4905C36.7268 42.5135 37.9166 44.4255 37.9166 46.6155C37.9166 49.8833 35.2677 52.5322 32 52.5322C28.7322 52.5322 26.0833 49.8833 26.0833 46.6155C26.0833 44.4255 27.2731 42.5135 29.0416 41.4905V25.1157C27.2731 24.0926 26.0833 22.1805 26.0833 19.9905C26.0833 19.4605 26.1531 18.9468 26.2836 18.458L21.6458 13.8201L7.82575 27.6402C5.51514 29.9506 5.51514 33.6971 7.82575 36.0075L27.8163 55.9982C30.1268 58.3086 33.8732 58.3086 36.1836 55.9982L56.1743 36.0075C58.4847 33.6971 58.4847 29.9506 56.1743 27.6402L36.1836 7.64962ZM23.6325 3.46589C28.2538 -1.15531 35.7461 -1.1553 40.3673 3.46592L60.358 23.4564C64.9792 28.0777 64.9792 35.57 60.358 40.1912L40.3673 60.1818C35.7461 64.803 28.2538 64.803 23.6325 60.1818L3.64201 40.1912C-0.979183 35.57 -0.979171 28.0777 3.64204 23.4564L23.6325 3.46589Z" fill="black"/>
</svg>
