<svg width="64" height="65" viewBox="0 0 64 65" fill="none" xmlns="http://www.w3.org/2000/svg">
<path fill-rule="evenodd" clip-rule="evenodd" d="M36.1836 8.54068C33.8732 6.23007 30.1268 6.23007 27.8163 8.54068L25.8295 10.5274L30.4676 15.1653C30.9563 15.0346 31.4698 14.9649 32 14.9649C35.2677 14.9649 37.9166 17.6139 37.9166 20.8816C37.9166 21.4116 37.8468 21.9253 37.7164 22.4141L43.78 28.4777C44.2688 28.3472 44.7823 28.2774 45.3125 28.2774C48.5802 28.2774 51.2291 30.9263 51.2291 34.1941C51.2291 37.4618 48.5802 40.1107 45.3125 40.1107C42.0447 40.1107 39.3958 37.4618 39.3958 34.1941C39.3958 33.6639 39.4656 33.1504 39.5961 32.6617L34.9583 28.0236V42.3815C36.7268 43.4045 37.9166 45.3165 37.9166 47.5066C37.9166 50.7743 35.2677 53.4232 32 53.4232C28.7322 53.4232 26.0833 50.7743 26.0833 47.5066C26.0833 45.3165 27.2731 43.4045 29.0416 42.3815V26.0067C27.2731 24.9837 26.0833 23.0716 26.0833 20.8816C26.0833 20.3516 26.1531 19.8378 26.2836 19.349L21.6458 14.7111L7.82574 28.5312C5.51513 30.8417 5.51513 34.5881 7.82574 36.8986L27.8163 56.8892C30.1268 59.1997 33.8732 59.1997 36.1836 56.8892L56.1743 36.8986C58.4847 34.5881 58.4847 30.8417 56.1743 28.5312L36.1836 8.54068ZM23.6325 4.35694C28.2538 -0.264255 35.7461 -0.264243 40.3673 4.35697L60.358 24.3475C64.9792 28.9688 64.9792 36.461 60.358 41.0822L40.3673 61.0729C35.7461 65.6941 28.2538 65.6941 23.6325 61.0729L3.64201 41.0822C-0.979191 36.461 -0.979179 28.9688 3.64204 24.3475L23.6325 4.35694Z" fill="black"/>
</svg>
