<svg width="64" height="65" viewBox="0 0 64 65" fill="none" xmlns="http://www.w3.org/2000/svg">
<path d="M30.856 31.2402H0C0.00104541 33.0699 0.362968 34.8815 1.06505 36.5712C1.76713 38.261 2.79558 39.7956 4.09153 41.0874C5.38748 42.3791 6.92548 43.4025 8.61747 44.0991C10.3095 44.7957 12.1222 45.1517 13.952 45.1468H19.632V50.6322C19.632 54.3195 21.0964 57.8559 23.7033 60.4638C26.3101 63.0716 29.846 64.5374 33.5333 64.5388V33.9202C33.5333 33.2094 33.251 32.5277 32.7484 32.0251C32.2458 31.5225 31.5641 31.2402 30.8533 31.2402H30.856ZM46.1173 15.8908H15.296C15.2967 19.5786 16.7622 23.1152 19.3701 25.7226C21.978 28.33 25.5149 29.7948 29.2027 29.7948H34.88V35.2828C34.8828 38.97 36.349 42.5053 38.9565 45.1123C41.5639 47.7192 45.0995 49.1847 48.7867 49.1868V18.5602C48.7867 17.8522 48.5054 17.1732 48.0048 16.6726C47.5042 16.1721 46.8253 15.8908 46.1173 15.8908ZM61.368 0.538818H30.5467C30.5467 4.2271 32.0118 7.76431 34.6198 10.3723C37.2278 12.9803 40.7651 14.4455 44.4533 14.4455H50.1307V19.9308C50.1335 23.6108 51.5948 27.1396 54.1944 29.7443C56.794 32.3489 60.32 33.8169 64 33.8268V3.21882C64.0029 2.51544 63.728 1.83936 63.2352 1.33752C62.7423 0.83568 62.0713 0.54865 61.368 0.538818Z" fill="black"/>
</svg>
