<svg width="64" height="64" viewBox="0 0 64 64" fill="none" xmlns="http://www.w3.org/2000/svg">
<g clip-path="url(#clip0_5776_15336)">
<path d="M30.856 30.7013H0C0.00104541 32.5311 0.362968 34.3427 1.06505 36.0324C1.76713 37.7221 2.79558 39.2568 4.09153 40.5485C5.38748 41.8403 6.92548 42.8637 8.61747 43.5603C10.3095 44.2569 12.1222 44.6129 13.952 44.608H19.632V50.0933C19.632 53.7807 21.0964 57.3171 23.7033 59.9249C26.3101 62.5328 29.846 63.9986 33.5333 64V33.3813C33.5333 32.6706 33.251 31.9889 32.7484 31.4863C32.2458 30.9837 31.5641 30.7013 30.8533 30.7013H30.856ZM46.1173 15.352H15.296C15.2967 19.0398 16.7622 22.5763 19.3701 25.1838C21.978 27.7912 25.5149 29.256 29.2027 29.256H34.88V34.744C34.8828 38.4312 36.349 41.9665 38.9565 44.5734C41.5639 47.1804 45.0995 48.6459 48.7867 48.648V18.0213C48.7867 17.3134 48.5054 16.6344 48.0048 16.1338C47.5042 15.6332 46.8253 15.352 46.1173 15.352ZM61.368 0H30.5467C30.5467 3.68828 32.0118 7.22549 34.6198 9.8335C37.2278 12.4415 40.7651 13.9067 44.4533 13.9067H50.1307V19.392C50.1335 23.072 51.5948 26.6008 54.1944 29.2054C56.794 31.8101 60.32 33.2781 64 33.288V2.68C64.0029 1.97662 63.728 1.30054 63.2352 0.798701C62.7423 0.296862 62.0713 0.0098316 61.368 0Z" fill="black"/>
</g>
<defs>
<clipPath id="clip0_5776_15336">
<rect width="64" height="64" fill="white"/>
</clipPath>
</defs>
</svg>
