<svg width="94" height="65" viewBox="0 0 94 65" fill="none" xmlns="http://www.w3.org/2000/svg">
<path d="M0.0921021 64.5388H20.4554L21.9099 47.0835L3.00018 42.7209L0.0921021 64.5388ZM3.72841 39.8109L21.9099 44.1745L26.2735 28.902L11.001 20.9031L3.72841 39.8109ZM12.4546 17.9931L26.9998 25.9929L38.637 17.9931L27.728 5.62962L12.4546 17.9931ZM93.9079 64.5388H73.5455L72.09 47.0835L90.9998 42.7209L93.9079 64.5388ZM90.2716 39.8109L72.09 44.1745L67.7274 28.902L82.999 20.9031L90.2716 39.8109ZM81.5444 17.9931L66.9992 25.9929L55.364 17.9931L66.2729 5.62962L81.5444 17.9931ZM31.3643 3.44783L42.2733 16.5385H52.454L61.9093 3.44783L52.454 0.538788H42.0173L31.3643 3.44783Z" fill="#4C4C4C"/>
</svg>
