<svg width="94" height="65" viewBox="0 0 94 65" fill="none" xmlns="http://www.w3.org/2000/svg">
<path d="M0.0921631 64.5388H20.4555L21.91 47.0836L3.00024 42.721L0.0921631 64.5388ZM3.72847 39.811L21.91 44.1745L26.2736 28.902L11.0011 20.9031L3.72847 39.811ZM12.4546 17.9931L26.9999 25.993L38.637 17.9931L27.7281 5.62965L12.4546 17.9931ZM93.9079 64.5388H73.5456L72.0901 47.0836L90.9999 42.721L93.9079 64.5388ZM90.2716 39.811L72.0901 44.1745L67.7275 28.902L82.999 20.9031L90.2716 39.811ZM81.5445 17.9931L66.9993 25.993L55.364 17.9931L66.273 5.62965L81.5445 17.9931ZM31.3644 3.44787L42.2733 16.5386H52.454L61.9094 3.44787L52.454 0.538818H42.0173L31.3644 3.44787Z" fill="#4C4C4C"/>
<path d="M0.0921631 64.5381H20.4555L21.91 47.0828L3.00024 42.7202L0.0921631 64.5381Z" fill="black"/>
<path d="M3.72864 39.8108L21.9102 44.1744L26.2738 28.9019L11.0013 20.903L3.72864 39.8108Z" fill="black"/>
<path d="M12.4554 17.9921L27.0007 25.992L38.6378 17.9921L27.7289 5.62866L12.4554 17.9921Z" fill="black"/>
<path d="M93.9081 64.5381H73.5457L72.0902 47.0828L91 42.7202L93.9081 64.5381Z" fill="black"/>
<path d="M90.2717 39.8108L72.0901 44.1744L67.7275 28.9019L82.9991 20.903L90.2717 39.8108Z" fill="black"/>
<path d="M81.5452 17.9921L67 25.992L55.3647 17.9921L66.2737 5.62866L81.5452 17.9921Z" fill="black"/>
<path d="M31.3647 3.44787L42.2737 16.5386H52.4544L61.9097 3.44787L52.4544 0.538818H42.0177L31.3647 3.44787Z" fill="black"/>
</svg>
