<svg width="75" height="63" viewBox="0 0 75 63" fill="none" xmlns="http://www.w3.org/2000/svg">
<path d="M51.9666 43.8391C54.7343 43.5896 56.834 41.512 56.7385 39.0186C56.6433 36.5254 54.2571 34.5307 51.3939 34.5307H51.2032C48.2442 34.6139 45.9538 36.7746 46.0493 39.351C46.1448 40.5977 46.7173 41.6781 47.5763 42.426C44.3314 47.9946 39.3685 52.0668 31.9242 55.4743C26.8659 57.8014 21.6168 58.6326 16.3677 58.0509C12.0728 57.5522 8.73244 55.8902 6.63246 53.1472C3.57858 49.0749 3.29235 44.67 5.86928 40.2653C7.68274 37.107 10.5456 34.7799 12.3591 33.6164C11.9773 32.536 11.4046 30.7076 11.1184 29.378C-2.72049 38.1045 -1.28876 49.9061 2.91062 55.4743C6.06 59.63 12.4546 62.2064 19.5171 62.2064C21.4258 62.2064 23.3345 62.0401 25.2434 61.6247C37.4598 59.5469 46.7176 53.2304 51.9666 43.8391ZM68.7642 33.5335C61.5106 26.1366 50.8214 22.0643 38.605 22.0643H37.0781C36.2191 20.5684 34.4057 19.5709 32.4015 19.5709H32.2105C29.2521 19.6541 26.9617 21.8148 27.0569 24.3914C27.1524 26.8846 29.5383 28.8793 32.4015 28.8793H32.5922C34.6919 28.7961 36.5054 27.6326 37.2688 26.0534H38.9868C46.2403 26.0534 53.1119 27.8818 59.3157 31.4556C64.0875 34.1983 67.5234 37.7721 69.4321 42.0936C71.0546 45.5843 70.9591 48.9918 69.2411 51.9008C66.569 56.3055 62.0834 58.7157 56.166 58.7157C52.3484 58.7157 48.7218 57.7183 46.8128 56.9703C45.7631 57.8014 43.8541 59.1311 42.5179 59.9625C46.6221 61.6245 50.8214 62.5388 54.8298 62.5388C63.992 62.5388 70.7683 58.1338 73.3453 53.7291C76.1129 48.9086 75.9219 40.5977 68.7642 33.5335ZM20.2806 45.2516C20.3761 47.7451 22.762 49.7395 25.6252 49.7395H25.8162C28.7749 49.6566 31.0653 47.4956 30.9698 44.9192C30.8745 42.4258 28.4883 40.4314 25.6252 40.4314H25.4344C25.2434 40.4314 24.9569 40.4314 24.7665 40.5143C20.8533 34.8629 19.2309 28.713 19.8036 22.0641C20.1851 17.0775 22.094 12.7557 25.4344 9.18186C28.2021 6.10678 33.5467 4.61083 37.1736 4.52792C47.29 4.36159 51.5846 15.332 51.8711 19.737C53.1119 19.9862 55.2115 20.5681 56.6433 20.9837C55.4978 7.52008 45.9538 0.538788 36.7919 0.538788C28.2021 0.538788 20.2806 5.94096 17.1309 13.9195C12.7408 24.5575 15.604 34.7799 20.9485 42.8416C20.4716 43.4233 20.1851 44.3373 20.2806 45.2516Z" fill="black"/>
</svg>
