<svg width="75" height="63" viewBox="0 0 75 63" fill="none" xmlns="http://www.w3.org/2000/svg">
<path d="M51.9666 43.8389C54.7343 43.5894 56.834 41.5118 56.7385 39.0184C56.6433 36.5252 54.2571 34.5305 51.3939 34.5305H51.2032C48.2442 34.6137 45.9538 36.7744 46.0493 39.3508C46.1448 40.5975 46.7173 41.6779 47.5763 42.4258C44.3314 47.9943 39.3685 52.0666 31.9242 55.4741C26.8659 57.8012 21.6168 58.6324 16.3677 58.0507C12.0728 57.552 8.73244 55.8899 6.63246 53.147C3.57858 49.0747 3.29235 44.6698 5.86928 40.2651C7.68274 37.1068 10.5456 34.7797 12.3591 33.6162C11.9773 32.5358 11.4046 30.7074 11.1184 29.3778C-2.72049 38.1043 -1.28876 49.9059 2.91062 55.4741C6.06 59.6298 12.4546 62.2062 19.5171 62.2062C21.4258 62.2062 23.3345 62.0398 25.2434 61.6245C37.4598 59.5467 46.7176 53.2302 51.9666 43.8389ZM68.7642 33.5333C61.5106 26.1364 50.8214 22.0641 38.605 22.0641H37.0781C36.2191 20.5682 34.4057 19.5707 32.4015 19.5707H32.2105C29.2521 19.6538 26.9617 21.8146 27.0569 24.3912C27.1524 26.8844 29.5383 28.8791 32.4015 28.8791H32.5922C34.6919 28.7959 36.5054 27.6324 37.2688 26.0532H38.9868C46.2403 26.0532 53.1119 27.8816 59.3157 31.4554C64.0875 34.1981 67.5234 37.7719 69.4321 42.0934C71.0546 45.5841 70.9591 48.9916 69.2411 51.9006C66.569 56.3053 62.0834 58.7155 56.166 58.7155C52.3484 58.7155 48.7218 57.718 46.8128 56.9701C45.7631 57.8012 43.8541 59.1308 42.5179 59.9622C46.6221 61.6243 50.8214 62.5386 54.8298 62.5386C63.992 62.5386 70.7683 58.1336 73.3453 53.7289C76.1129 48.9084 75.9219 40.5975 68.7642 33.5333ZM20.2806 45.2514C20.3761 47.7448 22.762 49.7393 25.6252 49.7393H25.8162C28.7749 49.6564 31.0653 47.4953 30.9698 44.919C30.8745 42.4256 28.4883 40.4311 25.6252 40.4311H25.4344C25.2434 40.4311 24.9569 40.4311 24.7665 40.5141C20.8533 34.8626 19.2309 28.7127 19.8036 22.0639C20.1851 17.0772 22.094 12.7555 25.4344 9.18165C28.2021 6.10657 33.5467 4.61061 37.1736 4.5277C47.29 4.36137 51.5846 15.3318 51.8711 19.7368C53.1119 19.986 55.2115 20.5679 56.6433 20.9835C55.4978 7.51987 45.9538 0.538574 36.7919 0.538574C28.2021 0.538574 20.2806 5.94075 17.1309 13.9193C12.7408 24.5573 15.604 34.7797 20.9485 42.8414C20.4716 43.4231 20.1851 44.3371 20.2806 45.2514Z" fill="black"/>
</svg>
