<svg width="65" height="64" viewBox="0 0 65 64" fill="none" xmlns="http://www.w3.org/2000/svg">
<g clip-path="url(#clip0_5776_15256)">
<path d="M59.2576 0H5.25757C2.49614 0 0.257568 2.23858 0.257568 5V59C0.257568 61.7614 2.49614 64 5.25757 64H59.2576C62.019 64 64.2576 61.7614 64.2576 59V5C64.2576 2.23858 62.019 0 59.2576 0Z" fill="black"/>
<path fill-rule="evenodd" clip-rule="evenodd" d="M37.6518 50.119V57.024C38.7748 57.5995 40.1031 58.031 41.6363 58.3187C43.1696 58.6065 44.7856 58.7502 46.4846 58.7502C48.1401 58.7502 49.7131 58.592 51.2031 58.2755C52.6931 57.959 53.9998 57.4375 55.1226 56.7112C56.2456 55.9847 57.1346 55.0352 57.7898 53.8627C58.4448 52.6905 58.7723 51.2412 58.7723 49.515C58.7723 48.2635 58.5851 47.1665 58.2108 46.2242C57.8366 45.282 57.2966 44.444 56.5911 43.7105C55.8858 42.9767 55.0398 42.3187 54.0538 41.736C53.0676 41.1535 51.9553 40.6032 50.7171 40.0855C49.8101 39.7112 48.9968 39.3482 48.2768 38.9957C47.5571 38.6432 46.9451 38.2837 46.4413 37.9167C45.9373 37.55 45.5486 37.1615 45.2751 36.7515C45.0016 36.3415 44.8648 35.8777 44.8648 35.3597C44.8648 34.885 44.9871 34.4572 45.2318 34.076C45.4766 33.6947 45.8223 33.3675 46.2686 33.0942C46.7148 32.8207 47.2618 32.6087 47.9098 32.4575C48.5576 32.3065 49.2776 32.231 50.0693 32.231C50.6453 32.231 51.2536 32.2742 51.8941 32.3605C52.5348 32.4467 53.1791 32.5797 53.8271 32.7597C54.4748 32.9395 55.1046 33.166 55.7166 33.4395C56.3283 33.7127 56.8936 34.0292 57.4118 34.3887V27.937C56.3608 27.5342 55.2126 27.2357 53.9673 27.0415C52.7221 26.8472 51.2931 26.7502 49.6806 26.7502C48.0393 26.7502 46.4846 26.9265 45.0161 27.279C43.5476 27.6312 42.2553 28.1815 41.1396 28.9295C40.0238 29.6777 39.1421 30.6307 38.4941 31.7887C37.8463 32.9467 37.5223 34.3312 37.5223 35.9425C37.5223 37.9995 38.1161 39.7545 39.3041 41.2075C40.4918 42.6602 42.2948 43.8902 44.7136 44.8972C45.6638 45.2857 46.5493 45.6667 47.3698 46.041C48.1906 46.415 48.8996 46.8032 49.4971 47.206C50.0946 47.6087 50.5661 48.0475 50.9116 48.5222C51.2571 48.997 51.4298 49.5365 51.4298 50.1407C51.4298 50.5865 51.3218 51.0002 51.1058 51.3815C50.8901 51.7625 50.5623 52.0935 50.1233 52.374C49.6843 52.6545 49.1371 52.8737 48.4821 53.032C47.8271 53.1902 47.0603 53.2695 46.1821 53.2695C44.6848 53.2695 43.2021 53.007 41.7336 52.4817C40.2648 51.9567 38.9043 51.1692 37.6518 50.119ZM26.1428 32.9357H35.0223V27.2502H10.2723V32.9357H19.1085V58.2502H26.1428V32.9357Z" fill="#F6F6F6"/>
</g>
<defs>
<clipPath id="clip0_5776_15256">
<rect width="64" height="64" fill="white" transform="translate(0.0222168)"/>
</clipPath>
</defs>
</svg>
