<svg width="64" height="65" viewBox="0 0 64 65" fill="none" xmlns="http://www.w3.org/2000/svg">
<g style="mix-blend-mode:overlay" opacity="0.25">
<path fill-rule="evenodd" clip-rule="evenodd" d="M45.2492 64.267C46.25 64.6589 47.3912 64.6341 48.4013 64.1453L61.4839 57.8179C62.8586 57.1533 63.7324 55.7548 63.7324 54.2204V11.3146C63.7324 9.78045 62.8586 8.382 61.4839 7.71702L48.4013 1.38914C47.0756 0.747955 45.5241 0.905043 44.3606 1.75528C44.1944 1.87677 44.0361 2.01236 43.8875 2.1618L18.8428 25.1291L7.93375 16.8053C6.91826 16.0305 5.49783 16.094 4.55468 16.9564L1.05578 20.1556C-0.0978583 21.2105 -0.0991831 23.0349 1.05293 24.0915L10.5135 32.7673L1.05293 41.4432C-0.0991831 42.4998 -0.0978583 44.3242 1.05578 45.3791L4.55468 48.5783C5.49783 49.4407 6.91826 49.5039 7.93375 48.7294L18.8428 40.4056L43.8875 63.3729C44.2838 63.7714 44.7489 64.0715 45.2492 64.267ZM47.8566 18.2676L28.8534 32.7673L47.8566 47.2671V18.2676Z" fill="black"/>
</g>
</svg>
