<svg xmlns="http://www.w3.org/2000/svg" width="64" height="64" viewBox="0 0 64 64" fill="none">
  <g clip-path="url(#clip0_5298_14632)">
    <mask id="mask0_5298_14632" style="mask-type:luminance" maskUnits="userSpaceOnUse" x="0" y="0" width="64" height="64">
      <path d="M63.7715 0H0.228516V63.543H63.7715V0Z" fill="white"/>
    </mask>
    <g mask="url(#mask0_5298_14632)">
      <g filter="url(#filter0_d_5298_14632)">
        <mask id="mask1_5298_14632" style="mask-type:alpha" maskUnits="userSpaceOnUse" x="0" y="0" width="64" height="64">
          <path fill-rule="evenodd" clip-rule="evenodd" d="M45.288 63.2713C46.2888 63.6632 47.43 63.6384 48.4402 63.1495L61.5223 56.8222C62.8971 56.1575 63.7715 54.759 63.7715 53.2247V10.3189C63.7715 8.78464 62.8971 7.38612 61.5223 6.7212L48.4402 0.393374C47.1145 -0.247813 45.563 -0.0907938 44.3995 0.759511C44.2333 0.880935 44.0749 1.01659 43.9264 1.16603L18.8816 24.1333L7.97263 15.8095C6.95715 15.0347 5.53667 15.0982 4.59352 15.9606L1.09462 19.1598C-0.0590813 20.2148 -0.0603394 22.0391 1.09177 23.0957L10.5524 31.7716L1.09177 40.4474C-0.0603394 41.504 -0.0590813 43.3285 1.09462 44.3834L4.59352 47.5826C5.53667 48.4449 6.95715 48.5088 7.97263 47.7336L18.8816 39.4099L43.9264 62.3771C44.3226 62.7757 44.7878 63.0757 45.288 63.2713ZM47.8954 17.2718L28.8922 31.7716L47.8954 46.2714V17.2718Z" fill="white"/>
        </mask>
        <g mask="url(#mask1_5298_14632)">
          <path d="M61.5229 6.73097L48.43 0.394369C46.9145 -0.3391 45.1034 -0.0297174 43.9141 1.16582L1.0534 40.4472C-0.0994408 41.5038 -0.0981172 43.3282 1.05624 44.3831L4.55727 47.5823C5.50101 48.4447 6.92234 48.5079 7.93839 47.7334L59.5524 8.37483C61.2839 7.0544 63.7714 8.29584 63.7714 10.4806V10.3278C63.7714 8.79421 62.897 7.39626 61.5229 6.73097Z" fill="black"/>
          <g filter="url(#filter1_d_5298_14632)">
            <path d="M61.5228 56.8119L48.43 63.1486C46.9145 63.8821 45.1034 63.5727 43.9141 62.3768L1.05339 23.0954C-0.0994561 22.0389 -0.0981325 20.2144 1.05623 19.1595L4.55725 15.9603C5.501 15.0979 6.92232 15.0345 7.93837 15.8093L59.5524 55.1679C61.2839 56.4886 63.7714 55.2471 63.7714 53.0621V53.2151C63.7714 54.7487 62.8969 56.1466 61.5228 56.8119Z" fill="black"/>
          </g>
          <g filter="url(#filter2_d_5298_14632)">
            <path d="M48.4308 63.1495C46.9148 63.883 45.1037 63.5729 43.9142 62.3771C45.3798 63.85 47.8857 62.8069 47.8857 60.7237V2.81954C47.8857 0.736236 45.3799 -0.307148 43.9142 1.16604C45.1037 -0.029636 46.9148 -0.339417 48.4308 0.393385L61.5209 6.72121C62.8964 7.38612 63.7714 8.78464 63.7714 10.3189V53.2247C63.7714 54.759 62.8964 56.1569 61.5209 56.8222L48.4308 63.1495Z" fill="black"/>
          </g>
          <g style="mix-blend-mode:overlay" opacity="0.25">
            <g style="mix-blend-mode:overlay" opacity="0.25">
              <path fill-rule="evenodd" clip-rule="evenodd" d="M45.2491 63.2713C46.2499 63.6631 47.3912 63.6383 48.4013 63.1495L61.4838 56.8221C62.8586 56.1575 63.7324 54.759 63.7324 53.2247V10.3188C63.7324 8.78467 62.8586 7.38621 61.4838 6.72123L48.4013 0.393353C47.0756 -0.247833 45.5241 -0.0907459 44.3606 0.759492C44.1944 0.880979 44.0361 1.01657 43.8875 1.16601L18.8428 24.1333L7.9337 15.8095C6.91822 15.0347 5.49778 15.0982 4.55463 15.9606L1.05573 19.1598C-0.0979041 20.2147 -0.0992289 22.0391 1.05288 23.0957L10.5135 31.7715L1.05288 40.4474C-0.0992289 41.504 -0.0979041 43.3284 1.05573 44.3833L4.55463 47.5826C5.49778 48.4449 6.91822 48.5081 7.9337 47.7336L18.8428 39.4098L43.8875 62.3771C44.2837 62.7756 44.7489 63.0757 45.2491 63.2713ZM47.8565 17.2718L28.8533 31.7715L47.8565 46.2713V17.2718Z" fill="black"/>
            </g>
          </g>
        </g>
      </g>
    </g>
  </g>
  <defs>
    <filter id="filter0_d_5298_14632" x="-3.74292" y="-2.64763" width="71.4858" height="71.4858" filterUnits="userSpaceOnUse" color-interpolation-filters="sRGB">
      <feFlood flood-opacity="0" result="BackgroundImageFix"/>
      <feColorMatrix in="SourceAlpha" type="matrix" values="0 0 0 0 0 0 0 0 0 0 0 0 0 0 0 0 0 0 127 0" result="hardAlpha"/>
      <feOffset dy="1.32381"/>
      <feGaussianBlur stdDeviation="1.98572"/>
      <feColorMatrix type="matrix" values="0 0 0 0 0 0 0 0 0 0 0 0 0 0 0 0 0 0 0.15 0"/>
      <feBlend mode="normal" in2="BackgroundImageFix" result="effect1_dropShadow_5298_14632"/>
      <feBlend mode="normal" in="SourceGraphic" in2="effect1_dropShadow_5298_14632" result="shape"/>
    </filter>
    <filter id="filter1_d_5298_14632" x="-5.10565" y="9.97297" width="74.1723" height="58.8649" filterUnits="userSpaceOnUse" color-interpolation-filters="sRGB">
      <feFlood flood-opacity="0" result="BackgroundImageFix"/>
      <feColorMatrix in="SourceAlpha" type="matrix" values="0 0 0 0 0 0 0 0 0 0 0 0 0 0 0 0 0 0 127 0" result="hardAlpha"/>
      <feOffset/>
      <feGaussianBlur stdDeviation="2.64763"/>
      <feColorMatrix type="matrix" values="0 0 0 0 0 0 0 0 0 0 0 0 0 0 0 0 0 0 0.25 0"/>
      <feBlend mode="overlay" in2="BackgroundImageFix" result="effect1_dropShadow_5298_14632"/>
      <feBlend mode="normal" in="SourceGraphic" in2="effect1_dropShadow_5298_14632" result="shape"/>
    </filter>
    <filter id="filter2_d_5298_14632" x="38.619" y="-5.29525" width="30.4477" height="74.1338" filterUnits="userSpaceOnUse" color-interpolation-filters="sRGB">
      <feFlood flood-opacity="0" result="BackgroundImageFix"/>
      <feColorMatrix in="SourceAlpha" type="matrix" values="0 0 0 0 0 0 0 0 0 0 0 0 0 0 0 0 0 0 127 0" result="hardAlpha"/>
      <feOffset/>
      <feGaussianBlur stdDeviation="2.64763"/>
      <feColorMatrix type="matrix" values="0 0 0 0 0 0 0 0 0 0 0 0 0 0 0 0 0 0 0.25 0"/>
      <feBlend mode="overlay" in2="BackgroundImageFix" result="effect1_dropShadow_5298_14632"/>
      <feBlend mode="normal" in="SourceGraphic" in2="effect1_dropShadow_5298_14632" result="shape"/>
    </filter>
    <clipPath id="clip0_5298_14632">
      <rect width="63.543" height="63.543" fill="white" transform="translate(0.228516)"/>
    </clipPath>
  </defs>
</svg>