<svg width="64" height="65" viewBox="0 0 64 65" fill="none" xmlns="http://www.w3.org/2000/svg">
<g style="mix-blend-mode:overlay" opacity="0.25">
<path fill-rule="evenodd" clip-rule="evenodd" d="M45.2491 64.2671C46.2499 64.6589 47.3912 64.6342 48.4013 64.1453L61.4839 57.818C62.8586 57.1533 63.7324 55.7548 63.7324 54.2205V11.3147C63.7324 9.78048 62.8586 8.38203 61.4839 7.71705L48.4013 1.38917C47.0756 0.747986 45.5241 0.905073 44.3606 1.75531C44.1944 1.8768 44.0361 2.01239 43.8875 2.16183L18.8428 25.1292L7.93371 16.8054C6.91823 16.0305 5.4978 16.094 4.55465 16.9564L1.05575 20.1556C-0.0978888 21.2105 -0.0992136 23.0349 1.0529 24.0915L10.5135 32.7674L1.0529 41.4433C-0.0992136 42.4998 -0.0978888 44.3242 1.05575 45.3791L4.55465 48.5784C5.4978 49.4407 6.91823 49.5039 7.93371 48.7294L18.8428 40.4057L43.8875 63.3729C44.2837 63.7714 44.7489 64.0715 45.2491 64.2671ZM47.8566 18.2676L28.8533 32.7674L47.8566 47.2671V18.2676Z" fill="black"/>
</g>
</svg>
