<?xml version="1.0" standalone="no"?>
<!DOCTYPE svg PUBLIC "-//W3C//DTD SVG 20010904//EN"
 "http://www.w3.org/TR/2001/REC-SVG-20010904/DTD/svg10.dtd">
<svg version="1.0" xmlns="http://www.w3.org/2000/svg"
 width="60" height="60" viewBox="0 0 1792.000000 2064.000000"
 preserveAspectRatio="xMidYMid meet">

<g transform="translate(0.000000,2064.000000) scale(0.100000,-0.100000)"
fill="#000000" stroke="none">
<path d="M8810 20549 c-369 -22 -733 -132 -1058 -319 -145 -83 -6331 -3754
-6498 -3856 -448 -273 -784 -643 -1004 -1107 -132 -278 -211 -571 -240 -887
-14 -159 -14 -7970 0 -8130 70 -784 487 -1488 1140 -1927 146 -98 6607 -3927
6730 -3988 604 -301 1327 -334 1955 -88 198 78 235 99 1605 913 173 103 1145
680 2160 1282 1015 602 2124 1261 2465 1463 669 397 744 445 892 564 125 100
328 309 422 434 308 411 483 875 521 1382 8 107 10 1282 8 4135 -3 3745 -5
3992 -21 4100 -44 288 -126 550 -246 795 -203 410 -500 751 -871 999 -52 35
-1359 814 -2905 1731 -1545 917 -3015 1789 -3265 1938 -250 149 -515 299 -588
334 -363 176 -787 258 -1202 232z m368 -460 c213 -23 433 -86 627 -178 92 -44
6044 -3565 6615 -3913 169 -103 290 -198 420 -328 275 -274 458 -596 555 -973
41 -162 45 -201 14 -142 -73 137 -188 253 -313 314 -107 53 -187 71 -321 71
-210 0 -390 -60 -640 -211 -385 -233 -6214 -3836 -6347 -3923 -210 -138 -354
-252 -504 -401 -313 -310 -475 -628 -529 -1034 -22 -164 -22 -7857 0 -8024 33
-251 116 -445 254 -590 60 -64 179 -148 236 -167 19 -6 35 -15 35 -20 0 -14
-193 -33 -340 -32 -362 1 -720 107 -1055 312 -33 20 -256 153 -495 295 -239
142 -1276 757 -2305 1368 -1028 610 -2052 1218 -2275 1350 -1409 836 -1396
827 -1513 915 -56 41 -154 127 -218 191 -330 330 -526 717 -606 1196 -17 105
-18 287 -18 4155 0 3868 1 4050 18 4155 66 399 212 729 454 1030 100 125 246
265 374 361 98 73 164 113 709 436 162 97 1560 926 3105 1843 1546 918 2839
1685 2875 1704 219 121 463 202 710 236 119 16 350 18 478 4z m2442 -10809
c19 -19 20 -33 20 -321 0 -283 1 -301 18 -296 9 4 51 18 92 32 138 48 305 64
445 45 77 -11 115 -39 115 -86 0 -30 -116 -548 -131 -585 -6 -15 -26 -41 -44
-59 l-34 -33 -91 13 c-104 15 -245 9 -335 -15 -33 -9 -124 -47 -202 -86 -117
-57 -155 -82 -217 -140 -123 -115 -198 -246 -231 -405 -46 -222 17 -364 182
-413 97 -29 176 -39 363 -46 269 -11 417 -42 548 -116 80 -46 179 -150 224
-234 178 -341 132 -935 -112 -1430 -112 -229 -245 -409 -439 -598 l-121 -117
0 -276 c0 -165 -4 -292 -11 -318 -18 -73 -55 -106 -237 -209 -216 -124 -216
-124 -248 -92 l-24 24 0 290 0 290 -57 -26 c-148 -65 -376 -97 -543 -74 -134
18 -158 27 -177 67 -16 33 -15 40 47 307 71 306 78 329 122 375 37 37 49 38
167 16 347 -66 756 110 955 411 131 196 186 471 126 630 -31 81 -104 154 -185
184 -91 34 -143 41 -365 51 -222 10 -292 19 -397 51 -257 79 -401 253 -448
544 -48 294 23 688 185 1024 111 229 236 399 435 589 l125 119 0 300 c0 385
-17 347 221 501 225 146 225 146 259 112z m3418 -3542 c9 -9 12 -79 12 -252
l0 -239 -37 -35 c-33 -30 -1567 -969 -1650 -1010 -30 -14 -34 -14 -53 3 -19
17 -20 30 -20 255 0 230 1 238 23 269 15 22 183 127 572 360 303 180 674 403
825 494 151 91 284 166 296 166 11 1 25 -4 32 -11z"/>
</g>
</svg>
