<svg width="58" height="66" viewBox="0 0 58 66" fill="none" xmlns="http://www.w3.org/2000/svg">
<path d="M57.7555 0.939514L52.4107 58.8276L29.2555 65.0604L6.10026 58.8276L0.755493 0.939514H57.7555ZM46.9845 12.7045H29.2311H11.168L12.0317 19.6951H29.2311H30.2006L29.2311 20.0943L12.659 26.9953L13.2049 33.831L29.2311 33.8799L37.8185 33.9044L37.2645 43.0133L29.2229 45.2783V45.2701L29.1577 45.2864L21.3931 43.3229L20.9206 37.6685H20.8961H13.6937H13.6693L14.6144 48.5862L29.2229 52.9044V52.8962L29.2473 52.9044L43.7907 48.6839L45.6727 27.0034H29.2311H29.1903L29.2311 26.9871L46.2757 19.7032L46.9845 12.7045Z" fill="black"/>
</svg>
