<svg width="60" height="60" viewBox="0 0 83 64" fill="none" xmlns="http://www.w3.org/2000/svg">
<path d="M69.8017 6.11347C64.5235 3.64395 58.8799 1.84921 52.9796 0.827271C52.255 2.13736 51.4084 3.89947 50.8247 5.30121C44.5526 4.35796 38.3381 4.35796 32.1813 5.30121C31.5977 3.89947 30.732 2.13736 30.0008 0.827271C24.0942 1.84921 18.4441 3.65055 13.1659 6.12655C2.51983 22.2142 -0.366144 37.9022 1.07685 53.3675C8.13789 58.6405 14.9809 61.8437 21.7084 63.9397C23.3695 61.6536 24.8509 59.2235 26.1271 56.6623C23.6965 55.7387 21.3685 54.599 19.1688 53.2758C19.7524 52.8435 20.3232 52.3915 20.8747 51.9264C34.2913 58.2016 48.8687 58.2016 62.125 51.9264C62.683 52.3915 63.2537 52.8435 63.8309 53.2758C61.6247 54.6055 59.2903 55.7452 56.8597 56.6689C58.1359 59.2235 59.611 61.6602 61.2784 63.9462C68.0124 61.8501 74.8618 58.6471 81.9228 53.3675C83.616 35.4393 79.0305 19.8953 69.8017 6.11347ZM27.9549 43.8565C23.9274 43.8565 20.6245 40.0965 20.6245 35.5178C20.6245 30.9392 23.8569 27.1728 27.9549 27.1728C32.0531 27.1728 35.3559 30.9326 35.2854 35.5178C35.2917 40.0965 32.0531 43.8565 27.9549 43.8565ZM55.0447 43.8565C51.0172 43.8565 47.7143 40.0965 47.7143 35.5178C47.7143 30.9392 50.9466 27.1728 55.0447 27.1728C59.1428 27.1728 62.4457 30.9326 62.3751 35.5178C62.3751 40.0965 59.1428 43.8565 55.0447 43.8565Z" fill="black"/>
</svg>
