<?xml version="1.0" standalone="no"?>
<!DOCTYPE svg PUBLIC "-//W3C//DTD SVG 20010904//EN"
 "http://www.w3.org/TR/2001/REC-SVG-20010904/DTD/svg10.dtd">
<svg version="1.0" xmlns="http://www.w3.org/2000/svg"
 width="60" height="60.000000pt" viewBox="0 0 64.000000 64.000000"
 preserveAspectRatio="xMidYMid meet">

<g transform="translate(0.000000,64.000000) scale(0.100000,-0.100000)"
fill="#000000" stroke="none">
<path d="M244 611 c-21 -15 -83 -73 -136 -128 -100 -104 -119 -141 -103 -195
12 -36 243 -266 282 -279 57 -18 89 1 220 134 175 177 175 194 -14 379 -131
128 -175 144 -249 89z m219 -149 c83 -84 117 -126 117 -142 0 -34 -226 -260
-260 -260 -33 0 -260 226 -260 259 0 15 26 50 77 102 l77 79 23 -22 c13 -12
23 -29 23 -38 0 -9 7 -25 15 -36 21 -27 21 -177 0 -194 -34 -28 -4 -90 43 -90
30 0 62 26 62 50 0 9 -7 25 -15 36 -9 12 -14 43 -15 89 0 66 1 68 18 52 9 -10
22 -32 28 -50 12 -37 54 -58 81 -41 48 30 40 90 -14 108 -42 14 -74 47 -87 88
-8 24 -20 36 -43 43 -17 6 -41 19 -52 29 -20 18 -20 20 -5 38 36 39 63 25 187
-100z"/>
</g>
</svg>
