<?xml version="1.0" standalone="no"?>
<!DOCTYPE svg PUBLIC "-//W3C//DTD SVG 20010904//EN"
 "http://www.w3.org/TR/2001/REC-SVG-20010904/DTD/svg10.dtd">
<svg version="1.0" xmlns="http://www.w3.org/2000/svg"
 width="60" height="60" viewBox="0 0 1280.000000 1280.000000"
 preserveAspectRatio="xMidYMid meet">

<g transform="translate(0.000000,1280.000000) scale(0.100000,-0.100000)"
fill="#000000" stroke="none">
<path d="M8037 11655 l-778 -935 134 -152 135 -153 -87 -6 c-47 -4 -1199 -7
-2560 -8 -1361 -1 -2476 -2 -2477 -4 -1 -1 -4 -1802 -6 -4002 l-3 -4000 1770
-5 c974 -3 1723 -6 1666 -8 l-105 -2 -90 -87 c-264 -253 -478 -470 -458 -462
12 5 36 15 52 24 16 8 32 15 35 15 3 0 7 1 10 1 3 1 10 3 15 4 6 1 11 3 13 5
1 1 9 3 17 5 8 1 97 30 198 64 100 34 187 59 191 56 5 -2 1 -40 -9 -82 -10
-43 -34 -150 -54 -238 -20 -88 -46 -198 -57 -244 -12 -46 -17 -87 -12 -91 19
-18 2038 -1329 2057 -1336 8 -3 371 138 807 314 437 175 1541 620 2455 987
l1660 668 12 391 c7 215 24 729 37 1141 14 413 38 1169 55 1680 99 3091 121
3753 129 3955 5 124 6 228 2 231 -3 4 -175 143 -381 310 -206 167 -1094 885
-1973 1597 -880 711 -1604 1295 -1610 1297 -7 3 -362 -416 -790 -930z m3
-3417 c0 -717 -4 -1190 -10 -1233 -39 -271 -151 -522 -306 -681 -107 -110
-354 -236 -556 -284 -258 -60 -517 -50 -758 30 -174 57 -378 190 -534 348
l-78 80 227 256 c124 141 229 256 231 256 3 0 40 -31 82 -70 140 -127 217
-177 332 -216 43 -15 84 -19 185 -19 124 0 133 1 190 29 77 38 141 104 187
191 72 138 68 65 68 1334 l0 1141 370 0 370 0 0 -1162z m-2740 822 l0 -300
-230 0 -230 0 0 -1050 0 -1050 230 0 230 0 0 -310 0 -310 -820 0 -820 0 0 310
0 310 230 0 230 0 0 1050 0 1050 -230 0 -230 0 0 300 0 300 820 0 820 0 0
-300z m860 -5410 l0 -250 -1500 0 -1500 0 0 250 0 250 1500 0 1500 0 0 -250z
m-137 -1267 c-7 -2 -19 -2 -25 0 -7 3 -2 5 12 5 14 0 19 -2 13 -5z"/>
<path d="M5646 1793 c-27 -115 -59 -255 -72 -312 -13 -57 -24 -109 -23 -115 2
-30 24 54 84 319 36 160 68 296 70 303 2 6 1 12 -4 12 -4 0 -29 -93 -55 -207z"/>
</g>
</svg>
