<?xml version="1.0" standalone="no"?>
<!DOCTYPE svg PUBLIC "-//W3C//DTD SVG 20010904//EN"
 "http://www.w3.org/TR/2001/REC-SVG-20010904/DTD/svg10.dtd">
<svg version="1.0" xmlns="http://www.w3.org/2000/svg"
 width="48.000000pt" height="60.000000pt" viewBox="0 0 48.000000 60.000000"
 preserveAspectRatio="xMidYMid meet">

<g transform="translate(0.000000,60.000000) scale(0.100000,-0.100000)"
fill="#000000" stroke="none">
<path d="M280 573 c0 -14 -23 -42 -65 -78 -35 -31 -67 -65 -70 -75 -7 -23 8
-55 43 -92 35 -38 46 -35 22 5 -11 17 -20 40 -20 49 0 10 22 43 50 73 54 59
68 93 51 122 -10 17 -10 16 -11 -4z"/>
<path d="M328 488 c-45 -12 -88 -50 -88 -78 0 -11 9 -38 19 -58 14 -27 16 -43
10 -55 -13 -23 3 -22 24 1 21 23 21 45 1 85 l-17 31 49 43 c27 24 46 43 44 42
-3 -1 -22 -5 -42 -11z"/>
<path d="M80 291 c-40 -11 -37 -39 5 -47 60 -11 228 0 251 16 19 14 9 15 -97
11 -78 -2 -119 1 -119 7 0 6 8 13 18 15 11 3 8 5 -8 5 -14 0 -36 -3 -50 -7z"/>
<path d="M403 282 c25 -27 21 -50 -14 -83 -35 -33 -32 -36 16 -14 29 14 55 50
55 75 0 16 -31 40 -52 40 -20 0 -20 -1 -5 -18z"/>
<path d="M101 216 c-10 -12 -8 -17 11 -28 27 -15 170 -16 208 -1 23 10 24 10
4 21 -13 7 -36 7 -69 1 -51 -9 -111 -3 -121 12 -8 13 -20 11 -33 -5z"/>
<path d="M124 155 c-9 -22 3 -33 46 -40 48 -8 153 12 147 28 -3 8 -28 11 -79
9 -48 -3 -78 0 -82 7 -10 15 -26 14 -32 -4z"/>
<path d="M22 130 c-12 -5 -22 -16 -22 -24 0 -45 149 -75 286 -58 101 13 138
29 142 60 4 27 -9 29 -25 3 -32 -52 -324 -55 -341 -3 -2 7 7 12 25 12 22 0 25
2 13 10 -18 12 -48 12 -78 0z"/>
<path d="M426 52 c-42 -22 -67 -27 -170 -32 l-121 -6 68 -8 c121 -15 244 10
268 55 5 11 8 18 7 18 -2 -1 -25 -13 -52 -27z"/>
</g>
</svg>
