<?xml version="1.0" standalone="no"?>
<!DOCTYPE svg PUBLIC "-//W3C//DTD SVG 20010904//EN"
 "http://www.w3.org/TR/2001/REC-SVG-20010904/DTD/svg10.dtd">
<svg version="1.0" xmlns="http://www.w3.org/2000/svg"
 width="55.000000pt" height="60" viewBox="0 0 60.000000 60.000000"
 preserveAspectRatio="xMidYMid meet">

<g transform="translate(0.000000,60.000000) scale(0.100000,-0.100000)"
fill="#000000" stroke="none">
<path d="M110 300 l0 -190 190 0 190 0 0 190 0 190 -190 0 -190 0 0 -190z
m142 123 c38 -34 7 -93 -49 -93 -18 0 -23 -6 -23 -25 0 -16 -6 -25 -15 -25
-12 0 -15 16 -15 80 l0 80 42 0 c24 0 49 -7 60 -17z m157 8 c8 -5 11 -16 8
-25 -6 -14 -11 -15 -28 -5 -50 26 -93 -35 -53 -75 18 -19 28 -20 54 -6 24 13
37 -5 20 -25 -31 -37 -112 -5 -126 49 -6 26 17 81 38 89 21 9 72 7 87 -2z
m-119 -261 c0 -6 -30 -10 -70 -10 -40 0 -70 4 -70 10 0 6 30 10 70 10 40 0 70
-4 70 -10z"/>
<path d="M180 385 c0 -20 5 -25 24 -25 27 0 40 22 23 39 -21 21 -47 13 -47
-14z"/>
</g>
</svg>
