<?xml version="1.0" standalone="no"?>
<!DOCTYPE svg PUBLIC "-//W3C//DTD SVG 20010904//EN"
 "http://www.w3.org/TR/2001/REC-SVG-20010904/DTD/svg10.dtd">
<svg version="1.0" xmlns="http://www.w3.org/2000/svg"
 width="60" height="60" viewBox="0 0 1280.000000 1280.000000"
 preserveAspectRatio="xMidYMid meet">

<g transform="translate(0.000000,1280.000000) scale(0.100000,-0.100000)"
fill="#000000" stroke="none">
<path d="M6115 12793 c-582 -34 -1025 -111 -1463 -254 -470 -154 -838 -359
-1099 -612 -161 -157 -270 -326 -325 -507 -22 -74 -22 -80 -26 -787 l-3 -713
1601 0 1600 0 0 -160 0 -160 -2472 -2 -2473 -3 -75 -23 c-348 -106 -664 -421
-904 -899 -244 -486 -394 -1069 -457 -1773 -17 -191 -18 -798 -1 -995 69 -793
259 -1459 563 -1970 92 -154 182 -269 308 -396 182 -180 351 -280 545 -320 84
-17 145 -19 767 -19 l676 0 7 308 c22 1011 121 1620 335 2068 87 181 175 308
306 440 287 289 650 434 1245 498 293 32 476 38 1530 46 1050 8 1268 15 1575
45 729 74 1114 264 1359 672 160 267 267 678 321 1223 34 353 37 482 42 1615
4 1112 4 1153 -15 1245 -25 123 -69 226 -143 339 -436 662 -1692 1112 -3073
1099 -110 -1 -223 -3 -251 -5z m-1336 -1018 c163 -39 316 -162 389 -315 46
-98 62 -163 62 -260 0 -97 -16 -162 -62 -260 -95 -199 -302 -329 -525 -330
-100 0 -164 15 -263 62 -200 96 -330 304 -330 528 0 97 16 162 62 260 73 152
225 276 390 316 73 17 200 17 277 -1z"/>
<path d="M9920 9458 c0 -372 -31 -892 -70 -1198 -151 -1164 -579 -1712 -1488
-1904 -424 -90 -890 -116 -2082 -116 -925 0 -1274 -14 -1615 -61 -442 -62
-759 -204 -957 -431 -268 -306 -416 -805 -478 -1608 -24 -312 -31 -778 -28
-1710 l3 -975 23 -75 c140 -464 652 -866 1424 -1119 370 -121 793 -203 1253
-243 190 -16 802 -16 990 0 1073 93 1940 419 2397 900 157 165 252 335 289
517 17 83 19 146 19 768 l0 677 -1600 0 -1600 0 0 160 0 160 2438 0 c2337 0
2441 1 2527 19 201 41 365 139 550 325 66 67 147 159 180 204 323 446 550
1083 649 1823 40 301 51 473 51 829 0 356 -11 528 -51 829 -99 740 -325 1375
-649 1823 -33 46 -114 138 -180 204 -166 168 -307 258 -497 316 -72 22 -81 22
-785 26 l-713 3 0 -143z m-1621 -7283 c163 -39 316 -162 389 -315 46 -98 62
-163 62 -260 0 -97 -16 -162 -62 -260 -95 -199 -302 -329 -525 -330 -100 0
-164 15 -263 62 -200 96 -330 304 -330 528 0 97 16 162 62 260 73 152 225 276
390 316 73 17 200 17 277 -1z"/>
</g>
</svg>
