<svg height="60" width="60" viewBox="0 0 14 14" xmlns="http://www.w3.org/2000/svg"><path d="m13 5.065-.9595-2.3775-.6005-1.44-2.7895-.2475-.4355.42-.555-.21-1.7625.9375-1.8975-1.125-3 1.23 1.6125 9.5855 6.6375 1.162.42-2.13.075-.0455h-6.57v-7.6495h7.65v7.0125l2.175-1.29-1.3125-2.46m-8.3625 4.238h7.35v-7.3505h-7.35zm3.4505-.863h-2.8125v-.4725h2.8125zm2.0625-5.6475c.412 0 .824.15 1.1395.3975l-.3525.525c-.2245-.1795-.5025-.285-.787-.3-.248 0-.398.1125-.398.285 0 .202.1355.2775.6595.405.6155.1725.9755.3975.9755.9375 0 .6225-.4725.975-1.125.975-.4805-.015-.9455-.1955-1.3125-.5025l.3895-.488c.285.225.5625.375.923.375.2775 0 .45-.1125.45-.3 0-.173-.1135-.2625-.615-.3975-.623-.165-1.02-.338-1.02-.9525v-.022c0-.5625.45-.9375 1.073-.9375zm-4.3125.06.472 1.8.525-1.8h.525l.5255 1.8.4645-1.8h.7355l-.9 3.1125h-.5855l-.502-1.8-.51 1.8h-.5775l-.9005-3.1125z"/></svg>