<svg xmlns="http://www.w3.org/2000/svg" width="93" height="65" viewBox="0 0 93 65" fill="none">
  <mask id="mask0_2055_6313" style="mask-type:luminance" maskUnits="userSpaceOnUse" x="18" y="0" width="57" height="54">
    <path d="M18.1489 0.0629883H74.6258V53.0102H18.1489V0.0629883Z" fill="white"/>
  </mask>
  <g mask="url(#mask0_2055_6313)">
    <path d="M46.3255 0.848389C29.881 0.848389 19.6755 20.6947 18.3297 39.3807L27.0307 46.5021H27.0351C39.6145 54.806 52.4674 54.9913 65.6115 46.5021H65.6159L74.3169 39.3807C72.9712 20.6947 62.7656 0.848389 46.3255 0.848389Z" fill="#957557"/>
  </g>
  <path d="M84.7299 38.7807C79.9205 36.4422 74.3169 39.3807 74.3169 39.3807L65.6159 46.5021H65.6115C65.6115 46.5021 62.77 45.4079 60.458 45.8844C58.1504 46.3653 56.8488 48.5053 54.4485 48.8053C52.1982 49.0877 50.1377 47.764 46.3255 47.764C42.5089 47.764 40.4484 49.0877 38.1981 48.8053C35.8023 48.5053 34.4962 46.3653 32.1886 45.8844C29.881 45.4079 27.0351 46.5021 27.0351 46.5021H27.0307L18.3297 39.3807C18.3297 39.3807 12.7261 36.4422 7.91676 38.7807C3.10298 41.1236 3.64127 47.8302 3.64127 47.8302L4.00308 50.0143V50.0187C4.00308 50.0187 4.51931 52.8161 5.56502 54.8148L6.37246 56.0061C7.21962 56.9107 9.08159 58.3138 11.3451 59.6727L12.4746 60.3213C15.5853 62.0554 19.2033 63.5423 21.9478 63.5423C27.4454 63.5423 30.2516 61.2259 33.9976 61.2259C37.7481 61.2259 41.9397 63.6261 46.3255 63.6261C50.7069 63.6261 54.903 61.2259 58.649 61.2259C62.395 61.2259 65.2012 63.5423 70.6989 63.5423C73.4477 63.5423 77.0658 62.0554 80.172 60.3213L81.3015 59.6727C83.565 58.3138 85.4314 56.9107 86.2741 56.0061L87.0816 54.8148C88.1317 52.8161 88.6435 50.0187 88.6435 50.0187V50.0143L89.0053 47.8302C89.0053 47.8302 89.5436 41.1236 84.7299 38.7807Z" fill="#604533"/>
  <path d="M89.0053 47.8301C89.8569 48.9288 90.5981 50.1995 91.2423 51.6291C90.404 51.0158 89.5392 50.4731 88.6435 50.0142C85.9608 48.6464 83.0002 47.9978 79.691 48.2449C79.6645 47.5875 79.9425 46.9609 80.4455 46.5462L82.2413 45.0548C82.7002 44.6754 82.9561 44.1547 83.009 43.6208H83.0223C85.449 44.3445 87.4169 45.7829 89.0053 47.8301Z" fill="#E7F2F1"/>
  <path d="M86.2742 56.006C83.5298 54.3735 80.6839 53.2881 77.657 53.1866C78.9763 52.5645 79.8102 51.1967 79.7485 49.7142L79.6911 48.2449C82.5635 49.6789 85.2285 51.7835 87.0816 54.8147C87.5626 55.6001 87.9906 56.4429 88.3524 57.3562C87.6641 56.8753 86.9713 56.4208 86.2742 56.006Z" fill="#E7F2F1"/>
  <path d="M73.0859 57.3561C72.4726 57.6694 71.696 57.6164 71.118 57.1134C67.522 53.9851 65.4968 49.9744 65.6159 46.5019C65.66 45.1518 66.0307 43.8854 66.7631 42.778C68.1794 40.6292 71.0915 39.4291 74.3169 39.3805C76.876 39.3408 79.6381 40.0335 82.0119 41.5425C82.7531 42.0102 83.0929 42.8309 83.0091 43.6207C82.9561 44.1546 82.7002 44.6752 82.2413 45.0547L80.4455 46.546C79.9425 46.9608 79.6646 47.5873 79.691 48.2448L79.7484 49.714C79.8102 51.1966 78.9762 52.5644 77.657 53.1865C77.5864 53.2218 77.5114 53.2527 77.4364 53.2836L75.4288 54.0734C74.9523 54.2631 74.5772 54.6514 74.4007 55.1367L73.9639 56.3633C73.8007 56.8266 73.4741 57.1664 73.0859 57.3561Z" fill="#FEC4B9"/>
  <path d="M80.1722 60.3214C77.9395 58.9359 75.5878 57.9079 73.0861 57.3564C73.4743 57.1666 73.8008 56.8269 73.9641 56.3636L74.4009 55.137C74.5774 54.6516 74.9524 54.2634 75.429 54.0736L77.4366 53.2838C77.5116 53.253 77.5866 53.2221 77.6572 53.1868C79.2368 54.9737 80.4413 57.1446 81.3017 59.6728C81.4958 60.2376 81.6723 60.8244 81.8268 61.4245C81.284 61.0362 80.7325 60.6656 80.1722 60.3214Z" fill="#E7F2F1"/>
  <path d="M65.4571 26.1528C65.4571 26.4617 65.3997 26.7573 65.2806 27.0397C65.1658 27.3221 64.9982 27.5736 64.7864 27.7898C64.5702 28.006 64.3231 28.1737 64.0407 28.2928C63.7583 28.4075 63.4671 28.4649 63.1627 28.4649C62.8582 28.4649 62.567 28.4075 62.2846 28.2928C62.0067 28.1737 61.7596 28.006 61.5434 27.7898C61.3272 27.5736 61.1639 27.3221 61.0448 27.0397C60.9301 26.7573 60.8727 26.4617 60.8727 26.1528C60.8727 25.8484 60.9301 25.5528 61.0448 25.266C61.1639 24.9836 61.3272 24.7365 61.5434 24.5159C61.7596 24.2997 62.0067 24.132 62.2846 24.0173C62.567 23.8982 62.8582 23.8408 63.1627 23.8408C63.4671 23.8408 63.7583 23.8982 64.0407 24.0173C64.3231 24.132 64.5702 24.2997 64.7864 24.5159C64.9982 24.7365 65.1658 24.9836 65.2806 25.266C65.3997 25.5528 65.4571 25.8484 65.4571 26.1528Z" fill="#543927"/>
  <path d="M46.3255 27.203C49.6524 27.203 50.879 22.676 50.9099 22.5657C54.8191 24.335 57.5415 28.2928 57.5415 32.8948C57.5415 39.1425 52.5159 44.2122 46.3255 44.2122C40.1307 44.2122 35.1096 39.1425 35.1096 32.8948C35.1096 28.2928 37.8319 24.335 41.7368 22.5657C41.7677 22.676 42.9987 27.203 46.3255 27.203Z" fill="#FEC4B9"/>
  <path d="M31.7785 26.1528C31.7785 26.4617 31.7167 26.7573 31.602 27.0397C31.4873 27.3221 31.3196 27.5736 31.1034 27.7898C30.8916 28.006 30.6445 28.1737 30.3621 28.2928C30.0798 28.4075 29.7886 28.4649 29.4841 28.4649C29.1797 28.4649 28.8884 28.4075 28.6061 28.2928C28.3237 28.1737 28.0766 28.006 27.8648 27.7898C27.6486 27.5736 27.4809 27.3221 27.3662 27.0397C27.2515 26.7573 27.1897 26.4617 27.1897 26.1528C27.1897 25.8484 27.2515 25.5528 27.3662 25.266C27.4809 24.9836 27.6486 24.7365 27.8648 24.5159C28.0766 24.2997 28.3237 24.132 28.6061 24.0173C28.8884 23.8982 29.1797 23.8408 29.4841 23.8408C29.7886 23.8408 30.0798 23.8982 30.3621 24.0173C30.6445 24.132 30.8916 24.2997 31.1034 24.5159C31.3196 24.7365 31.4873 24.9836 31.602 25.266C31.7167 25.5528 31.7785 25.8484 31.7785 26.1528Z" fill="#543927"/>
  <path d="M19.5607 57.3561C19.1725 57.1664 18.8504 56.8266 18.6827 56.3633L18.2459 55.1367C18.0694 54.6514 17.6988 54.2631 17.2178 54.0734L15.2102 53.2836C15.1352 53.2527 15.0646 53.2218 14.994 53.1865C13.6704 52.5644 12.8409 51.1966 12.8982 49.714L12.9556 48.2448C12.9865 47.5873 12.7041 46.9608 12.2011 46.546L10.4053 45.0547C9.94641 44.6752 9.69492 44.1546 9.63756 43.6207C9.55813 42.8309 9.89788 42.0102 10.6347 41.5425C13.0129 40.0335 15.7706 39.3408 18.3297 39.3805C21.5551 39.4291 24.4672 40.6292 25.8879 42.778C26.6159 43.8854 26.9866 45.1518 27.0307 46.5019C27.1498 49.9744 25.1246 53.9851 21.533 57.1134C20.9506 57.6164 20.174 57.6694 19.5607 57.3561Z" fill="#FEC4B9"/>
  <path d="M12.4748 60.3214C11.9145 60.6656 11.3673 61.0362 10.8202 61.4245C10.9791 60.8244 11.1556 60.2376 11.3453 59.6728C12.2057 57.1446 13.4102 54.9737 14.9942 53.1868C15.0648 53.2221 15.1354 53.253 15.2104 53.2838L17.218 54.0736C17.6989 54.2634 18.0696 54.6516 18.2461 55.137L18.6829 56.3636C18.8505 56.8269 19.1726 57.1666 19.5609 57.3564C17.0592 57.9079 14.7118 58.9359 12.4748 60.3214Z" fill="#E7F2F1"/>
  <path d="M12.201 46.5462C12.704 46.9609 12.9864 47.5875 12.9555 48.2449C9.64633 47.9978 6.6857 48.6464 4.00304 50.0142C3.10735 50.4731 2.24255 51.0158 1.40863 51.6291C2.04841 50.1995 2.78967 48.9288 3.64124 47.8301C5.22965 45.7829 7.19752 44.3445 9.62426 43.6208H9.6375C9.69486 44.1547 9.94636 44.6754 10.4052 45.0548L12.201 46.5462Z" fill="#E7F2F1"/>
  <path d="M6.37267 56.006C5.67553 56.4208 4.98281 56.8753 4.29449 57.3562C4.66071 56.4429 5.08429 55.6001 5.56523 54.8147C7.42279 51.7835 10.0834 49.6789 12.9558 48.2449L12.8984 49.7142C12.841 51.1967 13.6706 52.5645 14.9942 53.1866C11.963 53.2881 9.1171 54.3735 6.37267 56.006Z" fill="#E7F2F1"/>
  <path d="M50.9099 22.5655C50.879 22.6758 49.6524 27.2028 46.3255 27.2028C42.9987 27.2028 41.7676 22.6758 41.7368 22.5655C43.1399 21.9301 44.6886 21.5771 46.3255 21.5771C47.958 21.5771 49.5112 21.9301 50.9099 22.5655Z" fill="#655F68"/>
  <path d="M27.0351 46.502C27.0351 46.502 28.7912 45.8269 30.662 45.7695C32.0606 53.266 25.0099 60.5065 21.4006 60.3212C17.7914 60.1359 16.0265 62.064 16.0265 62.064C14.8219 61.5566 13.613 60.9565 12.4746 60.3212C14.7116 58.9357 17.059 57.9077 19.5607 57.3561C20.174 57.6694 20.9506 57.6165 21.533 57.1135C25.1246 53.9852 27.1498 49.9744 27.0307 46.502H27.0351Z" fill="#543927"/>
  <path d="M65.6117 46.502H65.6161C65.4969 49.9744 67.5222 53.9852 71.1182 57.1135C71.6962 57.6165 72.4727 57.6694 73.086 57.3561C75.5878 57.9077 77.9395 58.9357 80.1721 60.3212C79.0338 60.9565 77.8292 61.561 76.6202 62.064C75.5216 60.2418 72.4374 60.3212 72.4374 60.3212C62.6422 58.5783 61.9848 45.7695 61.9848 45.7695C63.8556 45.8269 65.6117 46.502 65.6117 46.502Z" fill="#543927"/>
  <path d="M55.0973 2.90015C66.3618 8.43312 73.2317 24.2864 74.3171 39.3807C71.0917 39.4293 68.1797 40.6294 66.7633 42.7782C69.6048 19.8653 55.3003 3.13841 55.0973 2.90015Z" fill="#896B52"/>
  <path d="M55.9046 27.0088C57.9122 29.0517 59.1476 31.8623 59.1476 34.9685C59.1476 41.2163 54.1265 46.2816 47.9317 46.2816C43.8768 46.2816 40.3205 44.1107 38.3526 40.8545C40.3867 42.9282 43.2061 44.2166 46.3256 44.2166C52.5204 44.2166 57.5504 39.1469 57.5416 32.8992C57.5416 30.7416 56.9459 28.7252 55.9046 27.0088Z" fill="#896B52"/>
  <mask id="mask1_2055_6313" style="mask-type:luminance" maskUnits="userSpaceOnUse" x="0" y="0" width="93" height="65">
    <path d="M0.610107 0.0629883H92.0366V64.4026H0.610107V0.0629883Z" fill="white"/>
  </mask>
  <g mask="url(#mask1_2055_6313)">
    <path d="M46.3257 44.9401C52.9088 44.9401 58.2652 39.5351 58.2652 32.8947C58.2652 26.2498 52.9088 20.8448 46.3257 20.8448C39.7382 20.8448 34.3817 26.2498 34.3817 32.8947C34.3817 39.5351 39.7382 44.9401 46.3257 44.9401ZM50.0055 22.9847C49.5731 24.1231 48.4303 26.4748 46.3257 26.4748C44.2166 26.4748 43.0738 24.1231 42.6414 22.9847C43.7886 22.5479 45.0285 22.3096 46.3257 22.3096C47.6185 22.3096 48.8583 22.5479 50.0055 22.9847ZM41.3222 23.5936C41.8384 24.9393 43.1268 27.4543 45.5976 27.8735V32.0254L42.8532 34.8758C42.5708 35.167 42.5797 35.6303 42.8664 35.9126C43.1532 36.1906 43.6121 36.1862 43.8901 35.895L46.3257 33.3712L48.7568 35.895C48.898 36.045 49.0877 36.1156 49.2775 36.1156C49.4584 36.1156 49.6437 36.0494 49.7805 35.9126C50.0673 35.6303 50.0761 35.167 49.7981 34.8758L47.0493 32.0254V27.8735C49.5201 27.4543 50.8085 24.9393 51.3292 23.5936C54.5942 25.3894 56.818 28.8839 56.818 32.8947C56.818 38.7321 52.1101 43.4797 46.3257 43.4797C40.5368 43.4797 35.8333 38.7321 35.8333 32.8947C35.8333 28.8839 38.0527 25.3894 41.3222 23.5936ZM63.1629 29.1972C64.8263 29.1972 66.1808 27.8338 66.1808 26.1527C66.1808 24.4761 64.8263 23.1083 63.1629 23.1083C61.4994 23.1083 60.1449 24.4761 60.1449 26.1527C60.1449 27.8338 61.4994 29.1972 63.1629 29.1972ZM63.1629 24.5731C64.0277 24.5731 64.7336 25.2791 64.7336 26.1527C64.7336 27.0263 64.0277 27.7367 63.1629 27.7367C62.2981 27.7367 61.5965 27.0263 61.5965 26.1527C61.5965 25.2791 62.2981 24.5731 63.1629 24.5731ZM29.4841 29.1972C31.1475 29.1972 32.502 27.8338 32.502 26.1527C32.502 24.4761 31.1475 23.1083 29.4841 23.1083C27.8206 23.1083 26.4661 24.4761 26.4661 26.1527C26.4661 27.8338 27.8206 29.1972 29.4841 29.1972ZM29.4841 24.5731C30.3489 24.5731 31.0548 25.2791 31.0548 26.1527C31.0548 27.0263 30.3489 27.7367 29.4841 27.7367C28.6192 27.7367 27.9177 27.0263 27.9177 26.1527C27.9177 25.2791 28.6192 24.5731 29.4841 24.5731ZM0.949947 52.1939C1.08231 52.3042 1.24557 52.3572 1.40882 52.3572C1.55884 52.3572 1.70444 52.313 1.8324 52.2204C2.38393 51.8144 2.93988 51.4526 3.50465 51.1261C3.72967 52.0615 4.1356 53.5176 4.74008 54.7839C4.3165 55.5163 3.94146 56.2797 3.62378 57.0827C3.50465 57.3827 3.5973 57.7269 3.84439 57.9254C3.97676 58.0313 4.1356 58.0843 4.29885 58.0843C4.44005 58.0843 4.58565 58.0401 4.70919 57.9563C5.23867 57.5857 5.75931 57.2415 6.26672 56.9283C7.21977 57.8107 8.75083 58.927 10.4804 59.9948C10.3525 60.4007 10.2333 60.8155 10.1186 61.2346C10.0436 61.5347 10.1583 61.8479 10.4054 62.0244C10.5334 62.1127 10.6746 62.1568 10.8202 62.1568C10.9658 62.1568 11.1158 62.1083 11.2393 62.02C11.6585 61.72 12.0821 61.4376 12.5013 61.1684C14.7956 62.4171 18.7534 64.2747 21.9479 64.2747C25.0674 64.2747 27.3573 63.5555 29.3737 62.9201C31.0063 62.4039 32.4138 61.9582 33.9978 61.9582C35.6965 61.9582 37.5364 62.4921 39.4822 63.0569C41.6751 63.6967 43.943 64.3585 46.3257 64.3585C48.7039 64.3585 50.9718 63.6967 53.1691 63.0569C55.1149 62.4921 56.9504 61.9582 58.6491 61.9582C60.2331 61.9582 61.645 62.4039 63.2776 62.9201C65.294 63.5555 67.5795 64.2747 70.699 64.2747C73.8935 64.2747 77.8513 62.4171 80.1501 61.1684C80.5692 61.4376 80.9884 61.72 81.4076 62.02C81.5355 62.1083 81.6811 62.1568 81.8267 62.1568C81.9723 62.1568 82.1179 62.1127 82.2415 62.0244C82.493 61.8479 82.6077 61.5347 82.5283 61.2346C82.418 60.8155 82.2988 60.4007 82.1709 59.9948C83.8961 58.927 85.4271 57.8107 86.3802 56.9283C86.892 57.2415 87.4082 57.5857 87.9377 57.9563C88.0657 58.0401 88.2069 58.0843 88.3525 58.0843C88.5113 58.0843 88.6702 58.0313 88.8025 57.9254C89.054 57.7225 89.1423 57.3827 89.0231 57.0827C88.7055 56.2797 88.3348 55.5163 87.9112 54.7839C88.5113 53.5176 88.9172 52.0615 89.1423 51.1261C89.707 51.4526 90.263 51.8144 90.8145 52.2204C90.9425 52.313 91.0925 52.3572 91.2425 52.3572C91.4013 52.3572 91.5646 52.3042 91.697 52.1939C91.9529 51.9865 92.0367 51.6291 91.8999 51.3247C91.269 49.926 90.5498 48.6861 89.7423 47.6096C89.7953 46.2418 89.7247 40.3999 85.0477 38.1232C81.1384 36.2215 76.8409 37.5319 74.9568 38.2953C74.1141 28.8618 71.0917 19.5873 66.5868 12.7041C61.1994 4.47085 54.1927 0.120361 46.3257 0.120361C38.4542 0.120361 31.4475 4.47085 26.0601 12.7041C21.5596 19.5873 18.5328 28.8618 17.6945 38.2953C15.806 37.5319 11.5085 36.2215 7.59923 38.1232C2.92664 40.3999 2.85605 46.2418 2.90458 47.6096C2.09713 48.6861 1.37794 49.926 0.746983 51.3291C0.610202 51.6291 0.694035 51.9865 0.949947 52.1939ZM9.14352 44.5519C9.32001 44.9622 9.59357 45.324 9.94655 45.6196L11.7423 47.1066C11.8659 47.2125 11.9674 47.336 12.0468 47.4684C8.96262 47.3978 6.0417 48.0949 3.32374 49.5554C4.86804 47.0757 6.79178 45.4299 9.14352 44.5519ZM19.2564 40.1617C21.9832 40.4043 24.1761 41.5074 25.2836 43.1841C27.6441 46.758 25.866 52.3836 21.061 56.5576C20.7875 56.7959 20.4345 56.8753 20.0948 56.7871C19.7506 56.6944 19.4859 56.4517 19.3667 56.1164L18.9255 54.8898C18.6828 54.2059 18.1534 53.6588 17.4827 53.394L15.4751 52.6042C14.3147 52.1454 13.5734 50.9982 13.622 49.7451L13.6837 48.2714C13.719 47.3934 13.3352 46.5374 12.6645 45.977L10.8687 44.4901C10.5113 44.1945 10.326 43.7621 10.3525 43.2988C10.3834 42.8267 10.626 42.4163 11.0231 42.1604C13.419 40.6338 16.4238 39.9057 19.2564 40.1617ZM6.11229 55.3134C7.53304 52.9484 9.56269 50.9982 12.1836 49.4892L12.1747 49.6833C12.1306 50.7776 12.4924 51.8189 13.1454 52.6307C10.8775 52.9837 8.57434 53.8573 6.11229 55.3134ZM4.83274 50.4246C6.55793 49.6127 8.35372 49.1318 10.2422 48.9818C8.41991 50.204 6.90209 51.6556 5.68872 53.3234C5.26514 52.2204 4.97834 51.0776 4.83274 50.4246ZM7.5904 56.1517C9.60681 55.0486 11.4997 54.3691 13.3572 54.0779C12.413 55.406 11.6144 56.9106 10.9702 58.5873C9.63328 57.7445 8.42432 56.8709 7.5904 56.1517ZM15.206 54.0647L16.9532 54.753C17.24 54.8677 17.4606 55.0972 17.5665 55.3884L18.0033 56.6106C18.0475 56.7341 18.1004 56.8488 18.1622 56.9591C16.1237 57.5416 14.125 58.4417 12.1086 59.6903C12.8763 57.5063 13.9176 55.6222 15.206 54.0647ZM70.699 62.8142C67.8001 62.8142 65.722 62.1568 63.71 61.5214C62.0333 60.9964 60.4537 60.4978 58.6491 60.4978C56.7474 60.4978 54.8149 61.0581 52.7676 61.6538C50.6673 62.2671 48.4965 62.898 46.3257 62.898C44.1504 62.898 41.9796 62.2671 39.8838 61.6538C37.8365 61.0581 35.8995 60.4978 33.9978 60.4978C32.1932 60.4978 30.6136 60.9964 28.9413 61.5214C26.9294 62.1568 24.8468 62.8142 21.9479 62.8142C19.9271 62.8142 17.1253 61.9229 13.9617 60.2948C15.8016 59.2712 17.6327 58.5564 19.4947 58.124C19.5697 58.1505 19.6491 58.1769 19.7241 58.199C19.9359 58.2563 20.1477 58.2828 20.3639 58.2828C20.9596 58.2828 21.542 58.0666 22.0053 57.6651C25.6277 54.5147 27.6662 50.5614 27.7544 47.0315C28.6016 46.7668 30.4856 46.2815 32.0432 46.6036C32.9962 46.7977 33.786 47.3448 34.6199 47.9228C35.6303 48.6244 36.676 49.3524 38.11 49.5289C38.3615 49.5598 38.6042 49.5774 38.8513 49.5774C39.7999 49.5774 40.7177 49.3612 41.7457 49.123C43.0165 48.8318 44.4549 48.4964 46.3257 48.4964C48.1965 48.4964 49.6349 48.8318 50.9012 49.123C52.194 49.423 53.3147 49.6833 54.5413 49.5289C55.9709 49.3524 57.0166 48.6244 58.0314 47.9228C58.8609 47.3448 59.6507 46.7977 60.6037 46.6036C62.1613 46.2815 64.0453 46.7668 64.8969 47.0315C64.9851 50.5614 67.0192 54.5147 70.6416 57.6651C71.1049 58.0666 71.6918 58.2828 72.2874 58.2828C72.4992 58.2828 72.711 58.2563 72.9228 58.199C73.0022 58.1769 73.0772 58.1505 73.1522 58.124C75.0142 58.5564 76.8453 59.2712 78.6852 60.2948C75.526 61.9229 72.7198 62.8142 70.699 62.8142ZM74.5156 40.1087C77.0041 40.1087 79.5412 40.8367 81.6282 42.1604C82.0209 42.4163 82.268 42.8267 82.2944 43.2988C82.3253 43.7621 82.1356 44.1945 81.7826 44.4901L79.9868 45.977C79.3117 46.5374 78.9323 47.3934 78.9676 48.2714L79.0249 49.7451C79.0779 50.9982 78.3322 52.1454 77.1762 52.5998L75.1686 53.394C74.4936 53.6588 73.9685 54.2059 73.7214 54.8898L73.2802 56.1164C73.161 56.4517 72.8963 56.6944 72.5566 56.7871C72.2124 56.8753 71.8594 56.7959 71.5903 56.5576C66.7853 52.3836 65.0072 46.758 67.3633 43.1841C68.4708 41.5074 70.6681 40.4043 73.3905 40.1617C73.7655 40.1264 74.1406 40.1087 74.5156 40.1087ZM83.5078 44.5519C85.8595 45.4299 87.7789 47.0757 89.3276 49.5554C86.6096 48.0949 83.6843 47.3978 80.6001 47.4684C80.6796 47.3316 80.781 47.2125 80.9046 47.1066L82.7004 45.6196C83.0578 45.324 83.3269 44.9622 83.5078 44.5519ZM86.539 55.3134C84.0726 53.8573 81.7738 52.9837 79.5015 52.6307C80.1545 51.8189 80.5163 50.7776 80.4722 49.6833L80.4678 49.4892C83.0842 50.9982 85.1183 52.9484 86.539 55.3134ZM74.4891 56.9591C74.5465 56.8488 74.6039 56.7341 74.6436 56.6106L75.0848 55.3884C75.1863 55.0972 75.4113 54.8677 75.6937 54.753L77.4409 54.0647C78.7293 55.6222 79.7706 57.5063 80.5384 59.6903C78.5264 58.4417 76.5232 57.5416 74.4891 56.9591ZM81.6767 58.5873C81.0325 56.9106 80.2383 55.406 79.2897 54.0779C81.1472 54.3691 83.0401 55.0486 85.0609 56.1517C84.227 56.8709 83.018 57.7445 81.6767 58.5873ZM86.9582 53.3234C85.7448 51.6556 84.227 50.204 82.4047 48.9774C84.2932 49.1318 86.089 49.6127 87.8186 50.4246C87.673 51.0776 87.3862 52.216 86.9582 53.3234ZM84.4167 39.4425C87.1965 40.797 87.9995 43.8591 88.2201 45.8711C86.9008 44.5916 85.4007 43.6606 83.7284 43.0826C83.6358 42.1913 83.1592 41.4103 82.4003 40.925C80.9531 40.0072 79.3117 39.3498 77.613 38.9836C79.5324 38.5247 82.0959 38.3085 84.4167 39.4425ZM46.3257 1.58082C62.051 1.58082 72.0006 20.558 73.5361 38.688C73.4434 38.6924 73.3508 38.6968 73.2625 38.7056C70.0989 38.988 67.5089 40.3293 66.1588 42.3766C65.5278 43.3252 65.144 44.3974 64.9807 45.5314C63.8953 45.2225 62.0024 44.821 60.3125 45.1696C59.0727 45.4255 58.1241 46.0829 57.2107 46.7183C56.3018 47.3492 55.4414 47.9449 54.3604 48.0773C53.3897 48.2008 52.4322 47.9802 51.2277 47.6978C49.8819 47.3889 48.3597 47.036 46.3257 47.036C44.2916 47.036 42.765 47.3889 41.4236 47.6978C40.2147 47.9802 39.2616 48.2008 38.2865 48.0773C37.2055 47.9449 36.3495 47.3492 35.4406 46.7183C34.5229 46.0829 33.5786 45.4255 32.3344 45.1696C30.6489 44.821 28.7516 45.2225 27.6662 45.5314C27.5074 44.3974 27.1191 43.3252 26.4925 42.3766C25.138 40.3293 22.548 38.988 19.3844 38.7056C19.2961 38.6968 19.2035 38.6924 19.1152 38.688C20.6507 20.558 30.5959 1.58082 46.3257 1.58082ZM8.23018 39.4425C10.551 38.3085 13.119 38.5247 15.0339 38.9836C13.3352 39.3498 11.6938 40.0072 10.2466 40.925C9.48768 41.4103 9.01115 42.1913 8.92291 43.0826C7.24625 43.6606 5.74608 44.5916 4.42681 45.8711C4.64742 43.8591 5.45045 40.797 8.23018 39.4425ZM35.6083 55.0442C35.8995 55.3222 35.9083 55.7855 35.6303 56.0767C35.4891 56.2267 35.2994 56.3017 35.1097 56.3017C34.9288 56.3017 34.7435 56.2311 34.6067 56.0943L32.1535 53.7161C31.8667 53.4337 31.8579 52.9705 32.1358 52.6792C32.4138 52.388 32.8727 52.3836 33.1595 52.6616L35.6083 55.0442ZM28.3413 56.8621L26.8588 60.2728C26.7396 60.5463 26.4749 60.7096 26.1969 60.7096C26.0998 60.7096 26.0028 60.6919 25.9057 60.6478C25.5395 60.489 25.3718 60.0565 25.5351 59.6859L27.0132 56.2752C27.1764 55.9046 27.6044 55.7369 27.9706 55.8958C28.3369 56.059 28.5045 56.4914 28.3413 56.8621ZM43.0076 58.8564C43.2459 59.1785 43.1753 59.6374 42.8532 59.8756C42.7253 59.9727 42.5752 60.0213 42.4252 60.0213C42.2046 60.0213 41.984 59.9154 41.8428 59.7212L40.2456 57.5371C40.0073 57.2106 40.0779 56.7562 40.4 56.5135C40.7221 56.2752 41.1766 56.3458 41.4104 56.6679L43.0076 58.8564ZM44.7461 52.6925C45.0152 52.9925 44.9932 53.4558 44.702 53.7294C44.5608 53.8573 44.3843 53.9191 44.2122 53.9191C44.0136 53.9191 43.8195 53.8397 43.6783 53.6808L42.5002 52.3836C42.2267 52.0836 42.2487 51.6203 42.5443 51.3512C42.84 51.0776 43.2988 51.0952 43.568 51.3953L44.7461 52.6925ZM50.5879 55.8649C50.8438 56.1782 50.7997 56.637 50.4908 56.8974L48.17 58.8344C48.0332 58.9491 47.87 59.002 47.7067 59.002C47.4993 59.002 47.2919 58.9138 47.1508 58.7373C46.8948 58.4284 46.939 57.9651 47.2478 57.7092L49.5687 55.7678C49.8775 55.5119 50.332 55.556 50.5879 55.8649ZM60.2243 57.0694C60.489 57.3739 60.4581 57.8328 60.1581 58.1019C60.0213 58.2211 59.8492 58.2828 59.6816 58.2828C59.4786 58.2828 59.2801 58.199 59.1345 58.0357L57.5769 56.2444C57.3122 55.9399 57.3431 55.4766 57.6431 55.2119C57.9431 54.9471 58.402 54.9736 58.6668 55.2781L60.2243 57.0694ZM63.6923 51.4526L63.0084 54.4706C62.9334 54.8104 62.6334 55.0398 62.3025 55.0398C62.2495 55.0398 62.1966 55.0354 62.1392 55.0222C61.7509 54.9295 61.5083 54.5368 61.5965 54.1441L62.2804 51.1261C62.3687 50.7334 62.7569 50.4864 63.1452 50.5746C63.5379 50.6673 63.7806 51.0599 63.6923 51.4526ZM69.9092 60.7096C69.7724 60.9302 69.5386 61.0537 69.2959 61.0537C69.1635 61.0537 69.0312 61.0184 68.912 60.9434L66.7103 59.5668C66.3706 59.3506 66.2647 58.9005 66.4765 58.5608C66.6838 58.2166 67.1295 58.1107 67.4736 58.3225L69.6754 59.7036C70.0151 59.9154 70.121 60.3654 69.9092 60.7096ZM54.9693 53.5882C55.212 53.9059 55.1502 54.3647 54.8325 54.6118C54.7045 54.7133 54.5457 54.7618 54.3957 54.7618C54.1751 54.7618 53.9633 54.6648 53.8177 54.4795L52.5867 52.8601C52.344 52.5425 52.4058 52.0836 52.719 51.8365C53.0367 51.5894 53.4912 51.6512 53.7383 51.9733L54.9693 53.5882Z" fill="#3A322B"/>
  </g>
</svg>