<svg width="83" height="82" viewBox="0 0 83 82" fill="none" xmlns="http://www.w3.org/2000/svg">
<g clip-path="url(#clip0_5776_15330)">
<path d="M69.8017 14.1135C64.5235 11.644 58.8799 9.84921 52.9796 8.82727C52.255 10.1374 51.4084 11.8995 50.8247 13.3012C44.5526 12.358 38.3381 12.358 32.1813 13.3012C31.5977 11.8995 30.732 10.1374 30.0008 8.82727C24.0942 9.84921 18.4441 11.6505 13.1659 14.1265C2.51983 30.2142 -0.366144 45.9022 1.07685 61.3675C8.13789 66.6405 14.9809 69.8437 21.7084 71.9397C23.3695 69.6536 24.8509 67.2235 26.1271 64.6623C23.6965 63.7387 21.3685 62.599 19.1688 61.2758C19.7524 60.8435 20.3232 60.3915 20.8747 59.9264C34.2913 66.2016 48.8687 66.2016 62.125 59.9264C62.683 60.3915 63.2537 60.8435 63.8309 61.2758C61.6247 62.6055 59.2903 63.7452 56.8597 64.6689C58.1359 67.2235 59.611 69.6602 61.2784 71.9462C68.0124 69.8501 74.8618 66.6471 81.9228 61.3675C83.616 43.4393 79.0305 27.8953 69.8017 14.1135ZM27.9549 51.8565C23.9274 51.8565 20.6245 48.0965 20.6245 43.5178C20.6245 38.9392 23.8569 35.1728 27.9549 35.1728C32.0531 35.1728 35.3559 38.9326 35.2854 43.5178C35.2917 48.0965 32.0531 51.8565 27.9549 51.8565ZM55.0447 51.8565C51.0172 51.8565 47.7143 48.0965 47.7143 43.5178C47.7143 38.9392 50.9466 35.1728 55.0447 35.1728C59.1428 35.1728 62.4457 38.9326 62.3751 43.5178C62.3751 48.0965 59.1428 51.8565 55.0447 51.8565Z" fill="black"/>
</g>
<defs>
<clipPath id="clip0_5776_15330">
<rect width="81.5388" height="81.5388" fill="white" transform="translate(0.730591)"/>
</clipPath>
</defs>
</svg>
