<svg width="64" height="64" viewBox="0 0 64 64" fill="none" xmlns="http://www.w3.org/2000/svg">
<g clip-path="url(#clip0_5776_15294)">
<path d="M14.4852 0.664063C15.2514 0.386672 16.1089 0.577532 16.6851 1.15371L25.4154 9.88412C25.3655 9.96022 25.3199 10.0405 25.2792 10.1247L9.63599 42.49L14.4852 0.664063Z" fill="black"/>
<path d="M9.99963 50.6874L30.9196 63.2395C31.4823 63.5772 32.1706 63.6322 32.7799 63.3882L53.7799 54.9882C54.6565 54.6379 55.1915 53.745 55.087 52.8067L50.887 15.0067C50.8004 14.2265 50.2859 13.5597 49.5531 13.2782C48.8201 12.9968 47.9915 13.1475 47.4047 13.669L40.4536 19.8479L9.99963 50.6874Z" fill="black"/>
<path d="M38.0409 16.3138L33.7475 9.87367C33.3413 9.26433 32.647 8.91065 31.9153 8.94026C31.1835 8.96987 30.5201 9.37853 30.1644 10.0187L28.8634 12.3607L16.3226 38.307L38.0409 16.3138Z" fill="black"/>
</g>
<defs>
<clipPath id="clip0_5776_15294">
<rect width="63" height="63" fill="white" transform="translate(0.5 0.538574)"/>
</clipPath>
</defs>
</svg>
