<svg width="94" height="64" viewBox="0 0 94 64" fill="none" xmlns="http://www.w3.org/2000/svg">
<path d="M0.0921631 64H20.4555L21.91 46.5448L3.00024 42.1821L0.0921631 64ZM3.72847 39.2721L21.91 43.6357L26.2736 28.3632L11.0011 20.3643L3.72847 39.2721ZM12.4546 17.4543L26.9999 25.4542L38.637 17.4543L27.7281 5.09083L12.4546 17.4543ZM93.9079 64H73.5456L72.0901 46.5448L90.9999 42.1821L93.9079 64ZM90.2716 39.2721L72.0901 43.6357L67.7275 28.3632L82.999 20.3643L90.2716 39.2721ZM81.5445 17.4543L66.9993 25.4542L55.364 17.4543L66.273 5.09083L81.5445 17.4543ZM31.3644 2.90905L42.2733 15.9998H52.454L61.9094 2.90905L52.454 0H42.0173L31.3644 2.90905Z" fill="#4C4C4C"/>
<path d="M0.0921631 63.9992H20.4555L21.91 46.544L3.00024 42.1814L0.0921631 63.9992Z" fill="black"/>
<path d="M3.72864 39.272L21.9102 43.6355L26.2738 28.363L11.0013 20.3641L3.72864 39.272Z" fill="black"/>
<path d="M12.4554 17.4533L27.0007 25.4532L38.6378 17.4533L27.7289 5.08984L12.4554 17.4533Z" fill="black"/>
<path d="M93.9081 63.9992H73.5457L72.0902 46.544L91 42.1814L93.9081 63.9992Z" fill="black"/>
<path d="M90.2717 39.272L72.0901 43.6355L67.7275 28.363L82.9991 20.3641L90.2717 39.272Z" fill="black"/>
<path d="M81.5452 17.4533L67 25.4532L55.3647 17.4533L66.2737 5.08984L81.5452 17.4533Z" fill="black"/>
<path d="M31.3647 2.90905L42.2737 15.9998H52.4544L61.9097 2.90905L52.4544 0H42.0177L31.3647 2.90905Z" fill="black"/>
</svg>
