<svg width="56" height="65" viewBox="0 0 56 65" fill="none" xmlns="http://www.w3.org/2000/svg">
<path d="M47.9011 45.4684C42.0359 49.3436 35.3929 51.2809 27.9708 51.2809C20.5486 51.2809 13.9177 49.3437 8.07972 45.4684L7.3726 45.8209L7.13708 46.4501C7.97479 51.5819 8.72108 55.4043 9.37538 57.9172C9.89911 58.8334 10.5799 59.6383 11.4176 60.3318C12.2553 61.0254 13.2106 61.5962 14.2845 62.0407C15.3576 62.4852 16.3595 62.8385 17.2885 63.1011C18.2175 63.3636 19.285 63.5984 20.4893 63.8081C23.1857 64.2526 25.8237 64.4953 28.4024 64.5351C30.9812 64.5737 33.6256 64.2854 36.3355 63.6697C39.0455 63.0546 41.5258 62.1183 43.7776 60.8627C44.7203 60.3381 45.4795 59.5982 46.0552 58.6443C46.631 57.6867 47.0036 56.7727 47.174 55.8951C47.3439 55.0174 47.528 53.9194 47.7242 52.5949C47.9206 51.2742 48.1231 50.2724 48.3329 49.591C48.3329 49.3547 48.4372 48.8717 48.6468 48.1381C48.8558 47.4047 48.9215 46.816 48.8431 46.3707C48.7651 45.9265 48.4506 45.6247 47.9011 45.4684Z" fill="black"/>
<path d="M2.12948 21.648C2.40417 23.2585 2.77096 25.3726 3.22905 27.9914C3.68643 30.61 4.03398 32.5737 4.26938 33.8822C4.3215 34.117 4.39355 34.5772 4.48554 35.2564C4.57694 35.9379 4.65541 36.4544 4.72105 36.8078C4.78599 37.1609 4.90363 37.6069 5.0749 38.1421C5.24477 38.6807 5.46734 39.1374 5.74203 39.5163C6.01672 39.8966 6.35075 40.2434 6.74389 40.558C10.5663 43.4913 15.7237 45.3087 22.2168 46.0159C31.589 47.0112 39.5749 45.8595 46.1722 42.5594C47.0363 42.1163 47.749 41.7096 48.3127 41.3428C48.8757 40.976 49.4451 40.453 50.0209 39.7722C50.5967 39.093 50.95 38.358 51.0813 37.5725C53.306 24.7967 54.7594 16.2229 55.4402 11.8497C55.5973 11.2482 55.6693 10.5411 55.6564 9.72973C55.6428 8.9185 55.4266 8.25125 55.0085 7.72613C53.4372 5.73605 50.6231 4.14133 46.5653 2.93544C38.79 0.657384 29.9401 0.00377965 20.0178 0.972061C15.0951 1.44297 10.998 2.28207 7.72581 3.48516C6.94023 3.77349 6.31227 4.016 5.84066 4.21222C5.36976 4.40844 4.76687 4.70306 4.03398 5.09562C3.3004 5.48806 2.71174 5.88121 2.26648 6.27365C1.82122 6.66609 1.40884 7.15705 1.02922 7.74641C0.649605 8.33578 0.420623 8.97085 0.342041 9.6515C0.577553 11.5352 0.865764 13.6045 1.20609 15.8549C1.54653 18.1074 1.8548 20.039 2.12948 21.648ZM34.7451 36.8277C33.1482 38.8177 31.1581 39.9174 28.7757 40.1257C26.3661 40.3355 24.2005 39.6027 22.2761 37.9273C20.3517 36.252 19.3371 34.2228 19.2322 31.8402C19.1537 30.0329 19.6054 28.3382 20.5872 26.7535C21.569 25.1701 22.8849 24.0121 24.5338 23.2786C27.0997 22.1262 29.6783 22.2967 32.2706 23.7895C34.8629 25.2808 36.3413 27.4285 36.7081 30.2291C36.9962 32.6385 36.3419 34.8383 34.7451 36.8277ZM11.8493 7.25615C12.687 6.8109 13.4062 6.52257 14.0091 6.3928C14.6113 6.26222 15.4746 6.10599 16.6007 5.9219C23.8002 4.63964 31.2102 4.61329 38.8286 5.84191C40.1107 6.05236 41.0405 6.21652 41.617 6.33276C42.1928 6.45121 42.952 6.73943 43.8946 7.19832C44.8372 7.65711 45.5699 8.23866 46.0936 8.94578C45.3344 9.70501 44.3526 10.3143 43.1482 10.771C41.9437 11.2298 40.9947 11.5117 40.3012 11.6165C39.6069 11.7207 38.436 11.8791 36.7864 12.0874C31.0261 12.821 25.1615 12.8067 19.1921 12.0474C17.6208 11.8647 16.4757 11.7142 15.7557 11.5965C15.0351 11.478 14.0732 11.1911 12.8695 10.7331C11.665 10.2743 10.6704 9.67925 9.88553 8.94566C10.3572 8.26512 11.0109 7.70071 11.8493 7.25615Z" fill="black"/>
<path d="M31.2693 28.4043C30.5492 27.6308 29.7116 27.1663 28.7562 27.0101C27.8 26.8524 26.8518 27.0101 25.9092 27.481C24.9137 27.9256 24.2331 28.6869 23.867 29.7594C23.5002 30.8332 23.5066 31.9071 23.8869 32.9797C24.2658 34.0534 24.9672 34.8127 25.9882 35.2579C27.3753 36.0956 28.8351 36.0172 30.3671 35.0218C31.8984 34.0279 32.5598 32.7057 32.3501 31.0559C32.3488 30.0612 31.9892 29.1771 31.2693 28.4043Z" fill="black"/>
</svg>
