<svg width="66" height="64" viewBox="0 0 66 64" fill="none" xmlns="http://www.w3.org/2000/svg">
<path d="M33.0222 0.5C15.1892 0.5 0.72583 14.9607 0.72583 32.7963C0.72583 47.0659 9.97873 59.1717 22.8138 63.4429C24.426 63.7416 24.9481 62.7404 24.9481 61.8899V55.8774C15.9643 57.8314 14.0938 52.0665 14.0938 52.0665C12.6243 48.3336 10.5062 47.3404 10.5062 47.3404C7.57534 45.3354 10.7296 45.3784 10.7296 45.3784C13.9727 45.6045 15.679 48.7077 15.679 48.7077C18.5588 53.6436 23.2337 52.2172 25.0773 51.3909C25.3652 49.3051 26.2023 47.8787 27.1281 47.074C19.9556 46.2531 12.4144 43.4837 12.4144 31.1115C12.4144 27.5832 13.6767 24.7034 15.7409 22.4427C15.4072 21.6272 14.3011 18.341 16.0558 13.8949C16.0558 13.8949 18.7687 13.0283 24.94 17.2053C27.5156 16.4894 30.277 16.1314 33.0222 16.118C35.7674 16.1314 38.5314 16.4894 41.1124 17.2053C47.2783 13.0283 49.9858 13.8949 49.9858 13.8949C51.7433 18.3437 50.6371 21.6299 50.3034 22.4427C52.3757 24.7034 53.6272 27.5859 53.6272 31.1115C53.6272 43.516 46.0726 46.2478 38.8813 47.0471C40.0385 48.0483 41.0962 50.013 41.0962 53.0273V61.8899C41.0962 62.7485 41.613 63.7577 43.252 63.4402C56.0764 59.1636 65.3185 47.0605 65.3185 32.7963C65.3185 14.9607 50.8578 0.5 33.0222 0.5Z" fill="black"/>
</svg>
