<svg width="65" height="64" viewBox="0 0 65 64" fill="none" xmlns="http://www.w3.org/2000/svg">
<path d="M0.522217 0V64H64.5222V0H0.522217ZM34.8079 49.7143C34.8079 55.9443 31.1279 58.9814 25.8008 58.9814C20.9894 58.9814 18.1965 56.49 16.7794 53.4829L21.6765 50.5186C22.6208 52.1943 23.3379 53.6114 25.3994 53.6114C27.1136 53.6114 28.5222 52.8386 28.5222 49.8314V29.7143H34.8079V49.7143ZM49.0008 58.8386C43.4165 58.8386 39.8079 56.3186 38.0465 52.8386L42.9508 50C44.2365 52.1057 45.9151 53.5086 48.8794 53.5086C51.3708 53.5086 52.8179 52.4057 52.8179 50.6871C52.8179 48.6257 51.3279 47.8957 48.5779 46.6871L47.0751 46.0414C42.7351 44.1957 39.8579 41.8757 39.8579 36.9771C39.8579 32.4671 43.2936 29.1729 48.6636 29.1729C52.4879 29.1729 55.2351 30.3614 57.2136 33.8414L52.5222 36.8571C51.4908 35.01 50.3794 34.2857 48.6565 34.2857C46.8951 34.2857 45.7779 35.4029 45.7779 36.8571C45.7779 38.6614 46.8951 39.3914 49.4722 40.5086L50.9751 41.1529C56.0879 43.3443 58.9665 45.5814 58.9665 50.6043C58.9679 56.0186 54.7151 58.8386 49.0008 58.8386Z" fill="black"/>
</svg>
