<svg width="7" height="12" viewBox="0 0 7 12" fill="none" xmlns="http://www.w3.org/2000/svg">
<path d="M4.24145 6.0825L0.584445 2.4255C0.511358 2.35894 0.452366 2.27839 0.410963 2.18863C0.369559 2.09887 0.346585 2.00171 0.343401 1.90291C0.340216 1.80411 0.356886 1.70568 0.392424 1.61343C0.427961 1.52119 0.481643 1.43702 0.550293 1.36589C0.618943 1.29476 0.701165 1.23813 0.792091 1.19935C0.883018 1.16057 0.980801 1.14043 1.07965 1.14011C1.1785 1.13979 1.27641 1.15931 1.36759 1.19751C1.45876 1.23571 1.54134 1.29181 1.61044 1.3625L1.62844 1.3805L5.80845 5.5595C5.947 5.69808 6.02484 5.88603 6.02484 6.082C6.02484 6.27797 5.947 6.46591 5.80845 6.6045L1.62945 10.7835C1.56201 10.8533 1.48149 10.9091 1.39248 10.9478C1.30347 10.9865 1.20771 11.0073 1.11067 11.0089C1.01364 11.0106 0.91722 10.9931 0.826929 10.9575C0.736639 10.922 0.654243 10.8689 0.584445 10.8015C0.514648 10.7341 0.458816 10.6535 0.420137 10.5645C0.381458 10.4755 0.36069 10.3798 0.359019 10.2827C0.357347 10.1857 0.374805 10.0893 0.410395 9.99898C0.445986 9.90869 0.499012 9.82629 0.566445 9.7565L0.584445 9.7385L4.24145 6.0825Z" fill="#FE3756" stroke="#FE3756" stroke-width="0.5"/>
</svg>
