<?xml version="1.0" standalone="no"?>
<!DOCTYPE svg PUBLIC "-//W3C//DTD SVG 20010904//EN"
 "http://www.w3.org/TR/2001/REC-SVG-20010904/DTD/svg10.dtd">
<svg version="1.0" xmlns="http://www.w3.org/2000/svg"
 width="739.000000pt" height="739.000000pt" viewBox="0 0 739.000000 739.000000"
 preserveAspectRatio="xMidYMid meet">

<g transform="translate(0.000000,739.000000) scale(0.100000,-0.100000)"
fill="#000000" stroke="none">
<path d="M922 7367 c-12 -13 -22 -29 -22 -36 0 -16 -33 -64 -82 -118 -21 -24
-38 -47 -38 -53 0 -6 -8 -28 -18 -49 -10 -21 -20 -62 -21 -91 -1 -30 -9 -68
-18 -84 -10 -20 -17 -63 -19 -119 -2 -48 -6 -92 -9 -97 -3 -4 -6 -53 -7 -107
-3 -123 14 -163 101 -251 35 -34 58 -62 53 -62 -6 0 -8 -9 -5 -20 3 -11 9 -20
14 -20 5 0 9 -5 9 -11 0 -6 -7 -8 -16 -5 -13 5 -14 3 -6 -7 6 -7 11 -22 10
-32 0 -11 12 -58 26 -104 14 -47 26 -94 26 -105 0 -12 11 -43 25 -71 13 -27
25 -61 25 -74 0 -12 11 -45 25 -73 13 -27 24 -52 24 -56 -1 -4 -1 -14 1 -22 1
-11 3 -10 9 4 4 10 4 44 0 74 -4 31 -6 85 -4 122 2 36 7 121 10 188 3 68 7
127 10 131 4 8 153 -25 170 -38 5 -4 35 -8 65 -9 30 -1 87 -11 125 -21 86 -24
160 -40 200 -45 38 -5 154 -33 215 -51 107 -33 218 -46 396 -44 99 0 202 0
231 0 28 -1 54 3 58 9 4 6 20 8 38 5 18 -4 43 -2 57 3 14 5 43 6 65 2 22 -4
33 -8 25 -9 -8 -1 -1 -8 15 -16 26 -11 27 -13 8 -14 -16 -1 -23 -9 -28 -32 -4
-19 -16 -34 -31 -39 -13 -5 -24 -16 -24 -24 0 -8 -12 -24 -26 -37 -14 -13 -33
-31 -42 -39 -9 -9 -36 -29 -59 -44 -24 -16 -43 -36 -43 -45 0 -13 -2 -13 -9
-3 -11 19 -48 -4 -55 -34 -3 -12 -22 -39 -41 -59 -20 -20 -33 -40 -31 -44 7
-10 -16 -61 -27 -61 -5 0 -5 5 -2 10 3 6 -1 10 -9 10 -11 0 -16 -10 -16 -31 0
-17 -4 -28 -10 -24 -6 4 -10 -6 -10 -24 0 -16 5 -33 10 -36 6 -3 10 -11 10
-16 0 -6 -4 -7 -10 -4 -15 9 -12 -26 5 -58 14 -27 14 -29 -6 -34 -15 -4 -17
-8 -8 -14 16 -9 15 -74 0 -93 -7 -8 -11 -18 -9 -22 5 -19 -13 -84 -24 -84 -6
0 -8 -10 -4 -27 5 -17 3 -29 -6 -34 -10 -7 -9 -9 3 -9 12 0 14 -8 11 -32 -3
-18 -9 -36 -14 -39 -11 -7 1 -59 14 -59 5 0 7 -10 3 -22 l-6 -23 20 24 21 23
0 -28 c1 -42 24 -68 55 -62 20 4 25 2 21 -9 -3 -8 -1 -11 4 -8 6 3 10 13 10
21 0 11 4 12 18 5 10 -5 48 -11 86 -13 37 -1 70 -6 73 -10 2 -5 8 -6 13 -3 12
8 1 36 -24 59 -17 15 -18 18 -4 13 19 -7 21 15 5 41 -6 8 -1 15 14 20 l23 9
-22 5 c-25 7 -30 38 -7 38 8 0 32 9 52 20 21 11 32 20 25 20 -25 0 -12 40 18
55 17 9 30 22 30 29 0 27 38 103 70 139 20 23 48 41 73 49 23 6 47 15 53 20
13 9 63 6 82 -6 7 -4 12 -14 12 -22 0 -17 -26 -19 -33 -1 -3 6 -6 7 -6 1 -1
-5 8 -20 20 -33 19 -20 20 -22 3 -19 -16 2 -20 -4 -22 -37 -2 -34 2 -45 29
-73 21 -21 41 -32 61 -32 38 0 124 44 168 86 19 19 41 34 50 33 9 0 10 -2 3
-5 -7 -3 -10 -11 -7 -19 3 -7 0 -16 -5 -20 -6 -3 -9 -11 -6 -16 4 -5 2 -9 -3
-9 -6 0 -13 -11 -16 -25 -5 -21 -11 -24 -31 -19 -15 4 -25 2 -25 -5 0 -6 -9
-11 -20 -11 -21 0 -45 -34 -35 -51 4 -5 15 -7 26 -4 14 5 19 2 19 -10 0 -11
-5 -15 -15 -11 -8 3 -15 2 -15 -2 0 -9 80 -32 109 -32 11 0 22 -6 24 -12 3 -9
13 -4 30 15 13 15 27 27 31 27 14 0 33 26 47 63 7 20 17 37 21 37 4 0 8 5 8
11 0 6 13 21 30 35 28 24 31 49 7 65 -5 4 -5 9 2 13 6 4 11 2 11 -3 0 -6 5
-11 10 -11 6 0 10 12 10 26 0 20 4 24 18 20 18 -6 43 5 44 20 1 5 8 8 17 7 22
-4 35 7 46 42 6 16 22 35 35 42 22 11 23 13 5 13 -12 1 -4 6 19 15 27 9 46 11
65 4 14 -5 33 -12 41 -15 13 -4 13 -6 0 -14 -12 -8 -10 -10 9 -10 17 0 22 -4
17 -16 -6 -17 4 -16 48 2 14 5 17 4 12 -4 -11 -18 4 -37 16 -21 7 11 8 9 4 -4
-7 -21 19 -77 35 -77 6 0 8 -4 4 -9 -3 -5 -2 -12 3 -15 5 -3 8 -23 8 -46 -1
-22 3 -40 8 -40 4 0 6 -10 2 -23 -3 -13 -2 -36 2 -52 l8 -29 15 22 c18 25 29
19 29 -15 0 -16 -4 -22 -12 -17 -8 5 -9 -2 -5 -26 4 -18 7 -39 7 -47 0 -9 6
-13 15 -9 20 7 45 -3 45 -20 0 -8 -7 -11 -17 -8 -14 5 -15 4 -4 -4 10 -7 12
-21 8 -45 -3 -20 -2 -37 3 -39 13 -5 19 -90 7 -109 -8 -13 -7 -21 2 -33 11
-14 11 -16 -3 -16 -14 0 -14 -3 -4 -20 7 -11 21 -20 30 -20 23 0 25 -62 3 -80
-23 -19 -18 -30 15 -30 19 0 33 -7 40 -20 6 -11 17 -20 25 -20 14 0 31 -37 21
-47 -3 -4 -6 1 -6 9 0 22 -68 29 -91 9 -26 -21 -13 -33 28 -25 33 6 36 5 31
-14 -4 -14 2 -28 19 -44 18 -17 22 -18 18 -5 -5 11 -1 19 9 23 9 3 16 15 16
25 0 10 5 19 10 19 6 0 10 -4 10 -10 0 -5 5 -10 10 -10 6 0 10 8 8 17 -2 10 4
18 12 19 8 0 21 2 28 2 6 1 13 12 13 25 1 16 2 18 6 5 13 -51 63 28 64 103 l1
54 9 -59 c10 -69 19 -84 20 -35 1 19 2 53 3 76 0 24 -3 43 -9 43 -5 0 -4 5 3
12 14 14 16 62 2 53 -9 -6 -11 4 -14 92 -1 17 -4 35 -8 39 -11 11 -10 76 1 70
5 -3 7 -14 5 -24 -3 -10 3 -22 16 -30 11 -7 20 -8 20 -3 0 17 -24 66 -35 73
-6 4 -12 28 -14 54 -1 26 -5 52 -8 58 -7 11 -17 56 -38 166 -15 83 -28 212
-19 193 10 -22 24 -14 25 15 2 26 2 26 6 2 9 -47 23 -45 23 3 0 26 5 47 11 47
5 0 7 -5 3 -12 -5 -8 -2 -9 9 -5 12 5 17 1 17 -13 0 -24 -2 -23 41 -8 42 14
52 28 35 48 -7 8 -16 23 -19 33 -6 15 -3 17 15 12 19 -7 20 -5 15 24 -4 20 -3
30 3 26 6 -3 10 -14 11 -23 0 -14 2 -14 6 -2 3 8 15 23 27 32 18 15 19 20 8
38 -12 20 -12 20 9 10 18 -10 20 -18 16 -48 -4 -19 -10 -38 -15 -41 -15 -9 -6
-84 11 -95 25 -16 49 19 53 77 4 62 21 136 36 154 6 7 8 13 5 13 -3 0 3 21 13
48 12 32 24 47 37 48 15 1 19 -6 20 -35 l2 -36 -11 35 c-8 29 -11 32 -19 17
-8 -13 -8 -58 0 -85 1 -2 9 4 18 14 16 15 17 15 24 -2 4 -13 1 -21 -12 -26
-11 -4 -19 -17 -19 -28 0 -11 -6 -20 -12 -20 -7 0 -1 -8 15 -18 15 -9 27 -25
27 -37 -1 -18 -2 -18 -13 -4 -11 15 -49 39 -61 39 -3 0 -4 -13 -3 -30 2 -28 5
-30 40 -30 40 0 51 -17 15 -22 -25 -3 -36 -36 -20 -63 7 -14 13 -10 33 19 28
41 39 45 39 14 0 -13 18 -40 41 -64 36 -36 42 -50 54 -118 13 -78 12 -89 -19
-171 -8 -22 -15 -54 -16 -71 0 -34 23 -63 35 -44 4 6 13 9 21 6 8 -3 14 -1 14
4 0 5 7 7 15 4 9 -4 15 0 15 10 0 8 9 20 21 26 12 7 18 18 15 26 -4 9 2 14 16
14 18 0 20 4 14 31 -3 17 -6 43 -6 58 0 20 -2 23 -10 11 -6 -9 -10 -10 -10 -3
0 7 9 17 19 23 25 13 34 13 26 0 -3 -5 1 -10 10 -10 11 0 15 5 12 15 -4 9 5
20 25 30 38 19 35 19 47 -3 7 -13 5 -34 -5 -70 -11 -37 -12 -56 -5 -69 8 -14
11 -15 11 -3 1 8 7 29 15 45 l15 30 -5 -30 c-3 -16 -1 -43 4 -60 l9 -30 2 30
c2 30 2 30 10 5 8 -24 8 -24 9 7 1 17 -3 35 -9 38 -17 11 -11 25 10 25 25 0
38 29 19 41 -10 6 -8 9 10 9 17 0 22 4 17 16 -4 9 -2 22 3 28 5 6 11 45 14 86
2 41 7 84 10 95 3 11 11 56 17 100 7 44 19 105 26 135 l13 55 -5 -56 c-2 -30
-11 -90 -19 -132 -8 -43 -20 -141 -26 -220 -12 -168 -28 -235 -78 -342 -39
-81 -117 -195 -134 -195 -10 0 4 21 40 59 13 13 23 30 23 37 0 8 6 23 12 34
10 15 10 22 0 32 -9 9 -12 8 -12 -5 0 -9 -6 -17 -14 -17 -8 0 -13 8 -12 17 0
10 -9 22 -21 28 -16 6 -21 15 -17 27 9 30 -22 31 -64 3 -22 -15 -43 -33 -46
-40 -4 -11 -23 -13 -83 -9 -43 3 -80 10 -84 15 -3 5 -13 7 -22 4 -36 -14 -31
-85 7 -85 16 0 18 -2 7 -9 -8 -5 -11 -16 -8 -24 4 -10 0 -17 -10 -19 -15 -3
-21 -79 -22 -288 0 -30 -4 -63 -9 -75 -12 -23 -39 -166 -41 -208 0 -15 -8 -41
-16 -58 -9 -16 -13 -34 -10 -39 3 -5 1 -11 -5 -15 -5 -3 -7 -19 -3 -35 3 -19
1 -30 -6 -30 -6 0 -11 -7 -11 -16 0 -8 -4 -12 -10 -9 -5 3 -10 -1 -10 -10 0
-9 4 -14 9 -11 4 3 6 -6 3 -19 -2 -14 -8 -25 -12 -25 -4 0 -10 -12 -13 -27
-13 -66 -29 -118 -38 -124 -16 -9 -17 -101 -1 -106 6 -3 12 2 12 11 0 19 26
21 34 4 3 -7 3 -3 1 8 -6 23 11 35 52 38 18 1 21 -3 18 -25 -4 -29 -31 -77
-54 -95 -22 -17 3 -26 31 -11 13 6 26 16 28 21 7 14 67 18 75 6 3 -5 19 -10
35 -10 22 0 29 6 35 28 4 15 10 21 12 15 8 -21 22 -15 16 7 -3 12 0 20 6 20 7
0 10 4 7 9 -5 8 51 41 71 41 5 0 31 14 57 30 51 33 67 32 58 -2 -3 -14 -2 -19
6 -14 8 5 12 -1 12 -16 0 -17 3 -19 9 -9 5 8 16 11 25 8 12 -5 18 4 27 36 27
102 38 144 44 170 3 15 13 35 23 45 12 12 18 37 20 80 1 35 8 77 16 95 7 18
17 55 22 82 l8 50 7 -50 6 -50 2 65 c1 36 4 74 6 85 2 11 7 47 9 80 3 33 12
82 21 109 8 27 15 60 15 73 0 12 5 23 10 23 7 0 8 -19 4 -52 -5 -44 -4 -51 7
-40 9 8 13 38 13 90 0 50 5 82 13 90 7 7 13 23 13 34 0 22 76 128 91 128 5 0
9 -9 9 -20 0 -11 7 -20 15 -20 18 0 19 12 4 27 -17 17 -7 87 14 91 15 3 16 0
7 -23 -6 -15 -7 -31 -4 -37 10 -16 36 54 29 79 -3 13 -1 23 5 23 5 0 10 22 10
49 0 31 5 53 15 61 8 7 13 16 10 20 -3 5 -1 11 4 14 5 4 15 23 22 44 7 20 18
42 24 47 7 6 17 37 24 70 15 80 34 98 27 25 -4 -39 -3 -46 3 -24 4 17 12 37
16 44 12 20 6 243 -7 251 -7 5 -9 26 -5 58 5 44 2 59 -20 99 -14 26 -30 53
-36 60 -5 6 -6 12 -3 12 4 0 -9 30 -29 66 -20 36 -34 68 -32 70 7 7 37 -7 37
-17 0 -5 7 -9 15 -9 8 0 15 -3 15 -7 0 -5 14 -24 31 -43 38 -43 27 -19 -16 35
-18 22 -35 49 -39 60 -6 16 -9 17 -16 5 -9 -14 -14 -7 -11 13 1 4 -8 27 -19
52 -11 24 -17 50 -14 58 3 8 -2 22 -11 31 -11 11 -15 25 -11 44 3 15 1 65 -4
112 -12 99 -12 97 -7 132 3 17 -3 35 -14 47 -17 18 -33 84 -46 184 -3 20 -9
37 -13 37 -5 0 -8 14 -8 30 1 17 -6 38 -14 48 -19 21 -35 97 -19 87 6 -3 11
-13 11 -21 0 -8 4 -14 10 -14 12 0 -7 52 -22 61 -6 4 -13 22 -15 40 -2 18 -8
38 -14 46 -9 10 -8 17 1 28 7 8 8 15 3 15 -5 0 -10 6 -10 13 0 16 -80 183
-111 230 l-25 37 -2092 0 -2092 0 -21 -23z m4203 -7 c3 -5 1 -10 -4 -10 -6 0
-11 5 -11 10 0 6 2 10 4 10 3 0 8 -4 11 -10z m42 -62 c19 -24 23 -48 9 -48 -8
0 -16 8 -20 18 -3 9 -9 23 -12 30 -3 6 -1 12 4 12 5 0 14 -6 19 -12z m-3692
-518 c3 -6 -1 -7 -9 -4 -18 7 -21 14 -7 14 6 0 13 -4 16 -10z m-740 -290 c3
-5 1 -10 -4 -10 -6 0 -11 5 -11 10 0 6 2 10 4 10 3 0 8 -4 11 -10z m530 -110
c3 -6 -1 -7 -9 -4 -18 7 -21 14 -7 14 6 0 13 -4 16 -10z m-105 -30 c0 -5 -4
-10 -10 -10 -5 0 -10 5 -10 10 0 6 5 10 10 10 6 0 10 -4 10 -10z m863 -317
c-7 -2 -21 -2 -30 0 -10 3 -4 5 12 5 17 0 24 -2 18 -5z m125 0 c-15 -2 -42 -2
-60 0 -18 2 -6 4 27 4 33 0 48 -2 33 -4z m200 -10 c-10 -2 -26 -2 -35 0 -10 3
-2 5 17 5 19 0 27 -2 18 -5z m2487 -53 c-3 -5 -10 -10 -16 -10 -5 0 -9 5 -9
10 0 6 7 10 16 10 8 0 12 -4 9 -10z m-30 -49 c-3 -6 -11 -8 -17 -5 -6 4 -5 9
3 15 16 10 23 4 14 -10z m0 -68 c-4 -27 -11 -77 -15 -113 -16 -127 -29 -164
-55 -154 -19 8 -19 23 0 30 19 8 20 34 1 34 -14 0 -26 29 -26 68 0 12 5 22 10
22 6 0 10 -7 10 -15 0 -8 5 -15 10 -15 6 0 10 23 10 50 0 28 5 50 10 50 6 0
10 5 10 11 0 14 31 79 37 79 3 0 2 -21 -2 -47z m-1725 -3 c8 -4 45 -13 82 -20
37 -8 65 -17 62 -22 -6 -10 44 -30 57 -22 5 3 9 0 9 -5 0 -6 7 -11 15 -11 8 0
15 -5 15 -11 0 -5 4 -8 9 -5 9 6 31 -36 31 -59 0 -8 7 -15 15 -15 8 0 15 -4
15 -10 0 -5 -8 -10 -17 -10 -12 0 -14 -3 -6 -11 24 -24 -30 -79 -79 -79 -10 0
-18 -4 -18 -10 0 -5 -17 -10 -38 -10 -21 0 -47 -7 -59 -15 -16 -11 -28 -12
-49 -5 -30 10 -59 9 -70 -3 -13 -12 -52 -7 -68 9 -12 12 -16 12 -16 2 0 -10
-2 -10 -9 1 -5 7 -14 11 -20 7 -5 -4 -31 -7 -56 -8 -26 0 -45 -5 -45 -12 0 -6
-5 -3 -11 7 -8 14 -14 15 -31 6 -11 -6 -35 -9 -53 -7 -22 2 -31 0 -28 -8 3 -7
-14 -14 -44 -19 -31 -4 -49 -3 -51 4 -2 6 -11 11 -19 11 -13 0 -13 -3 -3 -15
11 -13 8 -15 -21 -11 -25 2 -38 11 -51 35 -15 26 -15 31 -3 31 10 0 14 8 12
23 -2 12 -2 16 0 10 8 -24 58 14 87 66 23 42 24 51 11 51 -9 0 -13 5 -10 11 4
6 13 8 21 5 17 -6 44 3 44 15 0 16 51 59 62 53 7 -5 9 -1 5 9 -4 11 -2 14 9
10 7 -3 14 -1 14 4 0 6 25 15 55 22 30 7 55 16 55 20 0 10 169 2 190 -9z
m1485 1 c3 -5 1 -12 -5 -16 -5 -3 -10 1 -10 9 0 18 6 21 15 7z m405 -11 c0 -5
-2 -10 -4 -10 -3 0 -8 5 -11 10 -3 6 -1 10 4 10 6 0 11 -4 11 -10z m37 -52
c38 -17 54 -39 48 -64 -3 -15 1 -23 13 -26 27 -7 62 -106 55 -157 -3 -22 -10
-41 -16 -41 -5 0 -4 -7 4 -16 10 -13 10 -17 0 -24 -8 -4 -10 -13 -6 -20 11
-18 15 -129 5 -135 -5 -3 -17 -21 -26 -40 -18 -39 -35 -47 -27 -12 4 17 2 19
-6 7 -5 -8 -13 -11 -17 -7 -14 14 -11 52 5 67 26 25 41 58 35 77 -5 15 -4 15
5 3 5 -8 13 -12 16 -8 9 9 -6 59 -16 52 -5 -3 -9 2 -9 10 0 9 4 16 9 16 14 0
19 61 7 99 -5 20 -19 44 -30 54 -16 15 -17 17 -3 17 10 0 17 5 17 10 0 6 -11
8 -26 4 -20 -5 -26 -2 -31 14 -6 24 -32 30 -88 20 -22 -4 -58 -7 -80 -6 -36 1
-37 2 -7 5 29 4 47 23 20 23 -6 0 -8 3 -4 7 4 5 14 -1 23 -12 15 -20 15 -20 9
1 -6 21 -3 23 64 52 14 6 32 13 40 15 8 3 2 6 -15 6 -23 1 -27 4 -15 11 19 12
14 12 47 -2z m-468 -55 c1 -12 -4 -25 -11 -29 -7 -5 -8 -3 -3 6 5 8 4 11 -2 7
-6 -4 -8 -18 -5 -32 4 -21 1 -25 -19 -24 -18 1 -19 3 -6 6 16 4 16 6 -3 33
-11 15 -20 32 -20 37 0 4 5 1 10 -7 6 -10 10 -11 10 -2 0 6 7 12 15 12 10 0
15 10 16 28 0 24 1 25 9 7 5 -11 9 -30 9 -42z m198 35 c-3 -8 -6 -5 -6 6 -1
11 2 17 5 13 3 -3 4 -12 1 -19z m-2067 -28 c0 -5 -2 -10 -4 -10 -3 0 -8 5 -11
10 -3 6 -1 10 4 10 6 0 11 -4 11 -10z m2045 -100 c3 -5 1 -10 -4 -10 -6 0 -11
5 -11 10 0 6 2 10 4 10 3 0 8 -4 11 -10z m-211 -15 c-4 -8 -8 -15 -10 -15 -2
0 -4 7 -4 15 0 8 4 15 10 15 5 0 7 -7 4 -15z m-19 -95 c-5 -16 -10 -19 -18
-11 -7 7 -6 15 3 26 17 20 24 13 15 -15z m-1361 -25 c-4 -8 -8 -15 -10 -15 -2
0 -4 7 -4 15 0 8 4 15 10 15 5 0 7 -7 4 -15z m2456 0 c0 -8 -7 -15 -15 -15
-13 0 -14 3 -3 15 16 18 18 18 18 0z m-2390 -5 c0 -5 -4 -10 -9 -10 -6 0 -13
5 -16 10 -3 6 1 10 9 10 9 0 16 -4 16 -10z m-925 -30 c3 -5 1 -10 -4 -10 -6 0
-11 5 -11 10 0 6 2 10 4 10 3 0 8 -4 11 -10z m2065 3 c0 -5 -5 -15 -10 -23 -8
-12 -10 -11 -10 8 0 12 5 22 10 22 6 0 10 -3 10 -7z m-1362 -16 c6 -5 12 -4
12 1 0 6 9 8 20 5 11 -3 20 -10 20 -15 0 -6 7 -5 15 2 21 17 29 7 15 -19 -14
-27 -70 -30 -70 -3 0 14 -4 13 -19 -7 -12 -15 -24 -22 -34 -18 -9 3 -19 2 -22
-3 -4 -6 -21 -10 -40 -10 -21 0 -35 -6 -39 -16 -3 -8 -10 -12 -16 -9 -5 3 -10
1 -10 -4 0 -6 -13 -11 -30 -11 -16 0 -30 -4 -30 -9 0 -5 -8 -12 -19 -16 -10
-3 -31 -17 -47 -30 -22 -19 -36 -24 -58 -19 -19 4 -26 3 -22 -5 4 -6 14 -11
22 -11 12 0 12 -3 2 -20 -7 -11 -19 -20 -27 -20 -11 0 -11 -3 -1 -15 10 -13
10 -19 -5 -35 -10 -11 -25 -20 -34 -20 -13 0 -13 -2 -3 -9 11 -6 10 -11 -3
-25 -22 -22 -28 -20 -20 6 6 17 4 20 -9 15 -43 -17 37 147 104 211 25 24 44
48 43 53 -2 5 6 9 17 9 11 0 20 4 20 9 0 13 56 32 110 38 25 3 46 6 47 7 7 6
100 0 111 -7z m2391 -229 c0 -13 -4 -32 -9 -43 -5 -14 -7 -8 -6 22 0 24 4 43
9 43 4 0 7 -10 6 -22z m-2249 -24 c0 -8 -4 -12 -10 -9 -5 3 -10 10 -10 16 0 5
5 9 10 9 6 0 10 -7 10 -16z m-165 -14 c4 -6 -5 -10 -20 -10 -15 0 -24 4 -20
10 3 6 12 10 20 10 8 0 17 -4 20 -10z m78 -7 c-7 -2 -21 -2 -30 0 -10 3 -4 5
12 5 17 0 24 -2 18 -5z m67 -13 c0 -5 -4 -10 -10 -10 -5 0 -10 5 -10 10 0 6 5
10 10 10 6 0 10 -4 10 -10z m-94 -15 c-6 -17 19 -21 29 -5 3 6 13 10 22 10 13
0 13 -3 3 -15 -16 -19 -84 -20 -99 -1 -10 11 -8 15 6 19 35 9 45 7 39 -8z
m2355 -105 c5 0 9 -5 9 -11 0 -6 -7 -8 -16 -5 -13 5 -15 2 -11 -14 3 -14 -1
-24 -15 -31 -27 -15 -33 -5 -14 23 9 12 16 34 16 49 0 35 14 47 18 15 2 -14 8
-26 13 -26z m-1428 -57 c-3 -7 -9 -10 -14 -7 -14 8 -11 21 5 21 8 0 12 -6 9
-14z m1061 -78 c-4 -8 -8 -15 -10 -15 -2 0 -4 7 -4 15 0 8 4 15 10 15 5 0 7
-7 4 -15z m-2574 -64 c0 -6 -4 -13 -10 -16 -5 -3 -10 1 -10 9 0 9 5 16 10 16
6 0 10 -4 10 -9z m2390 -16 c0 -14 -4 -25 -9 -25 -5 0 -8 11 -8 25 0 14 3 25
8 25 5 0 9 -11 9 -25z m-2420 5 c0 -5 -4 -10 -10 -10 -5 0 -10 5 -10 10 0 6 5
10 10 10 6 0 10 -4 10 -10z m2543 -34 c3 -8 -2 -20 -11 -28 -15 -11 -15 -11
-5 3 10 12 10 18 1 27 -8 8 -9 12 -1 12 6 0 13 -6 16 -14z m-115 -41 c-3 -14
-1 -25 3 -25 5 0 9 -5 9 -12 0 -6 -7 -4 -18 5 -10 10 -29 17 -41 17 -32 0 -21
24 15 31 16 4 31 7 33 8 2 0 1 -10 -1 -24z m-91 -147 c-3 -8 -6 -5 -6 6 -1 11
2 17 5 13 3 -3 4 -12 1 -19z m-657 -52 c0 -3 -4 -8 -10 -11 -5 -3 -10 -1 -10
4 0 6 5 11 10 11 6 0 10 -2 10 -4z m724 -661 c-6 -15 7 -21 19 -8 7 7 57 14
57 8 0 -5 -80 -45 -90 -45 -14 0 -12 34 2 48 16 16 19 15 12 -3z"/>
<path d="M5075 5641 c-3 -5 -1 -12 5 -16 5 -3 10 1 10 9 0 18 -6 21 -15 7z"/>
<path d="M2570 5190 c0 -5 5 -10 11 -10 5 0 7 5 4 10 -3 6 -8 10 -11 10 -2 0
-4 -4 -4 -10z"/>
<path d="M5235 7328 c13 -24 32 -58 41 -76 9 -18 19 -30 22 -28 8 9 -62 145
-75 146 -7 0 -2 -17 12 -42z"/>
<path d="M5317 7160 c3 -10 11 -25 19 -31 17 -14 18 -8 2 26 -13 30 -28 34
-21 5z"/>
<path d="M5361 7060 c0 -3 8 -30 19 -60 12 -37 19 -47 19 -30 0 14 -8 41 -19
60 -11 19 -19 33 -19 30z"/>
<path d="M5450 6192 c0 -5 7 -15 15 -22 8 -7 15 -9 15 -6 0 4 -7 14 -15 22 -8
9 -15 11 -15 6z"/>
<path d="M5601 5764 c-1 -36 2 -53 9 -49 11 7 11 93 0 100 -4 2 -8 -21 -9 -51z"/>
<path d="M4530 5540 c0 -5 5 -10 10 -10 6 0 10 5 10 10 0 6 -4 10 -10 10 -5 0
-10 -4 -10 -10z"/>
<path d="M4390 5500 c0 -5 5 -10 10 -10 6 0 10 5 10 10 0 6 -4 10 -10 10 -5 0
-10 -4 -10 -10z"/>
<path d="M5607 5383 c5 -65 13 -68 13 -5 0 29 -4 52 -8 52 -5 0 -7 -21 -5 -47z"/>
<path d="M4600 5390 c0 -5 5 -10 10 -10 6 0 10 5 10 10 0 6 -4 10 -10 10 -5 0
-10 -4 -10 -10z"/>
<path d="M4220 5376 c0 -8 5 -18 10 -21 6 -3 10 1 10 9 0 8 -4 18 -10 21 -5 3
-10 -1 -10 -9z"/>
<path d="M4472 5360 c0 -14 2 -19 5 -12 2 6 2 18 0 25 -3 6 -5 1 -5 -13z"/>
<path d="M1194 5352 c5 -8 -2 -12 -22 -12 -16 0 -37 -9 -47 -20 -10 -11 -24
-20 -32 -20 -7 0 -13 -4 -13 -9 0 -5 -12 -12 -26 -15 -18 -5 -24 -12 -20 -22
3 -9 6 -21 6 -27 0 -6 7 -2 15 10 9 12 31 25 50 29 44 8 174 -10 295 -40 52
-13 122 -26 155 -29 33 -2 50 -2 37 0 -12 2 -20 8 -17 13 7 12 -43 38 -92 48
-21 4 -38 13 -38 19 0 19 -14 26 -27 16 -7 -6 -28 -8 -47 -6 -23 4 -29 8 -20
14 10 6 4 9 -18 9 -17 0 -33 6 -36 13 -2 7 -21 12 -50 11 -25 0 -44 3 -41 7 2
4 -1 11 -7 15 -8 4 -9 3 -5 -4z m6 -41 c8 -2 -24 -21 -36 -21 -7 0 -14 6 -17
13 -4 11 27 16 53 8z"/>
<path d="M4482 5250 c0 -14 2 -19 5 -12 2 6 2 18 0 25 -3 6 -5 1 -5 -13z"/>
<path d="M4630 5260 c-8 -5 -11 -12 -7 -16 4 -4 13 -2 19 4 15 15 7 24 -12 12z"/>
<path d="M4605 5190 c-3 -5 1 -10 10 -10 9 0 13 5 10 10 -3 6 -8 10 -10 10 -2
0 -7 -4 -10 -10z"/>
<path d="M3135 5130 c-3 -5 -1 -10 4 -10 6 0 11 5 11 10 0 6 -2 10 -4 10 -3 0
-8 -4 -11 -10z"/>
<path d="M1426 5110 c-26 -10 -55 -25 -65 -33 -9 -8 -22 -12 -28 -10 -7 3 -13
-2 -13 -11 0 -10 -6 -13 -15 -10 -8 4 -15 1 -15 -5 0 -6 5 -11 10 -11 6 0 10
-5 10 -11 0 -6 -7 -8 -15 -5 -12 4 -15 0 -13 -17 2 -12 7 -27 11 -34 4 -6 5
-18 1 -26 -3 -8 1 -17 9 -20 10 -3 13 -14 10 -31 -4 -17 -1 -26 7 -26 9 0 9
-4 -1 -17 -12 -15 -12 -16 4 -10 41 16 65 18 71 8 14 -23 26 -10 26 28 0 22 3
47 6 56 9 23 95 64 134 63 19 -1 36 4 38 10 2 7 10 12 17 12 15 0 27 -38 14
-46 -17 -10 -4 -79 19 -102 20 -20 26 -20 23 1 0 4 7 7 18 7 23 0 73 38 66 51
-4 5 3 5 17 0 27 -10 37 -41 14 -41 -10 0 -16 -9 -16 -21 0 -16 4 -19 18 -14
9 4 30 12 45 17 28 10 29 13 22 57 -4 25 -14 57 -23 71 -9 14 -15 29 -14 34 6
19 -48 74 -80 80 -18 3 -44 8 -58 11 -14 3 -65 7 -115 10 -73 4 -99 1 -139
-15z m148 -7 c3 -4 21 -7 39 -8 17 -1 48 -10 67 -20 l35 -19 -90 -11 c-139
-18 -224 -49 -268 -100 l-26 -30 -1 38 c0 68 48 116 142 142 60 16 91 18 102
8z"/>
<path d="M4618 5053 c7 -3 16 -2 19 1 4 3 -2 6 -13 5 -11 0 -14 -3 -6 -6z"/>
<path d="M5576 5048 c-13 -40 -16 -72 -8 -63 10 11 24 75 16 75 -2 0 -6 -6 -8
-12z"/>
<path d="M2946 5034 c-8 -21 -8 -24 4 -24 6 0 10 7 10 16 0 8 4 13 9 9 5 -3
12 -1 16 5 3 5 -3 10 -13 10 -11 0 -23 -7 -26 -16z"/>
<path d="M4592 4930 c0 -14 2 -19 5 -12 2 6 2 18 0 25 -3 6 -5 1 -5 -13z"/>
<path d="M1560 4885 c0 -17 32 -64 54 -78 21 -14 29 -15 68 -2 34 11 36 13 10
9 -36 -6 -91 11 -93 30 -1 6 -1 17 0 25 2 7 -2 10 -8 6 -6 -3 -11 -1 -11 4 0
6 -4 11 -10 11 -5 0 -10 -2 -10 -5z"/>
<path d="M3920 4769 c0 -5 5 -7 10 -4 6 3 10 8 10 11 0 2 -4 4 -10 4 -5 0 -10
-5 -10 -11z"/>
<path d="M3920 4739 c0 -5 5 -7 10 -4 6 3 10 8 10 11 0 2 -4 4 -10 4 -5 0 -10
-5 -10 -11z"/>
<path d="M4595 4710 c-3 -5 -1 -10 4 -10 6 0 11 5 11 10 0 6 -2 10 -4 10 -3 0
-8 -4 -11 -10z"/>
<path d="M3940 4500 c0 -5 6 -10 14 -10 8 0 18 5 21 10 3 6 -3 10 -14 10 -12
0 -21 -4 -21 -10z"/>
<path d="M4000 4355 c0 -8 4 -15 10 -15 5 0 7 7 4 15 -4 8 -8 15 -10 15 -2 0
-4 -7 -4 -15z"/>
<path d="M3738 4232 c-16 -33 -16 -61 0 -35 4 7 21 19 37 27 26 14 27 16 9 22
-10 4 -21 11 -24 14 -3 4 -13 -9 -22 -28z"/>
<path d="M2588 4200 c-10 -11 -13 -20 -8 -20 6 0 10 -16 10 -35 0 -24 -5 -35
-15 -35 -8 0 -15 -5 -15 -11 0 -5 5 -7 10 -4 6 3 10 0 10 -8 0 -21 -52 -37
-99 -31 -22 2 -42 0 -46 -6 -3 -5 0 -10 7 -10 10 0 10 -2 -1 -9 -9 -6 -32 -4
-60 4 -25 7 -57 12 -71 12 -13 -1 -25 4 -26 11 -1 6 -2 17 -3 22 -2 19 -30 10
-36 -11 -6 -18 -13 -21 -46 -16 -21 3 -39 2 -39 -3 0 -4 -12 -10 -27 -14 -16
-3 -35 -11 -44 -18 -21 -17 -34 -58 -19 -58 7 0 6 -5 -2 -14 -7 -8 -17 -12
-21 -9 -5 3 -3 -4 5 -16 7 -12 17 -21 21 -21 5 0 6 -8 3 -18 -5 -15 3 -23 36
-37 l43 -18 -40 -7 c-32 -6 -23 -7 43 -9 45 0 82 -5 82 -9 0 -4 56 -8 125 -7
77 0 125 -4 125 -10 0 -5 4 -5 8 2 4 6 21 13 37 15 28 3 87 50 83 66 -3 15 15
42 28 42 8 0 17 7 20 15 4 8 12 15 20 15 8 0 13 6 11 13 -1 6 3 11 9 10 6 -1
17 16 23 38 11 36 10 45 -9 81 -28 53 -70 108 -83 108 -5 0 -15 7 -21 15 -10
14 -13 13 -28 -5z m-318 -164 c0 -2 -7 -6 -15 -10 -8 -3 -15 -1 -15 4 0 6 7
10 15 10 8 0 15 -2 15 -4z m214 -11 c-4 -8 -7 -15 -9 -15 -2 0 -5 7 -9 15 -3
9 0 15 9 15 9 0 12 -6 9 -15z m-374 -125 c0 -5 -4 -10 -10 -10 -5 0 -10 5 -10
10 0 6 5 10 10 10 6 0 10 -4 10 -10z m323 -97 c-7 -2 -19 -2 -25 0 -7 3 -2 5
12 5 14 0 19 -2 13 -5z"/>
<path d="M3800 4190 c0 -5 -7 -16 -16 -25 -14 -13 -19 -14 -25 -3 -7 10 -9 9
-9 -4 0 -10 -7 -18 -15 -18 -8 0 -15 -7 -15 -15 0 -8 -7 -15 -15 -15 -9 0 -15
-9 -15 -25 0 -14 6 -25 13 -25 21 1 59 39 51 52 -5 10 -4 10 5 2 16 -15 4 -60
-17 -68 -33 -13 -62 -31 -62 -38 0 -5 -5 -8 -11 -8 -6 0 -9 7 -5 15 6 17 -15
20 -30 5 -6 -6 -21 -6 -41 -1 -34 10 -73 4 -73 -10 0 -5 5 -9 10 -9 6 0 10 -5
10 -11 0 -6 -8 -8 -17 -5 -23 7 -40 -4 -40 -26 0 -12 8 -18 24 -18 13 0 23 -5
23 -11 0 -6 -11 -8 -27 -5 -33 7 -49 -2 -55 -29 -2 -12 -11 -19 -22 -18 -23 2
-58 -38 -46 -51 6 -5 15 -4 25 4 20 17 20 -7 0 -34 -12 -16 -17 -17 -30 -6
-12 10 -15 10 -15 0 0 -9 -3 -10 -14 -1 -7 6 -21 8 -31 5 -17 -7 -17 -8 0 -20
15 -11 16 -16 5 -29 -8 -9 -8 -15 -2 -15 6 0 14 5 17 10 9 15 25 12 25 -5 0
-8 3 -14 8 -13 4 0 14 -2 22 -5 27 -11 105 -37 113 -37 4 0 7 7 7 15 0 8 -4
15 -10 15 -19 0 -10 18 11 23 14 4 20 11 16 21 -10 25 23 36 65 21 34 -11 36
-11 29 4 -5 9 -6 21 -4 28 2 6 -1 14 -6 18 -19 11 -12 22 22 30 23 5 27 9 14
12 -27 7 -15 27 21 34 45 9 63 27 56 54 -4 17 0 26 16 35 17 9 19 14 9 26 -9
11 -8 14 3 14 14 0 37 51 39 86 0 10 3 13 6 7 2 -7 11 -13 19 -13 8 0 14 -5
14 -12 0 -6 6 -4 13 5 11 15 15 16 41 2 30 -16 62 -13 51 4 -3 6 -12 8 -19 5
-19 -7 -30 30 -17 55 8 14 7 20 -3 24 -10 4 -12 -1 -9 -16 4 -22 4 -22 -12 -2
-15 20 -16 19 -21 -3 -4 -12 -14 -22 -23 -21 -10 0 -11 2 -3 6 19 7 14 30 -8
36 -11 3 -20 1 -20 -3z m-152 -213 c14 -11 16 -43 2 -52 -15 -9 -60 25 -53 41
3 8 0 14 -6 14 -6 0 -11 5 -11 10 0 12 48 3 68 -13z m-121 -23 c-3 -3 -12 -4
-19 -1 -8 3 -5 6 6 6 11 1 17 -2 13 -5z m63 -99 c0 -13 -4 -14 -20 -5 -11 6
-20 13 -20 15 0 3 9 5 20 5 11 0 20 -7 20 -15z"/>
<path d="M3608 3953 c7 -3 16 -2 19 1 4 3 -2 6 -13 5 -11 0 -14 -3 -6 -6z"/>
<path d="M3652 4088 c-18 -18 -14 -38 8 -38 15 0 20 7 20 25 0 27 -9 32 -28
13z"/>
<path d="M2400 4050 c0 -5 5 -10 11 -10 5 0 7 5 4 10 -3 6 -8 10 -11 10 -2 0
-4 -4 -4 -10z"/>
<path d="M3798 4033 c-10 -2 -18 -9 -18 -14 0 -14 16 -11 30 6 7 8 11 14 9 14
-2 -1 -12 -3 -21 -6z"/>
<path d="M3831 3944 c0 -11 3 -14 6 -6 3 7 2 16 -1 19 -3 4 -6 -2 -5 -13z"/>
<path d="M3431 3894 c0 -11 3 -14 6 -6 3 7 2 16 -1 19 -3 4 -6 -2 -5 -13z"/>
<path d="M2068 3833 c6 -2 18 -2 25 0 6 3 1 5 -13 5 -14 0 -19 -2 -12 -5z"/>
<path d="M3710 3800 c0 -5 5 -10 10 -10 6 0 10 5 10 10 0 6 -4 10 -10 10 -5 0
-10 -4 -10 -10z"/>
<path d="M3560 3750 c0 -5 4 -10 9 -10 6 0 13 5 16 10 3 6 -1 10 -9 10 -9 0
-16 -4 -16 -10z"/>
<path d="M4356 3724 c-10 -27 -7 -44 9 -44 8 0 15 -4 15 -10 0 -5 -6 -10 -14
-10 -8 0 -18 5 -21 10 -9 15 -25 12 -25 -5 0 -21 -52 -65 -77 -65 -25 0 -30
-19 -11 -38 9 -9 6 -12 -15 -12 -21 0 -27 -5 -27 -22 0 -26 -31 -98 -42 -98
-4 0 -8 -7 -8 -15 0 -13 -13 -19 -46 -18 -6 0 -11 -7 -10 -16 1 -12 -6 -15
-25 -13 -29 3 -54 -20 -45 -43 4 -11 -2 -15 -23 -15 -24 0 -28 -3 -24 -20 4
-14 0 -20 -10 -20 -8 0 -17 5 -19 11 -2 6 -21 13 -42 15 -21 2 -46 6 -57 9
-10 4 -19 2 -19 -4 0 -5 10 -13 21 -16 17 -6 19 -9 8 -16 -8 -5 -24 -9 -36 -9
-13 0 -23 -5 -23 -11 0 -6 -9 -22 -20 -36 -18 -23 -20 -24 -27 -7 -4 11 -14
24 -22 31 -19 15 -51 17 -51 4 0 -5 8 -12 18 -14 10 -3 6 -5 -10 -6 -34 -1
-68 -33 -69 -63 0 -13 -3 -17 -6 -11 -7 19 -35 -12 -31 -34 2 -13 -5 -19 -24
-21 -26 -3 -42 -32 -18 -32 6 0 10 -4 10 -10 0 -5 -14 -10 -30 -10 -27 0 -34
-6 -50 -42 -11 -24 -20 -54 -20 -68 l-1 -25 -11 23 c-14 27 -38 29 -38 2 0
-13 -7 -20 -18 -20 -10 0 -22 -12 -29 -30 -6 -17 -19 -30 -28 -30 -10 0 -15
-5 -12 -13 4 -10 -2 -13 -20 -9 -19 4 -24 2 -18 -8 5 -9 2 -10 -14 -5 -17 5
-24 2 -28 -13 -3 -14 -11 -19 -25 -17 -14 3 -22 -2 -25 -15 -3 -11 -16 -23
-29 -26 -16 -4 -21 -11 -17 -22 5 -11 2 -14 -10 -9 -11 4 -17 1 -17 -9 0 -8
-4 -13 -8 -10 -5 3 -20 -2 -33 -12 -13 -9 -34 -15 -46 -14 -13 2 -23 -1 -23
-6 0 -11 -90 -32 -140 -32 -21 0 -42 -4 -45 -10 -15 -25 191 -4 308 31 73 22
225 90 267 119 14 10 54 32 89 50 62 32 65 32 78 14 13 -18 15 -18 24 -1 6 9
17 17 25 17 8 0 12 -5 9 -10 -4 -7 2 -9 17 -7 12 2 17 2 10 0 -22 -8 -6 -28
21 -28 16 1 27 -5 27 -13 0 -7 5 -10 10 -7 6 3 10 14 10 24 0 19 43 31 84 23
15 -3 13 -7 -13 -23 -32 -19 -43 -59 -17 -59 34 0 21 -49 -17 -63 -29 -11 -4
-47 33 -47 34 0 40 -15 9 -25 -22 -7 -21 -30 2 -30 8 0 19 -4 26 -8 6 -4 15
-2 19 4 3 6 19 9 35 5 16 -3 28 -2 28 2 -3 19 2 23 17 11 13 -11 17 -10 26 4
6 11 16 16 28 12 10 -3 20 0 23 9 3 8 14 12 25 10 10 -3 24 2 31 10 8 9 20 16
28 16 8 0 11 5 8 10 -8 13 54 66 72 62 6 -1 19 10 27 26 8 15 30 36 49 47 31
17 33 20 24 45 -8 22 -7 31 5 44 22 22 31 20 23 -4 -9 -27 13 -54 30 -40 13
11 18 -15 17 -99 -1 -18 6 -40 14 -48 18 -19 18 -33 -1 -33 -8 0 -15 -8 -15
-17 0 -15 -2 -14 -14 3 -14 18 -15 18 -22 0 -8 -20 12 -39 34 -31 7 2 12 -4
12 -15 0 -14 7 -20 23 -21 l22 0 -22 -9 c-26 -11 -30 -28 -8 -36 11 -5 9 -11
-11 -30 -24 -25 -48 -25 -38 0 7 18 -16 32 -26 16 -4 -6 -3 -30 2 -53 8 -35 6
-45 -13 -71 -15 -20 -22 -42 -21 -68 2 -31 -1 -38 -17 -38 -22 0 -37 -16 -20
-22 6 -2 0 -15 -15 -28 -17 -17 -26 -36 -26 -58 0 -25 -6 -35 -25 -44 -31 -14
-32 -26 -2 -30 16 -2 23 -11 25 -30 2 -16 8 -28 13 -28 6 0 7 -5 4 -10 -4 -6
-10 -8 -15 -5 -10 6 -20 -19 -20 -49 0 -12 -7 -31 -15 -42 -9 -11 -14 -42 -15
-76 0 -48 3 -58 18 -59 13 0 14 -2 2 -6 -20 -8 -31 -26 -20 -33 9 -6 2 -35
-21 -95 -4 -11 -8 -27 -8 -35 -1 -8 -4 -34 -7 -57 -4 -28 -2 -43 5 -43 6 0 8
-8 4 -17 -3 -10 -3 -15 2 -11 4 4 17 2 28 -4 17 -9 19 -8 14 6 -4 10 -3 15 2
11 14 -8 41 5 41 21 0 13 12 18 32 15 4 0 5 5 2 13 -3 8 11 25 35 42 23 16 44
39 47 51 3 12 13 25 22 28 10 3 35 23 57 45 22 21 47 39 55 39 13 0 13 -1 0
-12 -9 -7 -26 -26 -38 -44 -13 -19 -28 -30 -37 -27 -8 4 -15 -3 -17 -18 -2
-14 -9 -23 -20 -22 -9 1 -14 -4 -12 -10 3 -7 -49 -66 -115 -131 -66 -66 -117
-123 -115 -127 2 -3 -1 -10 -7 -14 -8 -4 -9 -3 -5 4 4 7 3 12 -1 12 -10 0 -33
-21 -33 -30 0 -9 32 -6 48 4 6 4 12 4 12 1 0 -3 6 0 14 7 7 7 11 19 9 26 -4 8
0 10 13 5 14 -5 16 -3 11 11 -4 9 -3 15 1 12 8 -5 62 46 62 58 0 10 90 96 100
96 6 0 10 6 10 13 0 23 57 65 86 61 24 -2 26 0 20 27 -4 22 -2 29 9 29 8 0 15
4 15 8 0 7 43 53 87 93 10 8 28 28 40 44 18 23 25 27 35 17 9 -9 9 -12 0 -12
-7 0 -12 -7 -12 -15 0 -24 20 -17 30 10 9 22 15 25 62 24 41 0 48 -3 33 -10
-16 -7 -11 -8 20 -6 l40 2 0 -48 c-1 -53 8 -65 30 -47 18 15 20 -1 3 -18 -9
-9 -7 -12 8 -12 22 0 58 -32 48 -43 -3 -3 -13 -3 -22 0 -14 4 -14 3 -3 -5 16
-12 61 1 73 21 4 7 8 7 8 2 0 -22 -118 -124 -185 -160 -150 -81 -278 -137
-365 -160 -43 -12 -260 -138 -305 -177 -52 -46 -73 -47 -171 -12 l-72 25 -56
-36 c-31 -20 -82 -50 -114 -67 -31 -17 -61 -37 -65 -45 -5 -7 -12 -11 -18 -8
-5 4 -9 -3 -9 -14 0 -24 -15 -28 -24 -6 -3 8 -1 15 4 15 6 0 10 5 10 11 0 6
-7 9 -15 6 -8 -4 -17 -2 -20 2 -2 5 5 12 18 15 21 7 21 7 2 15 -11 5 -41 28
-66 52 -26 24 -68 64 -95 87 -80 71 -254 245 -254 254 0 4 -9 18 -20 31 -30
34 -120 179 -120 193 0 7 -4 14 -9 16 -9 3 -98 183 -134 268 -8 19 -31 55 -51
79 -20 24 -43 58 -50 75 -7 17 -29 48 -48 69 -19 21 -39 48 -45 60 -6 12 -20
42 -32 65 -11 24 -21 51 -21 60 0 10 -14 33 -30 52 -16 19 -30 42 -30 50 0 9
-4 20 -10 26 -12 12 -60 147 -60 168 0 10 -6 13 -17 9 -11 -4 -14 -3 -9 5 4 6
-1 19 -11 29 -10 10 -25 32 -33 48 -8 17 -22 38 -31 48 -9 10 -26 49 -38 86
-24 75 -58 131 -161 261 -20 25 -49 64 -65 88 -15 24 -32 45 -37 48 -5 3 -51
-4 -104 -16 -65 -15 -112 -20 -147 -16 -177 19 -213 19 -288 -3 -105 -31 -132
-38 -234 -62 -197 -47 -225 -74 -400 -394 -39 -72 -43 -75 -94 -75 -55 0 -138
-20 -236 -57 -119 -45 -325 -132 -437 -185 l-108 -52 0 -1248 0 -1248 224 0
223 0 64 59 c41 38 75 80 93 118 55 109 80 110 83 5 1 -42 5 -101 8 -129 l6
-53 2935 0 c2058 0 2934 3 2934 11 0 5 4 8 9 4 5 -3 12 -1 16 5 3 5 15 10 25
10 10 0 20 5 22 11 2 6 15 12 30 12 14 1 25 4 23 7 -2 3 21 13 51 21 29 9 51
12 48 8 -3 -5 2 -9 10 -9 20 0 21 -16 1 -24 -25 -9 -17 -22 17 -24 30 -2 31
-1 14 11 -17 13 -17 14 -1 30 15 16 15 17 -7 17 -18 0 -20 2 -8 10 8 5 26 6
39 3 17 -4 22 -2 17 6 -7 10 16 16 54 13 8 -1 47 5 85 14 39 9 106 18 150 21
73 5 78 4 66 -11 -12 -14 -10 -16 18 -16 17 0 31 -4 31 -10 0 -5 -8 -10 -17
-10 -10 0 -25 -5 -33 -10 -11 -8 -8 -9 13 -4 17 4 27 2 27 -5 0 -10 -24 -14
-80 -12 -24 0 -24 0 4 -10 21 -9 25 -14 15 -20 -22 -14 -59 -10 -59 6 0 17
-58 34 -115 33 -22 0 -34 -3 -27 -5 6 -3 12 -11 12 -18 0 -11 -6 -11 -28 2
-36 20 -66 11 -57 -17 5 -15 2 -20 -11 -20 -32 0 -1 -18 41 -24 30 -4 34 -3
15 3 -14 5 -21 9 -16 10 5 1 3 8 -4 16 -7 9 -10 18 -6 22 3 3 6 1 6 -5 0 -6
20 -21 44 -32 40 -18 66 -20 215 -20 l171 0 0 235 c0 145 -4 235 -10 235 -5 0
-7 6 -4 14 3 7 -1 16 -9 19 -10 4 -13 0 -10 -13 4 -16 -3 -18 -74 -17 -43 1
-81 6 -85 11 -5 7 -8 7 -8 -1 0 -7 -9 -13 -20 -13 -11 0 -20 -6 -20 -12 0 -9
-3 -9 -9 1 -8 13 -25 13 -116 2 -58 -6 -154 -23 -213 -37 -59 -14 -125 -28
-147 -31 -22 -3 -44 -9 -50 -13 -5 -4 -26 -11 -45 -14 -19 -4 -57 -16 -85 -28
-74 -31 -86 -35 -139 -52 -54 -18 -67 -20 -50 -8 6 4 16 16 22 27 6 11 12 14
12 8 0 -29 15 -11 15 18 0 26 5 33 23 35 15 3 22 -1 22 -12 0 -8 -4 -13 -9
-10 -5 4 -7 -3 -4 -14 7 -26 19 -25 34 1 7 14 17 19 30 16 10 -3 17 0 16 7 -1
6 9 10 25 8 14 -1 29 2 33 8 3 5 -1 10 -9 10 -9 0 -16 5 -16 12 0 6 -3 8 -7 5
-3 -4 -11 3 -17 14 -14 27 -30 26 -34 -1 -2 -13 2 -20 14 -20 13 0 14 -3 4
-15 -7 -8 -20 -15 -29 -15 -14 0 -14 2 -1 10 21 14 -3 29 -36 22 -28 -5 -33
13 -6 20 15 4 18 12 14 37 -2 19 0 31 7 31 6 0 11 5 11 10 0 6 -7 6 -19 -1
-14 -10 -23 -9 -40 3 -14 10 -18 18 -12 23 6 3 11 1 11 -4 0 -23 40 -11 46 13
4 16 11 23 20 19 9 -3 14 2 14 14 0 32 24 73 43 73 23 0 22 17 -3 30 -16 9
-18 8 -14 -5 5 -12 -2 -15 -32 -16 -22 -1 -31 -3 -21 -6 9 -2 15 -9 12 -14 -4
-5 0 -9 7 -9 9 0 9 -3 -2 -10 -17 -11 -37 -14 -27 -4 6 6 -16 34 -27 34 -3 0
-6 -9 -6 -19 0 -14 -6 -19 -20 -16 -12 2 -20 -2 -20 -10 0 -8 -7 -18 -16 -23
-11 -6 -15 -17 -11 -31 3 -11 0 -24 -5 -28 -7 -3 -8 -1 -4 5 4 7 2 12 -5 12
-6 0 -9 8 -6 20 6 22 0 25 -22 11 -8 -5 -11 -16 -8 -25 6 -16 -3 -20 -32 -16
-10 1 -12 -6 -7 -24 5 -19 3 -24 -8 -20 -8 3 -23 -4 -34 -16 l-19 -21 2 25 c3
22 40 71 83 110 7 6 28 26 46 44 19 17 38 32 44 32 5 0 15 7 22 15 7 9 15 13
17 11 3 -3 15 4 27 15 24 23 188 102 266 129 19 7 44 16 55 20 48 19 61 24 70
25 6 0 15 3 20 6 51 28 276 69 438 81 l157 11 0 53 c0 60 -5 63 -69 53 -25 -4
-82 -8 -126 -9 -44 -1 -100 -5 -125 -10 -25 -5 -75 -14 -112 -21 -38 -7 -68
-16 -68 -20 0 -3 -11 -4 -25 -1 -14 2 -25 0 -25 -7 0 -5 -6 -8 -13 -5 -8 3
-47 -4 -88 -14 -53 -14 -76 -16 -81 -8 -5 7 -12 5 -21 -8 -10 -13 -16 -16 -21
-7 -5 8 -13 7 -29 -4 -12 -8 -29 -15 -38 -15 -9 0 -19 -6 -22 -14 -6 -16 -116
-70 -125 -62 -3 4 5 14 18 23 12 9 32 27 43 40 12 13 27 21 34 19 7 -3 10 1 7
8 -3 7 6 20 20 30 14 9 47 35 74 59 86 75 102 87 113 87 5 0 7 5 4 10 -3 6 2
13 12 17 10 4 39 22 64 40 26 18 51 33 57 33 5 0 12 7 15 15 4 8 25 26 49 41
24 15 45 30 48 34 9 13 50 22 50 11 0 -5 -7 -12 -15 -14 -11 -3 -10 -4 2 -3
11 1 17 9 16 21 -3 33 70 64 132 55 28 -4 39 -8 25 -9 l-25 -3 27 -12 27 -12
-27 -11 c-15 -6 -35 -13 -44 -17 -10 -3 -18 -12 -18 -20 0 -8 -6 -16 -12 -19
-26 -9 4 -21 57 -21 33 -1 57 4 59 11 3 6 14 9 26 6 15 -4 18 -9 10 -18 -5 -6
-7 -15 -3 -18 3 -4 -2 -9 -11 -13 -13 -5 -14 -9 -5 -20 6 -8 16 -14 21 -14 6
0 5 7 -2 15 -11 13 -8 15 14 13 24 -2 38 -18 16 -18 -5 0 -10 -4 -10 -10 0 -5
9 -10 20 -10 12 0 20 -7 20 -16 0 -10 -6 -14 -15 -10 -8 3 -15 1 -15 -4 0 -6
9 -10 19 -10 11 0 23 -5 26 -10 3 -5 19 -10 36 -10 l29 0 -1 453 -1 452 -93
83 c-174 154 -262 214 -390 267 -38 16 -75 33 -81 39 -6 6 -19 47 -29 91 -31
142 -36 156 -71 195 -44 49 -114 90 -151 90 -24 0 -90 -36 -131 -71 -20 -17
-62 -5 -190 56 -65 30 -148 64 -186 76 -61 18 -79 30 -152 100 -52 50 -104 89
-139 105 -45 21 -55 30 -55 50 0 54 -116 240 -156 250 -30 8 -400 -43 -434
-59 -14 -7 -26 -21 -28 -33 -3 -21 32 -74 50 -74 5 0 53 -25 106 -56 196 -115
287 -186 297 -235 3 -15 12 -30 20 -33 8 -3 12 -14 10 -25 -2 -11 0 -23 6 -26
12 -8 12 -72 -1 -80 -8 -5 -8 -11 -1 -19 7 -9 7 -16 0 -23 -14 -14 -69 3 -69
22 0 14 -46 24 -122 26 -44 2 -60 19 -17 19 10 0 19 5 19 11 0 7 -10 9 -25 7
-22 -5 -25 -2 -19 14 5 17 3 18 -14 9 -11 -6 -22 -16 -25 -23 -2 -8 -8 -9 -13
-4 -5 5 -4 11 4 13 17 6 15 23 -3 23 -8 0 -15 5 -15 11 0 5 -4 7 -10 4 -5 -3
-10 1 -10 9 0 16 -46 34 -57 23 -3 -4 -15 -1 -26 5 -16 8 -23 7 -33 -6 -7 -10
-20 -16 -30 -14 -13 2 -19 -3 -19 -17 0 -16 -6 -20 -30 -19 -16 0 -33 -4 -37
-10 -4 -6 -8 1 -8 17 0 15 -5 27 -11 27 -5 0 -7 5 -4 10 4 6 10 8 14 6 3 -3 7
4 7 15 0 24 -1 24 -26 -3 -11 -12 -20 -17 -20 -10 0 6 4 13 9 16 11 7 2 56
-11 56 -6 0 -8 11 -6 25 3 14 2 25 -2 25 -5 0 -6 9 -3 20 5 18 -26 138 -47
185 -5 11 -18 42 -30 69 -16 40 -23 47 -33 37 -9 -11 -9 -14 1 -18 6 -3 12
-13 12 -24 0 -10 5 -19 10 -19 6 0 10 -8 10 -18 0 -9 8 -40 19 -68 10 -28 21
-93 25 -145 l7 -94 -23 43 c-18 34 -24 39 -31 26 -5 -8 -6 -26 -3 -39 5 -18 2
-23 -12 -21 -22 4 -29 37 -9 51 24 17 24 47 -1 72 -23 23 -52 31 -52 14 0 -12
-51 -61 -64 -61 -6 0 -11 17 -11 40 0 40 11 50 32 29 17 -17 31 -3 26 25 -6
29 -52 54 -64 34 -5 -7 -9 -21 -9 -30 0 -10 -4 -18 -9 -18 -13 0 -21 26 -12
36 5 5 11 25 14 45 5 34 4 36 -19 31 -29 -5 -31 11 -4 38 28 28 25 40 -10 40
-28 0 -38 9 -24 23 3 3 8 40 10 81 2 66 1 76 -14 76 -14 0 -17 -8 -14 -45 5
-54 -15 -67 -59 -41 -26 15 -29 15 -29 2 0 -9 8 -16 18 -16 15 -1 15 -2 -2
-15 -18 -14 -21 -13 -32 15 -7 17 -19 29 -25 28 -7 -2 -14 4 -15 12 -15 91
-15 90 -38 90 -16 0 -26 -8 -31 -22 -7 -22 -7 -22 -12 -3 -7 27 -21 35 -65 35
-21 0 -38 5 -38 10 0 6 12 10 28 10 37 0 60 15 36 24 -13 5 -15 9 -6 18 18 18
15 39 -10 65 -12 13 -16 23 -10 23 6 0 23 12 37 26 19 19 23 30 16 37 -6 6
-11 19 -11 29 0 23 -35 24 -44 2z m-16 -84 c0 -5 -4 -10 -10 -10 -5 0 -10 5
-10 10 0 6 5 10 10 10 6 0 10 -4 10 -10z m-43 -162 c-3 -7 -5 -2 -5 12 0 14 2
19 5 13 2 -7 2 -19 0 -25z m66 -45 c-7 -2 -21 -2 -30 0 -10 3 -4 5 12 5 17 0
24 -2 18 -5z m27 -23 c10 -6 11 -10 3 -10 -7 0 -13 -9 -13 -21 0 -12 -4 -17
-11 -14 -6 4 -8 13 -5 21 3 8 1 14 -5 14 -6 0 -7 5 -4 10 8 12 16 12 35 0z
m50 -35 c0 -8 9 -24 20 -35 20 -20 20 -20 1 -39 -23 -23 -33 -17 -25 13 3 12
0 34 -5 49 -7 17 -7 27 -1 27 6 0 10 -7 10 -15z m-2380 -68 c0 -17 -20 -37
-37 -37 -10 0 -10 6 3 25 18 27 34 33 34 12z m-115 -7 c3 -5 2 -10 -4 -10 -5
0 -13 5 -16 10 -3 6 -2 10 4 10 5 0 13 -4 16 -10z m-432 -30 c10 0 16 -4 13
-8 -7 -12 39 -62 57 -62 25 0 28 -29 4 -41 -19 -11 -20 -10 -10 3 15 17 7 28
-19 28 -10 0 -18 5 -18 10 0 6 -7 10 -15 10 -8 0 -15 5 -15 11 0 5 -4 8 -9 5
-5 -3 -11 2 -14 12 -2 9 -8 26 -12 37 -7 16 -6 18 6 8 7 -7 21 -13 32 -13z
m158 10 c6 0 8 -4 5 -9 -8 -13 -39 -7 -44 9 -3 9 1 11 12 7 10 -4 22 -7 27 -7z
m-280 -18 c-10 -3 -7 -9 10 -19 17 -10 18 -12 4 -7 -11 3 -31 9 -45 11 -23 5
-23 3 10 -25 19 -17 39 -31 43 -32 12 0 40 -30 29 -30 -5 0 -27 12 -48 26 -94
64 -99 70 -61 76 38 5 73 6 58 0z m2526 -8 c-3 -3 -12 -4 -19 -1 -8 3 -5 6 6
6 11 1 17 -2 13 -5z m-1897 -28 c0 -2 -7 -7 -16 -10 -8 -3 -12 -2 -9 4 6 10
25 14 25 6z m-490 -40 c0 -2 -9 -11 -20 -21 -20 -18 -20 -17 -20 14 0 29 2 31
20 21 11 -6 20 -12 20 -14z m200 -7 c0 -6 -4 -7 -10 -4 -5 3 -10 11 -10 16 0
6 5 7 10 4 6 -3 10 -11 10 -16z m2730 12 c0 -12 -20 -25 -27 -18 -7 7 6 27 18
27 5 0 9 -4 9 -9z m-70 -15 c0 -8 -4 -18 -10 -21 -5 -3 -10 3 -10 14 0 12 5
21 10 21 6 0 10 -6 10 -14z m110 4 c0 -5 -4 -10 -10 -10 -5 0 -10 5 -10 10 0
6 5 10 10 10 6 0 10 -4 10 -10z m-154 -27 c-10 -10 -19 5 -10 18 6 11 8 11 12
0 2 -7 1 -15 -2 -18z m-59 1 c-3 -3 -12 -4 -19 -1 -8 3 -5 6 6 6 11 1 17 -2
13 -5z m-2722 -14 c3 -5 2 -10 -4 -10 -5 0 -13 5 -16 10 -3 6 -2 10 4 10 5 0
13 -4 16 -10z m-85 -61 c0 -5 -9 -9 -20 -9 -11 0 -20 5 -20 11 0 5 5 7 10 4 6
-3 10 -1 10 5 0 6 5 8 10 5 6 -3 10 -10 10 -16z m3140 11 c0 -5 -2 -10 -4 -10
-3 0 -8 5 -11 10 -3 6 -1 10 4 10 6 0 11 -4 11 -10z m77 -26 c-3 -3 -12 -4
-19 -1 -8 3 -5 6 6 6 11 1 17 -2 13 -5z m-412 -54 c-4 -6 -15 -8 -26 -5 -11 4
-19 2 -19 -4 0 -6 -5 -11 -11 -11 -8 0 -8 5 1 15 14 17 65 21 55 5z m95 1 c0
-6 -4 -13 -10 -16 -5 -3 -10 1 -10 9 0 9 5 16 10 16 6 0 10 -4 10 -9z m470 -1
c0 -5 -4 -10 -10 -10 -5 0 -10 5 -10 10 0 6 5 10 10 10 6 0 10 -4 10 -10z
m-461 -81 c-11 -22 -12 -22 -25 -4 -18 25 -18 46 1 39 9 -4 18 1 22 12 7 17 8
17 11 -3 2 -12 -2 -32 -9 -44z m71 46 c-33 -19 -50 -19 -50 0 0 11 11 15 38
15 l37 -1 -25 -14z m382 -27 c6 -17 -1 -38 -13 -38 -5 0 -9 11 -9 25 0 26 14
34 22 13z m-122 -8 c0 -5 -5 -10 -11 -10 -5 0 -7 5 -4 10 3 6 8 10 11 10 2 0
4 -4 4 -10z m-758 -41 c3 -9 9 -9 25 0 12 6 32 11 45 10 22 -1 21 -1 -4 -11
-32 -11 -35 -24 -12 -49 14 -16 14 -18 -5 -29 -27 -14 -50 6 -61 55 -7 32 3
51 12 24z m434 -47 c-4 -3 -11 -1 -18 6 -8 8 -8 15 3 28 13 16 14 16 17 -5 2
-13 1 -25 -2 -29z m264 38 c0 -5 -4 -10 -10 -10 -5 0 -10 5 -10 10 0 6 5 10
10 10 6 0 10 -4 10 -10z m-830 -47 c21 -18 28 -63 10 -63 -6 0 -8 11 -4 25 5
20 2 25 -20 31 -14 3 -26 10 -26 15 0 14 18 10 40 -8z m830 7 c0 -5 -4 -10
-10 -10 -5 0 -10 5 -10 10 0 6 5 10 10 10 6 0 10 -4 10 -10z m-504 -97 c-10
-10 -19 5 -10 18 6 11 8 11 12 0 2 -7 1 -15 -2 -18z m-341 7 c3 -5 -3 -10 -15
-10 -12 0 -18 5 -15 10 3 6 10 10 15 10 5 0 12 -4 15 -10z m35 -29 c-5 -11
-10 -30 -10 -43 l0 -22 -16 22 c-15 21 -15 25 2 43 22 25 38 25 24 0z m778
-800 c-7 -12 -19 -21 -26 -21 -9 0 -6 9 9 24 28 29 36 27 17 -3z m-231 -7 c-3
-3 -12 -4 -19 -1 -8 3 -5 6 6 6 11 1 17 -2 13 -5z m-3 -59 c-7 -16 -24 -21
-24 -6 0 8 7 13 27 20 1 1 0 -6 -3 -14z m2017 -59 c0 -6 4 -2 9 9 9 19 9 19
16 -3 4 -14 12 -21 21 -18 8 3 17 -3 23 -17 6 -15 9 -17 9 -6 1 15 28 29 59
29 6 0 12 -11 12 -25 0 -22 3 -24 31 -18 18 3 34 1 38 -5 4 -6 15 -3 31 10 22
18 23 20 5 18 -35 -4 -55 0 -55 10 0 6 7 10 15 10 8 0 15 -5 15 -10 0 -7 6 -7
20 0 14 7 20 7 21 0 1 -5 2 -15 3 -22 1 -15 26 -23 26 -8 0 7 6 5 16 -4 8 -9
24 -16 34 -16 11 0 20 -8 22 -19 3 -18 5 -18 23 -5 17 13 18 16 5 24 -8 5 -11
12 -7 17 9 8 27 -14 27 -33 0 -7 -9 -14 -20 -17 -14 -4 -18 -11 -14 -24 3 -11
3 -14 -3 -7 -11 15 -54 37 -60 31 -2 -3 5 -8 16 -12 12 -3 21 -10 21 -15 0 -5
3 -16 6 -25 4 -9 3 -15 -2 -14 -21 3 -55 -15 -50 -26 6 -16 -18 -26 -41 -19
-15 5 -16 4 -3 -5 13 -9 12 -12 -7 -17 -25 -7 -31 -29 -10 -37 6 -3 -4 -4 -23
-3 -19 0 -35 -3 -35 -9 0 -5 -4 -17 -9 -25 -7 -12 -6 -13 5 -2 7 6 22 12 34
11 19 0 19 -1 -2 -11 -13 -6 -23 -15 -23 -20 0 -5 -10 -6 -21 -3 -15 5 -19 4
-15 -4 4 -6 0 -11 -8 -11 -9 0 -15 -6 -13 -12 1 -9 -8 -12 -28 -10 -26 2 -28
0 -14 -10 17 -14 14 -38 -4 -39 -7 0 -32 -25 -57 -54 -25 -30 -51 -55 -57 -55
-7 0 -13 -3 -13 -7 0 -5 -22 -31 -48 -58 -26 -28 -59 -66 -73 -85 -15 -19 -41
-51 -58 -70 -17 -19 -31 -39 -31 -44 0 -4 -7 -5 -16 -2 -14 5 -15 4 -4 -9 7
-8 8 -15 3 -15 -5 0 -18 -18 -29 -40 -10 -22 -25 -40 -32 -40 -7 0 -10 -5 -7
-10 3 -6 -1 -13 -9 -16 -9 -3 -16 -15 -16 -25 0 -11 -7 -19 -16 -19 -8 0 -12
-5 -9 -10 3 -6 0 -17 -8 -25 -13 -13 -16 -10 -21 20 -4 19 -11 35 -16 35 -5 0
-7 7 -3 16 3 9 0 20 -8 24 -16 11 -20 231 -4 242 6 5 5 8 -2 8 -12 0 -7 29 6
40 7 6 32 88 34 112 1 14 4 15 16 5 12 -10 14 -9 8 6 -9 23 2 47 18 41 8 -4
15 3 17 17 2 15 12 26 28 30 l25 7 -25 1 c-21 1 -22 3 -9 11 10 6 15 20 14 34
-2 14 3 27 11 30 8 3 14 15 14 27 0 13 8 23 20 26 15 4 19 11 14 25 -4 14 0
21 15 25 12 3 21 9 21 14 0 13 -14 11 -28 -3 -21 -21 -24 0 -3 23 12 13 21 26
21 31 0 4 11 8 24 8 25 0 44 16 26 22 -6 2 -6 9 1 18 8 11 12 12 16 3 7 -18
24 -16 17 2 -4 8 -15 15 -26 15 -11 0 -18 5 -15 13 2 6 13 12 25 12 12 0 31
11 42 23 21 23 36 30 25 12 -3 -5 0 -10 9 -10 8 0 22 -3 30 -6 12 -4 16 -1 14
12 0 11 0 33 1 49 2 29 2 29 16 11 8 -11 15 -25 16 -30z m-2011 24 c0 -5 -5
-10 -11 -10 -5 0 -7 5 -4 10 3 6 8 10 11 10 2 0 4 -4 4 -10z m2210 -20 c0 -5
-4 -10 -10 -10 -5 0 -9 -5 -7 -11 1 -6 -4 -14 -11 -16 -7 -3 -11 1 -10 8 6 28
38 52 38 29z m-2514 -247 c-10 -10 -19 5 -10 18 6 11 8 11 12 0 2 -7 1 -15 -2
-18z m2031 -15 c-3 -8 -6 -5 -6 6 -1 11 2 17 5 13 3 -3 4 -12 1 -19z m853 -44
c0 -11 9 -13 40 -8 27 4 40 3 40 -5 0 -6 -5 -11 -12 -11 -9 0 -8 -3 1 -12 11
-10 14 -10 18 0 6 14 43 16 43 2 0 -5 -7 -10 -15 -10 -8 0 -15 -4 -15 -10 0
-13 3 -13 35 2 19 8 22 14 13 20 -10 7 -10 9 1 6 28 -8 22 -26 -14 -38 -19 -6
-33 -16 -30 -21 4 -5 -5 -9 -19 -9 -13 0 -27 6 -29 13 -4 9 -6 9 -6 0 -1 -6 4
-15 10 -18 10 -7 -50 -55 -69 -55 -5 0 -21 -9 -36 -21 -14 -11 -35 -21 -45
-22 -11 -1 -18 -3 -16 -6 3 -2 -39 -26 -92 -53 -53 -27 -104 -55 -113 -63 -29
-26 -92 -48 -100 -35 -5 9 -9 9 -14 1 -4 -6 -2 -11 3 -11 6 0 11 -5 11 -11 0
-11 -61 -39 -82 -38 -7 0 -3 4 10 10 13 5 20 13 17 19 -3 5 2 10 11 10 10 0
15 3 11 6 -9 9 43 74 60 74 8 0 11 5 8 10 -3 6 -1 10 5 10 6 0 9 4 6 8 -3 5 5
14 17 21 13 7 39 32 57 55 34 42 70 66 98 66 8 0 12 6 9 14 -4 9 2 17 14 21
10 4 19 11 19 17 0 6 9 8 20 5 16 -4 20 -2 15 12 -4 14 1 17 32 14 21 -2 32 0
26 3 -13 6 -18 44 -6 44 3 0 14 -7 23 -15 16 -14 17 -14 12 10 -3 20 -1 24 12
19 9 -3 16 -12 16 -20z m210 -78 c0 -3 -4 -8 -10 -11 -5 -3 -10 -1 -10 4 0 6
5 11 10 11 6 0 10 -2 10 -4z m78 -16 c14 0 15 -2 2 -10 -17 -11 -43 7 -33 23
5 8 8 7 11 -1 2 -7 11 -12 20 -12z m-98 -10 c8 -5 11 -10 5 -10 -5 0 -17 5
-25 10 -8 5 -10 10 -5 10 6 0 17 -5 25 -10z m60 -21 c0 -5 -4 -9 -10 -9 -5 0
-10 7 -10 16 0 8 5 12 10 9 6 -3 10 -10 10 -16z m-23 -95 c-3 -3 -12 -4 -19
-1 -8 3 -5 6 6 6 11 1 17 -2 13 -5z m-3317 -229 c0 -8 9 -15 20 -15 14 0 20
-7 20 -22 0 -30 -9 -41 -45 -56 l-30 -12 35 29 35 29 -25 10 c-14 6 -33 13
-44 16 -15 5 -16 9 -6 21 16 19 40 19 40 0z m-67 -35 c23 -28 22 -31 -10 -24
-41 10 -45 14 -32 30 15 19 21 18 42 -6z m-68 -30 c23 -25 19 -29 -22 -23 -33
5 -45 27 -20 36 20 9 23 8 42 -13z m215 -45 c0 -9 -10 -15 -26 -15 -21 0 -25
-4 -22 -22 2 -19 11 -24 46 -29 41 -5 66 4 40 14 -8 4 -7 6 3 6 16 1 34 -25
31 -41 -1 -5 5 -8 14 -8 8 0 12 -5 9 -10 -4 -7 -14 -5 -28 5 -33 23 -38 19
-31 -33 5 -38 3 -51 -11 -62 -20 -17 -80 -19 -96 -3 -9 9 -6 10 10 6 32 -8 71
16 71 43 0 15 -10 27 -30 38 -28 14 -31 13 -41 -6 -10 -18 -9 -20 5 -15 9 4
16 1 16 -6 0 -8 4 -6 10 3 13 20 13 4 0 -21 -6 -10 -15 -19 -20 -19 -15 0 -50
38 -50 53 0 22 -46 56 -61 46 -8 -5 -20 -9 -28 -9 -11 0 -11 3 -1 15 7 8 18
15 26 15 7 0 12 9 11 20 -1 12 -8 20 -20 20 -10 0 -15 5 -12 10 13 21 33 8 50
-34 17 -40 20 -43 41 -34 26 12 38 34 24 43 -18 11 -11 37 8 31 9 -3 24 -1 32
4 21 14 30 12 30 -5z m98 -65 c7 -11 11 -20 9 -20 -2 0 -12 9 -22 20 -10 11
-14 20 -9 20 5 0 15 -9 22 -20z m-208 -59 c0 -6 -4 -13 -10 -16 -16 -10 -12
-35 5 -29 8 4 15 3 15 -2 0 -13 -32 -44 -47 -44 -16 0 -17 12 -1 28 9 9 7 12
-10 12 -28 0 -28 8 0 37 22 23 48 31 48 14z m2520 -251 c0 -5 -5 -10 -11 -10
-5 0 -7 5 -4 10 3 6 8 10 11 10 2 0 4 -4 4 -10z m-30 -36 c0 -2 -9 -4 -21 -4
-11 0 -18 4 -14 10 5 8 35 3 35 -6z m-76 -80 c11 -28 6 -39 -9 -20 -8 11 -15
23 -15 28 0 14 18 9 24 -8z m91 -10 c9 -9 14 -19 11 -21 -9 -9 -46 9 -46 23 0
19 15 18 35 -2z m-115 -44 c0 -5 -2 -10 -4 -10 -3 0 -8 5 -11 10 -3 6 -1 10 4
10 6 0 11 -4 11 -10z m80 -20 c0 -5 -5 -10 -11 -10 -5 0 -7 5 -4 10 3 6 8 10
11 10 2 0 4 -4 4 -10z m-40 -14 c0 -8 -4 -18 -10 -21 -5 -3 -10 0 -10 9 0 8
-6 17 -12 19 -7 3 -3 6 10 6 13 1 22 -5 22 -13z m-17 -63 c2 -13 1 -26 -3 -28
-12 -7 -35 26 -35 50 -1 19 2 21 16 12 10 -6 19 -21 22 -34z m-39 -29 c3 -8 2
-12 -4 -9 -6 3 -10 10 -10 16 0 14 7 11 14 -7z m201 -4 c-3 -5 -10 -10 -16
-10 -5 0 -9 5 -9 10 0 6 7 10 16 10 8 0 12 -4 9 -10z m-36 -14 c-2 -2 -35 -20
-74 -40 -45 -24 -71 -33 -74 -25 -2 8 -6 7 -12 -2 -7 -11 -9 -10 -9 5 0 13 5
17 20 13 13 -3 20 0 20 9 0 10 8 12 30 7 23 -4 30 -2 28 7 -2 7 8 17 22 21 28
8 56 11 49 5z m-184 -66 c-3 -5 -12 -10 -18 -10 -7 0 -6 4 3 10 19 12 23 12
15 0z m836 -159 c-8 -5 -20 -7 -28 -4 -21 8 -15 13 15 13 20 0 23 -3 13 -9z"/>
<path d="M3980 2845 c0 -8 5 -15 10 -15 6 0 10 7 10 15 0 8 -4 15 -10 15 -5 0
-10 -7 -10 -15z"/>
<path d="M6394 1797 c3 -10 6 -26 6 -35 0 -15 2 -15 10 -2 7 12 12 12 22 2 17
-17 33 -15 18 3 -7 8 -18 15 -26 15 -7 0 -18 8 -24 18 -11 16 -11 16 -6 -1z"/>
<path d="M6390 1725 c0 -17 2 -18 24 -9 23 9 20 24 -4 24 -11 0 -20 -7 -20
-15z"/>
<path d="M6350 1719 c0 -5 5 -7 10 -4 6 3 10 8 10 11 0 2 -4 4 -10 4 -5 0 -10
-5 -10 -11z"/>
<path d="M6271 1658 c0 -7 4 -22 9 -33 7 -16 9 -17 9 -3 1 9 4 23 7 32 4 11 1
16 -10 16 -9 0 -16 -6 -15 -12z"/>
<path d="M6190 1570 c0 -5 7 -10 16 -10 8 0 12 5 9 10 -3 6 -10 10 -16 10 -5
0 -9 -4 -9 -10z"/>
<path d="M6457 1383 c-4 -3 -7 -11 -7 -17 0 -6 5 -5 12 2 6 6 9 14 7 17 -3 3
-9 2 -12 -2z"/>
<path d="M6220 1146 c0 -8 4 -17 8 -20 4 -2 8 4 8 15 0 10 -4 19 -8 19 -4 0
-8 -6 -8 -14z"/>
<path d="M7008 1473 c7 -3 16 -2 19 1 4 3 -2 6 -13 5 -11 0 -14 -3 -6 -6z"/>
<path d="M6951 1466 c2 -2 18 -6 34 -10 22 -5 26 -4 15 4 -14 9 -59 15 -49 6z"/>
<path d="M3278 3713 c7 -3 16 -2 19 1 4 3 -2 6 -13 5 -11 0 -14 -3 -6 -6z"/>
<path d="M3291 3643 c-6 -11 -11 -13 -11 -5 0 7 -5 10 -11 6 -6 -3 -9 -15 -6
-25 3 -11 1 -19 -4 -19 -5 0 -9 7 -9 15 0 21 -26 19 -42 -4 -16 -23 -99 -61
-138 -64 -17 -1 -30 -4 -30 -7 0 -3 -12 -10 -27 -17 -24 -10 -63 -15 -213 -28
-45 -4 -50 -5 -49 -12 3 -20 -2 -24 -16 -13 -12 10 -19 7 -39 -14 -19 -21 -32
-26 -62 -25 -22 1 -48 -1 -58 -6 -16 -7 -18 -5 -13 8 8 22 -19 23 -31 1 -7
-13 -12 -14 -29 -3 -24 15 -58 5 -47 -13 6 -10 4 -10 -8 0 -18 14 -14 42 5 42
7 0 6 5 -2 13 -10 10 -15 8 -26 -7 -8 -10 -11 -24 -8 -30 4 -6 7 -20 8 -31 0
-24 24 -25 190 -6 179 19 196 20 221 11 28 -11 101 6 175 39 26 11 62 22 82
23 19 2 34 5 32 6 -2 2 4 12 13 22 11 14 19 16 28 9 8 -7 13 -6 17 3 2 7 8 10
12 6 10 -10 -25 -49 -36 -42 -5 3 -9 1 -9 -4 0 -5 9 -12 20 -15 11 -3 20 -10
20 -15 0 -5 -9 -12 -20 -15 -11 -3 -20 -11 -20 -19 0 -7 -18 -21 -40 -31 -22
-9 -40 -21 -40 -27 0 -5 -7 -10 -15 -10 -21 0 -19 -20 3 -21 14 0 14 -2 -3 -9
-11 -5 -14 -9 -7 -9 6 -1 12 -6 12 -12 0 -7 -11 -9 -26 -6 -18 3 -29 -1 -37
-14 -14 -23 -27 -25 -27 -4 0 9 -6 12 -15 9 -8 -4 -13 -10 -10 -14 6 -10 -14
-17 -67 -25 -21 -4 -39 -1 -43 5 -11 17 -42 11 -48 -10 -3 -13 -11 -18 -20
-14 -16 6 -47 -31 -47 -56 0 -13 2 -13 9 -1 8 12 12 12 24 2 12 -9 16 -9 21 1
5 11 7 11 12 0 4 -9 10 -10 19 -2 6 5 31 11 53 12 32 1 39 4 32 13 -7 9 -6 14
3 18 19 7 41 -8 33 -22 -4 -7 1 -11 13 -11 15 0 19 5 15 18 -5 13 -4 14 4 3 7
-9 16 -11 28 -6 19 8 26 8 80 6 22 -1 25 -3 14 -16 -10 -13 -9 -15 10 -15 16
0 20 4 16 15 -4 12 2 15 30 13 20 -1 39 3 43 10 4 7 15 10 24 6 12 -4 21 4 34
32 22 46 48 75 65 70 7 -1 10 -1 7 1 -10 6 0 72 15 106 8 17 16 43 18 57 2 14
9 24 16 23 18 -4 15 27 -3 34 -9 3 -15 15 -13 27 2 15 -3 22 -19 24 -34 5 -28
22 7 22 17 0 30 5 30 10 0 6 -4 10 -9 10 -5 0 -11 9 -14 20 -6 25 -32 26 -46
3z m-91 -73 c0 -5 -7 -10 -16 -10 -8 0 -12 5 -9 10 3 6 10 10 16 10 5 0 9 -4
9 -10z m120 -110 c0 -5 -4 -10 -10 -10 -5 0 -10 5 -10 10 0 6 5 10 10 10 6 0
10 -4 10 -10z"/>
<path d="M4435 3643 c-39 -6 -50 -17 -36 -40 10 -17 11 -17 17 5 5 17 14 22
41 22 20 0 32 4 28 10 -3 6 -9 9 -13 9 -4 -1 -20 -4 -37 -6z"/>
<path d="M4650 3610 c0 -5 5 -10 10 -10 6 0 10 5 10 10 0 6 -4 10 -10 10 -5 0
-10 -4 -10 -10z"/>
<path d="M4480 3573 c0 -26 1 -26 15 -7 19 25 19 34 0 34 -10 0 -15 -10 -15
-27z"/>
<path d="M4438 3553 c7 -3 16 -2 19 1 4 3 -2 6 -13 5 -11 0 -14 -3 -6 -6z"/>
<path d="M4589 3508 c-31 -8 -35 -13 -31 -34 5 -26 17 -31 26 -11 5 10 7 10
12 0 7 -15 34 -17 34 -3 0 6 -7 10 -15 10 -22 0 -18 17 7 34 25 18 20 18 -33
4z"/>
<path d="M4480 3495 c0 -9 5 -15 11 -13 6 2 11 8 11 13 0 5 -5 11 -11 13 -6 2
-11 -4 -11 -13z"/>
<path d="M3361 3454 c0 -11 3 -14 6 -6 3 7 2 16 -1 19 -3 4 -6 -2 -5 -13z"/>
<path d="M4077 3458 c2 -5 13 -8 23 -8 10 0 22 -5 25 -10 5 -8 11 -7 21 1 23
19 16 24 -30 24 -24 0 -42 -3 -39 -7z"/>
<path d="M4522 3428 c3 -36 6 -42 28 -43 26 -2 49 19 50 45 0 8 -9 2 -20 -14
l-19 -30 -10 28 c-6 15 -11 34 -11 42 0 8 -5 14 -11 14 -6 0 -9 -17 -7 -42z"/>
<path d="M4075 3420 c-3 -6 1 -7 9 -4 18 7 21 14 7 14 -6 0 -13 -4 -16 -10z"/>
<path d="M4822 3410 c0 -14 2 -19 5 -12 2 6 2 18 0 25 -3 6 -5 1 -5 -13z"/>
<path d="M2188 3393 c6 -2 18 -2 25 0 6 3 1 5 -13 5 -14 0 -19 -2 -12 -5z"/>
<path d="M4616 3381 c-3 -5 1 -11 9 -15 9 -3 15 0 15 9 0 16 -16 20 -24 6z"/>
<path d="M3950 3353 c0 -5 4 -15 10 -23 11 -18 25 -7 17 15 -6 15 -27 21 -27
8z"/>
<path d="M3920 3320 c0 -5 5 -10 11 -10 5 0 7 5 4 10 -3 6 -8 10 -11 10 -2 0
-4 -4 -4 -10z"/>
<path d="M3670 3303 c0 -15 19 -37 26 -31 3 4 -1 14 -10 23 -9 9 -16 13 -16 8z"/>
<path d="M3746 3261 c-14 -5 -16 -10 -8 -15 7 -4 19 0 28 8 17 17 11 19 -20 7z"/>
<path d="M4826 3178 c-20 -66 -14 -108 16 -108 17 0 18 2 5 21 -10 13 -13 34
-10 60 5 36 -3 55 -11 27z"/>
<path d="M2478 3163 c-32 -2 -58 -8 -58 -13 0 -6 -1 -13 -2 -17 -3 -8 49 -7
114 3 40 6 63 35 25 32 -12 -1 -48 -3 -79 -5z"/>
<path d="M4875 3060 c3 -5 8 -10 11 -10 2 0 4 5 4 10 0 6 -5 10 -11 10 -5 0
-7 -4 -4 -10z"/>
<path d="M4916 2998 c8 -27 12 -33 19 -27 7 8 -7 49 -17 49 -5 0 -6 -10 -2
-22z"/>
<path d="M5094 3003 c2 -12 -1 -24 -6 -25 -6 -2 1 -9 16 -16 28 -12 35 -2 13
20 -8 7 -17 20 -21 28 -3 9 -5 6 -2 -7z"/>
<path d="M5291 2866 c-13 -15 -2 -28 34 -39 l20 -7 -20 16 c-14 11 -16 18 -7
21 6 3 10 9 6 14 -8 13 -20 11 -33 -5z"/>
<path d="M4270 2795 c0 -8 7 -15 15 -15 8 0 15 7 15 15 0 8 -7 15 -15 15 -8 0
-15 -7 -15 -15z"/>
<path d="M4296 2754 c-10 -27 -7 -66 5 -58 6 3 9 17 6 30 -2 13 0 24 4 24 5 0
9 5 9 10 0 16 -17 12 -24 -6z"/>
<path d="M3688 2743 c6 -2 18 -2 25 0 6 3 1 5 -13 5 -14 0 -19 -2 -12 -5z"/>
<path d="M3745 2730 c-3 -5 -1 -10 4 -10 6 0 11 5 11 10 0 6 -2 10 -4 10 -3 0
-8 -4 -11 -10z"/>
<path d="M4201 2677 c2 -1 14 -10 26 -21 21 -17 21 -17 16 3 -3 13 -13 21 -26
21 -11 0 -18 -1 -16 -3z"/>
<path d="M4090 2659 c0 -5 5 -7 10 -4 6 3 10 8 10 11 0 2 -4 4 -10 4 -5 0 -10
-5 -10 -11z"/>
<path d="M3715 2580 c3 -5 8 -10 11 -10 2 0 4 5 4 10 0 6 -5 10 -11 10 -5 0
-7 -4 -4 -10z"/>
<path d="M3920 2476 c0 -9 30 -14 35 -6 4 6 -3 10 -14 10 -12 0 -21 -2 -21 -4z"/>
<path d="M3850 2255 c-17 -20 7 -20 34 0 19 15 19 15 -1 15 -11 0 -26 -7 -33
-15z"/>
<path d="M2878 2024 c-4 -3 -2 -19 4 -35 5 -16 7 -36 4 -45 -4 -10 -2 -13 6
-8 8 5 9 2 5 -9 -4 -10 -1 -17 6 -17 12 0 77 -124 77 -147 0 -7 3 -13 8 -13
10 0 48 -71 44 -83 -1 -5 2 -6 8 -2 5 3 10 0 10 -7 0 -32 105 -156 282 -332
145 -145 192 -186 201 -177 7 7 12 41 12 82 0 72 9 87 25 43 13 -33 13 -74 0
-74 -5 0 -7 -7 -4 -15 4 -9 0 -15 -7 -15 -11 0 -11 -3 1 -10 8 -5 10 -10 3
-10 -6 0 -9 -9 -6 -20 5 -20 18 -27 25 -12 2 4 15 14 29 22 15 8 58 35 95 60
l69 45 -65 5 c-38 3 -60 8 -52 13 9 6 8 13 -5 32 -10 12 -22 21 -26 18 -4 -3
-14 1 -22 7 -8 7 -21 10 -30 7 -8 -4 -23 4 -35 20 -11 14 -20 21 -20 14 0 -6
-5 -11 -11 -11 -5 0 -8 4 -4 9 7 12 -54 43 -68 34 -5 -3 -7 -1 -4 5 11 17 -3
42 -24 42 -12 0 -16 5 -13 15 4 8 2 15 -2 15 -15 0 -68 50 -70 65 -1 8 -13 25
-26 39 -35 38 -49 56 -43 56 2 0 -5 12 -18 27 -101 120 -351 375 -359 367z"/>
<path d="M3497 1940 c-23 -33 -24 -58 0 -39 13 11 17 11 20 2 7 -20 23 -15 23
7 0 11 -4 20 -9 20 -5 0 -11 8 -13 18 -3 14 -6 13 -21 -8z"/>
<path d="M3535 1870 c-3 -5 -13 -6 -23 -3 -14 6 -15 4 -4 -9 7 -8 10 -24 6
-34 -3 -11 -2 -15 3 -8 4 6 16 13 26 17 9 3 17 16 17 27 0 21 -14 27 -25 10z"/>
<path d="M4080 1500 c0 -5 4 -10 9 -10 6 0 13 5 16 10 3 6 -1 10 -9 10 -9 0
-16 -4 -16 -10z"/>
<path d="M4070 1476 c0 -2 7 -7 16 -10 8 -3 12 -2 9 4 -6 10 -25 14 -25 6z"/>
<path d="M7073 1360 c-13 -5 -23 -12 -23 -15 0 -10 27 -5 46 10 21 16 11 18
-23 5z"/>
<path d="M7250 1131 c0 -5 5 -13 10 -16 6 -3 10 -2 10 4 0 5 -4 13 -10 16 -5
3 -10 2 -10 -4z"/>
<path d="M7310 1107 c8 -8 30 -18 48 -22 25 -5 32 -3 32 9 0 10 -9 16 -22 16
-13 0 -34 3 -48 6 -22 6 -23 5 -10 -9z"/>
<path d="M7308 1073 c7 -3 16 -2 19 1 4 3 -2 6 -13 5 -11 0 -14 -3 -6 -6z"/>
<path d="M7360 880 c0 -5 7 -10 15 -10 8 0 15 5 15 10 0 6 -7 10 -15 10 -8 0
-15 -4 -15 -10z"/>
<path d="M7364 825 c-19 -14 -18 -14 4 -15 13 0 22 6 22 15 0 19 -1 19 -26 0z"/>
<path d="M6621 684 c0 -11 3 -14 6 -6 3 7 2 16 -1 19 -3 4 -6 -2 -5 -13z"/>
<path d="M6495 670 c3 -5 8 -10 11 -10 2 0 4 5 4 10 0 6 -5 10 -11 10 -5 0 -7
-4 -4 -10z"/>
<path d="M6450 575 c0 -8 4 -15 10 -15 5 0 7 7 4 15 -4 8 -8 15 -10 15 -2 0
-4 -7 -4 -15z"/>
<path d="M7360 560 c0 -5 7 -10 15 -10 8 0 15 5 15 10 0 6 -7 10 -15 10 -8 0
-15 -4 -15 -10z"/>
<path d="M6470 456 c0 -2 8 -10 18 -17 15 -13 16 -12 3 4 -13 16 -21 21 -21
13z"/>
<path d="M6648 423 c6 -2 18 -2 25 0 6 3 1 5 -13 5 -14 0 -19 -2 -12 -5z"/>
<path d="M6527 409 c7 -7 15 -10 18 -7 3 3 -2 9 -12 12 -14 6 -15 5 -6 -5z"/>
<path d="M7060 130 c0 -5 4 -10 9 -10 6 0 13 5 16 10 3 6 -1 10 -9 10 -9 0
-16 -4 -16 -10z"/>
<path d="M7095 120 c-3 -5 -2 -10 4 -10 5 0 13 5 16 10 3 6 2 10 -4 10 -5 0
-13 -4 -16 -10z"/>
<path d="M6911 54 c0 -11 3 -14 6 -6 3 7 2 16 -1 19 -3 4 -6 -2 -5 -13z"/>
<path d="M6755 10 c-4 -6 5 -10 19 -10 14 0 26 5 26 10 0 6 -9 10 -19 10 -11
0 -23 -4 -26 -10z"/>
<path d="M6855 10 c-3 -5 1 -10 9 -10 9 0 16 5 16 10 0 6 -4 10 -9 10 -6 0
-13 -4 -16 -10z"/>
</g>
</svg>
