<svg width="39" height="37" viewBox="0 0 39 37" fill="none" xmlns="http://www.w3.org/2000/svg">
<path d="M37.4167 5.36714V26.9926C37.4167 28.7126 36.0192 30.325 34.2992 30.54L33.7079 30.6118C29.8021 31.1314 23.7821 33.12 20.3421 35.0192C19.8762 35.2879 19.1059 35.2879 18.6221 35.0192L18.5504 34.9834C15.1104 33.1022 9.10843 31.1314 5.22051 30.6118L4.70086 30.54C2.98086 30.325 1.58337 28.7126 1.58337 26.9926V5.3492C1.58337 3.21712 3.32124 1.60464 5.45333 1.7838C9.21582 2.08839 14.9133 3.9876 18.1025 5.97635L18.5504 6.24504C19.07 6.56754 19.9301 6.56754 20.4497 6.24504L20.7542 6.04798C21.883 5.34923 23.3163 4.65047 24.875 4.02339V11.3334L28.4584 8.95047L32.0417 11.3334V1.98097C32.5255 1.89139 32.9913 1.83757 33.4213 1.80174H33.5288C35.6609 1.62257 37.4167 3.21714 37.4167 5.36714Z" stroke="#23213D" stroke-width="2.75" stroke-linecap="round" stroke-linejoin="round"/>
</svg>
