<svg width="24" height="25" viewBox="0 0 24 25" fill="none" xmlns="http://www.w3.org/2000/svg">
<path d="M22 5.17001V17.24C22 18.2 21.22 19.1 20.26 19.22L19.93 19.26C17.75 19.55 14.39 20.66 12.47 21.72C12.21 21.87 11.78 21.87 11.51 21.72L11.47 21.7C9.54997 20.65 6.20003 19.55 4.03003 19.26L3.73999 19.22C2.77999 19.1 2 18.2 2 17.24V5.16C2 3.97 2.96997 3.07001 4.15997 3.17001C6.25997 3.34001 9.43997 4.40003 11.22 5.51003L11.47 5.66C11.76 5.84 12.24 5.84 12.53 5.66L12.7 5.55001C13.33 5.16001 14.13 4.77001 15 4.42001V8.50002L17 7.17001L19 8.50002V3.28005C19.27 3.23005 19.53 3.20002 19.77 3.18002H19.83C21.02 3.08002 22 3.97001 22 5.17001Z" stroke="#23213D" stroke-width="1.5" stroke-linecap="round" stroke-linejoin="round"/>
<path d="M12 5.98999V20.99" stroke="#23213D" stroke-width="1.5" stroke-linecap="round" stroke-linejoin="round"/>
<path d="M19 3.28003V8.5L17 7.16998L15 8.5V4.41998C16.31 3.89998 17.77 3.48003 19 3.28003Z" stroke="#23213D" stroke-width="1.5" stroke-linecap="round" stroke-linejoin="round"/>
</svg>
