<svg width="58" height="66" viewBox="0 0 58 66" fill="none" xmlns="http://www.w3.org/2000/svg">
<path id="Vector" d="M57.7556 0.939545L52.4108 58.8276L29.2556 65.0605L6.10032 58.8276L0.755554 0.939545H57.7556ZM46.9845 12.7046H29.2311H11.1681L12.0317 19.6951H29.2311H30.2007L29.2311 20.0943L12.6591 26.9953L13.205 33.8311L29.2311 33.8799L37.8186 33.9044L37.2646 43.0133L29.223 45.2783V45.2702L29.1578 45.2865L21.3932 43.3229L20.9207 37.6685H20.8962H13.6938H13.6694L14.6145 48.5862L29.223 52.9044V52.8962L29.2474 52.9044L43.7907 48.684L45.6728 27.0034H29.2311H29.1904L29.2311 26.9871L46.2757 19.7033L46.9845 12.7046Z" fill="black"/>
</svg>
