<?xml version="1.0" standalone="no"?>
<!DOCTYPE svg PUBLIC "-//W3C//DTD SVG 20010904//EN"
 "http://www.w3.org/TR/2001/REC-SVG-20010904/DTD/svg10.dtd">
<svg version="1.0" xmlns="http://www.w3.org/2000/svg"
 width="900.000000pt" height="1300.000000pt" viewBox="0 0 900.000000 1300.000000"
 preserveAspectRatio="xMidYMid meet">

<g transform="translate(0.000000,1300.000000) scale(0.100000,-0.100000)"
fill="#000000" stroke="none">
<path d="M0 10640 l0 -2360 25 0 c23 0 25 4 25 40 0 29 -4 40 -15 40 -11 0
-15 11 -15 40 0 33 3 40 20 40 17 0 20 -7 20 -40 0 -33 3 -40 20 -40 17 0 20
7 20 40 0 38 2 40 30 40 l30 0 0 80 c0 47 4 80 10 80 6 0 10 18 10 40 0 22 -4
40 -10 40 -6 0 -10 60 -10 160 l0 160 -30 0 c-28 0 -30 2 -30 40 0 22 -4 40
-10 40 -5 0 -10 18 -10 40 0 29 -4 40 -15 40 -11 0 -15 11 -15 40 l0 40 80 0
80 0 0 39 c0 22 -6 42 -12 45 -10 5 -10 7 -1 12 9 4 13 29 13 75 l0 69 -40 0
-40 0 0 80 0 80 65 0 65 0 0 80 0 80 30 0 c28 0 30 2 30 40 0 22 5 40 10 40 6
0 10 18 10 40 0 22 -4 40 -10 40 -5 0 -10 18 -10 40 l0 40 40 0 40 0 0 40 0
40 -40 0 -40 0 0 80 0 80 80 0 80 0 0 240 0 240 25 0 c23 0 25 4 25 40 0 29 4
40 15 40 11 0 15 11 15 40 l0 40 40 0 40 0 0 55 0 55 40 0 c36 0 40 3 40 25 0
23 4 25 40 25 l40 0 0 40 0 40 50 0 50 0 0 40 c0 38 2 40 30 40 28 0 30 2 30
40 l0 40 160 0 160 0 0 40 0 40 360 0 360 0 0 -40 0 -40 80 0 80 0 0 -40 0
-40 120 0 120 0 0 -25 c0 -25 1 -25 80 -25 l80 0 0 -55 0 -55 40 0 c39 0 40 1
40 36 0 30 8 44 37 73 30 29 38 33 41 19 2 -13 16 -18 55 -20 44 -3 52 -6 55
-24 3 -24 -19 -34 -75 -34 -28 0 -33 -3 -33 -25 0 -16 6 -25 15 -25 11 0 15
-11 15 -40 0 -30 -4 -40 -16 -40 -12 0 -15 -6 -10 -26 7 -28 -14 -134 -26
-134 -5 0 -8 -18 -8 -40 0 -33 -3 -40 -20 -40 -17 0 -20 7 -20 40 0 22 4 40
10 40 5 0 15 18 21 40 7 22 18 40 26 40 7 0 13 5 13 10 0 6 -17 10 -37 10
l-38 0 -1 -46 c-1 -25 -7 -49 -14 -54 -12 -8 -11 -38 6 -118 4 -23 1 -46 -12
-73 -14 -32 -15 -42 -5 -49 9 -5 10 -10 2 -14 -6 -4 -16 -4 -21 -1 -20 12 -41
-16 -35 -47 5 -23 4 -27 -9 -22 -12 4 -16 0 -16 -15 0 -12 5 -21 10 -21 6 0
10 5 10 12 0 28 15 -7 16 -38 0 -22 -2 -30 -7 -22 -6 8 -9 -3 -9 -29 0 -32 -4
-43 -15 -43 -12 0 -15 13 -15 55 0 30 -4 55 -9 55 -14 0 -16 -14 -13 -86 4
-63 5 -66 28 -61 24 4 38 -15 31 -44 -2 -8 -2 -11 0 -6 3 4 9 7 15 7 10 0 1
-41 -12 -50 -4 -3 -7 -23 -7 -45 0 -22 2 -32 4 -22 2 9 11 17 19 17 11 0 14
-16 14 -67 0 -54 -4 -71 -21 -89 -24 -25 -18 -63 9 -65 13 0 14 -2 3 -6 -8 -3
-20 2 -27 12 -15 21 -38 10 -31 -15 3 -12 -2 -20 -14 -23 -20 -5 -17 -33 5
-50 6 -5 -1 -7 -16 -4 -26 4 -28 2 -28 -28 0 -29 2 -31 30 -27 18 3 30 0 30
-7 0 -6 7 -11 15 -11 13 0 15 -7 9 -37 -3 -21 -10 -42 -15 -48 -5 -5 -9 -18
-9 -28 0 -10 -9 -21 -20 -24 -11 -3 -20 -9 -20 -14 0 -5 -9 -9 -20 -9 -13 0
-20 -7 -20 -20 0 -26 -17 -26 -25 0 -10 32 -25 23 -25 -15 0 -19 1 -38 2 -42
1 -5 -11 -10 -28 -13 -36 -6 -34 -24 3 -28 51 -5 74 -12 68 -22 -3 -6 3 -10
15 -10 12 0 19 -4 16 -8 -2 -4 11 -18 30 -31 23 -16 31 -28 25 -34 -12 -12 34
-51 49 -42 6 4 7 23 4 47 -7 39 -6 40 15 29 24 -13 26 -22 9 -39 -9 -9 -8 -12
5 -12 9 0 17 8 17 18 1 9 8 -3 16 -26 17 -47 13 -62 -10 -43 -12 10 -14 9 -9
-8 3 -12 12 -21 20 -21 10 0 6 -11 -13 -38 -28 -39 -74 -72 -100 -72 -8 0 -14
-3 -14 -8 0 -11 38 -42 42 -33 3 8 72 51 82 51 15 0 4 -19 -14 -25 -11 -3 -20
-11 -20 -16 0 -10 56 -6 67 4 3 4 12 -1 19 -11 15 -19 19 -72 6 -72 -5 0 -14
-18 -21 -39 -6 -21 -18 -42 -26 -45 -9 -3 -15 -18 -15 -36 0 -17 -5 -40 -10
-50 -7 -13 -7 -21 0 -25 5 -3 10 -1 10 4 0 6 9 11 20 11 13 0 20 -7 20 -19 0
-10 7 -24 15 -31 20 -16 19 -30 -1 -30 -13 0 -14 -3 -5 -13 15 -19 -8 -66 -36
-73 -23 -6 -32 -24 -13 -24 10 0 19 4 72 31 16 9 23 9 26 0 6 -19 53 -1 115
46 48 35 65 42 91 38 79 -13 81 -14 94 -58 8 -24 10 -43 4 -45 -5 -1 -7 -14
-4 -28 3 -15 -1 -29 -7 -33 -13 -8 -5 -41 10 -41 17 0 9 -30 -8 -30 -14 -1
-11 -6 12 -27 23 -20 30 -35 30 -62 0 -28 4 -35 17 -33 12 2 20 -9 29 -40 6
-24 16 -55 21 -70 8 -21 5 -33 -18 -68 -22 -33 -25 -43 -14 -50 8 -5 10 -14 5
-26 -5 -11 -9 -21 -9 -24 -1 -3 -15 -34 -32 -70 -44 -91 -43 -86 -50 -238 -4
-96 -12 -162 -29 -222 -58 -217 -62 -247 -57 -437 2 -69 5 -81 17 -77 9 4 15
0 15 -9 0 -8 -5 -17 -12 -19 -15 -5 -2 -58 15 -58 19 0 38 38 31 64 -5 21 -3
24 14 19 17 -4 20 -1 15 19 -5 19 -1 17 21 -11 14 -19 26 -41 26 -48 0 -8 7
-28 16 -45 15 -28 14 -31 -4 -52 -30 -32 -39 -57 -36 -101 5 -101 37 -145 103
-145 22 0 43 -4 46 -10 3 -5 1 -10 -4 -10 -6 0 -11 -9 -11 -21 0 -16 4 -19 21
-14 12 4 32 8 45 10 14 1 27 5 31 8 9 10 43 -12 43 -28 0 -7 5 -15 11 -17 6
-2 13 -24 15 -48 5 -55 11 -73 23 -66 5 3 6 27 3 52 -4 34 -1 50 10 58 8 6 17
19 21 30 6 14 13 16 30 11 40 -14 127 -18 127 -6 0 6 -8 12 -17 12 -10 1 -3 4
14 8 33 6 33 6 18 35 -8 15 -15 34 -15 41 0 7 -7 16 -16 19 -23 9 -36 7 -29
-4 3 -5 2 -10 -4 -10 -14 0 -23 18 -12 25 6 3 9 19 8 35 -2 31 -11 39 -21 18
-5 -10 -7 -10 -12 -1 -3 8 -16 11 -32 8 -15 -3 -21 -2 -14 1 6 3 12 12 12 20
0 8 7 14 16 14 13 0 15 9 11 53 -3 28 -10 66 -15 83 -14 45 2 234 19 234 11 0
11 -17 1 -55 -13 -46 5 -213 28 -262 21 -45 29 -50 46 -33 8 8 15 6 23 -4 10
-12 8 -16 -8 -21 -32 -10 -26 -49 14 -91 35 -36 44 -54 25 -54 -5 0 -10 -7
-10 -15 0 -8 7 -15 15 -15 8 0 15 -4 15 -10 0 -11 -22 -63 -30 -70 -3 -3 -16
-20 -29 -38 -21 -31 -85 -67 -100 -57 -4 2 -22 7 -39 10 -29 5 -31 4 -23 -17
7 -19 16 -23 48 -22 43 0 117 49 183 119 19 20 46 45 60 55 l25 18 -1 -44 c-1
-52 10 -55 65 -22 51 31 49 29 126 180 50 100 86 157 133 210 35 40 73 90 83
111 21 40 39 46 60 20 8 -9 29 -22 47 -30 41 -17 49 -35 28 -65 -25 -36 -24
-44 59 -308 8 -25 24 -94 36 -155 12 -60 29 -121 39 -135 9 -14 20 -37 24 -52
10 -43 26 -33 26 16 0 25 4 47 9 50 5 3 12 22 15 41 7 37 -3 66 -65 187 -22
43 -29 70 -29 113 0 31 4 54 9 51 4 -3 17 11 27 32 18 36 84 107 156 171 l35
31 29 -25 c26 -23 58 -25 35 -2 -14 14 -14 53 0 78 6 13 7 25 1 32 -5 7 -12
37 -16 67 -4 30 -11 59 -15 65 -12 14 -21 78 -26 163 -2 41 -7 92 -11 115 -4
23 -8 49 -10 57 -10 61 -6 59 -189 136 -49 21 -123 59 -164 86 -41 26 -78 48
-83 48 -6 0 -7 7 -4 16 3 8 2 12 -4 9 -12 -7 -25 0 -81 45 -42 34 -159 148
-159 155 0 2 -25 30 -55 61 -30 32 -55 61 -55 65 0 3 -13 22 -30 40 -16 19
-33 42 -36 53 -3 10 -17 34 -31 54 -13 20 -31 53 -40 72 -27 60 -58 125 -63
130 -3 3 -19 34 -36 70 -27 55 -31 73 -26 118 4 42 2 52 -11 52 -8 0 -18 6
-21 13 -3 6 -3 -6 -1 -28 3 -22 2 -33 -1 -25 -3 8 -12 30 -21 48 -8 18 -12 40
-10 50 3 12 5 11 6 -5 0 -13 6 -23 11 -23 17 0 11 28 -8 42 -33 23 -57 88 -32
88 6 0 10 -11 10 -24 0 -14 5 -28 10 -31 6 -4 10 20 10 64 0 56 3 71 15 71 8
0 15 9 15 19 0 11 5 21 12 23 7 3 11 27 11 66 0 55 -4 65 -27 85 -29 25 -34
58 -11 77 11 9 15 9 15 1 0 -8 10 -6 30 4 27 14 35 14 75 1 24 -9 51 -13 60
-10 8 4 36 0 60 -7 33 -10 47 -20 51 -36 4 -13 12 -23 19 -23 7 0 15 -5 17
-11 3 -8 16 -6 42 5 48 20 46 21 46 -9 0 -14 5 -25 10 -25 6 0 15 -12 21 -26
9 -26 10 -26 29 -9 20 18 20 17 20 -53 l0 -72 -35 0 c-29 0 -36 -4 -41 -25 -3
-14 -10 -25 -16 -25 -5 0 -6 -5 -3 -10 3 -6 -1 -13 -10 -16 -20 -8 -11 -42 21
-70 31 -28 33 -88 5 -188 -13 -48 -19 -91 -15 -108 7 -34 44 -54 57 -32 13 22
40 -11 42 -49 2 -51 55 -150 72 -134 3 4 -1 17 -9 29 -18 28 -28 77 -17 83 4
3 10 1 14 -5 4 -6 11 -7 17 -4 6 4 8 2 4 -4 -3 -6 8 -25 26 -42 23 -24 28 -34
18 -40 -10 -6 -8 -15 9 -39 13 -17 27 -28 33 -25 7 4 8 2 4 -4 -4 -7 -3 -12 2
-12 5 0 17 -18 27 -40 10 -22 22 -40 27 -40 4 0 8 -6 8 -13 0 -21 39 -40 55
-27 8 7 19 9 24 6 6 -4 15 3 21 14 9 16 8 20 -5 20 -8 0 -15 3 -15 8 0 8 107
47 157 57 18 4 35 11 38 16 4 5 15 9 26 9 10 0 19 7 19 15 0 8 5 15 12 15 6 0
8 3 4 7 -4 4 -24 6 -45 4 -23 -1 -42 3 -47 10 -10 17 34 51 57 44 10 -3 26 -2
36 4 10 5 46 20 81 33 34 13 62 26 62 30 0 5 9 8 20 8 12 0 30 8 41 18 19 19
42 31 87 48 18 7 9 9 -37 9 -37 0 -61 -4 -61 -10 0 -17 -59 -56 -79 -53 -10 2
-25 -3 -33 -9 -8 -7 -39 -18 -69 -23 -44 -9 -56 -8 -63 3 -7 12 -12 11 -28 -5
-14 -14 -33 -18 -87 -18 -60 0 -71 3 -85 23 -14 20 -16 21 -26 5 -18 -29 -34
-21 -58 30 -24 51 -27 67 -12 57 6 -3 10 -1 10 4 0 19 39 12 52 -9 16 -26 24
-25 31 1 5 17 11 20 29 16 13 -4 29 0 40 10 10 9 37 16 63 17 48 1 64 16 17
16 -18 0 -30 7 -37 22 -7 15 -26 26 -60 35 -60 15 -117 19 -132 10 -10 -6 -16
7 -30 63 -2 8 -4 30 -4 47 -1 18 -9 44 -20 57 -31 39 -38 93 -20 166 15 64 17
157 6 420 -4 98 -16 162 -36 185 -5 5 -9 15 -9 23 0 18 -21 35 -80 64 -25 13
-47 25 -50 28 -12 12 -51 30 -64 30 -8 0 -21 9 -30 21 -36 52 -109 78 -224 81
-16 0 -22 5 -18 14 3 8 2 14 -3 14 -11 0 -31 46 -31 70 0 16 -7 20 -30 20 -29
0 -30 2 -30 45 0 35 -5 49 -26 69 -21 19 -27 35 -29 73 l-3 48 8 -40 c5 -24 6
-2 3 55 -4 59 -11 99 -19 108 -19 18 -18 32 6 83 11 24 20 61 20 82 0 20 4 37
9 37 5 0 12 35 16 78 4 42 14 90 22 107 16 29 37 55 47 55 8 0 56 50 56 59 0
19 140 70 193 71 56 0 127 -20 127 -36 0 -10 14 -14 47 -14 46 0 185 -45 191
-62 2 -4 10 -8 17 -8 25 0 65 -23 65 -37 0 -7 11 -19 25 -25 14 -6 25 -15 25
-20 0 -4 4 -8 10 -8 11 0 103 -62 108 -72 7 -15 22 -8 23 10 0 9 6 2 13 -17
l12 -34 11 34 c11 33 11 33 12 -24 1 -39 5 -56 12 -52 6 4 8 14 5 22 -7 16 12
92 26 107 4 6 8 -6 8 -27 0 -36 16 -129 27 -157 4 -8 12 11 19 45 11 57 12 58
13 20 2 -64 20 -19 26 66 9 123 18 92 12 -41 -7 -142 8 -125 19 22 4 48 11 85
15 82 5 -3 9 4 9 15 0 11 5 23 10 26 6 4 10 -16 10 -52 0 -41 3 -54 10 -43 7
10 10 -9 12 -65 l2 -80 6 70 c4 39 8 63 9 55 2 -8 7 0 12 18 8 27 14 32 29 27
17 -5 20 -1 21 22 1 17 3 21 6 11 2 -10 13 -18 24 -18 12 0 19 -7 19 -19 0
-23 27 -88 38 -93 14 -5 23 -68 11 -68 -8 0 -8 -4 -1 -13 7 -8 7 -18 2 -27 -8
-13 -10 -12 -10 2 0 20 -31 88 -39 88 -3 0 -6 -23 -7 -50 0 -28 3 -50 7 -50 4
0 9 -15 11 -34 2 -19 0 -32 -4 -30 -4 3 -8 14 -8 25 0 10 -5 19 -11 19 -23 0
-38 36 -39 87 0 28 -5 55 -10 58 -7 4 -9 -28 -6 -97 4 -100 4 -102 -9 -53
l-13 50 -1 -51 c-1 -28 -4 -53 -7 -57 -10 -9 -54 24 -54 40 0 9 -6 13 -14 10
-18 -7 -26 23 -19 71 3 28 2 33 -6 22 -14 -19 -15 -123 -1 -115 6 3 10 1 10
-4 0 -6 7 -11 15 -11 17 0 20 -16 5 -25 -20 -12 -10 -27 14 -21 22 5 24 3 29
-57 3 -34 2 -66 -2 -70 -5 -5 -20 4 -35 20 l-26 28 0 -32 c0 -17 -4 -33 -8
-35 -4 -1 -18 -18 -31 -35 -14 -21 -31 -33 -46 -33 -17 0 -26 -8 -34 -30 -5
-16 -13 -30 -17 -30 -3 0 -4 7 0 15 4 10 -1 15 -14 15 -11 0 -20 -5 -20 -10 0
-6 -11 -15 -25 -20 -26 -10 -34 -29 -12 -31 6 -1 -6 -5 -28 -8 -30 -4 -40 -11
-40 -24 0 -10 -7 -24 -16 -30 -9 -7 -19 -22 -23 -33 -6 -21 -4 -22 51 -20 51
2 139 30 183 57 77 48 197 74 223 48 10 -11 11 -17 3 -24 -25 -22 -116 -64
-186 -86 -41 -13 -90 -36 -108 -51 -18 -15 -31 -28 -28 -28 2 0 -11 -30 -29
-67 -21 -43 -30 -72 -24 -77 5 -6 9 -20 9 -33 0 -21 3 -22 48 -16 26 3 64 12
86 19 21 8 55 12 75 10 20 -2 28 -1 19 1 -10 2 -18 9 -18 14 0 5 -27 9 -60 9
-33 0 -60 4 -60 10 0 13 57 76 90 100 l27 19 -2 -23 c-2 -14 3 -37 11 -52 8
-15 12 -35 9 -45 -5 -14 2 -18 36 -24 43 -7 159 13 159 28 0 4 4 6 9 3 4 -3
21 6 37 19 16 14 34 25 41 25 6 0 13 4 15 9 2 5 15 13 30 16 23 6 30 1 57 -37
48 -66 71 -88 113 -105 21 -8 38 -19 38 -25 0 -5 5 -6 10 -3 6 4 8 10 5 15 -3
5 15 12 41 16 41 6 44 8 31 22 -9 8 -28 15 -44 16 -22 1 -29 6 -31 27 -2 18 3
28 17 35 21 9 21 9 -1 52 -18 35 -24 40 -29 25 -5 -13 -8 -13 -8 -3 0 8 4 24
9 35 7 17 9 17 9 3 1 -10 6 -18 11 -18 13 0 13 23 1 36 -17 17 -17 86 -1 94 8
4 25 12 37 18 13 7 30 12 38 12 8 0 15 5 15 10 0 6 5 10 10 10 6 0 10 -6 10
-14 0 -8 7 -17 16 -20 12 -5 14 -1 9 15 -7 21 -7 21 24 3 22 -13 31 -25 29
-39 -4 -26 -35 -32 -41 -8 -2 10 -3 -7 -1 -37 2 -51 -1 -57 -31 -85 -18 -16
-43 -37 -56 -46 -13 -10 -22 -19 -19 -23 9 -9 123 24 142 41 16 14 18 14 24 0
11 -29 55 -49 118 -53 99 -6 104 -8 116 -73 19 -97 20 -101 40 -121 11 -11 20
-28 20 -39 0 -10 9 -30 20 -44 13 -17 20 -41 21 -74 1 -37 3 -42 8 -23 7 24 8
23 14 -10 3 -19 15 -69 27 -110 18 -64 21 -92 16 -190 -14 -304 -99 -588 -238
-795 -29 -43 -57 -85 -63 -94 -5 -8 -18 -24 -27 -35 -10 -11 -18 -26 -18 -33
0 -19 -36 -74 -43 -66 -4 3 -7 -5 -7 -18 0 -32 -58 -126 -109 -177 -22 -22
-41 -45 -41 -50 0 -5 -19 -27 -42 -49 -24 -22 -50 -49 -59 -59 -9 -11 -27 -29
-40 -41 -58 -52 -121 -124 -115 -130 4 -4 11 -2 15 6 6 9 17 10 42 4 19 -5 53
-6 77 -3 38 6 43 4 48 -16 3 -12 4 -35 1 -50 -3 -22 -4 -19 -6 14 -1 53 -21
56 -21 2 0 -22 -4 -40 -10 -40 -5 0 -10 -7 -10 -16 0 -11 6 -15 20 -11 13 3
20 0 20 -9 0 -8 5 -14 11 -14 13 0 9 -26 -15 -113 -9 -32 -14 -62 -11 -67 3
-6 1 -10 -4 -10 -7 0 -11 -26 -11 -66 0 -57 2 -65 14 -54 8 6 17 26 19 43 l4
32 1 -32 c2 -35 17 -44 26 -15 8 26 -2 -36 -15 -93 -7 -27 -11 -63 -11 -78 1
-15 -2 -26 -7 -23 -4 3 -18 -16 -31 -42 -29 -58 -42 -218 -19 -233 23 -14 26
-11 21 21 -4 29 -3 31 21 25 22 -6 25 -3 31 32 11 63 40 163 48 163 5 0 8 12
8 27 0 25 -1 26 -13 8 -11 -13 -16 -15 -22 -6 -4 7 -2 18 4 24 6 6 11 19 11
29 0 10 9 27 20 38 22 22 26 40 8 40 -6 0 -4 8 6 19 10 11 17 30 16 43 -3 36
0 44 10 28 7 -11 10 -3 10 29 0 35 3 42 15 37 20 -7 59 75 41 86 -7 5 -4 8 7
8 16 0 17 6 11 52 -5 39 -4 49 5 43 7 -4 10 -13 7 -21 -3 -8 -1 -14 4 -14 6 0
10 12 11 28 0 15 4 36 8 46 7 19 8 18 16 -5 l8 -24 4 23 c2 12 9 22 14 22 5 0
9 11 9 24 0 24 16 43 27 33 5 -5 -36 -151 -58 -205 -5 -13 -9 -33 -9 -46 0
-12 -3 -26 -7 -30 -5 -4 -8 -28 -8 -52 0 -24 3 -44 8 -44 4 0 7 11 7 23 0 13
9 32 19 41 18 17 20 16 26 -3 3 -12 11 -21 16 -21 5 0 9 -21 8 -47 l-1 -48
-10 43 c-9 42 -22 49 -24 14 -3 -48 -5 -53 -16 -46 -8 5 -9 -1 -5 -22 3 -16
-1 -47 -8 -69 -8 -21 -12 -41 -10 -44 3 -2 5 1 5 8 0 7 5 9 10 6 6 -3 10 -15
10 -26 0 -11 5 -17 10 -14 6 3 10 15 10 26 0 10 4 19 9 19 5 0 12 17 16 38 4
20 14 45 22 54 8 9 12 22 8 28 -4 6 -1 18 6 26 6 8 25 40 41 72 16 31 28 48
27 37 -4 -49 1 -62 22 -60 12 1 26 9 31 19 9 16 11 16 24 -1 12 -17 13 -16 14
9 0 14 3 34 6 43 6 14 10 12 29 -12 l23 -28 -5 28 c-7 37 7 34 38 -11 29 -42
83 -153 80 -165 -1 -5 8 -22 20 -39 17 -23 24 -27 31 -16 7 9 8 6 5 -10 -4
-15 0 -25 9 -29 8 -3 14 -12 14 -20 0 -7 10 -25 23 -39 47 -51 71 -198 39
-237 -6 -7 -13 -30 -14 -50 -2 -19 -6 -35 -9 -34 -3 1 -16 -10 -30 -24 -13
-14 -32 -29 -43 -32 -22 -9 -86 12 -86 28 0 5 -20 10 -45 11 -36 1 -45 -2 -45
-16 0 -10 6 -23 14 -30 8 -6 12 -18 9 -27 -3 -8 0 -39 7 -69 13 -55 45 -94 76
-94 8 0 14 -5 14 -11 0 -8 15 -9 48 -4 37 5 54 14 79 43 24 27 32 32 33 20 0
-10 -4 -18 -9 -18 -22 0 -21 -35 1 -52 30 -23 127 -26 109 -4 -17 20 10 85 35
83 10 -1 23 8 29 19 21 41 34 51 64 46 16 -2 31 0 35 6 3 5 26 7 52 4 33 -3
49 -1 54 9 6 9 27 13 63 13 l55 -1 26 64 c14 35 26 80 26 101 1 31 2 34 11 19
6 -10 8 -34 5 -53 -7 -34 5 -46 21 -21 15 23 31 122 22 138 -7 13 -3 17 16 16
34 0 53 19 65 63 9 34 43 63 75 65 6 0 20 11 32 23 36 38 48 15 13 -24 -30
-35 -38 -54 -21 -54 5 0 13 9 16 20 4 11 26 37 51 57 24 21 44 42 44 48 1 17
37 55 54 55 8 0 18 5 22 11 3 6 15 9 25 6 10 -3 22 -1 25 4 3 5 20 9 37 9 29
1 95 28 72 30 -5 1 0 5 12 10 16 6 23 18 23 35 0 34 -41 105 -60 105 -12 0
-13 2 -1 9 7 5 10 14 7 20 -4 6 -12 9 -17 6 -15 -10 -10 4 12 35 13 17 20 37
16 49 -6 25 -3 26 18 4 14 -14 18 -14 26 -2 11 17 12 39 2 38 -16 -2 -53 14
-53 22 0 5 -7 9 -15 9 -8 0 -15 9 -15 20 0 13 -7 20 -18 20 -11 0 -24 11 -30
25 -10 21 -9 25 3 25 8 0 15 5 15 10 0 6 9 10 21 10 16 0 19 -4 14 -22 -4 -15
-3 -19 3 -10 10 15 59 0 68 -21 2 -7 14 -13 25 -14 12 -1 26 -9 33 -18 14 -19
91 -27 123 -12 33 15 38 39 13 59 -12 10 -26 15 -31 12 -13 -8 -69 28 -69 44
0 7 -4 11 -10 7 -5 -3 -22 9 -37 26 -15 18 -43 49 -61 68 l-33 36 52 3 c36 2
57 -1 67 -11 12 -13 18 -13 44 2 27 15 30 15 40 -3 8 -14 12 -15 18 -5 6 9 16
5 39 -20 17 -18 35 -30 41 -26 5 3 25 -6 45 -20 19 -15 39 -24 45 -20 15 9 12
88 -4 110 -8 11 -12 24 -9 31 4 11 -15 16 -173 49 -20 4 -44 42 -44 69 0 8 -6
16 -14 19 -10 4 -12 0 -9 -14 6 -23 -3 -24 -23 -4 -9 8 -12 20 -8 26 4 7 1 10
-7 7 -31 -11 -54 73 -28 99 7 7 8 19 4 30 -13 29 -11 37 14 61 21 20 23 26 13
42 -16 26 -15 62 2 94 13 25 14 25 19 6 3 -11 2 -22 -3 -25 -10 -6 -19 -65
-10 -65 33 0 75 144 67 231 -3 30 -14 76 -26 102 -11 25 -21 50 -21 55 0 5
-12 37 -26 72 -30 75 -67 127 -97 136 -12 4 -29 14 -37 23 -8 9 -32 16 -54 17
l-39 1 23 -19 c12 -10 16 -18 9 -18 -10 0 -10 -3 -2 -11 9 -9 8 -16 -4 -27
-13 -14 -13 -17 -1 -26 14 -10 21 -31 35 -98 3 -16 12 -28 20 -28 20 0 76 -32
88 -50 15 -23 64 -161 55 -155 -5 3 -11 1 -15 -5 -3 -5 -1 -10 4 -10 6 0 11
-18 11 -40 0 -49 -17 -53 -26 -5 -3 19 -10 35 -14 35 -5 0 -11 14 -15 30 -4
17 -13 30 -20 30 -9 0 -12 6 -9 15 7 17 -33 103 -62 132 -10 11 -40 30 -66 41
-29 13 -48 27 -48 37 0 11 -6 15 -19 10 -16 -5 -19 0 -23 30 -4 31 -1 35 19
35 30 0 29 14 -2 28 -15 7 -22 17 -19 26 3 8 0 17 -6 21 -8 5 -6 14 5 31 20
32 10 48 -26 40 -33 -6 -36 0 -12 26 9 10 13 21 10 25 -7 6 -43 -29 -49 -48
-4 -11 -58 12 -58 24 0 4 -9 7 -19 7 -10 0 -21 7 -25 15 -3 8 -17 20 -31 25
-14 5 -25 14 -25 20 0 5 -6 10 -13 10 -7 0 -35 20 -62 45 -43 38 -47 44 -27
45 12 0 22 -4 22 -10 0 -5 5 -10 10 -10 6 0 10 7 10 15 0 21 -32 85 -40 80 -4
-2 -3 24 2 58 5 34 6 80 3 101 -3 21 -1 74 6 117 9 62 15 80 30 84 10 4 19 11
19 16 0 5 8 9 19 9 23 0 70 46 76 74 12 60 12 156 0 166 -9 8 -14 5 -20 -12
l-7 -23 -7 25 c-4 15 -10 20 -14 13 -4 -6 -4 -18 -1 -27 8 -21 -5 -20 -33 2
-16 12 -26 36 -34 77 -7 33 -17 67 -24 75 -16 19 -28 103 -20 130 10 30 23 24
27 -12 2 -17 9 -34 17 -36 10 -3 12 2 7 22 -11 46 8 28 37 -34 17 -35 33 -57
39 -54 8 5 9 -13 4 -59 -5 -55 -4 -67 8 -67 8 0 17 10 19 23 4 22 5 22 13 -3
8 -23 9 -23 15 14 4 28 2 44 -7 54 -8 7 -14 28 -14 45 0 57 -12 107 -26 107
-9 0 -13 15 -13 48 1 90 1 91 -34 101 -17 5 -26 10 -20 10 9 1 10 11 6 33 -5
26 -3 30 10 25 9 -3 18 0 21 9 3 8 15 14 27 14 14 0 19 5 16 14 -3 8 2 16 11
18 19 5 22 46 8 111 -9 41 -21 48 -31 16 -5 -16 -9 -18 -21 -8 -11 9 -18 8
-32 -4 -16 -15 -19 -15 -30 3 -7 11 -12 27 -12 36 0 14 -3 14 -15 4 -20 -17
-29 -8 -54 60 -25 66 -25 70 -6 70 11 0 15 11 15 39 0 30 -4 40 -20 44 -13 3
-20 0 -20 -10 0 -8 4 -11 10 -8 6 4 10 -6 9 -22 0 -25 -1 -26 -9 -8 -8 18 -9
17 -9 -7 -2 -49 -18 -30 -18 20 0 89 -26 273 -37 269 -6 -2 -13 -14 -14 -27
-4 -23 -5 -22 -18 9 -8 19 -12 36 -9 39 3 3 5 0 5 -6 0 -7 7 -12 15 -12 9 0
15 9 15 25 0 14 -4 25 -10 25 -5 0 -10 -5 -10 -11 0 -5 -4 -7 -10 -4 -5 3 -10
15 -10 26 0 10 -5 19 -10 19 -7 0 -7 7 0 20 6 11 8 35 5 53 -5 24 -2 37 9 46
22 19 20 41 -4 41 -18 0 -20 7 -20 80 0 47 -4 80 -10 80 -5 0 -10 18 -10 40 0
36 3 40 25 40 23 0 25 4 25 40 l0 40 55 0 55 0 0 40 0 40 40 0 c38 0 40 2 40
30 0 28 2 30 40 30 38 0 40 -2 40 -30 0 -28 2 -30 40 -30 l40 0 0 40 0 40 40
0 40 0 0 -40 0 -40 80 0 80 0 0 -40 0 -40 40 0 c22 0 40 -4 40 -10 0 -6 33
-10 80 -10 l80 0 0 -30 c0 -28 2 -30 40 -30 l40 0 0 -40 0 -40 -120 0 -120 0
0 40 0 40 -40 0 -40 0 0 -40 0 -40 -40 0 -40 0 0 -40 0 -40 120 0 120 0 0 -40
0 -40 280 0 280 0 0 40 0 40 80 0 80 0 0 -40 0 -40 40 0 40 0 0 -40 0 -40 40
0 40 0 0 -40 0 -40 80 0 80 0 0 -40 0 -40 40 0 40 0 0 -40 0 -40 40 0 c36 0
40 -2 40 -25 0 -25 1 -25 80 -25 79 0 80 0 80 25 0 23 4 25 40 25 l40 0 0 -40
0 -40 40 0 40 0 0 -40 0 -40 40 0 40 0 0 -80 0 -80 40 0 c22 0 40 -4 40 -10 0
-5 9 -10 20 -10 20 0 20 7 20 1250 l0 1250 -4500 0 -4500 0 0 -2360z m5333
1473 c-7 -2 -19 -2 -25 0 -7 3 -2 5 12 5 14 0 19 -2 13 -5z m84 1 c-3 -3 -12
-4 -19 -1 -8 3 -5 6 6 6 11 1 17 -2 13 -5z m983 -219 c0 -12 -16 -15 -80 -15
-64 0 -80 3 -80 15 0 12 16 15 80 15 64 0 80 -3 80 -15z m-3200 -55 c0 -29 -4
-40 -15 -40 -11 0 -15 11 -15 40 0 29 4 40 15 40 11 0 15 -11 15 -40z m237 34
c-3 -3 -12 -4 -19 -1 -8 3 -5 6 6 6 11 1 17 -2 13 -5z m63 -4 c0 -5 -2 -10 -4
-10 -3 0 -8 5 -11 10 -3 6 -1 10 4 10 6 0 11 -4 11 -10z m2317 4 c-3 -3 -12
-4 -19 -1 -8 3 -5 6 6 6 11 1 17 -2 13 -5z m343 -9 c0 -11 -11 -15 -40 -15
-29 0 -40 4 -40 15 0 11 11 15 40 15 29 0 40 -4 40 -15z m-323 -27 c-3 -8 -6
-5 -6 6 -1 11 2 17 5 13 3 -3 4 -12 1 -19z m-2457 -2 c0 -3 -4 -8 -10 -11 -5
-3 -10 -1 -10 4 0 6 5 11 10 11 6 0 10 -2 10 -4z m-670 -25 c5 -11 10 -54 10
-95 0 -61 -3 -76 -15 -76 -12 0 -15 15 -15 79 0 52 -4 81 -12 83 -13 5 -2 28
12 28 5 0 14 -9 20 -19z m3097 -7 c-3 -3 -12 -4 -19 -1 -8 3 -5 6 6 6 11 1 17
-2 13 -5z m-4287 -69 c0 -12 -20 -15 -120 -15 -100 0 -120 3 -120 15 0 13 20
15 120 15 100 0 120 -2 120 -15z m240 0 c0 -11 -11 -15 -40 -15 -29 0 -40 4
-40 15 0 11 11 15 40 15 29 0 40 -4 40 -15z m5120 0 c0 -11 -11 -15 -40 -15
-29 0 -40 4 -40 15 0 11 11 15 40 15 29 0 40 -4 40 -15z m-1105 -5 c3 -5 1
-10 -4 -10 -6 0 -11 5 -11 10 0 6 2 10 4 10 3 0 8 -4 11 -10z m128 -4 c30 -23
20 -39 -12 -20 -17 10 -28 21 -25 26 7 11 16 10 37 -6z m87 -16 c-12 -23 -30
-27 -30 -6 0 8 8 17 18 19 9 3 18 5 20 6 1 0 -2 -8 -8 -19z m124 -4 c-9 -24
-34 -28 -34 -6 0 13 7 20 20 20 13 0 17 -5 14 -14z m127 -66 c46 0 79 -4 79
-10 0 -5 18 -10 40 -10 38 0 40 -2 40 -30 0 -28 2 -30 40 -30 l40 0 0 -80 c0
-44 -4 -80 -8 -80 -4 0 -13 -13 -19 -30 -13 -36 -28 -39 -38 -7 -7 21 -8 20
-14 -8 -5 -25 -8 -27 -14 -12 -4 10 -7 27 -7 38 0 12 -7 19 -20 19 -17 0 -20
7 -20 40 0 22 -4 40 -10 40 -5 0 -10 7 -10 16 0 31 -42 64 -82 64 -37 0 -38
-1 -38 -35 0 -33 -31 -81 -44 -68 -2 3 -15 -2 -28 -11 -24 -17 -58 -21 -58 -7
0 14 25 31 58 37 29 6 32 10 32 44 0 21 -5 40 -11 42 -6 2 -14 23 -19 46 -6
34 -4 47 9 59 15 16 16 15 19 -5 3 -21 9 -22 83 -22z m-177 24 c32 -12 16 -32
-29 -36 -35 -2 -44 0 -40 10 3 8 5 18 5 23 0 10 40 12 64 3z m-113 -44 c13 0
19 -7 19 -21 0 -18 -3 -19 -15 -9 -8 6 -19 9 -25 5 -5 -3 -10 -1 -10 4 0 6 -9
11 -20 11 -11 0 -20 7 -20 15 0 8 9 15 20 15 11 0 21 6 21 13 1 6 4 2 6 -10 3
-15 12 -23 24 -23z m-84 24 c-3 -3 -12 -4 -19 -1 -8 3 -5 6 6 6 11 1 17 -2 13
-5z m-2700 -10 c-3 -3 -12 -4 -19 -1 -8 3 -5 6 6 6 11 1 17 -2 13 -5z m-40
-36 c-3 -8 -6 -5 -6 6 -1 11 2 17 5 13 3 -3 4 -12 1 -19z m2953 -24 c0 -10
-13 -14 -45 -14 -36 0 -45 3 -45 18 0 14 7 17 45 14 30 -3 45 -9 45 -18z
m-3440 1 c0 -11 -11 -15 -40 -15 -29 0 -40 4 -40 15 0 11 11 15 40 15 29 0 40
-4 40 -15z m3200 -5 c0 -5 8 -10 17 -10 9 0 14 -3 10 -6 -8 -8 -47 5 -47 17 0
5 5 9 10 9 6 0 10 -4 10 -10z m-4720 -50 c0 -29 -4 -40 -15 -40 -11 0 -15 11
-15 40 0 29 4 40 15 40 11 0 15 -11 15 -40z m980 0 c0 -22 -4 -40 -10 -40 -5
0 -10 18 -10 40 0 22 5 40 10 40 6 0 10 -18 10 -40z m780 25 c0 -8 -4 -15 -9
-15 -5 0 -14 7 -21 15 -10 13 -9 15 9 15 12 0 21 -6 21 -15z m157 9 c-3 -3
-12 -4 -19 -1 -8 3 -5 6 6 6 11 1 17 -2 13 -5z m2893 2 c0 -3 -4 -8 -10 -11
-5 -3 -10 -1 -10 4 0 6 5 11 10 11 6 0 10 -2 10 -4z m-2942 -28 c-6 -18 -28
-21 -28 -4 0 9 7 16 16 16 9 0 14 -5 12 -12z m2982 -8 c0 -5 -2 -10 -4 -10 -3
0 -8 5 -11 10 -3 6 -1 10 4 10 6 0 11 -4 11 -10z m314 -34 c41 -39 44 -51 16
-59 -14 -3 -24 1 -31 15 -6 11 -17 17 -24 14 -7 -2 -16 2 -19 10 -3 8 -1 14 4
14 6 0 10 9 10 20 0 26 1 26 44 -14z m-204 4 c0 -5 -10 -10 -22 -9 -22 0 -22
1 -3 9 11 5 21 9 23 9 1 1 2 -3 2 -9z m-3820 -50 c0 -22 -4 -40 -10 -40 -5 0
-10 18 -10 40 0 22 5 40 10 40 6 0 10 -18 10 -40z m823 33 c-7 -2 -19 -2 -25
0 -7 3 -2 5 12 5 14 0 19 -2 13 -5z m-13 -42 c0 -5 -7 -14 -15 -21 -13 -10
-15 -9 -15 9 0 12 6 21 15 21 8 0 15 -4 15 -9z m-270 -16 c0 -11 -11 -15 -40
-15 -29 0 -40 4 -40 15 0 11 11 15 40 15 29 0 40 -4 40 -15z m123 -12 c-7 -2
-19 -2 -25 0 -7 3 -2 5 12 5 14 0 19 -2 13 -5z m3305 -35 c9 -9 12 -9 12 0 0
7 16 12 40 12 33 0 40 -3 40 -20 0 -17 -7 -20 -40 -20 -46 0 -51 -11 -15 -30
20 -11 27 -11 40 0 12 10 15 10 15 -3 0 -8 7 -17 15 -21 19 -7 20 -26 1 -26
-8 0 -16 -7 -20 -15 -3 -8 -16 -15 -28 -15 -16 0 -19 3 -10 9 10 6 7 12 -12
24 -14 10 -34 17 -45 17 -10 0 -21 7 -25 15 -3 8 -17 15 -31 15 -14 0 -25 5
-25 11 0 6 7 9 15 5 10 -3 20 5 30 24 17 33 25 36 43 18z m-68 -18 c0 -5 -9
-10 -20 -10 -11 0 -20 5 -20 10 0 6 9 10 20 10 11 0 20 -4 20 -10z m308 -42
c-6 -18 -28 -21 -28 -4 0 9 7 16 16 16 9 0 14 -5 12 -12z m1132 -28 l0 -40
-80 0 -80 0 0 40 0 40 80 0 80 0 0 -40z m-4800 6 c0 -16 -7 -27 -20 -30 -11
-3 -29 -9 -40 -12 -34 -9 -24 29 13 47 44 23 47 22 47 -5z m3378 -24 c-10 -2
-18 -8 -18 -13 0 -6 -4 -7 -10 -4 -15 9 12 34 30 27 12 -5 12 -7 -2 -10z
m-128 -12 c12 -8 11 -10 -7 -10 -13 0 -23 5 -23 10 0 13 11 13 30 0z m360 0
c0 -5 -10 -10 -22 -9 -22 0 -22 1 -3 9 11 5 21 9 23 9 1 1 2 -3 2 -9z m-3528
-32 c-5 -21 -21 -23 -57 -6 -38 17 -30 29 18 26 36 -2 43 -6 39 -20z m3334 13
c-3 -5 -15 -7 -26 -4 -28 7 -25 13 6 13 14 0 23 -4 20 -9z m181 -28 c-3 -3
-11 -2 -17 2 -9 6 -9 10 1 16 14 8 27 -7 16 -18z m-522 -3 c3 -5 1 -10 -4 -10
-6 0 -11 5 -11 10 0 6 2 10 4 10 3 0 8 -4 11 -10z m39 -34 c26 -13 26 -14 5
-19 -27 -7 -39 -1 -39 19 0 17 1 17 34 0z m574 -22 c-4 -3 -17 -2 -30 2 -22 7
-22 7 -3 14 20 8 44 -4 33 -16z m-508 -24 c0 -5 -7 -10 -15 -10 -8 0 -15 5
-15 10 0 6 7 10 15 10 8 0 15 -4 15 -10z m2900 -25 c0 -11 -11 -15 -40 -15
-29 0 -40 4 -40 15 0 11 11 15 40 15 29 0 40 -4 40 -15z m-3536 -51 c4 -9 4
-19 2 -21 -7 -8 -55 31 -56 44 0 7 -7 10 -17 7 -15 -5 -15 -4 -4 4 18 13 65
-9 75 -34z m616 26 c0 -5 -7 -10 -15 -10 -8 0 -15 5 -15 10 0 6 7 10 15 10 8
0 15 -4 15 -10z m-1414 -65 c9 -40 -4 -27 -16 15 -6 20 -6 30 -1 24 5 -5 13
-22 17 -39z m-1772 -20 c-4 -8 -8 -15 -10 -15 -2 0 -4 7 -4 15 0 8 4 15 10 15
5 0 7 -7 4 -15z m5946 -25 l0 -40 -40 0 -40 0 0 40 0 40 40 0 40 0 0 -40z
m-3423 -32 c-3 -13 1 -41 9 -63 13 -40 13 -40 8 -5 -4 24 -3 32 4 25 9 -8 33
-204 27 -213 -6 -8 -54 80 -57 104 -2 20 -8 28 -19 26 -12 -2 -19 8 -23 34 -4
20 -5 39 -2 42 3 3 6 -2 6 -11 0 -9 4 -17 10 -17 6 0 8 20 5 47 -2 27 -1 42 4
35 7 -11 9 -11 14 2 9 24 20 19 14 -6z m753 -8 c0 -5 -7 -10 -15 -10 -8 0 -15
5 -15 10 0 6 7 10 15 10 8 0 15 -4 15 -10z m457 -32 c-3 -7 -5 -2 -5 12 0 14
2 19 5 13 2 -7 2 -19 0 -25z m-380 -10 c18 -13 33 -26 33 -30 0 -5 -21 -7 -47
-7 -27 1 -38 4 -25 6 27 5 29 23 2 30 -22 6 -28 23 -8 23 6 0 27 -10 45 -22z
m300 0 c-3 -8 -6 -5 -6 6 -1 11 2 17 5 13 3 -3 4 -12 1 -19z m142 -80 c0 -38
-1 -40 -10 -19 -8 22 -4 61 7 61 2 0 4 -19 3 -42z m-385 24 c2 -4 -3 -13 -12
-19 -19 -11 -62 0 -62 17 0 12 66 14 74 2z m-904 -60 c0 -10 7 -27 15 -38 8
-10 15 -25 15 -32 0 -19 -25 7 -32 33 -3 11 -9 28 -13 38 -4 10 -3 17 4 17 6
0 11 -8 11 -18z m-2553 -39 c-3 -10 -5 -4 -5 12 0 17 2 24 5 18 2 -7 2 -21 0
-30z m3840 -35 c-3 -7 -5 -2 -5 12 0 14 2 19 5 13 2 -7 2 -19 0 -25z m-3843
-23 c-4 -8 -8 -15 -10 -15 -2 0 -4 7 -4 15 0 8 4 15 10 15 5 0 7 -7 4 -15z
m-66 -42 c9 -27 8 -33 -4 -33 -10 0 -14 11 -14 37 0 42 3 41 18 -4z m352 -123
c0 -26 -6 -62 -14 -80 l-13 -32 -7 27 c-4 15 -4 63 0 107 6 74 7 77 20 52 8
-14 14 -48 14 -74z m3620 49 c0 -11 -4 -17 -10 -14 -5 3 -10 13 -10 21 0 8 5
14 10 14 6 0 10 -9 10 -21z m-4003 -35 c-3 -3 -12 -4 -19 -1 -8 3 -5 6 6 6 11
1 17 -2 13 -5z m-2307 -114 c0 -29 -4 -40 -15 -40 -11 0 -15 11 -15 40 0 29 4
40 15 40 11 0 15 -11 15 -40z m6388 28 c7 -7 12 -16 12 -20 0 -15 -15 -8 -28
12 -13 22 -3 27 16 8z m-1455 -146 c-1 -54 1 -61 13 -51 11 9 14 8 14 -4 0 -8
-4 -17 -10 -19 -5 -1 -7 -14 -3 -27 6 -23 7 -24 15 -5 6 13 7 8 3 -16 -5 -34
-35 -78 -35 -52 0 7 -11 12 -24 12 -14 0 -28 5 -32 12 -11 18 -8 110 6 168 10
44 15 51 34 48 19 -3 21 -9 19 -66z m61 -52 l9 35 6 -35 c7 -37 -6 -110 -19
-110 -4 0 -8 10 -8 23 0 12 -2 47 -5 77 -3 35 -2 41 2 15 l6 -40 9 35z m195
-37 c1 -7 -3 -13 -9 -13 -5 0 -10 15 -9 33 0 27 2 29 9 12 5 -11 9 -26 9 -32z
m-134 -29 c-18 -35 -20 -23 -2 24 6 19 13 28 15 20 1 -8 -4 -27 -13 -44z m171
31 c4 -9 14 -14 23 -13 25 5 26 -47 1 -82 -31 -44 -54 -40 -47 8 3 20 3 31 0
25 -7 -19 -23 -15 -23 5 0 11 9 27 20 37 16 14 17 20 8 27 -11 6 -11 8 0 8 7
0 15 -7 18 -15z m750 -11 c13 -14 24 -29 24 -35 0 -5 4 -9 9 -9 5 0 11 -9 14
-20 6 -25 24 -26 29 -2 2 9 4 -11 4 -46 1 -51 -2 -62 -14 -57 -8 3 -21 0 -28
-6 -11 -9 -14 -7 -14 10 0 14 -6 21 -20 21 -19 0 -19 1 -2 20 l17 21 9 -21 c5
-11 13 -20 18 -20 12 0 10 18 -3 25 -12 8 -80 145 -72 145 3 0 16 -11 29 -26z
m351 6 c3 -10 2 -11 -4 -4 -4 6 -15 14 -23 17 -11 5 -9 6 4 4 11 -1 21 -9 23
-17z m-1168 -47 c1 -7 -3 -13 -8 -13 -14 0 -22 31 -14 54 6 20 7 20 14 -4 4
-14 7 -31 8 -37z m1221 47 c0 -5 -4 -10 -10 -10 -5 0 -10 5 -10 10 0 6 5 10
10 10 6 0 10 -4 10 -10z m-520 -52 c0 -44 -18 -42 -22 3 -2 22 -2 42 1 45 8 8
21 -20 21 -48z m374 26 c4 -9 4 -19 2 -21 -8 -8 -26 8 -26 23 0 19 16 18 24
-2z m76 -10 c0 -8 -4 -12 -10 -9 -5 3 -10 13 -10 21 0 8 5 12 10 9 6 -3 10
-13 10 -21z m117 -16 c-3 -8 -6 -5 -6 6 -1 11 2 17 5 13 3 -3 4 -12 1 -19z
m-1079 -25 c4 -24 -24 -51 -39 -36 -7 7 -6 19 2 37 14 30 32 30 37 -1z m922
17 c0 -5 -5 -10 -11 -10 -5 0 -7 5 -4 10 3 6 8 10 11 10 2 0 4 -4 4 -10z m75
-8 c14 -9 17 -52 4 -52 -9 0 -13 15 -10 34 1 5 -4 13 -11 17 -7 5 -8 9 -3 9 6
0 15 -4 20 -8z m65 -13 c0 -5 -4 -9 -10 -9 -5 0 -10 7 -10 16 0 8 5 12 10 9 6
-3 10 -10 10 -16z m-4093 -11 c-3 -8 -6 -5 -6 6 -1 11 2 17 5 13 3 -3 4 -12 1
-19z m4136 -10 c3 -13 9 -33 12 -45 4 -13 3 -23 -2 -23 -12 0 -33 45 -33 70 0
27 16 25 23 -2z m-233 -28 c0 -6 -9 -10 -20 -10 -13 0 -20 7 -20 20 0 18 3 19
20 10 11 -6 20 -15 20 -20z m-1274 -47 c-11 -11 -19 6 -11 24 8 17 8 17 12 0
3 -10 2 -21 -1 -24z m1351 -15 c-2 -13 -4 -5 -4 17 -1 22 1 32 4 23 2 -10 2
-28 0 -40z m-6457 -8 l0 -50 -40 0 c-22 0 -40 5 -40 10 0 6 11 10 25 10 23 0
25 4 25 40 0 29 4 40 15 40 11 0 15 -12 15 -50z m6122 -5 c6 -14 17 -25 25
-25 7 0 13 -5 13 -12 0 -6 7 -20 17 -30 22 -24 16 -28 -34 -21 -30 4 -44 11
-48 24 -4 11 -11 16 -17 13 -6 -4 -6 1 1 14 6 11 11 30 11 41 0 29 18 26 32
-4z m-1032 -21 c0 -8 -4 -12 -10 -9 -5 3 -10 13 -10 21 0 8 5 12 10 9 6 -3 10
-13 10 -21z m396 4 l32 -11 -21 -17 c-52 -40 -104 -30 -86 18 9 25 28 27 75
10z m-846 -34 c0 -8 -5 -12 -10 -9 -6 4 -8 11 -5 16 9 14 15 11 15 -7z m99
-20 c-6 -8 -15 -14 -20 -14 -14 0 -11 28 4 33 20 7 29 -4 16 -19z m381 -55 c0
-36 -4 -49 -12 -46 -7 2 -12 10 -10 16 1 7 -2 20 -8 31 -12 22 -3 50 16 50 10
0 14 -14 14 -51z m-5120 -19 c0 -29 -4 -40 -15 -40 -11 0 -15 11 -15 40 0 29
4 40 15 40 11 0 15 -11 15 -40z m6074 -37 c3 -8 -3 -13 -14 -13 -11 0 -20 6
-20 14 0 8 -7 17 -16 20 -8 3 -12 10 -9 16 7 11 51 -17 59 -37z m-2538 24 c4
-4 2 -7 -4 -7 -7 0 -11 -5 -9 -11 2 -11 -49 -29 -127 -43 -31 -6 -36 -4 -36
12 0 23 19 40 57 52 31 10 109 8 119 -3z m1164 3 c0 -5 -10 -10 -22 -9 -22 0
-22 1 -3 9 11 5 21 9 23 9 1 1 2 -3 2 -9z m500 -46 c0 -2 -9 -4 -21 -4 -11 0
-18 4 -14 10 5 8 35 3 35 -6z m620 -199 c-3 -21 -7 -6 -13 47 -5 43 -6 90 -1
105 7 23 9 14 14 -47 3 -41 3 -88 0 -105z m-2185 125 c3 -5 -1 -10 -9 -10 -9
0 -16 5 -16 10 0 6 4 10 9 10 6 0 13 -4 16 -10z m72 -12 c-3 -8 -6 -5 -6 6 -1
11 2 17 5 13 3 -3 4 -12 1 -19z m-140 -80 c23 -25 10 -32 -33 -18 -26 9 -33
15 -23 21 10 6 10 9 2 9 -8 0 -10 7 -6 18 11 28 27 33 36 9 4 -12 15 -30 24
-39z m273 42 c0 -5 -5 -10 -11 -10 -5 0 -7 5 -4 10 3 6 8 10 11 10 2 0 4 -4 4
-10z m2060 -11 c0 -5 -4 -9 -10 -9 -5 0 -10 7 -10 16 0 8 5 12 10 9 6 -3 10
-10 10 -16z m-1980 -59 c0 -5 -8 -10 -17 -10 -15 0 -16 2 -3 10 19 12 20 12
20 0z m2013 -10 c3 -11 1 -18 -4 -14 -5 3 -9 12 -9 20 0 20 7 17 13 -6z
m-2256 4 c-3 -3 -12 -4 -19 -1 -8 3 -5 6 6 6 11 1 17 -2 13 -5z m-54 -71 c4
-3 -1 -12 -10 -18 -13 -10 -23 -10 -42 -1 l-25 11 30 6 c16 4 32 7 35 8 3 0 9
-2 12 -6z m57 -103 c0 -5 -2 -10 -4 -10 -3 0 -8 5 -11 10 -3 6 -1 10 4 10 6 0
11 -4 11 -10z m2547 -85 c15 -14 19 -25 13 -35 -7 -11 -16 -6 -44 24 -20 20
-36 42 -36 47 0 5 -6 9 -12 9 -9 0 -8 3 1 9 11 7 21 3 35 -12 12 -12 31 -31
43 -42z m-2870 -67 c-2 -13 -4 -3 -4 22 0 25 2 35 4 23 2 -13 2 -33 0 -45z
m2914 -5 c13 -17 13 -17 -6 -3 -11 8 -22 16 -24 17 -2 2 0 3 6 3 6 0 17 -8 24
-17z m-2994 -25 c-3 -8 -6 -5 -6 6 -1 11 2 17 5 13 3 -3 4 -12 1 -19z m2789
-25 c13 -17 13 -17 14 1 0 32 14 8 14 -26 1 -26 5 -31 29 -34 22 -2 27 1 23
12 -3 8 -2 22 1 31 5 12 11 3 19 -32 7 -27 10 -54 6 -59 -3 -6 -5 -24 -4 -41
1 -25 0 -27 -7 -10 -9 19 -10 19 -10 -2 -1 -28 -9 -29 -27 -5 -12 15 -13 12
-14 -23 0 -23 5 -46 11 -52 9 -9 8 -16 -4 -27 -23 -23 -29 -20 -57 26 -14 22
-33 53 -42 69 -9 15 -21 42 -26 61 -5 18 -13 42 -18 52 -6 15 -4 18 8 14 12
-5 14 3 14 37 -1 42 -1 42 28 34 15 -5 34 -16 42 -26z m173 -39 c-10 -12 -9
-13 5 -8 9 3 16 2 16 -4 0 -6 -5 -12 -12 -14 -17 -6 -15 -87 3 -99 12 -8 12
-10 0 -18 -7 -5 -10 -14 -7 -20 4 -6 3 -11 -3 -11 -24 0 -36 190 -12 198 6 2
12 11 12 20 1 10 4 7 6 -6 3 -13 -1 -30 -8 -38z m78 19 l-5 -28 18 23 c10 12
21 18 24 13 4 -5 2 -12 -4 -16 -5 -3 -10 -26 -10 -50 0 -24 -4 -47 -10 -50
-16 -10 -12 -38 5 -31 19 7 21 -37 2 -53 -22 -18 -38 25 -41 114 -4 84 0 105
16 105 6 0 8 -12 5 -27z m-3040 -65 c-2 -13 -4 -5 -4 17 -1 22 1 32 4 23 2
-10 2 -28 0 -40z m3112 30 c-9 -16 -14 -19 -17 -9 -2 7 2 17 9 22 20 13 21 11
8 -13z m6 -48 c3 -11 3 -25 -1 -31 -3 -6 -1 -14 5 -18 12 -8 5 -41 -8 -41 -10
0 -27 71 -23 93 5 23 19 22 27 -3z m-3778 -42 c-3 -8 -6 -5 -6 6 -1 11 2 17 5
13 3 -3 4 -12 1 -19z m1316 -42 c-3 -4 -9 -2 -14 5 -13 22 -11 31 5 17 8 -7
12 -17 9 -22z m-1353 -43 c0 -7 -7 -13 -15 -13 -7 0 -19 -8 -24 -17 -9 -15
-12 -16 -20 -4 -10 16 3 61 22 73 12 7 36 -19 37 -39z m1305 -123 c3 -5 1 -10
-4 -10 -6 0 -11 5 -11 10 0 6 2 10 4 10 3 0 8 -4 11 -10z m2065 -185 c0 -8 -5
-24 -12 -34 -9 -15 -8 -22 7 -37 17 -17 17 -17 11 4 -4 12 -3 22 2 22 5 0 12
-10 15 -22 2 -13 8 -32 12 -42 6 -13 5 -17 -2 -13 -17 11 -22 -16 -6 -34 13
-15 36 -79 28 -79 -6 0 -41 65 -64 119 -17 40 -21 63 -16 92 6 37 25 55 25 24z
m-151 -185 c6 -41 14 -85 17 -97 2 -13 0 -23 -6 -23 -5 0 -10 14 -10 32 0 20
-4 28 -9 23 -9 -10 0 -113 15 -179 4 -18 3 -27 -3 -23 -31 19 -60 363 -36 430
6 17 9 10 14 -33 3 -30 11 -89 18 -130z m1080 116 c50 -42 80 -53 92 -35 13
19 59 -33 59 -67 0 -32 -14 -30 -61 7 -21 17 -43 28 -48 25 -5 -4 -20 4 -34
16 -32 31 -66 58 -73 58 -3 0 -12 7 -20 15 -14 13 -12 15 14 15 20 0 45 -12
71 -34z m-882 -8 c-3 -7 -5 -2 -5 12 0 14 2 19 5 13 2 -7 2 -19 0 -25z m861
-44 c15 -12 24 -25 20 -29 -9 -9 -120 54 -113 65 7 11 59 -9 93 -36z m-1118
-20 c0 -14 -4 -22 -10 -19 -5 3 -10 17 -10 31 0 14 4 22 10 19 6 -3 10 -17 10
-31z m88 -19 c-3 -3 -9 2 -12 12 -6 14 -5 15 5 6 7 -7 10 -15 7 -18z m1010 9
c12 -4 22 -12 22 -19 0 -7 4 -15 9 -17 16 -5 17 -41 1 -45 -13 -4 -13 -3 -1 6
12 8 9 13 -17 28 -18 10 -32 23 -32 30 0 6 -6 14 -12 16 -18 8 3 8 30 1z m209
-36 c-3 -8 -6 -5 -6 6 -1 11 2 17 5 13 3 -3 4 -12 1 -19z m-1288 -118 c0 -23
-1 -23 -9 -5 -5 11 -8 40 -8 65 l0 45 9 -40 c4 -22 8 -51 8 -65z m761 80 c0
-5 -2 -10 -4 -10 -3 0 -8 5 -11 10 -3 6 -1 10 4 10 6 0 11 -4 11 -10z m-642
-83 c8 -20 13 -40 10 -43 -7 -6 -48 100 -47 119 0 12 4 5 37 -76z m529 51 c-3
-7 -5 -2 -5 12 0 14 2 19 5 13 2 -7 2 -19 0 -25z m149 -20 l17 -33 -22 19
c-11 11 -21 25 -21 33 0 21 8 15 26 -19z m348 -15 c3 -10 11 -26 18 -35 21
-28 -1 -34 -28 -7 -16 16 -23 31 -18 42 8 22 20 22 28 0z m-382 -93 c3 0 9 8
11 18 4 14 6 14 12 -5 4 -13 11 -20 16 -17 5 3 9 -10 9 -28 0 -18 11 -54 24
-80 13 -27 20 -48 14 -48 -13 0 -2 -78 14 -97 6 -8 6 -13 1 -13 -12 0 -83 68
-83 79 0 4 -16 25 -35 47 -19 21 -35 42 -35 46 0 3 -7 8 -16 10 -9 2 -22 18
-29 36 -12 28 -12 32 1 32 8 0 14 6 12 14 -2 8 8 24 21 35 l25 22 15 -26 c9
-14 19 -25 23 -25z m138 -20 c4 0 11 -10 15 -22 l7 -23 8 25 c7 21 8 18 9 -20
1 -25 8 -72 16 -105 18 -74 18 -76 1 -69 -16 6 -56 114 -56 151 0 13 -4 23 -9
23 -11 0 -21 52 -13 65 4 5 8 2 10 -7 2 -10 7 -18 12 -18z m256 -6 c13 -14 28
-23 33 -20 10 6 25 -24 16 -32 -3 -3 -5 0 -5 6 0 7 -5 12 -11 12 -6 0 -9 -7
-5 -15 3 -8 3 -15 0 -15 -6 0 -55 56 -67 76 -14 24 14 15 39 -12z m-306 -44
c0 -5 -4 -10 -10 -10 -5 0 -10 5 -10 10 0 6 5 10 10 10 6 0 10 -4 10 -10z
m165 0 c3 -5 1 -10 -4 -10 -6 0 -11 5 -11 10 0 6 2 10 4 10 3 0 8 -4 11 -10z
m-945 -20 c0 -5 -4 -10 -10 -10 -5 0 -10 5 -10 10 0 6 5 10 10 10 6 0 10 -4
10 -10z m1020 -9 c0 -21 -13 -41 -26 -41 -14 0 -19 31 -7 43 10 10 33 8 33 -2z
m-961 -168 c8 -15 11 -9 11 27 1 25 7 59 14 75 l13 30 13 -40 c8 -22 14 -79
15 -127 0 -77 2 -88 23 -106 30 -27 28 -36 -4 -15 -25 16 -27 16 -40 -2 -8
-11 -11 -26 -8 -35 4 -8 10 -31 13 -50 4 -19 13 -34 19 -32 7 1 12 -2 12 -8 0
-5 -3 -10 -7 -10 -16 0 -30 16 -42 48 -8 17 -17 32 -21 32 -4 0 -10 10 -13 21
-4 13 -11 20 -20 16 -11 -4 -13 5 -9 45 4 43 2 53 -16 67 -19 14 -20 21 -12
56 5 22 7 67 4 100 l-5 60 25 -67 c13 -37 29 -75 35 -85z m1089 75 c20 -20 13
-28 -13 -16 -14 6 -25 15 -25 20 0 12 24 10 38 -4z m-3798 -13 c7 -8 19 -15
26 -15 8 0 14 -4 14 -10 0 -5 -9 -10 -20 -10 -29 0 -35 3 -32 18 2 6 -4 12
-13 12 -9 0 -13 5 -10 10 9 14 21 12 35 -5z m3170 -9 c5 -13 15 -26 22 -29 7
-3 9 -6 3 -6 -13 -1 -25 8 -49 37 -17 20 -17 22 -2 22 9 0 21 -11 26 -24z
m-3229 -29 c-10 -9 -11 -8 -5 6 3 10 9 15 12 12 3 -3 0 -11 -7 -18z m3279 -27
c0 -5 -2 -10 -4 -10 -3 0 -8 5 -11 10 -3 6 -1 10 4 10 6 0 11 -4 11 -10z m501
-20 c5 0 9 -8 9 -17 -1 -16 -2 -16 -15 1 -8 11 -14 27 -14 35 1 13 2 12 6 -1
2 -10 9 -18 14 -18z m-3791 10 c0 -5 -4 -10 -10 -10 -5 0 -10 5 -10 10 0 6 5
10 10 10 6 0 10 -4 10 -10z m3935 -38 c-7 -8 -35 7 -35 18 0 6 7 6 20 -2 10
-7 17 -14 15 -16z m37 -30 c4 10 8 11 20 1 8 -7 17 -11 20 -8 3 3 11 -1 18
-10 7 -9 9 -19 5 -23 -4 -4 -10 -1 -12 6 -3 6 -9 10 -14 6 -5 -3 -9 0 -9 6 0
6 -8 10 -17 9 -38 -3 -53 2 -53 18 0 15 2 15 19 -1 15 -13 20 -14 23 -4z
m-1015 -14 c-3 -8 -6 -5 -6 6 -1 11 2 17 5 13 3 -3 4 -12 1 -19z m233 -19 c0
-6 -4 -7 -10 -4 -5 3 -10 11 -10 16 0 6 5 7 10 4 6 -3 10 -11 10 -16z m775
-19 c7 0 15 -7 19 -15 4 -11 -2 -15 -26 -15 -17 0 -28 3 -25 7 4 3 1 13 -6 21
-10 13 -9 15 6 9 10 -4 25 -7 32 -7z m-1057 -75 c-3 -3 -9 2 -12 12 -6 14 -5
15 5 6 7 -7 10 -15 7 -18z m-2970 -15 c-15 -24 -22 -19 -13 9 3 12 11 19 16
16 5 -4 3 -14 -3 -25z m3867 -10 c3 -5 -3 -10 -14 -10 -12 0 -21 -4 -21 -10 0
-14 26 -13 68 2 33 12 35 12 73 -32 21 -24 39 -47 39 -51 0 -8 -72 7 -98 20
-35 17 -82 29 -82 20 0 -5 3 -9 8 -9 4 0 26 -19 50 -41 43 -41 54 -69 27 -69
-8 0 -15 9 -15 20 0 13 -7 20 -18 20 -10 0 -37 18 -59 41 -32 31 -40 45 -33
58 5 9 11 24 14 34 6 18 51 24 61 7z m-822 -69 c28 -48 12 -37 -24 17 -18 26
-24 39 -13 30 10 -9 27 -30 37 -47z m524 3 c-3 -3 -12 -4 -19 -1 -8 3 -5 6 6
6 11 1 17 -2 13 -5z m-3597 -44 c0 -5 -4 -10 -10 -10 -5 0 -10 5 -10 10 0 6 5
10 10 10 6 0 10 -4 10 -10z m3118 -20 c7 -11 11 -20 9 -20 -2 0 -12 9 -22 20
-10 11 -14 20 -9 20 5 0 15 -9 22 -20z m535 -7 c-7 -2 -19 -2 -25 0 -7 3 -2 5
12 5 14 0 19 -2 13 -5z m-73 -133 c0 -5 -4 -10 -10 -10 -5 0 -10 5 -10 10 0 6
5 10 10 10 6 0 10 -4 10 -10z m-3466 -37 c-17 -17 -18 -17 -11 0 4 10 7 24 7
30 0 8 3 8 11 0 9 -9 7 -16 -7 -30z m3519 8 c31 -12 57 -38 57 -57 0 -16 -13
-9 -80 45 -27 22 -17 27 23 12z m-3613 -11 c0 -5 -2 -10 -4 -10 -3 0 -8 5 -11
10 -3 6 -1 10 4 10 6 0 11 -4 11 -10z m3985 -30 c3 -5 -1 -10 -9 -10 -9 0 -16
5 -16 10 0 6 4 10 9 10 6 0 13 -4 16 -10z m-3940 -26 c0 -27 -63 -104 -79 -98
-13 5 -14 93 -1 114 4 6 23 10 43 8 30 -2 37 -7 37 -24z m3175 -6 c19 -20 27
-35 21 -41 -9 -9 -25 3 -65 51 -31 37 8 28 44 -10z m-2060 -35 c0 -38 -43
-163 -56 -163 -8 0 -14 4 -14 9 0 5 -11 12 -25 15 -14 4 -25 11 -25 16 0 6 -9
10 -21 10 -11 0 -18 4 -15 9 3 4 17 6 31 3 24 -4 36 13 14 20 -12 4 84 98 101
98 5 0 10 -8 10 -17z m-240 -40 c0 -6 9 -15 20 -18 25 -8 42 -38 34 -59 -9
-23 -13 -21 -52 25 -41 47 -54 97 -21 76 10 -6 19 -17 19 -24z m-610 18 c0 -6
-4 -13 -10 -16 -5 -3 -10 1 -10 9 0 9 5 16 10 16 6 0 10 -4 10 -9z m3570 -111
c0 -5 -2 -10 -4 -10 -3 0 -8 5 -11 10 -3 6 -1 10 4 10 6 0 11 -4 11 -10z m132
-7 c-5 -10 -7 -25 -5 -33 4 -12 3 -12 -5 -1 -11 15 -4 51 10 51 5 0 5 -7 0
-17z m-2565 -15 c-3 -8 -6 -5 -6 6 -1 11 2 17 5 13 3 -3 4 -12 1 -19z m2603 3
c0 -11 -4 -23 -10 -26 -6 -4 -9 5 -8 19 3 30 18 35 18 7z m-3005 -1 c3 -5 -1
-10 -10 -10 -9 0 -13 5 -10 10 3 6 8 10 10 10 2 0 7 -4 10 -10z m2842 -36 c-3
-3 -12 -4 -19 -1 -8 3 -5 6 6 6 11 1 17 -2 13 -5z m-750 -36 c-3 -7 -5 -2 -5
12 0 14 2 19 5 13 2 -7 2 -19 0 -25z m873 12 c0 -5 -4 -10 -9 -10 -6 0 -13 5
-16 10 -3 6 1 10 9 10 9 0 16 -4 16 -10z m-75 -18 c-3 -3 -11 0 -18 7 -9 10
-8 11 6 5 10 -3 15 -9 12 -12z m-3391 -109 c0 -16 -2 -35 -2 -45 -2 -18 -50
-38 -95 -38 l-29 0 31 29 c18 17 41 33 52 36 10 4 19 15 19 26 0 10 6 19 13
19 7 0 12 -11 11 -27z m-454 -39 c0 -8 -5 -12 -10 -9 -6 4 -8 11 -5 16 9 14
15 11 15 -7z m-116 -11 c4 -10 1 -20 -7 -24 -9 -6 -11 -23 -7 -66 3 -32 4 -66
2 -76 -5 -23 -22 -22 -22 1 0 10 -5 23 -11 29 -7 7 -9 22 -4 40 5 15 7 34 6
42 -3 17 19 71 29 71 4 0 11 -8 14 -17z m273 -5 c-3 -8 -6 -5 -6 6 -1 11 2 17
5 13 3 -3 4 -12 1 -19z m3293 -9 c0 -5 -4 -9 -10 -9 -5 0 -10 7 -10 16 0 8 5
12 10 9 6 -3 10 -10 10 -16z m-603 -41 c-3 -7 -5 -2 -5 12 0 14 2 19 5 13 2
-7 2 -19 0 -25z m192 -60 c12 -21 18 -38 12 -38 -15 0 -72 90 -65 102 6 10 14
0 53 -64z m6 62 c3 -5 1 -10 -4 -10 -6 0 -11 5 -11 10 0 6 2 10 4 10 3 0 8 -4
11 -10z m427 -38 c-3 -17 -10 -22 -32 -20 -16 1 -27 5 -24 9 2 4 0 10 -6 14
-18 11 -3 20 32 20 30 0 34 -3 30 -23z m-3522 -10 c0 -5 -11 -18 -25 -30 -26
-23 -32 -15 -15 19 11 19 40 27 40 11z m280 -2 c0 -5 -2 -10 -4 -10 -3 0 -8 5
-11 10 -3 6 -1 10 4 10 6 0 11 -4 11 -10z m2990 -45 c-7 -13 -10 -31 -7 -39 4
-9 2 -16 -2 -16 -5 0 -14 13 -19 29 -8 23 -7 32 3 41 10 8 14 7 18 -2 3 -7 6
-2 7 12 1 14 4 19 7 12 3 -8 0 -24 -7 -37z m-3205 12 c11 -11 10 -16 -6 -25
-16 -10 -19 -9 -19 4 0 10 -9 5 -26 -15 -25 -30 -44 -33 -44 -8 0 12 58 57 73
57 5 0 14 -6 22 -13z m1982 -29 c-3 -8 -6 -5 -6 6 -1 11 2 17 5 13 3 -3 4 -12
1 -19z m1243 -128 c0 -5 -5 -10 -11 -10 -5 0 -7 5 -4 10 3 6 8 10 11 10 2 0 4
-4 4 -10z"/>
<path d="M5311 10774 c0 -11 3 -14 6 -6 3 7 2 16 -1 19 -3 4 -6 -2 -5 -13z"/>
<path d="M5235 10171 c-5 -16 -2 -28 9 -39 23 -23 28 -10 12 28 -13 32 -14 32
-21 11z"/>
<path d="M6730 8130 c0 -5 7 -10 16 -10 8 0 12 5 9 10 -3 6 -10 10 -16 10 -5
0 -9 -4 -9 -10z"/>
<path d="M1520 11230 c0 -5 18 -10 40 -10 22 0 40 5 40 10 0 6 -18 10 -40 10
-22 0 -40 -4 -40 -10z"/>
<path d="M6560 11230 c0 -5 18 -10 40 -10 22 0 40 5 40 10 0 6 -18 10 -40 10
-22 0 -40 -4 -40 -10z"/>
<path d="M6546 11094 c-3 -7 -3 -14 -1 -16 7 -7 95 4 95 12 0 13 -89 17 -94 4z"/>
<path d="M2080 11070 c0 -6 33 -10 80 -10 47 0 80 4 80 10 0 6 -33 10 -80 10
-47 0 -80 -4 -80 -10z"/>
<path d="M6520 11015 c0 -8 7 -15 16 -15 14 0 14 3 4 15 -7 8 -14 15 -16 15
-2 0 -4 -7 -4 -15z"/>
<path d="M2483 10880 c0 -25 2 -35 4 -22 2 12 2 32 0 45 -2 12 -4 2 -4 -23z"/>
<path d="M2553 10880 c0 -25 2 -35 4 -22 2 12 2 32 0 45 -2 12 -4 2 -4 -23z"/>
<path d="M6610 10766 c0 -25 5 -46 10 -46 6 0 10 18 10 39 0 22 -4 43 -10 46
-6 4 -10 -12 -10 -39z"/>
<path d="M2480 10750 c0 -5 20 -10 45 -10 25 0 45 5 45 10 0 6 -20 10 -45 10
-25 0 -45 -4 -45 -10z"/>
<path d="M4755 10599 c-4 -6 -5 -12 -2 -15 2 -3 7 2 10 11 7 17 1 20 -8 4z"/>
<path d="M6670 10585 c0 -8 5 -15 10 -15 6 0 10 7 10 15 0 8 -4 15 -10 15 -5
0 -10 -7 -10 -15z"/>
<path d="M2510 10550 c0 -16 5 -30 10 -30 6 0 10 14 10 30 0 17 -4 30 -10 30
-5 0 -10 -13 -10 -30z"/>
<path d="M6711 10534 c0 -11 3 -14 6 -6 3 7 2 16 -1 19 -3 4 -6 -2 -5 -13z"/>
<path d="M4720 10494 c0 -8 5 -12 10 -9 6 3 10 10 10 16 0 5 -4 9 -10 9 -5 0
-10 -7 -10 -16z"/>
<path d="M4727 10429 c3 -10 9 -16 14 -13 13 8 11 21 -5 27 -10 4 -12 0 -9
-14z"/>
<path d="M2551 10083 c-1 -24 4 -43 9 -43 12 0 12 24 0 60 -7 21 -8 19 -9 -17z"/>
<path d="M6711 9944 c0 -11 3 -14 6 -6 3 7 2 16 -1 19 -3 4 -6 -2 -5 -13z"/>
<path d="M5434 9866 c-3 -14 -4 -32 -2 -42 2 -10 8 1 14 24 6 23 7 42 3 42 -5
0 -11 -11 -15 -24z"/>
<path d="M2480 9780 c0 -11 2 -20 4 -20 2 0 6 9 9 20 3 11 1 20 -4 20 -5 0 -9
-9 -9 -20z"/>
<path d="M160 9560 l0 -60 40 0 40 0 0 60 0 60 -40 0 -40 0 0 -60z"/>
<path d="M6725 9500 c-3 -5 3 -10 14 -10 12 0 21 5 21 10 0 6 -6 10 -14 10 -8
0 -18 -4 -21 -10z"/>
<path d="M320 9160 c0 -100 4 -160 10 -160 6 0 10 60 10 160 0 100 -4 160 -10
160 -6 0 -10 -60 -10 -160z"/>
<path d="M6707 9274 c-8 -13 20 -41 30 -30 3 3 1 6 -5 6 -6 0 -12 8 -14 18 -2
11 -6 13 -11 6z"/>
<path d="M2580 9255 c0 -8 4 -15 10 -15 5 0 7 7 4 15 -4 8 -8 15 -10 15 -2 0
-4 -7 -4 -15z"/>
<path d="M2667 9134 c-11 -14 -17 -27 -14 -30 9 -9 35 8 45 32 16 33 -7 32
-31 -2z"/>
<path d="M4543 9083 c-15 -5 -18 -33 -4 -33 5 0 28 9 52 20 l44 20 -40 -1
c-22 0 -46 -3 -52 -6z"/>
<path d="M2631 9066 c-7 -8 -8 -17 -3 -19 4 -3 13 3 20 14 14 22 0 26 -17 5z"/>
<path d="M3511 9064 c0 -11 3 -14 6 -6 3 7 2 16 -1 19 -3 4 -6 -2 -5 -13z"/>
<path d="M6740 9070 c0 -5 9 -10 20 -10 11 0 20 5 20 10 0 6 -9 10 -20 10 -11
0 -20 -4 -20 -10z"/>
<path d="M2615 8999 c4 -6 -1 -16 -11 -23 -23 -18 -10 -40 17 -26 23 13 26 60
3 60 -8 0 -12 -5 -9 -11z"/>
<path d="M6970 8969 c0 -5 5 -7 10 -4 6 3 10 8 10 11 0 2 -4 4 -10 4 -5 0 -10
-5 -10 -11z"/>
<path d="M7015 8970 c3 -5 8 -10 11 -10 2 0 4 5 4 10 0 6 -5 10 -11 10 -5 0
-7 -4 -4 -10z"/>
<path d="M5100 8941 c-14 -4 -40 -11 -59 -16 -33 -8 -33 -9 -27 -51 5 -38 3
-45 -22 -63 -21 -15 -24 -22 -15 -32 10 -10 14 -9 19 4 3 9 10 14 15 11 5 -3
12 2 15 10 3 9 12 16 18 16 7 0 35 24 63 54 37 39 48 57 40 65 -6 6 -13 10
-16 10 -4 -1 -17 -5 -31 -8z"/>
<path d="M2560 8925 c0 -8 -6 -15 -14 -15 -7 0 -25 -11 -39 -24 -38 -36 -5
-45 36 -10 30 26 47 64 27 64 -6 0 -10 -7 -10 -15z"/>
<path d="M7010 8931 c0 -5 7 -14 15 -21 16 -14 18 -10 9 14 -6 17 -24 22 -24
7z"/>
<path d="M4248 8923 c7 -3 16 -2 19 1 4 3 -2 6 -13 5 -11 0 -14 -3 -6 -6z"/>
<path d="M4423 8923 c15 -2 27 -9 27 -14 0 -11 37 -12 44 0 5 8 -54 22 -84 19
-8 0 -3 -3 13 -5z"/>
<path d="M2615 8870 c-3 -5 1 -10 9 -10 9 0 16 5 16 10 0 6 -4 10 -9 10 -6 0
-13 -4 -16 -10z"/>
<path d="M7055 8860 c4 -6 11 -8 16 -5 14 9 11 15 -7 15 -8 0 -12 -5 -9 -10z"/>
<path d="M2590 8796 c0 -25 5 -48 10 -51 6 -4 10 13 10 44 0 28 -4 51 -10 51
-5 0 -10 -20 -10 -44z"/>
<path d="M3555 8830 c3 -5 8 -10 11 -10 2 0 4 5 4 10 0 6 -5 10 -11 10 -5 0
-7 -4 -4 -10z"/>
<path d="M4900 8734 c0 -29 11 -31 27 -5 10 16 9 20 -8 24 -15 4 -19 0 -19
-19z"/>
<path d="M7048 8703 c7 -3 16 -2 19 1 4 3 -2 6 -13 5 -11 0 -14 -3 -6 -6z"/>
<path d="M7090 8690 c8 -5 20 -10 25 -10 6 0 3 5 -5 10 -8 5 -19 10 -25 10 -5
0 -3 -5 5 -10z"/>
<path d="M3131 8364 c0 -11 3 -14 6 -6 3 7 2 16 -1 19 -3 4 -6 -2 -5 -13z"/>
<path d="M160 8240 l0 -40 40 0 40 0 0 40 0 40 -40 0 -40 0 0 -40z"/>
<path d="M0 7800 l0 -400 40 0 40 0 0 160 0 160 40 0 40 0 0 40 c0 38 -2 40
-30 40 l-30 0 0 80 c0 79 0 80 -25 80 l-25 0 0 120 0 120 -25 0 -25 0 0 -400z"/>
<path d="M4632 7620 c0 -14 2 -19 5 -12 2 6 2 18 0 25 -3 6 -5 1 -5 -13z"/>
<path d="M7210 7546 c0 -8 5 -18 10 -21 6 -3 10 3 10 14 0 12 -4 21 -10 21 -5
0 -10 -6 -10 -14z"/>
<path d="M7370 7353 c0 -4 5 -15 10 -23 8 -13 10 -13 10 2 0 9 -4 20 -10 23
-5 3 -10 3 -10 -2z"/>
<path d="M5230 7330 c0 -5 5 -10 10 -10 6 0 10 5 10 10 0 6 -4 10 -10 10 -5 0
-10 -4 -10 -10z"/>
<path d="M0 7280 c0 -22 5 -40 10 -40 6 0 10 18 10 40 0 22 -4 40 -10 40 -5 0
-10 -18 -10 -40z"/>
<path d="M5467 7210 c-16 -45 -27 -115 -25 -162 1 -45 2 -47 5 -13 2 22 11 68
19 101 9 34 14 68 11 75 -4 11 -6 11 -10 -1z"/>
<path d="M5497 7170 c-3 -11 -1 -23 4 -26 5 -3 9 6 9 20 0 31 -6 34 -13 6z"/>
<path d="M0 7040 l0 -120 50 0 50 0 0 40 c0 29 4 40 15 40 11 0 15 11 15 40 0
29 4 40 15 40 11 0 15 11 15 40 l0 40 -80 0 -80 0 0 -120z"/>
<path d="M263 6964 c6 -110 10 -134 22 -123 9 10 -8 239 -18 239 -7 0 -8 -41
-4 -116z"/>
<path d="M5307 6740 c3 -11 7 -20 9 -20 2 0 4 9 4 20 0 11 -4 20 -9 20 -5 0
-7 -9 -4 -20z"/>
<path d="M5490 6704 c0 -10 5 -26 10 -34 8 -11 9 -7 4 15 -8 37 -14 45 -14 19z"/>
<path d="M6721 6687 c-8 -11 -6 -13 11 -12 12 1 24 7 26 13 5 16 -23 15 -37
-1z"/>
<path d="M5271 6644 c0 -11 3 -14 6 -6 3 7 2 16 -1 19 -3 4 -6 -2 -5 -13z"/>
<path d="M5290 6614 c0 -22 73 -69 120 -78 l35 -7 -40 20 c-22 11 -36 20 -31
21 19 0 -18 30 -38 30 -12 0 -27 5 -34 12 -7 7 -12 8 -12 2z"/>
<path d="M5510 6610 c0 -5 5 -10 11 -10 5 0 7 5 4 10 -3 6 -8 10 -11 10 -2 0
-4 -4 -4 -10z"/>
<path d="M5795 6590 c3 -5 10 -10 16 -10 5 0 9 5 9 10 0 6 -7 10 -16 10 -8 0
-12 -4 -9 -10z"/>
<path d="M5671 6574 c0 -11 3 -14 6 -6 3 7 2 16 -1 19 -3 4 -6 -2 -5 -13z"/>
<path d="M5540 6566 c0 -8 5 -18 10 -21 6 -3 10 3 10 14 0 12 -4 21 -10 21 -5
0 -10 -6 -10 -14z"/>
<path d="M5670 6525 c1 -26 2 -28 11 -12 8 14 8 22 0 30 -8 8 -11 3 -11 -18z"/>
<path d="M5682 6465 c0 -16 2 -22 5 -12 2 9 2 23 0 30 -3 6 -5 -1 -5 -18z"/>
<path d="M6248 6393 c7 -3 16 -2 19 1 4 3 -2 6 -13 5 -11 0 -14 -3 -6 -6z"/>
<path d="M0 6080 l0 -40 40 0 40 0 0 40 0 40 -40 0 -40 0 0 -40z"/>
<path d="M320 5840 c0 -22 5 -40 10 -40 6 0 10 18 10 40 0 22 -4 40 -10 40 -5
0 -10 -18 -10 -40z"/>
<path d="M0 5520 l0 -280 40 0 40 0 0 40 c0 29 -4 40 -15 40 -13 0 -15 24 -15
160 0 136 2 160 15 160 11 0 15 11 15 40 0 29 -4 40 -15 40 -11 0 -15 11 -15
40 0 36 -2 40 -25 40 l-25 0 0 -280z"/>
<path d="M8301 5494 c0 -11 3 -14 6 -6 3 7 2 16 -1 19 -3 4 -6 -2 -5 -13z"/>
<path d="M240 5440 c0 -22 5 -40 10 -40 6 0 10 18 10 40 0 22 -4 40 -10 40 -5
0 -10 -18 -10 -40z"/>
<path d="M190 4880 c0 -22 5 -40 10 -40 6 0 10 18 10 40 0 22 -4 40 -10 40 -5
0 -10 -18 -10 -40z"/>
<path d="M8960 4400 l0 -40 -40 0 -40 0 0 -40 c0 -37 2 -40 29 -40 16 0 43 3
60 6 l31 7 0 73 c0 67 -2 74 -20 74 -17 0 -20 -7 -20 -40z"/>
<path d="M2020 4291 c0 -7 -4 -9 -10 -6 -5 3 -7 0 -4 -9 3 -8 -5 -36 -17 -63
-19 -39 -23 -66 -23 -149 l-1 -101 28 51 c15 28 33 56 40 61 10 7 12 36 8 112
-4 56 -9 105 -13 109 -5 4 -8 2 -8 -5z"/>
<path d="M8880 4235 c0 -34 -1 -35 -40 -35 l-40 0 0 -80 0 -80 -34 0 -33 0 -7
-61 c-3 -34 -6 -88 -6 -120 l0 -59 -40 0 -40 0 0 -120 0 -120 -40 0 -40 0 0
-80 0 -80 -40 0 -40 0 0 -199 0 -200 43 -4 42 -4 -42 -1 -43 -2 0 -75 c0 -73
-1 -75 -25 -75 -22 0 -25 -4 -25 -40 0 -29 -4 -40 -15 -40 -13 0 -15 -24 -15
-160 l0 -160 -40 0 -40 0 0 -80 0 -80 -40 0 c-40 0 -40 0 -40 -39 0 -40 0 -40
43 -44 l42 -4 -43 -1 -43 -2 3 -72 c2 -40 2 -110 0 -155 l-2 -83 -40 0 -40 0
0 -40 c0 -29 4 -40 15 -40 12 0 15 -16 15 -80 0 -64 -3 -80 -15 -80 -11 0 -15
11 -15 40 l0 40 -40 0 -40 0 0 -40 0 -40 -40 0 -40 0 0 -80 0 -80 -40 0 -40 0
0 -80 0 -80 -40 0 -40 0 0 -80 0 -80 -41 0 -41 0 3 -122 4 -123 -42 -3 c-42
-3 -43 -4 -43 -38 0 -30 -3 -34 -25 -34 -22 0 -25 -4 -25 -40 0 -29 -4 -40
-15 -40 -11 0 -15 -11 -15 -40 l0 -40 -40 0 -40 0 0 -55 0 -55 -40 0 c-29 0
-40 4 -40 15 0 11 -11 15 -39 15 -29 0 -41 5 -44 17 -3 10 -3 -4 0 -32 3 -33
1 -45 -5 -37 -11 16 -17 -3 -27 -88 -4 -30 -14 -80 -23 -110 -9 -30 -18 -62
-20 -70 -2 -8 -7 -54 -10 -102 -5 -64 -12 -94 -28 -115 -11 -15 -23 -36 -27
-45 -6 -17 40 -18 888 -18 l895 0 0 2059 0 2060 -22 4 -23 4 23 2 c21 1 22 5
22 71 l0 70 -60 0 -60 0 0 -35z m80 -340 c0 -11 -11 -15 -40 -15 -29 0 -40 4
-40 15 0 11 11 15 40 15 29 0 40 -4 40 -15z m-337 -572 c-13 -2 -33 -2 -45 0
-13 2 -3 4 22 4 25 0 35 -2 23 -4z m-1269 -2858 c-5 -39 -8 -44 -17 -30 -7 13
-6 24 2 36 6 11 11 26 11 36 0 9 3 14 6 11 3 -4 2 -27 -2 -53z m-27 -127 c-2
-13 -4 -5 -4 17 -1 22 1 32 4 23 2 -10 2 -28 0 -40z"/>
<path d="M163 3920 c0 -25 2 -35 4 -22 2 12 2 32 0 45 -2 12 -4 2 -4 -23z"/>
<path d="M233 3920 c0 -25 2 -35 4 -22 2 12 2 32 0 45 -2 12 -4 2 -4 -23z"/>
<path d="M1778 3749 c-21 -33 -38 -68 -37 -77 0 -11 4 -8 10 8 6 13 16 31 24
40 20 23 56 90 47 90 -4 0 -24 -27 -44 -61z"/>
<path d="M8460 3680 c0 -22 5 -40 10 -40 6 0 10 18 10 40 0 22 -4 40 -10 40
-5 0 -10 -18 -10 -40z"/>
<path d="M2755 3670 c52 -31 76 -39 53 -17 -20 18 -74 47 -90 47 -7 0 10 -14
37 -30z"/>
<path d="M2835 3630 c3 -5 8 -10 11 -10 2 0 4 5 4 10 0 6 -5 10 -11 10 -5 0
-7 -4 -4 -10z"/>
<path d="M2860 3616 c0 -2 7 -7 16 -10 8 -3 12 -2 9 4 -6 10 -25 14 -25 6z"/>
<path d="M3328 3401 c47 -45 57 -60 53 -83 -1 -10 50 -44 79 -53 22 -6 20 -2
-15 32 -22 22 -51 55 -64 74 -23 34 -78 79 -96 79 -4 0 15 -22 43 -49z"/>
<path d="M3318 3351 c18 -17 38 -31 44 -31 17 0 -12 30 -46 47 l-31 15 33 -31z"/>
<path d="M6082 3070 c0 -14 2 -19 5 -12 2 6 2 18 0 25 -3 6 -5 1 -5 -13z"/>
<path d="M3752 3015 c2 -18 10 -28 26 -32 33 -8 33 -2 1 30 l-29 28 2 -26z"/>
<path d="M5380 2916 c0 -8 -6 -16 -12 -19 -7 -2 -11 -7 -8 -10 3 -4 19 5 34
18 27 23 28 25 8 25 -12 0 -22 -6 -22 -14z"/>
<path d="M6120 2911 c7 -12 9 -32 7 -43 -4 -12 -1 -18 6 -15 20 6 18 31 -4 57
-20 24 -20 24 -9 1z"/>
<path d="M0 2880 c0 -22 5 -40 10 -40 6 0 10 18 10 40 0 22 -4 40 -10 40 -5 0
-10 -18 -10 -40z"/>
<path d="M5210 2745 c-24 -25 -68 -62 -96 -82 -60 -43 -71 -62 -21 -37 61 32
130 93 153 137 8 15 13 27 11 27 -1 0 -23 -20 -47 -45z"/>
<path d="M73 2685 c-15 -17 -17 -85 -3 -85 6 0 10 18 10 40 l0 40 40 0 40 0 0
-40 c0 -22 5 -40 11 -40 6 0 9 19 7 48 l-3 47 -45 2 c-29 2 -49 -2 -57 -12z"/>
<path d="M5881 2664 l-43 -21 27 -21 c23 -18 25 -24 14 -44 -12 -23 -11 -23
16 2 35 32 74 106 52 97 -9 -3 -17 -3 -19 1 -2 4 -23 -2 -47 -14z"/>
<path d="M8300 2640 c0 -22 5 -40 10 -40 6 0 10 18 10 40 0 22 -4 40 -10 40
-5 0 -10 -18 -10 -40z"/>
<path d="M5000 2585 c-25 -14 -61 -33 -80 -43 -19 -9 -37 -20 -40 -24 -3 -4
-24 -12 -45 -17 l-40 -9 49 -1 c44 -1 56 4 127 56 70 50 86 63 76 63 -1 0 -22
-11 -47 -25z"/>
<path d="M0 2400 c0 -73 4 -120 10 -120 6 0 10 47 10 120 0 73 -4 120 -10 120
-6 0 -10 -47 -10 -120z"/>
<path d="M0 2000 c0 -22 5 -40 10 -40 6 0 10 18 10 40 0 22 -4 40 -10 40 -5 0
-10 -18 -10 -40z"/>
<path d="M0 1680 c0 -22 5 -40 10 -40 6 0 10 18 10 40 0 22 -4 40 -10 40 -5 0
-10 -18 -10 -40z"/>
<path d="M7840 1640 c0 -79 0 -80 25 -80 21 0 25 5 25 30 0 17 -4 30 -10 30
-5 0 -10 5 -10 10 0 6 11 10 25 10 23 0 25 4 25 40 l0 40 -40 0 -40 0 0 -80z"/>
<path d="M0 1440 c0 -73 4 -120 10 -120 6 0 10 47 10 120 0 73 -4 120 -10 120
-6 0 -10 -47 -10 -120z"/>
<path d="M7511 1144 c0 -11 3 -14 6 -6 3 7 2 16 -1 19 -3 4 -6 -2 -5 -13z"/>
<path d="M3350 1125 c0 -9 7 -18 15 -22 24 -9 27 1 5 20 -17 14 -20 15 -20 2z"/>
<path d="M7432 940 c0 -14 2 -19 5 -12 2 6 2 18 0 25 -3 6 -5 1 -5 -13z"/>
<path d="M7401 694 c0 -11 3 -14 6 -6 3 7 2 16 -1 19 -3 4 -6 -2 -5 -13z"/>
</g>
</svg>
