<svg width="44" height="43" viewBox="0 0 44 43" fill="none" xmlns="http://www.w3.org/2000/svg">
<path d="M20.2083 3.58273H16.6249C7.66659 3.58273 4.08325 7.16607 4.08325 16.1244V26.8744C4.08325 35.8327 7.66659 39.4161 16.6249 39.4161H27.3749C36.3333 39.4161 39.9166 35.8327 39.9166 26.8744V23.2911" stroke="#292D32" stroke-width="3.01538" stroke-linecap="round" stroke-linejoin="round"/>
<path d="M29.2384 5.4108L15.12 19.5291C14.5825 20.0666 14.045 21.1237 13.9375 21.8941L13.1671 27.287C12.8804 29.24 14.26 30.6016 16.2129 30.3329L21.6059 29.5625C22.3584 29.455 23.4154 28.9175 23.9709 28.38L38.0892 14.2616C40.5259 11.825 41.6725 8.99413 38.0892 5.4108C34.5059 1.82746 31.675 2.97413 29.2384 5.4108Z" stroke="#292D32" stroke-width="3.01538" stroke-miterlimit="10" stroke-linecap="round" stroke-linejoin="round"/>
<path d="M27.214 7.43637C28.4144 11.7185 31.7648 15.0689 36.0648 16.2872" stroke="#292D32" stroke-width="3.01538" stroke-miterlimit="10" stroke-linecap="round" stroke-linejoin="round"/>
</svg>
