<svg xmlns="http://www.w3.org/2000/svg" width="202" height="43" viewBox="0 0 202 43" fill="none">
<path d="M99.2083 3.58273H95.6249C86.6666 3.58273 83.0833 7.16607 83.0833 16.1244V26.8744C83.0833 35.8327 86.6666 39.4161 95.6249 39.4161H106.375C115.333 39.4161 118.917 35.8327 118.917 26.8744V23.2911" stroke="#292D32" stroke-width="3.01538" stroke-linecap="round" stroke-linejoin="round"/>
<path d="M108.238 5.4108L94.12 19.5291C93.5825 20.0666 93.045 21.1237 92.9375 21.8941L92.1671 27.287C91.8804 29.24 93.26 30.6016 95.2129 30.3329L100.606 29.5625C101.358 29.455 102.415 28.9175 102.971 28.38L117.089 14.2616C119.526 11.825 120.673 8.99413 117.089 5.4108C113.506 1.82746 110.675 2.97413 108.238 5.4108Z" stroke="#292D32" stroke-width="3.01538" stroke-miterlimit="10" stroke-linecap="round" stroke-linejoin="round"/>
<path d="M106.214 7.43637C107.414 11.7185 110.765 15.0689 115.065 16.2872" stroke="#292D32" stroke-width="3.01538" stroke-miterlimit="10" stroke-linecap="round" stroke-linejoin="round"/>
</svg>