<svg width="24" height="25" viewBox="0 0 24 25" fill="none" xmlns="http://www.w3.org/2000/svg">
<path d="M17.98 11.29V15.29C17.98 15.55 17.97 15.8 17.94 16.04C17.71 18.74 16.12 20.08 13.19 20.08H12.79C12.54 20.08 12.3 20.2 12.15 20.4L10.95 22C10.42 22.71 9.56 22.71 9.03 22L7.82999 20.4C7.69999 20.23 7.41 20.08 7.19 20.08H6.79001C3.60001 20.08 2 19.29 2 15.29V11.29C2 8.36001 3.35001 6.77001 6.04001 6.54001C6.28001 6.51001 6.53001 6.5 6.79001 6.5H13.19C16.38 6.5 17.98 8.10001 17.98 11.29Z" stroke="#000" strokeWidth="1.5" strokeMiterlimit="10" strokeLinecap="round" strokeLinejoin="round"/>
<path d="M21.98 7.29001V11.29C21.98 14.23 20.63 15.81 17.94 16.04C17.97 15.8 17.98 15.55 17.98 15.29V11.29C17.98 8.10001 16.38 6.5 13.19 6.5H6.79004C6.53004 6.5 6.28004 6.51001 6.04004 6.54001C6.27004 3.85001 7.86004 2.5 10.79 2.5H17.19C20.38 2.5 21.98 4.10001 21.98 7.29001Z" stroke="#000" strokeWidth="1.5" strokeMiterlimit="10" strokeLinecap="round" strokeLinejoin="round"/>
<path d="M13.4955 13.75H13.5045" stroke="#000" strokeWidth="2" strokeLinecap="round" strokeLinejoin="round"/>
<path d="M9.9955 13.75H10.0045" stroke="#000" strokeWidth="2" strokeLinecap="round" strokeLinejoin="round"/>
<path d="M6.4955 13.75H6.5045" stroke="#000" strokeWidth="2" strokeLinecap="round" strokeLinejoin="round"/>
</svg>
