<svg width="32" height="33" viewBox="0 0 32 33" fill="none" xmlns="http://www.w3.org/2000/svg">
<g id="file-text-outline 1" clip-path="url(#clip0_5296_18430)">
<g id="Layer 2">
<g id="file-text">
<path id="Vector" d="M20.0003 21.8333H12.0003C11.6467 21.8333 11.3076 21.9738 11.0575 22.2238C10.8075 22.4739 10.667 22.813 10.667 23.1666C10.667 23.5203 10.8075 23.8594 11.0575 24.1095C11.3076 24.3595 11.6467 24.5 12.0003 24.5H20.0003C20.3539 24.5 20.6931 24.3595 20.9431 24.1095C21.1932 23.8594 21.3337 23.5203 21.3337 23.1666C21.3337 22.813 21.1932 22.4739 20.9431 22.2238C20.6931 21.9738 20.3539 21.8333 20.0003 21.8333Z" fill="#23213D"/>
<path id="Vector_2" d="M12.0003 19.1667H16.0003C16.3539 19.1667 16.6931 19.0262 16.9431 18.7761C17.1932 18.5261 17.3337 18.187 17.3337 17.8333C17.3337 17.4797 17.1932 17.1406 16.9431 16.8905C16.6931 16.6405 16.3539 16.5 16.0003 16.5H12.0003C11.6467 16.5 11.3076 16.6405 11.0575 16.8905C10.8075 17.1406 10.667 17.4797 10.667 17.8333C10.667 18.187 10.8075 18.5261 11.0575 18.7761C11.3076 19.0262 11.6467 19.1667 12.0003 19.1667Z" fill="#23213D"/>
<path id="Vector_3" d="M26.3197 11.6067L19.0663 3.60668C18.9417 3.46856 18.7895 3.35806 18.6196 3.28228C18.4496 3.2065 18.2657 3.16712 18.0797 3.16668H8.74634C8.30334 3.1614 7.86364 3.24343 7.45234 3.40809C7.04105 3.57275 6.66621 3.81682 6.34925 4.12635C6.03229 4.43589 5.7794 4.80483 5.60503 5.2121C5.43066 5.61938 5.33823 6.05701 5.33301 6.50002V26.5C5.33823 26.943 5.43066 27.3807 5.60503 27.7879C5.7794 28.1952 6.03229 28.5641 6.34925 28.8737C6.66621 29.1832 7.04105 29.4273 7.45234 29.5919C7.86364 29.7566 8.30334 29.8386 8.74634 29.8333H23.253C23.696 29.8386 24.1357 29.7566 24.547 29.5919C24.9583 29.4273 25.3331 29.1832 25.6501 28.8737C25.9671 28.5641 26.2199 28.1952 26.3943 27.7879C26.5687 27.3807 26.6611 26.943 26.6663 26.5V12.5C26.6655 12.1696 26.5419 11.8512 26.3197 11.6067ZM18.6663 7.16668L22.3197 11.1667H19.653C19.5134 11.1583 19.3768 11.1221 19.2513 11.0603C19.1258 10.9986 19.0139 10.9124 18.922 10.8069C18.8302 10.7014 18.7603 10.5787 18.7164 10.4458C18.6725 10.313 18.6555 10.1728 18.6663 10.0333V7.16668ZM23.253 27.1667H8.74634C8.65351 27.1721 8.56052 27.1591 8.47271 27.1285C8.3849 27.0979 8.30399 27.0503 8.23462 26.9883C8.16526 26.9264 8.1088 26.8514 8.06848 26.7676C8.02816 26.6838 8.00478 26.5929 7.99967 26.5V6.50002C8.00478 6.40717 8.02816 6.31623 8.06848 6.23244C8.1088 6.14864 8.16526 6.07363 8.23462 6.01169C8.30399 5.94976 8.3849 5.90213 8.47271 5.87152C8.56052 5.84092 8.65351 5.82795 8.74634 5.83335H15.9997V10.0333C15.9781 11.0155 16.346 11.9663 17.023 12.6782C17.6999 13.3902 18.631 13.8054 19.613 13.8334H23.9997V26.5C23.9946 26.5929 23.9712 26.6838 23.9309 26.7676C23.8905 26.8514 23.8341 26.9264 23.7647 26.9883C23.6954 27.0503 23.6145 27.0979 23.5266 27.1285C23.4388 27.1591 23.3458 27.1721 23.253 27.1667Z" fill="#23213D"/>
</g>
</g>
</g>
<defs>
<clipPath id="clip0_5296_18430">
<rect width="32" height="32" fill="white" transform="translate(0 0.5)"/>
</clipPath>
</defs>
</svg>
