<svg width="74" height="120" viewBox="0 0 74 120" fill="none" xmlns="http://www.w3.org/2000/svg">
<path fill-rule="evenodd" clip-rule="evenodd" d="M41.1836 7.64962C38.8732 5.33902 35.1268 5.33902 32.8163 7.64962L30.8295 9.63635L35.4676 14.2742C35.9563 14.1435 36.4698 14.0739 37 14.0739C40.2677 14.0739 42.9166 16.7228 42.9166 19.9905C42.9166 20.5205 42.8468 21.0343 42.7164 21.5231L48.7801 27.5866C49.2688 27.4562 49.7823 27.3863 50.3125 27.3863C53.5802 27.3863 56.2291 30.0352 56.2291 33.303C56.2291 36.5708 53.5802 39.2197 50.3125 39.2197C47.0447 39.2197 44.3958 36.5708 44.3958 33.303C44.3958 32.7729 44.4656 32.2593 44.5961 31.7706L39.9583 27.1325V41.4905C41.7268 42.5135 42.9166 44.4255 42.9166 46.6155C42.9166 49.8833 40.2677 52.5322 37 52.5322C33.7322 52.5322 31.0833 49.8833 31.0833 46.6155C31.0833 44.4255 32.2731 42.5135 34.0416 41.4905V25.1157C32.2731 24.0926 31.0833 22.1805 31.0833 19.9905C31.0833 19.4605 31.1531 18.9468 31.2836 18.458L26.6458 13.8201L12.8257 27.6402C10.5151 29.9506 10.5151 33.6971 12.8257 36.0075L32.8163 55.9982C35.1268 58.3086 38.8732 58.3086 41.1836 55.9982L61.1743 36.0075C63.4847 33.6971 63.4847 29.9506 61.1743 27.6402L41.1836 7.64962ZM28.6325 3.46589C33.2538 -1.15531 40.7461 -1.1553 45.3673 3.46592L65.358 23.4564C69.9792 28.0777 69.9792 35.57 65.358 40.1912L45.3673 60.1818C40.7461 64.803 33.2538 64.803 28.6325 60.1818L8.64201 40.1912C4.02082 35.57 4.02083 28.0777 8.64204 23.4564L28.6325 3.46589Z" fill="black"/>
<path d="M30.8788 98.6218C31.7308 98.6218 32.4748 98.8078 33.1108 99.1798C33.7588 99.5518 34.2388 100.02 34.5508 100.584V98.7838H36.2068V108.864C36.2068 109.764 36.0148 110.562 35.6308 111.258C35.2468 111.966 34.6948 112.518 33.9748 112.914C33.2668 113.31 32.4388 113.508 31.4908 113.508C30.1948 113.508 29.1148 113.202 28.2508 112.59C27.3868 111.978 26.8768 111.144 26.7208 110.088H28.3408C28.5208 110.688 28.8928 111.168 29.4568 111.528C30.0208 111.9 30.6988 112.086 31.4908 112.086C32.3908 112.086 33.1228 111.804 33.6868 111.24C34.2628 110.676 34.5508 109.884 34.5508 108.864V106.794C34.2268 107.37 33.7468 107.85 33.1108 108.234C32.4748 108.618 31.7308 108.81 30.8788 108.81C30.0028 108.81 29.2048 108.594 28.4848 108.162C27.7768 107.73 27.2188 107.124 26.8108 106.344C26.4028 105.564 26.1988 104.676 26.1988 103.68C26.1988 102.672 26.4028 101.79 26.8108 101.034C27.2188 100.266 27.7768 99.6718 28.4848 99.2518C29.2048 98.8318 30.0028 98.6218 30.8788 98.6218ZM34.5508 103.698C34.5508 102.954 34.4008 102.306 34.1008 101.754C33.8008 101.202 33.3928 100.782 32.8768 100.494C32.3728 100.194 31.8148 100.044 31.2028 100.044C30.5908 100.044 30.0328 100.188 29.5288 100.476C29.0248 100.764 28.6228 101.184 28.3228 101.736C28.0228 102.288 27.8728 102.936 27.8728 103.68C27.8728 104.436 28.0228 105.096 28.3228 105.66C28.6228 106.212 29.0248 106.638 29.5288 106.938C30.0328 107.226 30.5908 107.37 31.2028 107.37C31.8148 107.37 32.3728 107.226 32.8768 106.938C33.3928 106.638 33.8008 106.212 34.1008 105.66C34.4008 105.096 34.5508 104.442 34.5508 103.698ZM39.8209 97.1818C39.5089 97.1818 39.2449 97.0738 39.0289 96.8578C38.8129 96.6418 38.7049 96.3778 38.7049 96.0657C38.7049 95.7538 38.8129 95.4898 39.0289 95.2738C39.2449 95.0578 39.5089 94.9498 39.8209 94.9498C40.1209 94.9498 40.3729 95.0578 40.5769 95.2738C40.7929 95.4898 40.9009 95.7538 40.9009 96.0657C40.9009 96.3778 40.7929 96.6418 40.5769 96.8578C40.3729 97.0738 40.1209 97.1818 39.8209 97.1818ZM40.6129 98.7838V108.648H38.9749V98.7838H40.6129ZM45.4026 100.134V105.948C45.4026 106.428 45.5046 106.77 45.7086 106.974C45.9126 107.166 46.2666 107.262 46.7706 107.262H47.9766V108.648H46.5006C45.5886 108.648 44.9046 108.438 44.4486 108.018C43.9926 107.598 43.7646 106.908 43.7646 105.948V100.134H42.4866V98.7838H43.7646V96.2997H45.4026V98.7838H47.9766V100.134H45.4026Z" fill="black"/>
</svg>
