<svg width="24" height="25" viewBox="0 0 24 25" fill="none" xmlns="http://www.w3.org/2000/svg">
<path d="M9.56953 12.96L6.51953 16.01" stroke="#23213D" stroke-width="1.5" stroke-miterlimit="10" stroke-linecap="round" stroke-linejoin="round"/>
<path d="M6.5498 12.99L9.5998 16.04" stroke="#23213D" stroke-width="1.5" stroke-miterlimit="10" stroke-linecap="round" stroke-linejoin="round"/>
<path d="M13.5303 14.5H13.5403" stroke="#23213D" stroke-width="2" stroke-miterlimit="10" stroke-linecap="round" stroke-linejoin="round"/>
<path d="M17.4697 14.5H17.4797" stroke="#23213D" stroke-width="2" stroke-miterlimit="10" stroke-linecap="round" stroke-linejoin="round"/>
<path d="M15.5 16.48V16.46" stroke="#23213D" stroke-width="2" stroke-miterlimit="10" stroke-linecap="round" stroke-linejoin="round"/>
<path d="M15.5 12.54V12.52" stroke="#23213D" stroke-width="2" stroke-miterlimit="10" stroke-linecap="round" stroke-linejoin="round"/>
<path d="M9 22.5H15C20 22.5 22 20.5 22 15.5V13.5C22 8.5 20 6.5 15 6.5H9C4 6.5 2 8.5 2 13.5V15.5C2 20.5 4 22.5 9 22.5Z" stroke="#23213D" stroke-width="1.5" stroke-linecap="round" stroke-linejoin="round"/>
<path d="M13.0105 2.5L13.0005 3.51C12.9905 4.06 12.5505 4.5 12.0005 4.5H11.9705C11.4205 4.5 10.9805 4.95 10.9805 5.5C10.9805 6.05 11.4305 6.5 11.9805 6.5H12.9805" stroke="#23213D" stroke-width="1.5" stroke-linecap="round" stroke-linejoin="round"/>
</svg>
