<svg width="64" height="64" viewBox="0 0 64 64" fill="none" xmlns="http://www.w3.org/2000/svg">
<path d="M62.0633 31.5136C62.0633 27.6601 59.1489 24.4176 55.237 23.4917L64 0H20.5734L29.3562 23.5667C25.5664 24.5665 22.7741 27.7541 22.7741 31.5336C22.7741 34.3132 24.3137 36.7768 26.6255 38.2956C25.7083 39.4814 24.6492 40.5753 23.4471 41.6121C21.1849 43.5389 18.6785 45.0217 15.9687 46.0015C13.5228 44.5017 12.4637 41.8521 13.4216 39.4804C17.1499 38.4426 19.8608 35.275 19.8608 31.5516C19.8608 26.9752 15.7652 23.2697 10.7514 23.2697C5.71776 23.2697 1.62332 26.9932 1.62332 31.5686C1.62452 33.75 2.57729 35.842 4.27267 37.3857L3.84376 38.1826C2.48004 40.7393 0.92937 43.6299 0.338795 46.8814C-0.843457 53.3655 1.09324 58.5718 5.76065 61.5173C8.4001 63.1671 11.2815 64 14.4004 64C19.7596 64 25.2002 61.5543 30.4571 59.1827C34.2073 57.4969 38.0785 55.7372 41.8892 54.8833C43.2969 54.5683 44.7628 54.3834 46.3102 54.1794C49.449 53.7714 52.6889 53.3455 55.6033 51.8077C59.006 50.011 61.3298 47.0084 62.0017 43.5629C62.5109 40.9132 62.0017 38.2456 60.6974 35.9109C61.5739 34.6311 62.0611 33.1313 62.0611 31.5216L62.0633 31.5136ZM58.0898 31.5136C58.0898 34.0892 55.7869 36.1829 52.9539 36.1829C50.1209 36.1829 47.818 34.0892 47.818 31.5136C47.818 30.6797 48.0622 29.8838 48.4889 29.1979C48.6516 28.9379 48.8562 28.678 49.0607 28.458C49.2734 28.2313 49.5127 28.0264 49.7745 27.8471L49.7965 27.8271C49.9593 27.7171 50.1429 27.6051 50.3266 27.4931C50.3266 27.4931 50.3486 27.4931 50.3486 27.4731C50.43 27.4361 50.5113 27.3801 50.5927 27.3432C50.6147 27.3432 50.6334 27.3232 50.6543 27.3232C50.7357 27.2862 50.838 27.2492 50.9402 27.2132C51.0425 27.1772 51.1437 27.1392 51.2262 27.1032C51.2482 27.1032 51.2669 27.0832 51.2878 27.0832C51.3692 27.0632 51.4505 27.0272 51.5319 27.0092C51.5539 27.0092 51.5935 26.9892 51.6133 26.9892L51.8992 26.9332H51.9212L52.227 26.8772C52.249 26.8772 52.2886 26.8772 52.3084 26.8572C52.3897 26.8572 52.4711 26.8372 52.5525 26.8372H52.6548C52.7571 26.8372 52.8582 26.8172 52.9803 26.8172H53.2443C53.3196 26.8143 53.3951 26.8207 53.4686 26.8362H53.5093C53.6721 26.8562 53.8348 26.8732 53.9987 26.9102C55.1559 27.1355 56.1934 27.7142 56.9386 28.5501C57.6837 29.386 58.0916 30.4286 58.0942 31.5046L58.0898 31.5136ZM26.2592 3.70548H58.3142L50.9567 23.4367C50.651 23.4927 50.3453 23.5847 50.0395 23.6767L42.2972 9.31869L34.5328 23.5847C34.2271 23.4917 33.9015 23.4367 33.576 23.3807L26.2592 3.70548ZM40.829 29.9018C40.4419 28.16 39.4653 26.6043 38.0796 25.4554L42.2983 17.7115L46.5577 25.6224C45.2612 26.788 44.3747 28.2775 44.0106 29.9018H40.829ZM30.6198 26.9742L30.9058 26.9182H30.9673C31.0487 26.8982 31.1301 26.8982 31.2115 26.8812H31.2929C31.3743 26.8812 31.4359 26.8612 31.5172 26.8612H32.3124C32.3937 26.8612 32.4553 26.8812 32.5158 26.8812C32.5565 26.8812 32.5774 26.8812 32.6181 26.9012C32.6995 26.9212 32.7611 26.9212 32.8425 26.9382C32.8644 26.9382 32.8831 26.9382 32.9238 26.9582L33.2098 27.0142C33.3121 27.0342 33.3934 27.0512 33.4737 27.0882C33.4957 27.0882 33.5144 27.1082 33.5551 27.1082C33.6167 27.1282 33.6981 27.1452 33.7586 27.1822C33.7806 27.1822 33.7993 27.2022 33.8201 27.2022C33.9015 27.2392 33.9829 27.2582 34.0643 27.2952H34.0863C34.1808 27.3272 34.27 27.371 34.3513 27.4251C34.4536 27.4621 34.535 27.5181 34.6153 27.5551C34.6373 27.5551 34.6373 27.5751 34.656 27.5751C34.7374 27.6121 34.7989 27.6681 34.8803 27.7051L34.9023 27.7251C35.1465 27.8921 35.3708 28.0771 35.5952 28.262L35.6172 28.282C35.8206 28.486 36.0241 28.708 36.189 28.9489C36.7357 29.7089 37.0262 30.5975 37.0249 31.5056C37.0249 34.0812 34.722 36.1749 31.889 36.1749C29.056 36.1749 26.753 34.0812 26.753 31.5056C26.731 29.3379 28.3829 27.5041 30.6242 26.9862L30.6198 26.9742ZM10.5677 26.8442C13.4007 26.8442 15.7037 28.9379 15.7037 31.5136C15.7037 34.0892 13.4007 36.1829 10.5677 36.1829C7.73474 36.1829 5.43182 34.0892 5.43182 31.5136C5.43182 28.9379 7.73474 26.8442 10.5677 26.8442ZM57.9678 42.907C57.5191 45.2786 55.9112 47.3533 53.5467 48.5942C51.3252 49.761 48.5944 50.132 45.7218 50.5039C44.1525 50.7079 42.5017 50.9298 40.9126 51.2818C36.674 52.2267 32.5983 54.0794 28.6446 55.8581C23.5912 58.1378 18.8237 60.2855 14.4004 60.2855C12.0975 60.2855 10.0399 59.6926 8.08336 58.4518C3.60071 55.6362 3.82396 50.3559 4.35515 47.4653C4.84455 44.7607 6.20936 42.2221 7.51368 39.7964C7.59507 39.6484 7.65665 39.5184 7.73804 39.3705C8.18674 39.5184 8.65524 39.6304 9.14574 39.7044C8.3715 43.6319 10.5721 47.6893 14.8513 49.69L15.6256 50.06L16.4614 49.782C20.028 48.6322 23.3284 46.7624 26.2427 44.2608C27.8528 42.8958 29.276 41.3593 30.4812 39.6844C30.9498 39.7584 31.4183 39.7774 31.889 39.7774C36.1275 39.7774 39.694 37.1278 40.7124 33.5713H44.136C45.1544 37.1468 48.722 39.7774 52.9594 39.7774C54.5804 39.7777 56.1714 39.3809 57.5653 38.6286C58.0953 40.0284 58.2581 41.4632 57.9722 42.908L57.9678 42.907Z" fill="black"/>
</svg>
