<svg width="24" height="25" viewBox="0 0 24 25" fill="none" xmlns="http://www.w3.org/2000/svg">
<path d="M21 7.5V17.5C21 20.5 19.5 22.5 16 22.5H8C4.5 22.5 3 20.5 3 17.5V7.5C3 4.5 4.5 2.5 8 2.5H16C19.5 2.5 21 4.5 21 7.5Z" stroke="#23213D" stroke-width="1.5" stroke-miterlimit="10" stroke-linecap="round" stroke-linejoin="round"/>
<path d="M16.25 11.5H7.75C6.79 11.5 6 10.71 6 9.75V7.25C6 6.29 6.79 5.5 7.75 5.5H16.25C17.21 5.5 18 6.29 18 7.25V9.75C18 10.71 17.21 11.5 16.25 11.5Z" stroke="#23213D" stroke-width="1.5" stroke-miterlimit="10" stroke-linecap="round" stroke-linejoin="round"/>
<path d="M10.3 15.78L8 18.08" stroke="#23213D" stroke-width="1.5" stroke-miterlimit="10" stroke-linecap="round" stroke-linejoin="round"/>
<path d="M8.03027 15.8101L10.3303 18.11" stroke="#23213D" stroke-width="1.5" stroke-miterlimit="10" stroke-linecap="round" stroke-linejoin="round"/>
<path d="M16.4902 15.8301H16.5103" stroke="#23213D" stroke-width="2" stroke-miterlimit="10" stroke-linecap="round" stroke-linejoin="round"/>
<path d="M14.4902 18V17.98" stroke="#23213D" stroke-width="2" stroke-miterlimit="10" stroke-linecap="round" stroke-linejoin="round"/>
</svg>
