<?xml version="1.0" standalone="no"?>
<!DOCTYPE svg PUBLIC "-//W3C//DTD SVG 20010904//EN"
 "http://www.w3.org/TR/2001/REC-SVG-20010904/DTD/svg10.dtd">
<svg version="1.0" xmlns="http://www.w3.org/2000/svg"
 width="90.000000pt" height="116.000000pt" viewBox="0 0 90.000000 116.000000"
 preserveAspectRatio="xMidYMid meet">

<g transform="translate(0.000000,116.000000) scale(0.100000,-0.100000)"
fill="#000000" stroke="none">
<path d="M2 953 l3 -208 38 -3 c22 -2 37 1 37 8 0 7 16 10 43 8 l42 -3 6 -140
c4 -77 10 -179 14 -226 7 -81 6 -88 -14 -108 -28 -28 -41 -63 -41 -110 0 -21
-7 -55 -15 -74 -8 -20 -15 -50 -15 -67 l0 -30 109 0 108 0 8 43 c18 112 24
168 26 248 l2 88 38 -1 c24 0 58 11 95 31 32 17 61 31 66 31 4 0 8 -12 9 -27
1 -39 25 78 32 155 3 34 2 62 -2 62 -11 0 -31 -63 -31 -96 0 -56 -125 -144
-204 -144 -57 0 -76 32 -96 161 -5 35 -14 81 -19 102 -5 21 -6 36 -3 32 3 -3
11 11 17 32 10 37 12 38 65 43 58 5 75 25 50 55 -14 17 -45 21 -35 5 4 -6 -5
-10 -21 -10 -23 0 -25 2 -13 17 13 15 12 15 -8 5 -18 -10 -21 -9 -18 6 1 9 7
16 11 16 5 -1 24 -5 42 -9 40 -8 43 8 5 32 -16 9 -30 18 -31 19 -2 2 10 23 27
47 32 48 57 57 153 57 62 0 88 -30 88 -105 0 -42 -3 -52 -17 -52 -61 1 -84 -4
-80 -15 2 -8 18 -12 43 -10 50 4 85 -18 65 -42 -8 -10 -18 -13 -25 -8 -6 5
-27 12 -46 16 -21 3 -30 2 -22 -3 11 -6 10 -10 -4 -15 -10 -4 -21 -1 -26 6 -6
10 -12 9 -23 -6 -8 -11 -15 -23 -15 -28 0 -11 17 -10 22 0 2 5 15 12 31 16 20
5 27 3 27 -8 0 -16 21 -26 56 -26 13 0 24 -4 24 -10 0 -5 6 -7 14 -4 11 4 15
-25 21 -163 5 -92 10 -163 12 -157 2 6 8 47 13 90 8 71 9 64 6 -61 -2 -77 0
-129 4 -115 8 24 8 24 9 2 1 -12 -6 -25 -14 -28 -8 -4 -15 -14 -15 -23 0 -14
2 -14 10 -1 19 30 22 -2 6 -62 -9 -35 -18 -74 -20 -88 -1 -14 -6 -31 -10 -38
-4 -7 -2 -12 3 -12 11 0 15 13 12 39 -2 8 11 3 32 -13 35 -27 53 -34 42 -16
-3 5 0 7 8 4 16 -6 20 24 5 42 -14 18 -18 54 -6 54 5 0 8 -6 5 -14 -3 -8 1
-20 9 -27 13 -11 14 -9 9 13 -4 15 -2 29 4 32 7 4 8 1 5 -8 -3 -9 -1 -16 5
-16 6 0 11 6 11 13 0 8 4 7 10 -3 6 -9 13 -11 18 -5 10 14 32 17 32 5 0 -6 -6
-10 -14 -10 -20 0 -29 -17 -15 -26 8 -5 9 -3 4 6 -6 10 -4 12 7 7 9 -3 20 -1
25 4 6 6 10 4 10 -5 0 -8 -4 -13 -8 -11 -3 3 -12 -2 -18 -9 -8 -10 -9 -16 -1
-21 5 -3 10 -1 10 6 0 7 3 9 7 6 3 -4 12 -2 20 4 7 6 13 8 13 4 0 -4 6 -2 14
4 12 10 14 9 12 -6 -2 -10 -11 -17 -20 -17 -19 2 -22 -12 -3 -19 9 -4 9 -6 0
-6 -7 -1 -13 -9 -13 -18 0 -14 5 -12 25 9 29 31 38 115 11 105 -8 -3 -30 7
-48 23 -29 26 -30 29 -10 25 21 -4 25 2 23 35 0 10 1 11 5 2 3 -6 10 -9 16 -6
5 4 2 -5 -7 -20 -16 -23 -16 -26 -1 -32 9 -3 13 -10 10 -15 -3 -5 2 -6 11 -3
14 6 14 8 -2 20 -14 10 -16 15 -5 25 6 7 12 16 12 19 0 4 -27 24 -60 46 -33
21 -60 43 -60 47 0 5 -5 5 -12 1 -8 -5 -9 -2 -4 12 4 10 12 42 17 69 5 28 14
52 19 53 17 6 9 155 -16 301 -5 32 -4 42 4 37 7 -4 12 -2 12 4 0 15 44 30 69
23 12 -3 21 -12 21 -19 0 -8 5 -14 10 -14 6 0 10 68 10 185 l0 185 -450 0
-450 0 2 -207z m785 -455 c-3 -8 -6 -5 -6 6 -1 11 2 17 5 13 3 -3 4 -12 1 -19z
m9 -253 c4 -8 10 -15 15 -15 5 0 9 7 9 15 0 8 5 15 10 15 15 0 12 -37 -2 -37
-7 0 -20 -2 -28 -4 -8 -2 -14 2 -15 10 0 8 -9 17 -20 22 -19 7 -19 8 3 8 12 1
25 -6 28 -14z m-34 -12 c-10 -4 -9 -8 4 -17 12 -9 14 -15 6 -20 -7 -4 -12 -1
-12 6 0 10 -3 9 -11 -2 -9 -13 -10 -12 -5 3 4 11 0 17 -12 18 -14 0 -14 2 3 9
11 5 25 9 30 9 6 -1 4 -3 -3 -6z m-41 -50 c12 -16 12 -17 -2 -6 -9 7 -20 9
-24 5 -5 -4 -5 -1 -1 6 9 16 11 15 27 -5z m-40 -51 c-8 -3 -5 -9 8 -19 12 -8
19 -19 16 -24 -8 -12 -45 -12 -45 1 0 5 8 6 17 3 15 -6 16 -5 3 9 -8 9 -19 13
-24 10 -5 -3 -1 6 10 20 10 15 21 21 23 15 2 -6 -1 -13 -8 -15z"/>
<path d="M400 660 c0 -11 4 -20 9 -20 6 0 9 9 8 20 -1 11 -5 20 -9 20 -4 0 -8
-9 -8 -20z"/>
<path d="M371 612 c-14 -12 -13 -13 9 -8 14 3 31 6 38 6 6 0 12 4 12 9 0 14
-39 9 -59 -7z"/>
<path d="M287 573 c-16 -15 24 -65 43 -53 9 6 8 10 -6 19 -16 10 -11 11 26 6
57 -8 76 -25 29 -26 l-34 -1 33 -8 c31 -7 82 6 82 21 0 4 -21 10 -46 14 -25 3
-63 13 -84 20 -21 7 -41 11 -43 8z"/>
<path d="M528 328 c-14 -29 -46 -92 -70 -140 -25 -47 -50 -109 -55 -137 -10
-50 -10 -51 13 -51 13 0 24 6 24 13 0 9 2 9 8 -1 11 -17 42 -4 35 14 -3 8 1
14 9 14 16 0 49 142 53 231 1 30 5 62 9 71 5 10 6 22 4 28 -2 7 -15 -12 -30
-42z"/>
<path d="M880 200 c0 -5 5 -10 10 -10 6 0 10 5 10 10 0 6 -4 10 -10 10 -5 0
-10 -4 -10 -10z"/>
<path d="M754 113 c-3 -18 -6 -36 -6 -40 0 -5 -6 -12 -14 -16 -8 -4 -14 -13
-14 -19 0 -7 5 -7 14 1 12 10 14 9 12 -6 -2 -10 2 -21 8 -25 18 -12 54 -9 59
5 4 9 6 9 6 0 1 -7 8 -10 17 -6 9 3 11 9 6 12 -14 9 -27 55 -13 47 6 -4 11 -2
11 4 0 6 -10 8 -24 4 -20 -5 -26 0 -39 33 l-16 38 -7 -32z m44 -53 c18 -17 20
-23 10 -34 -7 -8 -14 -10 -16 -5 -2 5 -11 9 -19 9 -10 0 -14 6 -10 20 3 10 0
21 -7 24 -6 2 -4 5 5 5 8 1 25 -8 37 -19z"/>
<path d="M356 81 c-4 -7 -5 -15 -2 -18 9 -9 19 4 14 18 -4 11 -6 11 -12 0z"/>
<path d="M631 47 c-6 -8 -8 -17 -4 -20 3 -4 1 -7 -5 -7 -7 0 -12 -3 -12 -7 0
-10 56 -10 66 -1 4 4 13 3 20 -3 8 -7 14 -7 19 1 3 5 1 10 -5 10 -6 0 -9 4 -6
9 4 5 -1 8 -10 7 -8 -1 -20 -9 -25 -17 -12 -19 -11 -2 1 22 9 16 7 19 -8 19
-11 0 -25 -6 -31 -13z"/>
<path d="M876 15 c8 -19 24 -19 24 0 0 8 -7 15 -15 15 -9 0 -12 -6 -9 -15z"/>
</g>
</svg>
