<svg width="35" height="35" viewBox="0 0 35 35" fill="none" xmlns="http://www.w3.org/2000/svg">
<path d="M21.9034 27.7959C21.9034 30.2021 19.9347 32.1709 17.5284 32.1709C16.3326 32.1709 15.2243 31.6751 14.4368 30.8876C13.6493 30.1001 13.1534 28.9917 13.1534 27.7959" stroke="white" strokeWidth="2.1875" strokeMiterlimit="10"/>
<path d="M17.5286 4.24377C12.7015 4.24377 8.77862 8.16669 8.77862 12.9938V17.2084C8.77862 18.0979 8.39946 19.4542 7.94737 20.2125L6.27029 22.9979C5.23487 24.7188 5.94946 26.6292 7.84529 27.2709C14.1307 29.3709 20.912 29.3709 27.1974 27.2709C28.962 26.6875 29.7349 24.6021 28.7724 22.9979L27.0953 20.2125C26.6578 19.4542 26.2786 18.0979 26.2786 17.2084V12.9938C26.2786 8.18127 22.3411 4.24377 17.5286 4.24377Z" stroke="white" strokeWidth="2.1875" strokeMiterlimit="10" strokeLinecap="round"/>
<path d="M20.227 4.6666C19.7749 4.53535 19.3083 4.43327 18.827 4.37493C17.427 4.19993 16.0853 4.30202 14.8312 4.6666C15.2541 3.58743 16.3041 2.8291 17.5291 2.8291C18.7541 2.8291 19.8041 3.58743 20.227 4.6666Z" stroke="white" strokeWidth="2.1875" strokeMiterlimit="10" strokeLinecap="round" strokeLinejoin="round"/>
</svg>
