<?xml version="1.0" encoding="UTF-8"?>
<svg xmlns="http://www.w3.org/2000/svg" xmlns:xlink="http://www.w3.org/1999/xlink" width="43px" height="45px" viewBox="0 0 43 44" version="1.1">
<g id="surface1">
<path style="fill:none;strokeWidth:1.47263;strokeLinecap:round;strokeLinejoin:round;stroke:rgb(13.72549%,12.941176%,23.921569%);stroke-opacity:1;stroke-miterlimit:4;" d="M 15.582667 19.74929 L 6.417333 19.74929 C 2.75 19.74929 1.832667 18.832475 1.832667 15.167259 L 1.832667 7.832741 C 1.832667 4.167525 2.75 3.25071 6.417333 3.25071 L 15.582667 3.25071 C 19.25 3.25071 20.167333 4.167525 20.167333 7.832741 L 20.167333 15.167259 C 20.167333 18.832475 19.25 19.74929 15.582667 19.74929 Z M 15.582667 19.74929 " transform="matrix(1.954545,0,0,1.913043,0,0)"/>
<path style="fill:none;strokeWidth:1.47263;strokeLinecap:round;strokeLinejoin:round;stroke:rgb(13.72549%,12.941176%,23.921569%);stroke-opacity:1;stroke-miterlimit:4;" d="M 12.832667 7.832741 L 17.417333 7.832741 " transform="matrix(1.954545,0,0,1.913043,0,0)"/>
<path style="fill:none;strokeWidth:1.47263;strokeLinecap:round;strokeLinejoin:round;stroke:rgb(13.72549%,12.941176%,23.921569%);stroke-opacity:1;stroke-miterlimit:4;" d="M 13.75 11.5 L 17.417333 11.5 " transform="matrix(1.954545,0,0,1.913043,0,0)"/>
<path style="fill:none;strokeWidth:1.47263;strokeLinecap:round;strokeLinejoin:round;stroke:rgb(13.72549%,12.941176%,23.921569%);stroke-opacity:1;stroke-miterlimit:4;" d="M 15.582667 15.167259 L 17.417333 15.167259 " transform="matrix(1.954545,0,0,1.913043,0,0)"/>
<path style="fill:none;strokeWidth:1.47263;strokeLinecap:round;strokeLinejoin:round;stroke:rgb(13.72549%,12.941176%,23.921569%);stroke-opacity:1;stroke-miterlimit:4;" d="M 7.792333 10.848633 C 8.707667 10.848633 9.451126 10.10538 9.451126 9.190607 C 9.451126 8.273793 8.707667 7.53054 7.792333 7.53054 C 6.875 7.53054 6.131541 8.273793 6.131541 9.190607 C 6.131541 10.10538 6.875 10.848633 7.792333 10.848633 Z M 7.792333 10.848633 " transform="matrix(1.954545,0,0,1.913043,0,0)"/>
<path style="fill:none;strokeWidth:1.47263;strokeLinecap:round;strokeLinejoin:round;stroke:rgb(13.72549%,12.941176%,23.921569%);stroke-opacity:1;stroke-miterlimit:4;" d="M 11 15.46946 C 10.872093 14.140181 9.81686 13.094727 8.487827 12.976296 C 8.03016 12.929332 7.5625 12.929332 7.09484 12.976296 C 5.765807 13.104936 4.712573 14.140181 4.582667 15.46946 " transform="matrix(1.954545,0,0,1.913043,0,0)"/>
</g>
</svg>
