<svg xmlns="http://www.w3.org/2000/svg" width="202" height="43" viewBox="0 0 202 43" fill="none">
<path d="M109.958 37.6251H92.0416C84.8749 37.6251 83.0833 35.8334 83.0833 28.6668V14.3334C83.0833 7.16676 84.8749 5.37509 92.0416 5.37509H109.958C117.125 5.37509 118.917 7.16676 118.917 14.3334V28.6668C118.917 35.8334 117.125 37.6251 109.958 37.6251Z" stroke="#FE3756" stroke-width="3.01538" stroke-linecap="round" stroke-linejoin="round"/>
<path d="M104.583 14.3329H113.542" stroke="#FE3756" stroke-width="3.01538" stroke-linecap="round" stroke-linejoin="round"/>
<path d="M106.375 21.5003H113.542" stroke="#FE3756" stroke-width="3.01538" stroke-linecap="round" stroke-linejoin="round"/>
<path d="M109.958 28.6668H113.541" stroke="#FE3756" stroke-width="3.01538" stroke-linecap="round" stroke-linejoin="round"/>
<path d="M94.7294 20.2278C96.5204 20.2278 97.9723 18.7759 97.9723 16.9849C97.9723 15.1939 96.5204 13.742 94.7294 13.742C92.9384 13.742 91.4865 15.1939 91.4865 16.9849C91.4865 18.7759 92.9384 20.2278 94.7294 20.2278Z" stroke="#FE3756" stroke-width="3.01538" stroke-linecap="round" stroke-linejoin="round"/>
<path d="M101 29.258C100.749 26.66 98.6887 24.6175 96.0908 24.3846C95.1949 24.295 94.2812 24.295 93.3674 24.3846C90.7695 24.6355 88.7091 26.66 88.4583 29.258" stroke="#FE3756" stroke-width="3.01538" stroke-linecap="round" stroke-linejoin="round"/>
</svg>