<svg width="22" height="23" viewBox="0 0 22 23" fill="none" xmlns="http://www.w3.org/2000/svg">
<path d="M11 14.25C12.5188 14.25 13.75 13.0188 13.75 11.5C13.75 9.98122 12.5188 8.75 11 8.75C9.48122 8.75 8.25 9.98122 8.25 11.5C8.25 13.0188 9.48122 14.25 11 14.25Z" stroke="#23213D" strokeWidth="1.375" strokeMiterlimit="10" strokeLinecap="round" strokeLinejoin="round"/>
<path d="M1.83331 12.307V10.6937C1.83331 9.74035 2.61248 8.95202 3.57498 8.95202C5.23415 8.95202 5.91248 7.77868 5.07831 6.33952C4.60165 5.51452 4.88581 4.44202 5.71998 3.96535L7.30581 3.05785C8.02998 2.62702 8.96498 2.88368 9.39581 3.60785L9.49665 3.78202C10.3216 5.22118 11.6783 5.22118 12.5125 3.78202L12.6133 3.60785C13.0441 2.88368 13.9791 2.62702 14.7033 3.05785L16.2891 3.96535C17.1233 4.44202 17.4075 5.51452 16.9308 6.33952C16.0966 7.77868 16.775 8.95202 18.4341 8.95202C19.3875 8.95202 20.1758 9.73118 20.1758 10.6937V12.307C20.1758 13.2603 19.3966 14.0487 18.4341 14.0487C16.775 14.0487 16.0966 15.222 16.9308 16.6612C17.4075 17.4953 17.1233 18.5587 16.2891 19.0353L14.7033 19.9428C13.9791 20.3737 13.0441 20.117 12.6133 19.3928L12.5125 19.2187C11.6875 17.7795 10.3308 17.7795 9.49665 19.2187L9.39581 19.3928C8.96498 20.117 8.02998 20.3737 7.30581 19.9428L5.71998 19.0353C4.88581 18.5587 4.60165 17.4862 5.07831 16.6612C5.91248 15.222 5.23415 14.0487 3.57498 14.0487C2.61248 14.0487 1.83331 13.2603 1.83331 12.307Z" stroke="#23213D" strokeWidth="1.375" strokeMiterlimit="10" strokeLinecap="round" strokeLinejoin="round"/>
</svg>
