<svg width="20" height="12" viewBox="0 0 20 12" fill="none" xmlns="http://www.w3.org/2000/svg">
<path d="M10.7804 11.5557L19.6805 2.65543C19.8865 2.44957 20 2.17478 20 1.88177C20 1.58877 19.8865 1.31397 19.6805 1.10812L19.0252 0.45268C18.5982 0.0261796 17.9042 0.0261796 17.4779 0.45268L10.0041 7.92644L2.52209 0.444387C2.31608 0.238535 2.04145 0.124877 1.7486 0.124877C1.45544 0.124877 1.1808 0.238535 0.974627 0.444387L0.319509 1.09983C0.113495 1.30584 1.84372e-06 1.58048 1.83091e-06 1.87348C1.81811e-06 2.16649 0.113495 2.44128 0.319509 2.64713L9.22773 11.5557C9.4344 11.762 9.71033 11.8754 10.0037 11.8747C10.2981 11.8754 10.5739 11.762 10.7804 11.5557Z" fill="#4B5563"/>
</svg>
