<svg xmlns="http://www.w3.org/2000/svg" width="27" height="26" viewBox="0 0 27 26" fill="none">
  <path d="M23.2632 6.47831C19.6557 6.12081 16.0265 5.93665 12.4082 5.93665C10.2632 5.93665 8.11818 6.04498 5.97318 6.26165L3.76318 6.47831" stroke="#E12B1B" stroke-width="2" stroke-linecap="round" stroke-linejoin="round"/>
  <path d="M9.72144 5.38413L9.95977 3.96496C10.1331 2.93579 10.2631 2.16663 12.0939 2.16663H14.9323C16.7631 2.16663 16.9039 2.97913 17.0664 3.97579L17.3048 5.38413" stroke="#E12B1B" stroke-width="2" stroke-linecap="round" stroke-linejoin="round"/>
  <path d="M20.934 9.90173L20.2298 20.8109C20.1106 22.5117 20.0131 23.8334 16.9906 23.8334H10.0356C7.01312 23.8334 6.91562 22.5117 6.79645 20.8109L6.09229 9.90173" stroke="#E12B1B" stroke-width="2" stroke-linecap="round" stroke-linejoin="round"/>
  <path d="M11.7041 17.875H15.3116" stroke="#E12B1B" stroke-width="2" stroke-linecap="round" stroke-linejoin="round"/>
  <path d="M10.8049 13.5416H16.2216" stroke="#E12B1B" stroke-width="2" stroke-linecap="round" stroke-linejoin="round"/>
</svg>