<svg width="26" height="26" viewBox="0 0 26 26" fill="none" xmlns="http://www.w3.org/2000/svg">
<path d="M24.8581 15.0665L23.7765 14.1761C23.0356 13.5662 23.0369 12.4326 23.7765 11.8239L24.8581 10.9335C25.6278 10.2998 25.8247 9.21314 25.3262 8.34961L23.1905 4.65039C22.6919 3.78691 21.6522 3.41418 20.7187 3.76386L19.4068 4.25537C18.5082 4.59195 17.5271 4.02426 17.3696 3.07922L17.1393 1.69726C16.9754 0.713832 16.1328 0 15.1357 0H10.8643C9.86718 0 9.02452 0.713832 8.86065 1.69731L8.6303 3.07922C8.47253 4.02594 7.49011 4.59139 6.59316 4.25542L5.28123 3.76386C4.34772 3.41418 3.30812 3.78696 2.8095 4.65039L0.673795 8.34955C0.175275 9.21299 0.372104 10.2997 1.1419 10.9334L2.22349 11.8238C2.96449 12.4338 2.96301 13.5673 2.22349 14.1761L1.14185 15.0665C0.372104 15.7002 0.175225 16.7869 0.673744 17.6503L2.8095 21.3496C3.30807 22.213 4.34746 22.5858 5.28123 22.2361L6.59311 21.7446C7.49189 21.4079 8.47278 21.9759 8.63025 22.9207L8.8606 24.3026C9.02452 25.2862 9.86718 26 10.8642 26H15.1357C16.1327 26 16.9754 25.2862 17.1393 24.3027L17.3696 22.9208C17.5273 21.9744 18.5096 21.4085 19.4067 21.7447L20.7187 22.2361C21.6524 22.5859 22.6919 22.2131 23.1905 21.3496L25.3263 17.6503C25.8247 16.7869 25.6278 15.7002 24.8581 15.0665ZM21.4313 20.334L20.1194 19.8425C18.0222 19.0568 15.7334 20.3823 15.366 22.5868L15.1357 23.9688H10.8643L10.6339 22.5868C10.2658 20.378 7.9737 19.0584 5.88055 19.8425L4.56862 20.334L2.43291 16.6348L3.5145 15.7444C5.24355 14.321 5.23994 11.6761 3.5145 10.2556L2.43291 9.36523L4.56867 5.66602L5.88055 6.15753C7.97781 6.94312 10.2665 5.61773 10.6339 3.41316L10.8642 2.03125H15.1357L15.366 3.41316C15.7341 5.62225 18.0264 6.94149 20.1194 6.15753L21.4313 5.66602L23.5675 9.36472C23.5675 9.36472 23.5674 9.36487 23.5669 9.36518L22.4854 10.2556C20.7564 11.6789 20.7599 14.3238 22.4854 15.7443L23.567 16.6347L21.4313 20.334ZM13 7.98957C10.2372 7.98957 7.98954 10.2372 7.98954 13C7.98954 15.7628 10.2372 18.0104 13 18.0104C15.7627 18.0104 18.0104 15.7628 18.0104 13C18.0104 10.2372 15.7627 7.98957 13 7.98957ZM13 15.9792C11.3573 15.9792 10.0208 14.6427 10.0208 13C10.0208 11.3573 11.3573 10.0208 13 10.0208C14.6427 10.0208 15.9792 11.3573 15.9792 13C15.9792 14.6427 14.6427 15.9792 13 15.9792Z" fill="#4B5563"/>
</svg>
